<?xml version="1.0" encoding="UTF-8" standalone="no"?>
<!-- This is a Stata 18.0 generated SVG file (http://www.stata.com) -->

<svg version="1.1" width="7.500in" height="4.500in" viewBox="0 0 5400 3240" xmlns="http://www.w3.org/2000/svg" xmlns:xlink="http://www.w3.org/1999/xlink">
	<desc>Stata Graph - Graph</desc>
	<rect x="0" y="0" width="5400" height="3240" style="fill:#FFFFFF;stroke:none"/>
	<rect x="0.00" y="0.00" width="5400.00" height="3240.00" style="fill:#FFFFFF"/>
	<rect x="3.24" y="3.24" width="5393.52" height="3233.52" style="fill:none;stroke:#FFFFFF;stroke-width:6.48"/>
	<rect x="450.90" y="113.40" width="4835.70" height="2675.70" style="fill:#FFFFFF"/>
	<rect x="454.14" y="116.64" width="4829.22" height="2669.22" style="fill:none;stroke:#FFFFFF;stroke-width:6.48"/>
	<line x1="450.90" y1="2717.89" x2="515.70" y2="2717.89" style="stroke:#F0F0F0;stroke-width:9.72"/>
	<line x1="548.10" y1="2717.89" x2="612.90" y2="2717.89" style="stroke:#F0F0F0;stroke-width:9.72"/>
	<line x1="645.30" y1="2717.89" x2="710.10" y2="2717.89" style="stroke:#F0F0F0;stroke-width:9.72"/>
	<line x1="742.50" y1="2717.89" x2="807.30" y2="2717.89" style="stroke:#F0F0F0;stroke-width:9.72"/>
	<line x1="839.70" y1="2717.89" x2="904.50" y2="2717.89" style="stroke:#F0F0F0;stroke-width:9.72"/>
	<line x1="936.90" y1="2717.89" x2="1001.70" y2="2717.89" style="stroke:#F0F0F0;stroke-width:9.72"/>
	<line x1="1034.10" y1="2717.89" x2="1098.90" y2="2717.89" style="stroke:#F0F0F0;stroke-width:9.72"/>
	<line x1="1131.30" y1="2717.89" x2="1196.10" y2="2717.89" style="stroke:#F0F0F0;stroke-width:9.72"/>
	<line x1="1228.50" y1="2717.89" x2="1293.30" y2="2717.89" style="stroke:#F0F0F0;stroke-width:9.72"/>
	<line x1="1325.70" y1="2717.89" x2="1390.50" y2="2717.89" style="stroke:#F0F0F0;stroke-width:9.72"/>
	<line x1="1422.90" y1="2717.89" x2="1487.70" y2="2717.89" style="stroke:#F0F0F0;stroke-width:9.72"/>
	<line x1="1520.10" y1="2717.89" x2="1584.90" y2="2717.89" style="stroke:#F0F0F0;stroke-width:9.72"/>
	<line x1="1617.30" y1="2717.89" x2="1682.10" y2="2717.89" style="stroke:#F0F0F0;stroke-width:9.72"/>
	<line x1="1714.50" y1="2717.89" x2="1779.30" y2="2717.89" style="stroke:#F0F0F0;stroke-width:9.72"/>
	<line x1="1811.70" y1="2717.89" x2="1876.50" y2="2717.89" style="stroke:#F0F0F0;stroke-width:9.72"/>
	<line x1="1908.90" y1="2717.89" x2="1973.70" y2="2717.89" style="stroke:#F0F0F0;stroke-width:9.72"/>
	<line x1="2006.10" y1="2717.89" x2="2070.90" y2="2717.89" style="stroke:#F0F0F0;stroke-width:9.72"/>
	<line x1="2103.30" y1="2717.89" x2="2168.10" y2="2717.89" style="stroke:#F0F0F0;stroke-width:9.72"/>
	<line x1="2200.50" y1="2717.89" x2="2265.30" y2="2717.89" style="stroke:#F0F0F0;stroke-width:9.72"/>
	<line x1="2297.70" y1="2717.89" x2="2362.50" y2="2717.89" style="stroke:#F0F0F0;stroke-width:9.72"/>
	<line x1="2394.90" y1="2717.89" x2="2459.70" y2="2717.89" style="stroke:#F0F0F0;stroke-width:9.72"/>
	<line x1="2492.10" y1="2717.89" x2="2556.90" y2="2717.89" style="stroke:#F0F0F0;stroke-width:9.72"/>
	<line x1="2589.30" y1="2717.89" x2="2654.10" y2="2717.89" style="stroke:#F0F0F0;stroke-width:9.72"/>
	<line x1="2686.50" y1="2717.89" x2="2751.30" y2="2717.89" style="stroke:#F0F0F0;stroke-width:9.72"/>
	<line x1="2783.70" y1="2717.89" x2="2848.50" y2="2717.89" style="stroke:#F0F0F0;stroke-width:9.72"/>
	<line x1="2880.90" y1="2717.89" x2="2945.70" y2="2717.89" style="stroke:#F0F0F0;stroke-width:9.72"/>
	<line x1="2978.10" y1="2717.89" x2="3042.90" y2="2717.89" style="stroke:#F0F0F0;stroke-width:9.72"/>
	<line x1="3075.30" y1="2717.89" x2="3140.10" y2="2717.89" style="stroke:#F0F0F0;stroke-width:9.72"/>
	<line x1="3172.50" y1="2717.89" x2="3237.30" y2="2717.89" style="stroke:#F0F0F0;stroke-width:9.72"/>
	<line x1="3269.70" y1="2717.89" x2="3334.50" y2="2717.89" style="stroke:#F0F0F0;stroke-width:9.72"/>
	<line x1="3366.90" y1="2717.89" x2="3431.70" y2="2717.89" style="stroke:#F0F0F0;stroke-width:9.72"/>
	<line x1="3464.10" y1="2717.89" x2="3528.90" y2="2717.89" style="stroke:#F0F0F0;stroke-width:9.72"/>
	<line x1="3561.30" y1="2717.89" x2="3626.10" y2="2717.89" style="stroke:#F0F0F0;stroke-width:9.72"/>
	<line x1="3658.50" y1="2717.89" x2="3723.30" y2="2717.89" style="stroke:#F0F0F0;stroke-width:9.72"/>
	<line x1="3755.70" y1="2717.89" x2="3820.50" y2="2717.89" style="stroke:#F0F0F0;stroke-width:9.72"/>
	<line x1="3852.90" y1="2717.89" x2="3917.70" y2="2717.89" style="stroke:#F0F0F0;stroke-width:9.72"/>
	<line x1="3950.10" y1="2717.89" x2="4014.90" y2="2717.89" style="stroke:#F0F0F0;stroke-width:9.72"/>
	<line x1="4047.30" y1="2717.89" x2="4112.10" y2="2717.89" style="stroke:#F0F0F0;stroke-width:9.72"/>
	<line x1="4144.50" y1="2717.89" x2="4209.30" y2="2717.89" style="stroke:#F0F0F0;stroke-width:9.72"/>
	<line x1="4241.70" y1="2717.89" x2="4306.50" y2="2717.89" style="stroke:#F0F0F0;stroke-width:9.72"/>
	<line x1="4338.90" y1="2717.89" x2="4403.70" y2="2717.89" style="stroke:#F0F0F0;stroke-width:9.72"/>
	<line x1="4436.10" y1="2717.89" x2="4500.90" y2="2717.89" style="stroke:#F0F0F0;stroke-width:9.72"/>
	<line x1="4533.30" y1="2717.89" x2="4598.10" y2="2717.89" style="stroke:#F0F0F0;stroke-width:9.72"/>
	<line x1="4630.50" y1="2717.89" x2="4695.30" y2="2717.89" style="stroke:#F0F0F0;stroke-width:9.72"/>
	<line x1="4727.70" y1="2717.89" x2="4792.50" y2="2717.89" style="stroke:#F0F0F0;stroke-width:9.72"/>
	<line x1="4824.90" y1="2717.89" x2="4889.70" y2="2717.89" style="stroke:#F0F0F0;stroke-width:9.72"/>
	<line x1="4922.10" y1="2717.89" x2="4986.90" y2="2717.89" style="stroke:#F0F0F0;stroke-width:9.72"/>
	<line x1="5019.30" y1="2717.89" x2="5084.10" y2="2717.89" style="stroke:#F0F0F0;stroke-width:9.72"/>
	<line x1="5116.50" y1="2717.89" x2="5181.30" y2="2717.89" style="stroke:#F0F0F0;stroke-width:9.72"/>
	<line x1="5213.70" y1="2717.89" x2="5278.50" y2="2717.89" style="stroke:#F0F0F0;stroke-width:9.72"/>
	<line x1="450.90" y1="2211.30" x2="515.70" y2="2211.30" style="stroke:#F0F0F0;stroke-width:9.72"/>
	<line x1="548.10" y1="2211.30" x2="612.90" y2="2211.30" style="stroke:#F0F0F0;stroke-width:9.72"/>
	<line x1="645.30" y1="2211.30" x2="710.10" y2="2211.30" style="stroke:#F0F0F0;stroke-width:9.72"/>
	<line x1="742.50" y1="2211.30" x2="807.30" y2="2211.30" style="stroke:#F0F0F0;stroke-width:9.72"/>
	<line x1="839.70" y1="2211.30" x2="904.50" y2="2211.30" style="stroke:#F0F0F0;stroke-width:9.72"/>
	<line x1="936.90" y1="2211.30" x2="1001.70" y2="2211.30" style="stroke:#F0F0F0;stroke-width:9.72"/>
	<line x1="1034.10" y1="2211.30" x2="1098.90" y2="2211.30" style="stroke:#F0F0F0;stroke-width:9.72"/>
	<line x1="1131.30" y1="2211.30" x2="1196.10" y2="2211.30" style="stroke:#F0F0F0;stroke-width:9.72"/>
	<line x1="1228.50" y1="2211.30" x2="1293.30" y2="2211.30" style="stroke:#F0F0F0;stroke-width:9.72"/>
	<line x1="1325.70" y1="2211.30" x2="1390.50" y2="2211.30" style="stroke:#F0F0F0;stroke-width:9.72"/>
	<line x1="1422.90" y1="2211.30" x2="1487.70" y2="2211.30" style="stroke:#F0F0F0;stroke-width:9.72"/>
	<line x1="1520.10" y1="2211.30" x2="1584.90" y2="2211.30" style="stroke:#F0F0F0;stroke-width:9.72"/>
	<line x1="1617.30" y1="2211.30" x2="1682.10" y2="2211.30" style="stroke:#F0F0F0;stroke-width:9.72"/>
	<line x1="1714.50" y1="2211.30" x2="1779.30" y2="2211.30" style="stroke:#F0F0F0;stroke-width:9.72"/>
	<line x1="1811.70" y1="2211.30" x2="1876.50" y2="2211.30" style="stroke:#F0F0F0;stroke-width:9.72"/>
	<line x1="1908.90" y1="2211.30" x2="1973.70" y2="2211.30" style="stroke:#F0F0F0;stroke-width:9.72"/>
	<line x1="2006.10" y1="2211.30" x2="2070.90" y2="2211.30" style="stroke:#F0F0F0;stroke-width:9.72"/>
	<line x1="2103.30" y1="2211.30" x2="2168.10" y2="2211.30" style="stroke:#F0F0F0;stroke-width:9.72"/>
	<line x1="2200.50" y1="2211.30" x2="2265.30" y2="2211.30" style="stroke:#F0F0F0;stroke-width:9.72"/>
	<line x1="2297.70" y1="2211.30" x2="2362.50" y2="2211.30" style="stroke:#F0F0F0;stroke-width:9.72"/>
	<line x1="2394.90" y1="2211.30" x2="2459.70" y2="2211.30" style="stroke:#F0F0F0;stroke-width:9.72"/>
	<line x1="2492.10" y1="2211.30" x2="2556.90" y2="2211.30" style="stroke:#F0F0F0;stroke-width:9.72"/>
	<line x1="2589.30" y1="2211.30" x2="2654.10" y2="2211.30" style="stroke:#F0F0F0;stroke-width:9.72"/>
	<line x1="2686.50" y1="2211.30" x2="2751.30" y2="2211.30" style="stroke:#F0F0F0;stroke-width:9.72"/>
	<line x1="2783.70" y1="2211.30" x2="2848.50" y2="2211.30" style="stroke:#F0F0F0;stroke-width:9.72"/>
	<line x1="2880.90" y1="2211.30" x2="2945.70" y2="2211.30" style="stroke:#F0F0F0;stroke-width:9.72"/>
	<line x1="2978.10" y1="2211.30" x2="3042.90" y2="2211.30" style="stroke:#F0F0F0;stroke-width:9.72"/>
	<line x1="3075.30" y1="2211.30" x2="3140.10" y2="2211.30" style="stroke:#F0F0F0;stroke-width:9.72"/>
	<line x1="3172.50" y1="2211.30" x2="3237.30" y2="2211.30" style="stroke:#F0F0F0;stroke-width:9.72"/>
	<line x1="3269.70" y1="2211.30" x2="3334.50" y2="2211.30" style="stroke:#F0F0F0;stroke-width:9.72"/>
	<line x1="3366.90" y1="2211.30" x2="3431.70" y2="2211.30" style="stroke:#F0F0F0;stroke-width:9.72"/>
	<line x1="3464.10" y1="2211.30" x2="3528.90" y2="2211.30" style="stroke:#F0F0F0;stroke-width:9.72"/>
	<line x1="3561.30" y1="2211.30" x2="3626.10" y2="2211.30" style="stroke:#F0F0F0;stroke-width:9.72"/>
	<line x1="3658.50" y1="2211.30" x2="3723.30" y2="2211.30" style="stroke:#F0F0F0;stroke-width:9.72"/>
	<line x1="3755.70" y1="2211.30" x2="3820.50" y2="2211.30" style="stroke:#F0F0F0;stroke-width:9.72"/>
	<line x1="3852.90" y1="2211.30" x2="3917.70" y2="2211.30" style="stroke:#F0F0F0;stroke-width:9.72"/>
	<line x1="3950.10" y1="2211.30" x2="4014.90" y2="2211.30" style="stroke:#F0F0F0;stroke-width:9.72"/>
	<line x1="4047.30" y1="2211.30" x2="4112.10" y2="2211.30" style="stroke:#F0F0F0;stroke-width:9.72"/>
	<line x1="4144.50" y1="2211.30" x2="4209.30" y2="2211.30" style="stroke:#F0F0F0;stroke-width:9.72"/>
	<line x1="4241.70" y1="2211.30" x2="4306.50" y2="2211.30" style="stroke:#F0F0F0;stroke-width:9.72"/>
	<line x1="4338.90" y1="2211.30" x2="4403.70" y2="2211.30" style="stroke:#F0F0F0;stroke-width:9.72"/>
	<line x1="4436.10" y1="2211.30" x2="4500.90" y2="2211.30" style="stroke:#F0F0F0;stroke-width:9.72"/>
	<line x1="4533.30" y1="2211.30" x2="4598.10" y2="2211.30" style="stroke:#F0F0F0;stroke-width:9.72"/>
	<line x1="4630.50" y1="2211.30" x2="4695.30" y2="2211.30" style="stroke:#F0F0F0;stroke-width:9.72"/>
	<line x1="4727.70" y1="2211.30" x2="4792.50" y2="2211.30" style="stroke:#F0F0F0;stroke-width:9.72"/>
	<line x1="4824.90" y1="2211.30" x2="4889.70" y2="2211.30" style="stroke:#F0F0F0;stroke-width:9.72"/>
	<line x1="4922.10" y1="2211.30" x2="4986.90" y2="2211.30" style="stroke:#F0F0F0;stroke-width:9.72"/>
	<line x1="5019.30" y1="2211.30" x2="5084.10" y2="2211.30" style="stroke:#F0F0F0;stroke-width:9.72"/>
	<line x1="5116.50" y1="2211.30" x2="5181.30" y2="2211.30" style="stroke:#F0F0F0;stroke-width:9.72"/>
	<line x1="5213.70" y1="2211.30" x2="5278.50" y2="2211.30" style="stroke:#F0F0F0;stroke-width:9.72"/>
	<line x1="450.90" y1="1704.54" x2="515.70" y2="1704.54" style="stroke:#F0F0F0;stroke-width:9.72"/>
	<line x1="548.10" y1="1704.54" x2="612.90" y2="1704.54" style="stroke:#F0F0F0;stroke-width:9.72"/>
	<line x1="645.30" y1="1704.54" x2="710.10" y2="1704.54" style="stroke:#F0F0F0;stroke-width:9.72"/>
	<line x1="742.50" y1="1704.54" x2="807.30" y2="1704.54" style="stroke:#F0F0F0;stroke-width:9.72"/>
	<line x1="839.70" y1="1704.54" x2="904.50" y2="1704.54" style="stroke:#F0F0F0;stroke-width:9.72"/>
	<line x1="936.90" y1="1704.54" x2="1001.70" y2="1704.54" style="stroke:#F0F0F0;stroke-width:9.72"/>
	<line x1="1034.10" y1="1704.54" x2="1098.90" y2="1704.54" style="stroke:#F0F0F0;stroke-width:9.72"/>
	<line x1="1131.30" y1="1704.54" x2="1196.10" y2="1704.54" style="stroke:#F0F0F0;stroke-width:9.72"/>
	<line x1="1228.50" y1="1704.54" x2="1293.30" y2="1704.54" style="stroke:#F0F0F0;stroke-width:9.72"/>
	<line x1="1325.70" y1="1704.54" x2="1390.50" y2="1704.54" style="stroke:#F0F0F0;stroke-width:9.72"/>
	<line x1="1422.90" y1="1704.54" x2="1487.70" y2="1704.54" style="stroke:#F0F0F0;stroke-width:9.72"/>
	<line x1="1520.10" y1="1704.54" x2="1584.90" y2="1704.54" style="stroke:#F0F0F0;stroke-width:9.72"/>
	<line x1="1617.30" y1="1704.54" x2="1682.10" y2="1704.54" style="stroke:#F0F0F0;stroke-width:9.72"/>
	<line x1="1714.50" y1="1704.54" x2="1779.30" y2="1704.54" style="stroke:#F0F0F0;stroke-width:9.72"/>
	<line x1="1811.70" y1="1704.54" x2="1876.50" y2="1704.54" style="stroke:#F0F0F0;stroke-width:9.72"/>
	<line x1="1908.90" y1="1704.54" x2="1973.70" y2="1704.54" style="stroke:#F0F0F0;stroke-width:9.72"/>
	<line x1="2006.10" y1="1704.54" x2="2070.90" y2="1704.54" style="stroke:#F0F0F0;stroke-width:9.72"/>
	<line x1="2103.30" y1="1704.54" x2="2168.10" y2="1704.54" style="stroke:#F0F0F0;stroke-width:9.72"/>
	<line x1="2200.50" y1="1704.54" x2="2265.30" y2="1704.54" style="stroke:#F0F0F0;stroke-width:9.72"/>
	<line x1="2297.70" y1="1704.54" x2="2362.50" y2="1704.54" style="stroke:#F0F0F0;stroke-width:9.72"/>
	<line x1="2394.90" y1="1704.54" x2="2459.70" y2="1704.54" style="stroke:#F0F0F0;stroke-width:9.72"/>
	<line x1="2492.10" y1="1704.54" x2="2556.90" y2="1704.54" style="stroke:#F0F0F0;stroke-width:9.72"/>
	<line x1="2589.30" y1="1704.54" x2="2654.10" y2="1704.54" style="stroke:#F0F0F0;stroke-width:9.72"/>
	<line x1="2686.50" y1="1704.54" x2="2751.30" y2="1704.54" style="stroke:#F0F0F0;stroke-width:9.72"/>
	<line x1="2783.70" y1="1704.54" x2="2848.50" y2="1704.54" style="stroke:#F0F0F0;stroke-width:9.72"/>
	<line x1="2880.90" y1="1704.54" x2="2945.70" y2="1704.54" style="stroke:#F0F0F0;stroke-width:9.72"/>
	<line x1="2978.10" y1="1704.54" x2="3042.90" y2="1704.54" style="stroke:#F0F0F0;stroke-width:9.72"/>
	<line x1="3075.30" y1="1704.54" x2="3140.10" y2="1704.54" style="stroke:#F0F0F0;stroke-width:9.72"/>
	<line x1="3172.50" y1="1704.54" x2="3237.30" y2="1704.54" style="stroke:#F0F0F0;stroke-width:9.72"/>
	<line x1="3269.70" y1="1704.54" x2="3334.50" y2="1704.54" style="stroke:#F0F0F0;stroke-width:9.72"/>
	<line x1="3366.90" y1="1704.54" x2="3431.70" y2="1704.54" style="stroke:#F0F0F0;stroke-width:9.72"/>
	<line x1="3464.10" y1="1704.54" x2="3528.90" y2="1704.54" style="stroke:#F0F0F0;stroke-width:9.72"/>
	<line x1="3561.30" y1="1704.54" x2="3626.10" y2="1704.54" style="stroke:#F0F0F0;stroke-width:9.72"/>
	<line x1="3658.50" y1="1704.54" x2="3723.30" y2="1704.54" style="stroke:#F0F0F0;stroke-width:9.72"/>
	<line x1="3755.70" y1="1704.54" x2="3820.50" y2="1704.54" style="stroke:#F0F0F0;stroke-width:9.72"/>
	<line x1="3852.90" y1="1704.54" x2="3917.70" y2="1704.54" style="stroke:#F0F0F0;stroke-width:9.72"/>
	<line x1="3950.10" y1="1704.54" x2="4014.90" y2="1704.54" style="stroke:#F0F0F0;stroke-width:9.72"/>
	<line x1="4047.30" y1="1704.54" x2="4112.10" y2="1704.54" style="stroke:#F0F0F0;stroke-width:9.72"/>
	<line x1="4144.50" y1="1704.54" x2="4209.30" y2="1704.54" style="stroke:#F0F0F0;stroke-width:9.72"/>
	<line x1="4241.70" y1="1704.54" x2="4306.50" y2="1704.54" style="stroke:#F0F0F0;stroke-width:9.72"/>
	<line x1="4338.90" y1="1704.54" x2="4403.70" y2="1704.54" style="stroke:#F0F0F0;stroke-width:9.72"/>
	<line x1="4436.10" y1="1704.54" x2="4500.90" y2="1704.54" style="stroke:#F0F0F0;stroke-width:9.72"/>
	<line x1="4533.30" y1="1704.54" x2="4598.10" y2="1704.54" style="stroke:#F0F0F0;stroke-width:9.72"/>
	<line x1="4630.50" y1="1704.54" x2="4695.30" y2="1704.54" style="stroke:#F0F0F0;stroke-width:9.72"/>
	<line x1="4727.70" y1="1704.54" x2="4792.50" y2="1704.54" style="stroke:#F0F0F0;stroke-width:9.72"/>
	<line x1="4824.90" y1="1704.54" x2="4889.70" y2="1704.54" style="stroke:#F0F0F0;stroke-width:9.72"/>
	<line x1="4922.10" y1="1704.54" x2="4986.90" y2="1704.54" style="stroke:#F0F0F0;stroke-width:9.72"/>
	<line x1="5019.30" y1="1704.54" x2="5084.10" y2="1704.54" style="stroke:#F0F0F0;stroke-width:9.72"/>
	<line x1="5116.50" y1="1704.54" x2="5181.30" y2="1704.54" style="stroke:#F0F0F0;stroke-width:9.72"/>
	<line x1="5213.70" y1="1704.54" x2="5278.50" y2="1704.54" style="stroke:#F0F0F0;stroke-width:9.72"/>
	<line x1="450.90" y1="1197.96" x2="515.70" y2="1197.96" style="stroke:#F0F0F0;stroke-width:9.72"/>
	<line x1="548.10" y1="1197.96" x2="612.90" y2="1197.96" style="stroke:#F0F0F0;stroke-width:9.72"/>
	<line x1="645.30" y1="1197.96" x2="710.10" y2="1197.96" style="stroke:#F0F0F0;stroke-width:9.72"/>
	<line x1="742.50" y1="1197.96" x2="807.30" y2="1197.96" style="stroke:#F0F0F0;stroke-width:9.72"/>
	<line x1="839.70" y1="1197.96" x2="904.50" y2="1197.96" style="stroke:#F0F0F0;stroke-width:9.72"/>
	<line x1="936.90" y1="1197.96" x2="1001.70" y2="1197.96" style="stroke:#F0F0F0;stroke-width:9.72"/>
	<line x1="1034.10" y1="1197.96" x2="1098.90" y2="1197.96" style="stroke:#F0F0F0;stroke-width:9.72"/>
	<line x1="1131.30" y1="1197.96" x2="1196.10" y2="1197.96" style="stroke:#F0F0F0;stroke-width:9.72"/>
	<line x1="1228.50" y1="1197.96" x2="1293.30" y2="1197.96" style="stroke:#F0F0F0;stroke-width:9.72"/>
	<line x1="1325.70" y1="1197.96" x2="1390.50" y2="1197.96" style="stroke:#F0F0F0;stroke-width:9.72"/>
	<line x1="1422.90" y1="1197.96" x2="1487.70" y2="1197.96" style="stroke:#F0F0F0;stroke-width:9.72"/>
	<line x1="1520.10" y1="1197.96" x2="1584.90" y2="1197.96" style="stroke:#F0F0F0;stroke-width:9.72"/>
	<line x1="1617.30" y1="1197.96" x2="1682.10" y2="1197.96" style="stroke:#F0F0F0;stroke-width:9.72"/>
	<line x1="1714.50" y1="1197.96" x2="1779.30" y2="1197.96" style="stroke:#F0F0F0;stroke-width:9.72"/>
	<line x1="1811.70" y1="1197.96" x2="1876.50" y2="1197.96" style="stroke:#F0F0F0;stroke-width:9.72"/>
	<line x1="1908.90" y1="1197.96" x2="1973.70" y2="1197.96" style="stroke:#F0F0F0;stroke-width:9.72"/>
	<line x1="2006.10" y1="1197.96" x2="2070.90" y2="1197.96" style="stroke:#F0F0F0;stroke-width:9.72"/>
	<line x1="2103.30" y1="1197.96" x2="2168.10" y2="1197.96" style="stroke:#F0F0F0;stroke-width:9.72"/>
	<line x1="2200.50" y1="1197.96" x2="2265.30" y2="1197.96" style="stroke:#F0F0F0;stroke-width:9.72"/>
	<line x1="2297.70" y1="1197.96" x2="2362.50" y2="1197.96" style="stroke:#F0F0F0;stroke-width:9.72"/>
	<line x1="2394.90" y1="1197.96" x2="2459.70" y2="1197.96" style="stroke:#F0F0F0;stroke-width:9.72"/>
	<line x1="2492.10" y1="1197.96" x2="2556.90" y2="1197.96" style="stroke:#F0F0F0;stroke-width:9.72"/>
	<line x1="2589.30" y1="1197.96" x2="2654.10" y2="1197.96" style="stroke:#F0F0F0;stroke-width:9.72"/>
	<line x1="2686.50" y1="1197.96" x2="2751.30" y2="1197.96" style="stroke:#F0F0F0;stroke-width:9.72"/>
	<line x1="2783.70" y1="1197.96" x2="2848.50" y2="1197.96" style="stroke:#F0F0F0;stroke-width:9.72"/>
	<line x1="2880.90" y1="1197.96" x2="2945.70" y2="1197.96" style="stroke:#F0F0F0;stroke-width:9.72"/>
	<line x1="2978.10" y1="1197.96" x2="3042.90" y2="1197.96" style="stroke:#F0F0F0;stroke-width:9.72"/>
	<line x1="3075.30" y1="1197.96" x2="3140.10" y2="1197.96" style="stroke:#F0F0F0;stroke-width:9.72"/>
	<line x1="3172.50" y1="1197.96" x2="3237.30" y2="1197.96" style="stroke:#F0F0F0;stroke-width:9.72"/>
	<line x1="3269.70" y1="1197.96" x2="3334.50" y2="1197.96" style="stroke:#F0F0F0;stroke-width:9.72"/>
	<line x1="3366.90" y1="1197.96" x2="3431.70" y2="1197.96" style="stroke:#F0F0F0;stroke-width:9.72"/>
	<line x1="3464.10" y1="1197.96" x2="3528.90" y2="1197.96" style="stroke:#F0F0F0;stroke-width:9.72"/>
	<line x1="3561.30" y1="1197.96" x2="3626.10" y2="1197.96" style="stroke:#F0F0F0;stroke-width:9.72"/>
	<line x1="3658.50" y1="1197.96" x2="3723.30" y2="1197.96" style="stroke:#F0F0F0;stroke-width:9.72"/>
	<line x1="3755.70" y1="1197.96" x2="3820.50" y2="1197.96" style="stroke:#F0F0F0;stroke-width:9.72"/>
	<line x1="3852.90" y1="1197.96" x2="3917.70" y2="1197.96" style="stroke:#F0F0F0;stroke-width:9.72"/>
	<line x1="3950.10" y1="1197.96" x2="4014.90" y2="1197.96" style="stroke:#F0F0F0;stroke-width:9.72"/>
	<line x1="4047.30" y1="1197.96" x2="4112.10" y2="1197.96" style="stroke:#F0F0F0;stroke-width:9.72"/>
	<line x1="4144.50" y1="1197.96" x2="4209.30" y2="1197.96" style="stroke:#F0F0F0;stroke-width:9.72"/>
	<line x1="4241.70" y1="1197.96" x2="4306.50" y2="1197.96" style="stroke:#F0F0F0;stroke-width:9.72"/>
	<line x1="4338.90" y1="1197.96" x2="4403.70" y2="1197.96" style="stroke:#F0F0F0;stroke-width:9.72"/>
	<line x1="4436.10" y1="1197.96" x2="4500.90" y2="1197.96" style="stroke:#F0F0F0;stroke-width:9.72"/>
	<line x1="4533.30" y1="1197.96" x2="4598.10" y2="1197.96" style="stroke:#F0F0F0;stroke-width:9.72"/>
	<line x1="4630.50" y1="1197.96" x2="4695.30" y2="1197.96" style="stroke:#F0F0F0;stroke-width:9.72"/>
	<line x1="4727.70" y1="1197.96" x2="4792.50" y2="1197.96" style="stroke:#F0F0F0;stroke-width:9.72"/>
	<line x1="4824.90" y1="1197.96" x2="4889.70" y2="1197.96" style="stroke:#F0F0F0;stroke-width:9.72"/>
	<line x1="4922.10" y1="1197.96" x2="4986.90" y2="1197.96" style="stroke:#F0F0F0;stroke-width:9.72"/>
	<line x1="5019.30" y1="1197.96" x2="5084.10" y2="1197.96" style="stroke:#F0F0F0;stroke-width:9.72"/>
	<line x1="5116.50" y1="1197.96" x2="5181.30" y2="1197.96" style="stroke:#F0F0F0;stroke-width:9.72"/>
	<line x1="5213.70" y1="1197.96" x2="5278.50" y2="1197.96" style="stroke:#F0F0F0;stroke-width:9.72"/>
	<line x1="450.90" y1="691.37" x2="515.70" y2="691.37" style="stroke:#F0F0F0;stroke-width:9.72"/>
	<line x1="548.10" y1="691.37" x2="612.90" y2="691.37" style="stroke:#F0F0F0;stroke-width:9.72"/>
	<line x1="645.30" y1="691.37" x2="710.10" y2="691.37" style="stroke:#F0F0F0;stroke-width:9.72"/>
	<line x1="742.50" y1="691.37" x2="807.30" y2="691.37" style="stroke:#F0F0F0;stroke-width:9.72"/>
	<line x1="839.70" y1="691.37" x2="904.50" y2="691.37" style="stroke:#F0F0F0;stroke-width:9.72"/>
	<line x1="936.90" y1="691.37" x2="1001.70" y2="691.37" style="stroke:#F0F0F0;stroke-width:9.72"/>
	<line x1="1034.10" y1="691.37" x2="1098.90" y2="691.37" style="stroke:#F0F0F0;stroke-width:9.72"/>
	<line x1="1131.30" y1="691.37" x2="1196.10" y2="691.37" style="stroke:#F0F0F0;stroke-width:9.72"/>
	<line x1="1228.50" y1="691.37" x2="1293.30" y2="691.37" style="stroke:#F0F0F0;stroke-width:9.72"/>
	<line x1="1325.70" y1="691.37" x2="1390.50" y2="691.37" style="stroke:#F0F0F0;stroke-width:9.72"/>
	<line x1="1422.90" y1="691.37" x2="1487.70" y2="691.37" style="stroke:#F0F0F0;stroke-width:9.72"/>
	<line x1="1520.10" y1="691.37" x2="1584.90" y2="691.37" style="stroke:#F0F0F0;stroke-width:9.72"/>
	<line x1="1617.30" y1="691.37" x2="1682.10" y2="691.37" style="stroke:#F0F0F0;stroke-width:9.72"/>
	<line x1="1714.50" y1="691.37" x2="1779.30" y2="691.37" style="stroke:#F0F0F0;stroke-width:9.72"/>
	<line x1="1811.70" y1="691.37" x2="1876.50" y2="691.37" style="stroke:#F0F0F0;stroke-width:9.72"/>
	<line x1="1908.90" y1="691.37" x2="1973.70" y2="691.37" style="stroke:#F0F0F0;stroke-width:9.72"/>
	<line x1="2006.10" y1="691.37" x2="2070.90" y2="691.37" style="stroke:#F0F0F0;stroke-width:9.72"/>
	<line x1="2103.30" y1="691.37" x2="2168.10" y2="691.37" style="stroke:#F0F0F0;stroke-width:9.72"/>
	<line x1="2200.50" y1="691.37" x2="2265.30" y2="691.37" style="stroke:#F0F0F0;stroke-width:9.72"/>
	<line x1="2297.70" y1="691.37" x2="2362.50" y2="691.37" style="stroke:#F0F0F0;stroke-width:9.72"/>
	<line x1="2394.90" y1="691.37" x2="2459.70" y2="691.37" style="stroke:#F0F0F0;stroke-width:9.72"/>
	<line x1="2492.10" y1="691.37" x2="2556.90" y2="691.37" style="stroke:#F0F0F0;stroke-width:9.72"/>
	<line x1="2589.30" y1="691.37" x2="2654.10" y2="691.37" style="stroke:#F0F0F0;stroke-width:9.72"/>
	<line x1="2686.50" y1="691.37" x2="2751.30" y2="691.37" style="stroke:#F0F0F0;stroke-width:9.72"/>
	<line x1="2783.70" y1="691.37" x2="2848.50" y2="691.37" style="stroke:#F0F0F0;stroke-width:9.72"/>
	<line x1="2880.90" y1="691.37" x2="2945.70" y2="691.37" style="stroke:#F0F0F0;stroke-width:9.72"/>
	<line x1="2978.10" y1="691.37" x2="3042.90" y2="691.37" style="stroke:#F0F0F0;stroke-width:9.72"/>
	<line x1="3075.30" y1="691.37" x2="3140.10" y2="691.37" style="stroke:#F0F0F0;stroke-width:9.72"/>
	<line x1="3172.50" y1="691.37" x2="3237.30" y2="691.37" style="stroke:#F0F0F0;stroke-width:9.72"/>
	<line x1="3269.70" y1="691.37" x2="3334.50" y2="691.37" style="stroke:#F0F0F0;stroke-width:9.72"/>
	<line x1="3366.90" y1="691.37" x2="3431.70" y2="691.37" style="stroke:#F0F0F0;stroke-width:9.72"/>
	<line x1="3464.10" y1="691.37" x2="3528.90" y2="691.37" style="stroke:#F0F0F0;stroke-width:9.72"/>
	<line x1="3561.30" y1="691.37" x2="3626.10" y2="691.37" style="stroke:#F0F0F0;stroke-width:9.72"/>
	<line x1="3658.50" y1="691.37" x2="3723.30" y2="691.37" style="stroke:#F0F0F0;stroke-width:9.72"/>
	<line x1="3755.70" y1="691.37" x2="3820.50" y2="691.37" style="stroke:#F0F0F0;stroke-width:9.72"/>
	<line x1="3852.90" y1="691.37" x2="3917.70" y2="691.37" style="stroke:#F0F0F0;stroke-width:9.72"/>
	<line x1="3950.10" y1="691.37" x2="4014.90" y2="691.37" style="stroke:#F0F0F0;stroke-width:9.72"/>
	<line x1="4047.30" y1="691.37" x2="4112.10" y2="691.37" style="stroke:#F0F0F0;stroke-width:9.72"/>
	<line x1="4144.50" y1="691.37" x2="4209.30" y2="691.37" style="stroke:#F0F0F0;stroke-width:9.72"/>
	<line x1="4241.70" y1="691.37" x2="4306.50" y2="691.37" style="stroke:#F0F0F0;stroke-width:9.72"/>
	<line x1="4338.90" y1="691.37" x2="4403.70" y2="691.37" style="stroke:#F0F0F0;stroke-width:9.72"/>
	<line x1="4436.10" y1="691.37" x2="4500.90" y2="691.37" style="stroke:#F0F0F0;stroke-width:9.72"/>
	<line x1="4533.30" y1="691.37" x2="4598.10" y2="691.37" style="stroke:#F0F0F0;stroke-width:9.72"/>
	<line x1="4630.50" y1="691.37" x2="4695.30" y2="691.37" style="stroke:#F0F0F0;stroke-width:9.72"/>
	<line x1="4727.70" y1="691.37" x2="4792.50" y2="691.37" style="stroke:#F0F0F0;stroke-width:9.72"/>
	<line x1="4824.90" y1="691.37" x2="4889.70" y2="691.37" style="stroke:#F0F0F0;stroke-width:9.72"/>
	<line x1="4922.10" y1="691.37" x2="4986.90" y2="691.37" style="stroke:#F0F0F0;stroke-width:9.72"/>
	<line x1="5019.30" y1="691.37" x2="5084.10" y2="691.37" style="stroke:#F0F0F0;stroke-width:9.72"/>
	<line x1="5116.50" y1="691.37" x2="5181.30" y2="691.37" style="stroke:#F0F0F0;stroke-width:9.72"/>
	<line x1="5213.70" y1="691.37" x2="5278.50" y2="691.37" style="stroke:#F0F0F0;stroke-width:9.72"/>
	<line x1="450.90" y1="184.61" x2="515.70" y2="184.61" style="stroke:#F0F0F0;stroke-width:9.72"/>
	<line x1="548.10" y1="184.61" x2="612.90" y2="184.61" style="stroke:#F0F0F0;stroke-width:9.72"/>
	<line x1="645.30" y1="184.61" x2="710.10" y2="184.61" style="stroke:#F0F0F0;stroke-width:9.72"/>
	<line x1="742.50" y1="184.61" x2="807.30" y2="184.61" style="stroke:#F0F0F0;stroke-width:9.72"/>
	<line x1="839.70" y1="184.61" x2="904.50" y2="184.61" style="stroke:#F0F0F0;stroke-width:9.72"/>
	<line x1="936.90" y1="184.61" x2="1001.70" y2="184.61" style="stroke:#F0F0F0;stroke-width:9.72"/>
	<line x1="1034.10" y1="184.61" x2="1098.90" y2="184.61" style="stroke:#F0F0F0;stroke-width:9.72"/>
	<line x1="1131.30" y1="184.61" x2="1196.10" y2="184.61" style="stroke:#F0F0F0;stroke-width:9.72"/>
	<line x1="1228.50" y1="184.61" x2="1293.30" y2="184.61" style="stroke:#F0F0F0;stroke-width:9.72"/>
	<line x1="1325.70" y1="184.61" x2="1390.50" y2="184.61" style="stroke:#F0F0F0;stroke-width:9.72"/>
	<line x1="1422.90" y1="184.61" x2="1487.70" y2="184.61" style="stroke:#F0F0F0;stroke-width:9.72"/>
	<line x1="1520.10" y1="184.61" x2="1584.90" y2="184.61" style="stroke:#F0F0F0;stroke-width:9.72"/>
	<line x1="1617.30" y1="184.61" x2="1682.10" y2="184.61" style="stroke:#F0F0F0;stroke-width:9.72"/>
	<line x1="1714.50" y1="184.61" x2="1779.30" y2="184.61" style="stroke:#F0F0F0;stroke-width:9.72"/>
	<line x1="1811.70" y1="184.61" x2="1876.50" y2="184.61" style="stroke:#F0F0F0;stroke-width:9.72"/>
	<line x1="1908.90" y1="184.61" x2="1973.70" y2="184.61" style="stroke:#F0F0F0;stroke-width:9.72"/>
	<line x1="2006.10" y1="184.61" x2="2070.90" y2="184.61" style="stroke:#F0F0F0;stroke-width:9.72"/>
	<line x1="2103.30" y1="184.61" x2="2168.10" y2="184.61" style="stroke:#F0F0F0;stroke-width:9.72"/>
	<line x1="2200.50" y1="184.61" x2="2265.30" y2="184.61" style="stroke:#F0F0F0;stroke-width:9.72"/>
	<line x1="2297.70" y1="184.61" x2="2362.50" y2="184.61" style="stroke:#F0F0F0;stroke-width:9.72"/>
	<line x1="2394.90" y1="184.61" x2="2459.70" y2="184.61" style="stroke:#F0F0F0;stroke-width:9.72"/>
	<line x1="2492.10" y1="184.61" x2="2556.90" y2="184.61" style="stroke:#F0F0F0;stroke-width:9.72"/>
	<line x1="2589.30" y1="184.61" x2="2654.10" y2="184.61" style="stroke:#F0F0F0;stroke-width:9.72"/>
	<line x1="2686.50" y1="184.61" x2="2751.30" y2="184.61" style="stroke:#F0F0F0;stroke-width:9.72"/>
	<line x1="2783.70" y1="184.61" x2="2848.50" y2="184.61" style="stroke:#F0F0F0;stroke-width:9.72"/>
	<line x1="2880.90" y1="184.61" x2="2945.70" y2="184.61" style="stroke:#F0F0F0;stroke-width:9.72"/>
	<line x1="2978.10" y1="184.61" x2="3042.90" y2="184.61" style="stroke:#F0F0F0;stroke-width:9.72"/>
	<line x1="3075.30" y1="184.61" x2="3140.10" y2="184.61" style="stroke:#F0F0F0;stroke-width:9.72"/>
	<line x1="3172.50" y1="184.61" x2="3237.30" y2="184.61" style="stroke:#F0F0F0;stroke-width:9.72"/>
	<line x1="3269.70" y1="184.61" x2="3334.50" y2="184.61" style="stroke:#F0F0F0;stroke-width:9.72"/>
	<line x1="3366.90" y1="184.61" x2="3431.70" y2="184.61" style="stroke:#F0F0F0;stroke-width:9.72"/>
	<line x1="3464.10" y1="184.61" x2="3528.90" y2="184.61" style="stroke:#F0F0F0;stroke-width:9.72"/>
	<line x1="3561.30" y1="184.61" x2="3626.10" y2="184.61" style="stroke:#F0F0F0;stroke-width:9.72"/>
	<line x1="3658.50" y1="184.61" x2="3723.30" y2="184.61" style="stroke:#F0F0F0;stroke-width:9.72"/>
	<line x1="3755.70" y1="184.61" x2="3820.50" y2="184.61" style="stroke:#F0F0F0;stroke-width:9.72"/>
	<line x1="3852.90" y1="184.61" x2="3917.70" y2="184.61" style="stroke:#F0F0F0;stroke-width:9.72"/>
	<line x1="3950.10" y1="184.61" x2="4014.90" y2="184.61" style="stroke:#F0F0F0;stroke-width:9.72"/>
	<line x1="4047.30" y1="184.61" x2="4112.10" y2="184.61" style="stroke:#F0F0F0;stroke-width:9.72"/>
	<line x1="4144.50" y1="184.61" x2="4209.30" y2="184.61" style="stroke:#F0F0F0;stroke-width:9.72"/>
	<line x1="4241.70" y1="184.61" x2="4306.50" y2="184.61" style="stroke:#F0F0F0;stroke-width:9.72"/>
	<line x1="4338.90" y1="184.61" x2="4403.70" y2="184.61" style="stroke:#F0F0F0;stroke-width:9.72"/>
	<line x1="4436.10" y1="184.61" x2="4500.90" y2="184.61" style="stroke:#F0F0F0;stroke-width:9.72"/>
	<line x1="4533.30" y1="184.61" x2="4598.10" y2="184.61" style="stroke:#F0F0F0;stroke-width:9.72"/>
	<line x1="4630.50" y1="184.61" x2="4695.30" y2="184.61" style="stroke:#F0F0F0;stroke-width:9.72"/>
	<line x1="4727.70" y1="184.61" x2="4792.50" y2="184.61" style="stroke:#F0F0F0;stroke-width:9.72"/>
	<line x1="4824.90" y1="184.61" x2="4889.70" y2="184.61" style="stroke:#F0F0F0;stroke-width:9.72"/>
	<line x1="4922.10" y1="184.61" x2="4986.90" y2="184.61" style="stroke:#F0F0F0;stroke-width:9.72"/>
	<line x1="5019.30" y1="184.61" x2="5084.10" y2="184.61" style="stroke:#F0F0F0;stroke-width:9.72"/>
	<line x1="5116.50" y1="184.61" x2="5181.30" y2="184.61" style="stroke:#F0F0F0;stroke-width:9.72"/>
	<line x1="5213.70" y1="184.61" x2="5278.50" y2="184.61" style="stroke:#F0F0F0;stroke-width:9.72"/>
	<line x1="2556.90" y1="2789.10" x2="2556.90" y2="2724.30" style="stroke:#909090;stroke-width:9.72"/>
	<line x1="2556.90" y1="2691.90" x2="2556.90" y2="2627.10" style="stroke:#909090;stroke-width:9.72"/>
	<line x1="2556.90" y1="2594.70" x2="2556.90" y2="2529.90" style="stroke:#909090;stroke-width:9.72"/>
	<line x1="2556.90" y1="2497.50" x2="2556.90" y2="2432.70" style="stroke:#909090;stroke-width:9.72"/>
	<line x1="2556.90" y1="2400.30" x2="2556.90" y2="2335.50" style="stroke:#909090;stroke-width:9.72"/>
	<line x1="2556.90" y1="2303.10" x2="2556.90" y2="2238.30" style="stroke:#909090;stroke-width:9.72"/>
	<line x1="2556.90" y1="2205.90" x2="2556.90" y2="2141.10" style="stroke:#909090;stroke-width:9.72"/>
	<line x1="2556.90" y1="2108.70" x2="2556.90" y2="2043.90" style="stroke:#909090;stroke-width:9.72"/>
	<line x1="2556.90" y1="2011.50" x2="2556.90" y2="1946.70" style="stroke:#909090;stroke-width:9.72"/>
	<line x1="2556.90" y1="1914.30" x2="2556.90" y2="1849.50" style="stroke:#909090;stroke-width:9.72"/>
	<line x1="2556.90" y1="1817.10" x2="2556.90" y2="1752.30" style="stroke:#909090;stroke-width:9.72"/>
	<line x1="2556.90" y1="1719.90" x2="2556.90" y2="1655.10" style="stroke:#909090;stroke-width:9.72"/>
	<line x1="2556.90" y1="1622.70" x2="2556.90" y2="1557.90" style="stroke:#909090;stroke-width:9.72"/>
	<line x1="2556.90" y1="1525.50" x2="2556.90" y2="1460.70" style="stroke:#909090;stroke-width:9.72"/>
	<line x1="2556.90" y1="1428.30" x2="2556.90" y2="1363.50" style="stroke:#909090;stroke-width:9.72"/>
	<line x1="2556.90" y1="1331.10" x2="2556.90" y2="1266.30" style="stroke:#909090;stroke-width:9.72"/>
	<line x1="2556.90" y1="1233.90" x2="2556.90" y2="1169.10" style="stroke:#909090;stroke-width:9.72"/>
	<line x1="2556.90" y1="1136.70" x2="2556.90" y2="1071.90" style="stroke:#909090;stroke-width:9.72"/>
	<line x1="2556.90" y1="1039.50" x2="2556.90" y2="974.70" style="stroke:#909090;stroke-width:9.72"/>
	<line x1="2556.90" y1="942.30" x2="2556.90" y2="877.50" style="stroke:#909090;stroke-width:9.72"/>
	<line x1="2556.90" y1="845.10" x2="2556.90" y2="780.30" style="stroke:#909090;stroke-width:9.72"/>
	<line x1="2556.90" y1="747.90" x2="2556.90" y2="683.10" style="stroke:#909090;stroke-width:9.72"/>
	<line x1="2556.90" y1="650.70" x2="2556.90" y2="585.90" style="stroke:#909090;stroke-width:9.72"/>
	<line x1="2556.90" y1="553.50" x2="2556.90" y2="488.70" style="stroke:#909090;stroke-width:9.72"/>
	<line x1="2556.90" y1="456.30" x2="2556.90" y2="391.50" style="stroke:#909090;stroke-width:9.72"/>
	<line x1="2556.90" y1="359.10" x2="2556.90" y2="294.30" style="stroke:#909090;stroke-width:9.72"/>
	<line x1="2556.90" y1="261.90" x2="2556.90" y2="197.10" style="stroke:#909090;stroke-width:9.72"/>
	<line x1="2556.90" y1="164.70" x2="2556.90" y2="113.40" style="stroke:#909090;stroke-width:9.72"/>
	<line x1="450.90" y1="2717.89" x2="5286.60" y2="2717.89" style="stroke:#C10534;stroke-width:9.72"/>
	<path d=" M522.11 2717.89 L537.81 2682.96 L553.50 2648.19 L569.19 2613.60 L584.89 2579.34 L600.58 2545.43 L616.28 2511.68 L631.97 2478.26 L647.66 2445.19 L663.36 2412.28 L679.05 2379.71 L694.74 2347.31 L710.44 2315.25 L726.13 2283.53 L741.83 2251.97 L757.52 2220.75 L773.21 2189.70 L788.91 2158.99 L804.60 2128.61 L820.29 2098.41 L835.99 2068.54 L851.68 2039.01 L867.38 2009.64 L883.07 1980.45 L898.76 1951.76 L914.46 1923.24 L930.15 1894.89 L945.84 1866.88 L961.54 1839.21 L977.23 1811.70 L992.93 1784.53 L1008.62 1757.70 L1024.31 1731.04 L1040.01 1704.71 L1055.70 1678.56 L1071.39 1652.74 L1087.09 1627.26 L1102.78 1601.94 L1118.47 1576.97 L1134.17 1552.16 L1149.86 1527.69 L1165.56 1503.56 L1181.25 1479.60 L1196.94 1455.98 L1212.64 1432.52 L1228.33 1409.40 L1244.03 1386.62 L1259.72 1364.01 L1275.41 1341.73 L1291.11 1319.79 L1306.80 1298.03 L1322.49 1276.59 L1338.19 1255.33 L1353.88 1234.41 L1369.58 1213.82 L1385.44 1193.40 L1401.13 1173.15 L1416.83 1153.41 L1432.52 1133.83 L1448.21 1114.43 L1463.91 1095.53 L1479.60 1076.63 L1495.29 1058.23 L1510.99 1040.01 L1526.68 1022.12 L1542.38 1004.40 L1558.07 987.02 L1573.76 969.81 L1589.46 952.93 L1605.15 936.39 L1620.84 920.03 L1636.54 903.99 L1652.23 888.30 L1667.93 872.78 L1683.62 857.42 L1699.31 842.57 L1715.01 827.89 L1730.70 813.38 L1746.39 799.20 L1762.09 785.36 L1777.78 771.69 L1793.48 758.36 L1809.17 745.37 L1824.86 732.54 L1840.56 720.06 L1856.25 707.74 L1871.94 695.76 L1887.64 684.11 L1903.33 672.64 L1919.03 661.50 L1934.72 650.70 L1950.41 640.07 L1966.11 629.61 L1981.80 619.65 L1997.49 609.86 L2013.19 600.24 L2028.88 590.96 L2044.58 582.02 L2060.27 573.24 L2075.96 564.81 L2091.66 556.71 L2107.35 548.78 L2123.04 541.18 L2138.74 533.76 L2154.43 526.67 L2170.13 519.92 L2185.82 513.34 L2201.51 507.09 L2217.21 501.02 L2232.90 495.28 L2248.59 489.88 L2264.29 484.65 L2279.98 479.76 L2295.68 475.03 L2311.37 470.64 L2327.06 466.59 L2342.76 462.71 L2358.45 459.17 L2374.14 455.79 L2389.84 452.93 L2405.53 450.06 L2421.23 447.69 L2436.92 445.50 L2452.78 443.47 L2468.48 441.79 L2484.17 440.44 L2499.86 439.26 L2515.56 438.41 L2531.25 437.91 L2546.94 437.57 L2562.64 437.57 L2578.33 437.74 L2594.03 438.24 L2609.72 439.09 L2625.41 440.10 L2641.11 441.45 L2656.80 442.97 L2672.49 444.82 L2688.19 447.02 L2703.88 449.38 L2719.58 452.08 L2735.27 455.12 L2750.96 458.32 L2766.66 461.87 L2782.35 465.58 L2798.04 469.63 L2813.74 473.85 L2829.43 478.41 L2845.13 483.30 L2860.82 488.53 L2876.51 493.76 L2892.21 499.50 L2907.90 505.41 L2923.59 511.65 L2939.29 518.06 L2954.98 524.81 L2970.68 531.90 L2986.37 539.16 L3002.06 546.75 L3017.76 554.51 L3033.45 562.78 L3049.14 571.05 L3064.84 579.66 L3080.53 588.60 L3096.23 597.88 L3111.92 607.33 L3127.61 617.12 L3143.31 627.07 L3159.00 637.37 L3174.69 647.83 L3190.39 658.63 L3206.08 669.77 L3221.78 681.24 L3237.47 692.89 L3253.16 704.70 L3268.86 716.85 L3284.55 729.34 L3300.24 741.99 L3315.94 754.99 L3331.63 768.32 L3347.33 781.82 L3363.02 795.66 L3378.71 809.66 L3394.41 824.18 L3410.10 838.69 L3425.79 853.54 L3441.49 868.72 L3457.18 884.25 L3472.88 899.94 L3488.57 915.97 L3504.26 932.18 L3520.13 948.71 L3535.82 965.42 L3551.51 982.46 L3567.21 999.84 L3582.90 1017.39 L3598.59 1035.28 L3614.29 1053.51 L3629.98 1071.90 L3645.68 1090.63 L3661.37 1109.53 L3677.06 1128.77 L3692.76 1148.34 L3708.45 1168.09 L3724.14 1188.17 L3739.84 1208.42 L3755.53 1229.01 L3771.23 1249.93 L3786.92 1271.03 L3802.61 1292.46 L3818.31 1314.23 L3834.00 1336.16 L3849.69 1358.27 L3865.39 1380.88 L3881.08 1403.66 L3896.78 1426.61 L3912.47 1449.90 L3928.16 1473.53 L3943.86 1497.32 L3959.55 1521.45 L3975.24 1545.92 L3990.94 1570.56 L4006.63 1595.53 L4022.33 1620.68 L4038.02 1646.16 L4053.71 1671.98 L4069.41 1697.96 L4085.10 1724.29 L4100.79 1750.78 L4116.49 1777.61 L4132.18 1804.78 L4147.88 1832.12 L4163.57 1859.79 L4179.26 1887.64 L4194.96 1915.82 L4210.65 1944.34 L4226.34 1973.03 L4242.04 2002.05 L4257.73 2031.41 L4273.43 2060.94 L4289.12 2090.81 L4304.81 2120.85 L4320.51 2151.23 L4336.20 2181.77 L4351.89 2212.65 L4367.59 2243.87 L4383.28 2275.43 L4398.98 2307.15 L4414.67 2339.04 L4430.36 2371.28 L4446.06 2403.84 L4461.75 2436.75 L4477.44 2469.82 L4493.14 2503.07 L4508.83 2536.65 L4524.52 2570.57 L4540.22 2604.82 L4555.91 2639.25 L4571.77 2674.01 L4587.47 2708.94 L4603.16 2717.89 L4618.86 2717.89 L4634.55 2717.89 L4650.24 2717.89 L4665.94 2717.89 L4681.63 2717.89 L4697.33 2717.89 L4713.02 2717.89 L4728.71 2717.89 L4744.41 2717.89 L4760.10 2717.89 L4775.79 2717.89 L4791.49 2717.89 L4807.18 2717.89 L4822.88 2717.89 L4838.57 2717.89 L4854.26 2717.89 L4869.96 2717.89 L4885.65 2717.89 L4901.34 2717.89 L4917.04 2717.89 L4932.73 2717.89 L4948.43 2717.89 L4964.12 2717.89 L4979.81 2717.89 L4995.51 2717.89 L5011.20 2717.89 L5026.89 2717.89 L5042.59 2717.89 L5058.28 2717.89 L5073.98 2717.89 L5089.67 2717.89 L5105.36 2717.89 L5121.06 2717.89 L5136.75 2717.89 L5152.44 2717.89 L5168.14 2717.89 L5183.83 2717.89 L5199.52 2717.89 L5215.22 2717.89" stroke-linejoin="round" style="fill:none;stroke:#1A85FF;stroke-width:9.72"/>
	<line x1="450.90" y1="2789.10" x2="450.90" y2="113.40" style="stroke:#000000;stroke-width:6.48"/>
	<line x1="450.90" y1="2717.89" x2="405.84" y2="2717.89" style="stroke:#000000;stroke-width:6.48"/>
	<text x="356.33" y="2717.89" style="font-family:'Helvetica';font-size:89.94px;fill:#000000" transform="rotate(-90 356.33,2717.89)" text-anchor="middle">0</text>
	<line x1="450.90" y1="2211.30" x2="405.84" y2="2211.30" style="stroke:#000000;stroke-width:6.48"/>
	<text x="356.33" y="2211.30" style="font-family:'Helvetica';font-size:89.94px;fill:#000000" transform="rotate(-90 356.33,2211.30)" text-anchor="middle">10</text>
	<line x1="450.90" y1="1704.54" x2="405.84" y2="1704.54" style="stroke:#000000;stroke-width:6.48"/>
	<text x="356.33" y="1704.54" style="font-family:'Helvetica';font-size:89.94px;fill:#000000" transform="rotate(-90 356.33,1704.54)" text-anchor="middle">20</text>
	<line x1="450.90" y1="1197.96" x2="405.84" y2="1197.96" style="stroke:#000000;stroke-width:6.48"/>
	<text x="356.33" y="1197.96" style="font-family:'Helvetica';font-size:89.94px;fill:#000000" transform="rotate(-90 356.33,1197.96)" text-anchor="middle">30</text>
	<line x1="450.90" y1="691.37" x2="405.84" y2="691.37" style="stroke:#000000;stroke-width:6.48"/>
	<text x="356.33" y="691.37" style="font-family:'Helvetica';font-size:89.94px;fill:#000000" transform="rotate(-90 356.33,691.37)" text-anchor="middle">40</text>
	<line x1="450.90" y1="184.61" x2="405.84" y2="184.61" style="stroke:#000000;stroke-width:6.48"/>
	<text x="356.33" y="184.61" style="font-family:'Helvetica';font-size:89.94px;fill:#000000" transform="rotate(-90 356.33,184.61)" text-anchor="middle">50</text>
	<text x="214.55" y="1451.25" style="font-family:'Helvetica';font-size:112.56px;fill:#000000" transform="rotate(-90 214.55,1451.25)" text-anchor="middle">Tax Revenue/GDP</text>
	<line x1="450.90" y1="2789.10" x2="5286.60" y2="2789.10" style="stroke:#000000;stroke-width:6.48"/>
	<line x1="522.11" y1="2789.10" x2="522.11" y2="2834.16" style="stroke:#000000;stroke-width:6.48"/>
	<text x="522.11" y="2919.48" style="font-family:'Helvetica';font-size:89.94px;fill:#000000" text-anchor="middle">0</text>
	<line x1="913.28" y1="2789.10" x2="913.28" y2="2834.16" style="stroke:#000000;stroke-width:6.48"/>
	<text x="913.28" y="2919.48" style="font-family:'Helvetica';font-size:89.94px;fill:#000000" text-anchor="middle">.05</text>
	<line x1="1304.27" y1="2789.10" x2="1304.27" y2="2834.16" style="stroke:#000000;stroke-width:6.48"/>
	<text x="1304.27" y="2919.48" style="font-family:'Helvetica';font-size:89.94px;fill:#000000" text-anchor="middle">.1</text>
	<line x1="1695.43" y1="2789.10" x2="1695.43" y2="2834.16" style="stroke:#000000;stroke-width:6.48"/>
	<text x="1695.43" y="2919.48" style="font-family:'Helvetica';font-size:89.94px;fill:#000000" text-anchor="middle">.15</text>
	<line x1="2086.59" y1="2789.10" x2="2086.59" y2="2834.16" style="stroke:#000000;stroke-width:6.48"/>
	<text x="2086.59" y="2919.48" style="font-family:'Helvetica';font-size:89.94px;fill:#000000" text-anchor="middle">.2</text>
	<line x1="2477.59" y1="2789.10" x2="2477.59" y2="2834.16" style="stroke:#000000;stroke-width:6.48"/>
	<text x="2477.59" y="2919.48" style="font-family:'Helvetica';font-size:89.94px;fill:#000000" text-anchor="middle">.25</text>
	<line x1="2868.75" y1="2789.10" x2="2868.75" y2="2834.16" style="stroke:#000000;stroke-width:6.48"/>
	<text x="2868.75" y="2919.48" style="font-family:'Helvetica';font-size:89.94px;fill:#000000" text-anchor="middle">.3</text>
	<line x1="3259.91" y1="2789.10" x2="3259.91" y2="2834.16" style="stroke:#000000;stroke-width:6.48"/>
	<text x="3259.91" y="2919.48" style="font-family:'Helvetica';font-size:89.94px;fill:#000000" text-anchor="middle">.35</text>
	<line x1="3650.91" y1="2789.10" x2="3650.91" y2="2834.16" style="stroke:#000000;stroke-width:6.48"/>
	<text x="3650.91" y="2919.48" style="font-family:'Helvetica';font-size:89.94px;fill:#000000" text-anchor="middle">.4</text>
	<line x1="4042.07" y1="2789.10" x2="4042.07" y2="2834.16" style="stroke:#000000;stroke-width:6.48"/>
	<text x="4042.07" y="2919.48" style="font-family:'Helvetica';font-size:89.94px;fill:#000000" text-anchor="middle">.45</text>
	<line x1="4433.06" y1="2789.10" x2="4433.06" y2="2834.16" style="stroke:#000000;stroke-width:6.48"/>
	<text x="4433.06" y="2919.48" style="font-family:'Helvetica';font-size:89.94px;fill:#000000" text-anchor="middle">.5</text>
	<line x1="4824.23" y1="2789.10" x2="4824.23" y2="2834.16" style="stroke:#000000;stroke-width:6.48"/>
	<text x="4824.23" y="2919.48" style="font-family:'Helvetica';font-size:89.94px;fill:#000000" text-anchor="middle">.55</text>
	<line x1="5215.39" y1="2789.10" x2="5215.39" y2="2834.16" style="stroke:#000000;stroke-width:6.48"/>
	<text x="5215.39" y="2919.48" style="font-family:'Helvetica';font-size:89.94px;fill:#000000" text-anchor="middle">.6</text>
	<text x="2868.75" y="3070.31" style="font-family:'Helvetica';font-size:112.56px;fill:#000000" text-anchor="middle">Corporate Tax Rate</text>
</svg>
