<?xml version="1.0" encoding="UTF-8" standalone="no"?>
<!-- This is a Stata 18.0 generated SVG file (http://www.stata.com) -->

<svg version="1.1" width="7.500in" height="4.500in" viewBox="0 0 5400 3240" xmlns="http://www.w3.org/2000/svg" xmlns:xlink="http://www.w3.org/1999/xlink">
	<desc>Stata Graph - Graph</desc>
	<rect x="0" y="0" width="5400" height="3240" style="fill:#FFFFFF;stroke:none"/>
	<rect x="0.00" y="0.00" width="5400.00" height="3240.00" style="fill:#FFFFFF"/>
	<rect x="3.24" y="3.24" width="5393.52" height="3233.52" style="fill:none;stroke:#FFFFFF;stroke-width:6.48"/>
	<rect x="473.34" y="113.40" width="4813.26" height="2365.71" style="fill:#FFFFFF"/>
	<rect x="476.58" y="116.64" width="4806.78" height="2359.23" style="fill:none;stroke:#FFFFFF;stroke-width:6.48"/>
	<line x1="473.34" y1="2407.89" x2="538.14" y2="2407.89" style="stroke:#F0F0F0;stroke-width:9.72"/>
	<line x1="570.54" y1="2407.89" x2="635.34" y2="2407.89" style="stroke:#F0F0F0;stroke-width:9.72"/>
	<line x1="667.74" y1="2407.89" x2="732.54" y2="2407.89" style="stroke:#F0F0F0;stroke-width:9.72"/>
	<line x1="764.94" y1="2407.89" x2="829.74" y2="2407.89" style="stroke:#F0F0F0;stroke-width:9.72"/>
	<line x1="862.14" y1="2407.89" x2="926.94" y2="2407.89" style="stroke:#F0F0F0;stroke-width:9.72"/>
	<line x1="959.34" y1="2407.89" x2="1024.14" y2="2407.89" style="stroke:#F0F0F0;stroke-width:9.72"/>
	<line x1="1056.54" y1="2407.89" x2="1121.34" y2="2407.89" style="stroke:#F0F0F0;stroke-width:9.72"/>
	<line x1="1153.74" y1="2407.89" x2="1218.54" y2="2407.89" style="stroke:#F0F0F0;stroke-width:9.72"/>
	<line x1="1250.94" y1="2407.89" x2="1315.74" y2="2407.89" style="stroke:#F0F0F0;stroke-width:9.72"/>
	<line x1="1348.14" y1="2407.89" x2="1412.94" y2="2407.89" style="stroke:#F0F0F0;stroke-width:9.72"/>
	<line x1="1445.34" y1="2407.89" x2="1510.14" y2="2407.89" style="stroke:#F0F0F0;stroke-width:9.72"/>
	<line x1="1542.54" y1="2407.89" x2="1607.34" y2="2407.89" style="stroke:#F0F0F0;stroke-width:9.72"/>
	<line x1="1639.74" y1="2407.89" x2="1704.54" y2="2407.89" style="stroke:#F0F0F0;stroke-width:9.72"/>
	<line x1="1736.94" y1="2407.89" x2="1801.74" y2="2407.89" style="stroke:#F0F0F0;stroke-width:9.72"/>
	<line x1="1834.14" y1="2407.89" x2="1898.94" y2="2407.89" style="stroke:#F0F0F0;stroke-width:9.72"/>
	<line x1="1931.34" y1="2407.89" x2="1996.14" y2="2407.89" style="stroke:#F0F0F0;stroke-width:9.72"/>
	<line x1="2028.54" y1="2407.89" x2="2093.34" y2="2407.89" style="stroke:#F0F0F0;stroke-width:9.72"/>
	<line x1="2125.74" y1="2407.89" x2="2190.54" y2="2407.89" style="stroke:#F0F0F0;stroke-width:9.72"/>
	<line x1="2222.94" y1="2407.89" x2="2287.74" y2="2407.89" style="stroke:#F0F0F0;stroke-width:9.72"/>
	<line x1="2320.14" y1="2407.89" x2="2384.94" y2="2407.89" style="stroke:#F0F0F0;stroke-width:9.72"/>
	<line x1="2417.34" y1="2407.89" x2="2482.14" y2="2407.89" style="stroke:#F0F0F0;stroke-width:9.72"/>
	<line x1="2514.54" y1="2407.89" x2="2579.34" y2="2407.89" style="stroke:#F0F0F0;stroke-width:9.72"/>
	<line x1="2611.74" y1="2407.89" x2="2676.54" y2="2407.89" style="stroke:#F0F0F0;stroke-width:9.72"/>
	<line x1="2708.94" y1="2407.89" x2="2773.74" y2="2407.89" style="stroke:#F0F0F0;stroke-width:9.72"/>
	<line x1="2806.14" y1="2407.89" x2="2870.94" y2="2407.89" style="stroke:#F0F0F0;stroke-width:9.72"/>
	<line x1="2903.34" y1="2407.89" x2="2968.14" y2="2407.89" style="stroke:#F0F0F0;stroke-width:9.72"/>
	<line x1="3000.54" y1="2407.89" x2="3065.34" y2="2407.89" style="stroke:#F0F0F0;stroke-width:9.72"/>
	<line x1="3097.74" y1="2407.89" x2="3162.54" y2="2407.89" style="stroke:#F0F0F0;stroke-width:9.72"/>
	<line x1="3194.94" y1="2407.89" x2="3259.74" y2="2407.89" style="stroke:#F0F0F0;stroke-width:9.72"/>
	<line x1="3292.14" y1="2407.89" x2="3356.94" y2="2407.89" style="stroke:#F0F0F0;stroke-width:9.72"/>
	<line x1="3389.34" y1="2407.89" x2="3454.14" y2="2407.89" style="stroke:#F0F0F0;stroke-width:9.72"/>
	<line x1="3486.54" y1="2407.89" x2="3551.34" y2="2407.89" style="stroke:#F0F0F0;stroke-width:9.72"/>
	<line x1="3583.74" y1="2407.89" x2="3648.54" y2="2407.89" style="stroke:#F0F0F0;stroke-width:9.72"/>
	<line x1="3680.94" y1="2407.89" x2="3745.74" y2="2407.89" style="stroke:#F0F0F0;stroke-width:9.72"/>
	<line x1="3778.14" y1="2407.89" x2="3842.94" y2="2407.89" style="stroke:#F0F0F0;stroke-width:9.72"/>
	<line x1="3875.34" y1="2407.89" x2="3940.14" y2="2407.89" style="stroke:#F0F0F0;stroke-width:9.72"/>
	<line x1="3972.54" y1="2407.89" x2="4037.34" y2="2407.89" style="stroke:#F0F0F0;stroke-width:9.72"/>
	<line x1="4069.74" y1="2407.89" x2="4134.54" y2="2407.89" style="stroke:#F0F0F0;stroke-width:9.72"/>
	<line x1="4166.94" y1="2407.89" x2="4231.74" y2="2407.89" style="stroke:#F0F0F0;stroke-width:9.72"/>
	<line x1="4264.14" y1="2407.89" x2="4328.94" y2="2407.89" style="stroke:#F0F0F0;stroke-width:9.72"/>
	<line x1="4361.34" y1="2407.89" x2="4426.14" y2="2407.89" style="stroke:#F0F0F0;stroke-width:9.72"/>
	<line x1="4458.54" y1="2407.89" x2="4523.34" y2="2407.89" style="stroke:#F0F0F0;stroke-width:9.72"/>
	<line x1="4555.74" y1="2407.89" x2="4620.54" y2="2407.89" style="stroke:#F0F0F0;stroke-width:9.72"/>
	<line x1="4652.94" y1="2407.89" x2="4717.74" y2="2407.89" style="stroke:#F0F0F0;stroke-width:9.72"/>
	<line x1="4750.14" y1="2407.89" x2="4814.94" y2="2407.89" style="stroke:#F0F0F0;stroke-width:9.72"/>
	<line x1="4847.34" y1="2407.89" x2="4912.14" y2="2407.89" style="stroke:#F0F0F0;stroke-width:9.72"/>
	<line x1="4944.54" y1="2407.89" x2="5009.34" y2="2407.89" style="stroke:#F0F0F0;stroke-width:9.72"/>
	<line x1="5041.74" y1="2407.89" x2="5106.54" y2="2407.89" style="stroke:#F0F0F0;stroke-width:9.72"/>
	<line x1="5138.94" y1="2407.89" x2="5203.74" y2="2407.89" style="stroke:#F0F0F0;stroke-width:9.72"/>
	<line x1="5236.14" y1="2407.89" x2="5286.60" y2="2407.89" style="stroke:#F0F0F0;stroke-width:9.72"/>
	<line x1="473.34" y1="1677.88" x2="538.14" y2="1677.88" style="stroke:#F0F0F0;stroke-width:9.72"/>
	<line x1="570.54" y1="1677.88" x2="635.34" y2="1677.88" style="stroke:#F0F0F0;stroke-width:9.72"/>
	<line x1="667.74" y1="1677.88" x2="732.54" y2="1677.88" style="stroke:#F0F0F0;stroke-width:9.72"/>
	<line x1="764.94" y1="1677.88" x2="829.74" y2="1677.88" style="stroke:#F0F0F0;stroke-width:9.72"/>
	<line x1="862.14" y1="1677.88" x2="926.94" y2="1677.88" style="stroke:#F0F0F0;stroke-width:9.72"/>
	<line x1="959.34" y1="1677.88" x2="1024.14" y2="1677.88" style="stroke:#F0F0F0;stroke-width:9.72"/>
	<line x1="1056.54" y1="1677.88" x2="1121.34" y2="1677.88" style="stroke:#F0F0F0;stroke-width:9.72"/>
	<line x1="1153.74" y1="1677.88" x2="1218.54" y2="1677.88" style="stroke:#F0F0F0;stroke-width:9.72"/>
	<line x1="1250.94" y1="1677.88" x2="1315.74" y2="1677.88" style="stroke:#F0F0F0;stroke-width:9.72"/>
	<line x1="1348.14" y1="1677.88" x2="1412.94" y2="1677.88" style="stroke:#F0F0F0;stroke-width:9.72"/>
	<line x1="1445.34" y1="1677.88" x2="1510.14" y2="1677.88" style="stroke:#F0F0F0;stroke-width:9.72"/>
	<line x1="1542.54" y1="1677.88" x2="1607.34" y2="1677.88" style="stroke:#F0F0F0;stroke-width:9.72"/>
	<line x1="1639.74" y1="1677.88" x2="1704.54" y2="1677.88" style="stroke:#F0F0F0;stroke-width:9.72"/>
	<line x1="1736.94" y1="1677.88" x2="1801.74" y2="1677.88" style="stroke:#F0F0F0;stroke-width:9.72"/>
	<line x1="1834.14" y1="1677.88" x2="1898.94" y2="1677.88" style="stroke:#F0F0F0;stroke-width:9.72"/>
	<line x1="1931.34" y1="1677.88" x2="1996.14" y2="1677.88" style="stroke:#F0F0F0;stroke-width:9.72"/>
	<line x1="2028.54" y1="1677.88" x2="2093.34" y2="1677.88" style="stroke:#F0F0F0;stroke-width:9.72"/>
	<line x1="2125.74" y1="1677.88" x2="2190.54" y2="1677.88" style="stroke:#F0F0F0;stroke-width:9.72"/>
	<line x1="2222.94" y1="1677.88" x2="2287.74" y2="1677.88" style="stroke:#F0F0F0;stroke-width:9.72"/>
	<line x1="2320.14" y1="1677.88" x2="2384.94" y2="1677.88" style="stroke:#F0F0F0;stroke-width:9.72"/>
	<line x1="2417.34" y1="1677.88" x2="2482.14" y2="1677.88" style="stroke:#F0F0F0;stroke-width:9.72"/>
	<line x1="2514.54" y1="1677.88" x2="2579.34" y2="1677.88" style="stroke:#F0F0F0;stroke-width:9.72"/>
	<line x1="2611.74" y1="1677.88" x2="2676.54" y2="1677.88" style="stroke:#F0F0F0;stroke-width:9.72"/>
	<line x1="2708.94" y1="1677.88" x2="2773.74" y2="1677.88" style="stroke:#F0F0F0;stroke-width:9.72"/>
	<line x1="2806.14" y1="1677.88" x2="2870.94" y2="1677.88" style="stroke:#F0F0F0;stroke-width:9.72"/>
	<line x1="2903.34" y1="1677.88" x2="2968.14" y2="1677.88" style="stroke:#F0F0F0;stroke-width:9.72"/>
	<line x1="3000.54" y1="1677.88" x2="3065.34" y2="1677.88" style="stroke:#F0F0F0;stroke-width:9.72"/>
	<line x1="3097.74" y1="1677.88" x2="3162.54" y2="1677.88" style="stroke:#F0F0F0;stroke-width:9.72"/>
	<line x1="3194.94" y1="1677.88" x2="3259.74" y2="1677.88" style="stroke:#F0F0F0;stroke-width:9.72"/>
	<line x1="3292.14" y1="1677.88" x2="3356.94" y2="1677.88" style="stroke:#F0F0F0;stroke-width:9.72"/>
	<line x1="3389.34" y1="1677.88" x2="3454.14" y2="1677.88" style="stroke:#F0F0F0;stroke-width:9.72"/>
	<line x1="3486.54" y1="1677.88" x2="3551.34" y2="1677.88" style="stroke:#F0F0F0;stroke-width:9.72"/>
	<line x1="3583.74" y1="1677.88" x2="3648.54" y2="1677.88" style="stroke:#F0F0F0;stroke-width:9.72"/>
	<line x1="3680.94" y1="1677.88" x2="3745.74" y2="1677.88" style="stroke:#F0F0F0;stroke-width:9.72"/>
	<line x1="3778.14" y1="1677.88" x2="3842.94" y2="1677.88" style="stroke:#F0F0F0;stroke-width:9.72"/>
	<line x1="3875.34" y1="1677.88" x2="3940.14" y2="1677.88" style="stroke:#F0F0F0;stroke-width:9.72"/>
	<line x1="3972.54" y1="1677.88" x2="4037.34" y2="1677.88" style="stroke:#F0F0F0;stroke-width:9.72"/>
	<line x1="4069.74" y1="1677.88" x2="4134.54" y2="1677.88" style="stroke:#F0F0F0;stroke-width:9.72"/>
	<line x1="4166.94" y1="1677.88" x2="4231.74" y2="1677.88" style="stroke:#F0F0F0;stroke-width:9.72"/>
	<line x1="4264.14" y1="1677.88" x2="4328.94" y2="1677.88" style="stroke:#F0F0F0;stroke-width:9.72"/>
	<line x1="4361.34" y1="1677.88" x2="4426.14" y2="1677.88" style="stroke:#F0F0F0;stroke-width:9.72"/>
	<line x1="4458.54" y1="1677.88" x2="4523.34" y2="1677.88" style="stroke:#F0F0F0;stroke-width:9.72"/>
	<line x1="4555.74" y1="1677.88" x2="4620.54" y2="1677.88" style="stroke:#F0F0F0;stroke-width:9.72"/>
	<line x1="4652.94" y1="1677.88" x2="4717.74" y2="1677.88" style="stroke:#F0F0F0;stroke-width:9.72"/>
	<line x1="4750.14" y1="1677.88" x2="4814.94" y2="1677.88" style="stroke:#F0F0F0;stroke-width:9.72"/>
	<line x1="4847.34" y1="1677.88" x2="4912.14" y2="1677.88" style="stroke:#F0F0F0;stroke-width:9.72"/>
	<line x1="4944.54" y1="1677.88" x2="5009.34" y2="1677.88" style="stroke:#F0F0F0;stroke-width:9.72"/>
	<line x1="5041.74" y1="1677.88" x2="5106.54" y2="1677.88" style="stroke:#F0F0F0;stroke-width:9.72"/>
	<line x1="5138.94" y1="1677.88" x2="5203.74" y2="1677.88" style="stroke:#F0F0F0;stroke-width:9.72"/>
	<line x1="5236.14" y1="1677.88" x2="5286.60" y2="1677.88" style="stroke:#F0F0F0;stroke-width:9.72"/>
	<line x1="473.34" y1="947.70" x2="538.14" y2="947.70" style="stroke:#F0F0F0;stroke-width:9.72"/>
	<line x1="570.54" y1="947.70" x2="635.34" y2="947.70" style="stroke:#F0F0F0;stroke-width:9.72"/>
	<line x1="667.74" y1="947.70" x2="732.54" y2="947.70" style="stroke:#F0F0F0;stroke-width:9.72"/>
	<line x1="764.94" y1="947.70" x2="829.74" y2="947.70" style="stroke:#F0F0F0;stroke-width:9.72"/>
	<line x1="862.14" y1="947.70" x2="926.94" y2="947.70" style="stroke:#F0F0F0;stroke-width:9.72"/>
	<line x1="959.34" y1="947.70" x2="1024.14" y2="947.70" style="stroke:#F0F0F0;stroke-width:9.72"/>
	<line x1="1056.54" y1="947.70" x2="1121.34" y2="947.70" style="stroke:#F0F0F0;stroke-width:9.72"/>
	<line x1="1153.74" y1="947.70" x2="1218.54" y2="947.70" style="stroke:#F0F0F0;stroke-width:9.72"/>
	<line x1="1250.94" y1="947.70" x2="1315.74" y2="947.70" style="stroke:#F0F0F0;stroke-width:9.72"/>
	<line x1="1348.14" y1="947.70" x2="1412.94" y2="947.70" style="stroke:#F0F0F0;stroke-width:9.72"/>
	<line x1="1445.34" y1="947.70" x2="1510.14" y2="947.70" style="stroke:#F0F0F0;stroke-width:9.72"/>
	<line x1="1542.54" y1="947.70" x2="1607.34" y2="947.70" style="stroke:#F0F0F0;stroke-width:9.72"/>
	<line x1="1639.74" y1="947.70" x2="1704.54" y2="947.70" style="stroke:#F0F0F0;stroke-width:9.72"/>
	<line x1="1736.94" y1="947.70" x2="1801.74" y2="947.70" style="stroke:#F0F0F0;stroke-width:9.72"/>
	<line x1="1834.14" y1="947.70" x2="1898.94" y2="947.70" style="stroke:#F0F0F0;stroke-width:9.72"/>
	<line x1="1931.34" y1="947.70" x2="1996.14" y2="947.70" style="stroke:#F0F0F0;stroke-width:9.72"/>
	<line x1="2028.54" y1="947.70" x2="2093.34" y2="947.70" style="stroke:#F0F0F0;stroke-width:9.72"/>
	<line x1="2125.74" y1="947.70" x2="2190.54" y2="947.70" style="stroke:#F0F0F0;stroke-width:9.72"/>
	<line x1="2222.94" y1="947.70" x2="2287.74" y2="947.70" style="stroke:#F0F0F0;stroke-width:9.72"/>
	<line x1="2320.14" y1="947.70" x2="2384.94" y2="947.70" style="stroke:#F0F0F0;stroke-width:9.72"/>
	<line x1="2417.34" y1="947.70" x2="2482.14" y2="947.70" style="stroke:#F0F0F0;stroke-width:9.72"/>
	<line x1="2514.54" y1="947.70" x2="2579.34" y2="947.70" style="stroke:#F0F0F0;stroke-width:9.72"/>
	<line x1="2611.74" y1="947.70" x2="2676.54" y2="947.70" style="stroke:#F0F0F0;stroke-width:9.72"/>
	<line x1="2708.94" y1="947.70" x2="2773.74" y2="947.70" style="stroke:#F0F0F0;stroke-width:9.72"/>
	<line x1="2806.14" y1="947.70" x2="2870.94" y2="947.70" style="stroke:#F0F0F0;stroke-width:9.72"/>
	<line x1="2903.34" y1="947.70" x2="2968.14" y2="947.70" style="stroke:#F0F0F0;stroke-width:9.72"/>
	<line x1="3000.54" y1="947.70" x2="3065.34" y2="947.70" style="stroke:#F0F0F0;stroke-width:9.72"/>
	<line x1="3097.74" y1="947.70" x2="3162.54" y2="947.70" style="stroke:#F0F0F0;stroke-width:9.72"/>
	<line x1="3194.94" y1="947.70" x2="3259.74" y2="947.70" style="stroke:#F0F0F0;stroke-width:9.72"/>
	<line x1="3292.14" y1="947.70" x2="3356.94" y2="947.70" style="stroke:#F0F0F0;stroke-width:9.72"/>
	<line x1="3389.34" y1="947.70" x2="3454.14" y2="947.70" style="stroke:#F0F0F0;stroke-width:9.72"/>
	<line x1="3486.54" y1="947.70" x2="3551.34" y2="947.70" style="stroke:#F0F0F0;stroke-width:9.72"/>
	<line x1="3583.74" y1="947.70" x2="3648.54" y2="947.70" style="stroke:#F0F0F0;stroke-width:9.72"/>
	<line x1="3680.94" y1="947.70" x2="3745.74" y2="947.70" style="stroke:#F0F0F0;stroke-width:9.72"/>
	<line x1="3778.14" y1="947.70" x2="3842.94" y2="947.70" style="stroke:#F0F0F0;stroke-width:9.72"/>
	<line x1="3875.34" y1="947.70" x2="3940.14" y2="947.70" style="stroke:#F0F0F0;stroke-width:9.72"/>
	<line x1="3972.54" y1="947.70" x2="4037.34" y2="947.70" style="stroke:#F0F0F0;stroke-width:9.72"/>
	<line x1="4069.74" y1="947.70" x2="4134.54" y2="947.70" style="stroke:#F0F0F0;stroke-width:9.72"/>
	<line x1="4166.94" y1="947.70" x2="4231.74" y2="947.70" style="stroke:#F0F0F0;stroke-width:9.72"/>
	<line x1="4264.14" y1="947.70" x2="4328.94" y2="947.70" style="stroke:#F0F0F0;stroke-width:9.72"/>
	<line x1="4361.34" y1="947.70" x2="4426.14" y2="947.70" style="stroke:#F0F0F0;stroke-width:9.72"/>
	<line x1="4458.54" y1="947.70" x2="4523.34" y2="947.70" style="stroke:#F0F0F0;stroke-width:9.72"/>
	<line x1="4555.74" y1="947.70" x2="4620.54" y2="947.70" style="stroke:#F0F0F0;stroke-width:9.72"/>
	<line x1="4652.94" y1="947.70" x2="4717.74" y2="947.70" style="stroke:#F0F0F0;stroke-width:9.72"/>
	<line x1="4750.14" y1="947.70" x2="4814.94" y2="947.70" style="stroke:#F0F0F0;stroke-width:9.72"/>
	<line x1="4847.34" y1="947.70" x2="4912.14" y2="947.70" style="stroke:#F0F0F0;stroke-width:9.72"/>
	<line x1="4944.54" y1="947.70" x2="5009.34" y2="947.70" style="stroke:#F0F0F0;stroke-width:9.72"/>
	<line x1="5041.74" y1="947.70" x2="5106.54" y2="947.70" style="stroke:#F0F0F0;stroke-width:9.72"/>
	<line x1="5138.94" y1="947.70" x2="5203.74" y2="947.70" style="stroke:#F0F0F0;stroke-width:9.72"/>
	<line x1="5236.14" y1="947.70" x2="5286.60" y2="947.70" style="stroke:#F0F0F0;stroke-width:9.72"/>
	<line x1="473.34" y1="217.69" x2="538.14" y2="217.69" style="stroke:#F0F0F0;stroke-width:9.72"/>
	<line x1="570.54" y1="217.69" x2="635.34" y2="217.69" style="stroke:#F0F0F0;stroke-width:9.72"/>
	<line x1="667.74" y1="217.69" x2="732.54" y2="217.69" style="stroke:#F0F0F0;stroke-width:9.72"/>
	<line x1="764.94" y1="217.69" x2="829.74" y2="217.69" style="stroke:#F0F0F0;stroke-width:9.72"/>
	<line x1="862.14" y1="217.69" x2="926.94" y2="217.69" style="stroke:#F0F0F0;stroke-width:9.72"/>
	<line x1="959.34" y1="217.69" x2="1024.14" y2="217.69" style="stroke:#F0F0F0;stroke-width:9.72"/>
	<line x1="1056.54" y1="217.69" x2="1121.34" y2="217.69" style="stroke:#F0F0F0;stroke-width:9.72"/>
	<line x1="1153.74" y1="217.69" x2="1218.54" y2="217.69" style="stroke:#F0F0F0;stroke-width:9.72"/>
	<line x1="1250.94" y1="217.69" x2="1315.74" y2="217.69" style="stroke:#F0F0F0;stroke-width:9.72"/>
	<line x1="1348.14" y1="217.69" x2="1412.94" y2="217.69" style="stroke:#F0F0F0;stroke-width:9.72"/>
	<line x1="1445.34" y1="217.69" x2="1510.14" y2="217.69" style="stroke:#F0F0F0;stroke-width:9.72"/>
	<line x1="1542.54" y1="217.69" x2="1607.34" y2="217.69" style="stroke:#F0F0F0;stroke-width:9.72"/>
	<line x1="1639.74" y1="217.69" x2="1704.54" y2="217.69" style="stroke:#F0F0F0;stroke-width:9.72"/>
	<line x1="1736.94" y1="217.69" x2="1801.74" y2="217.69" style="stroke:#F0F0F0;stroke-width:9.72"/>
	<line x1="1834.14" y1="217.69" x2="1898.94" y2="217.69" style="stroke:#F0F0F0;stroke-width:9.72"/>
	<line x1="1931.34" y1="217.69" x2="1996.14" y2="217.69" style="stroke:#F0F0F0;stroke-width:9.72"/>
	<line x1="2028.54" y1="217.69" x2="2093.34" y2="217.69" style="stroke:#F0F0F0;stroke-width:9.72"/>
	<line x1="2125.74" y1="217.69" x2="2190.54" y2="217.69" style="stroke:#F0F0F0;stroke-width:9.72"/>
	<line x1="2222.94" y1="217.69" x2="2287.74" y2="217.69" style="stroke:#F0F0F0;stroke-width:9.72"/>
	<line x1="2320.14" y1="217.69" x2="2384.94" y2="217.69" style="stroke:#F0F0F0;stroke-width:9.72"/>
	<line x1="2417.34" y1="217.69" x2="2482.14" y2="217.69" style="stroke:#F0F0F0;stroke-width:9.72"/>
	<line x1="2514.54" y1="217.69" x2="2579.34" y2="217.69" style="stroke:#F0F0F0;stroke-width:9.72"/>
	<line x1="2611.74" y1="217.69" x2="2676.54" y2="217.69" style="stroke:#F0F0F0;stroke-width:9.72"/>
	<line x1="2708.94" y1="217.69" x2="2773.74" y2="217.69" style="stroke:#F0F0F0;stroke-width:9.72"/>
	<line x1="2806.14" y1="217.69" x2="2870.94" y2="217.69" style="stroke:#F0F0F0;stroke-width:9.72"/>
	<line x1="2903.34" y1="217.69" x2="2968.14" y2="217.69" style="stroke:#F0F0F0;stroke-width:9.72"/>
	<line x1="3000.54" y1="217.69" x2="3065.34" y2="217.69" style="stroke:#F0F0F0;stroke-width:9.72"/>
	<line x1="3097.74" y1="217.69" x2="3162.54" y2="217.69" style="stroke:#F0F0F0;stroke-width:9.72"/>
	<line x1="3194.94" y1="217.69" x2="3259.74" y2="217.69" style="stroke:#F0F0F0;stroke-width:9.72"/>
	<line x1="3292.14" y1="217.69" x2="3356.94" y2="217.69" style="stroke:#F0F0F0;stroke-width:9.72"/>
	<line x1="3389.34" y1="217.69" x2="3454.14" y2="217.69" style="stroke:#F0F0F0;stroke-width:9.72"/>
	<line x1="3486.54" y1="217.69" x2="3551.34" y2="217.69" style="stroke:#F0F0F0;stroke-width:9.72"/>
	<line x1="3583.74" y1="217.69" x2="3648.54" y2="217.69" style="stroke:#F0F0F0;stroke-width:9.72"/>
	<line x1="3680.94" y1="217.69" x2="3745.74" y2="217.69" style="stroke:#F0F0F0;stroke-width:9.72"/>
	<line x1="3778.14" y1="217.69" x2="3842.94" y2="217.69" style="stroke:#F0F0F0;stroke-width:9.72"/>
	<line x1="3875.34" y1="217.69" x2="3940.14" y2="217.69" style="stroke:#F0F0F0;stroke-width:9.72"/>
	<line x1="3972.54" y1="217.69" x2="4037.34" y2="217.69" style="stroke:#F0F0F0;stroke-width:9.72"/>
	<line x1="4069.74" y1="217.69" x2="4134.54" y2="217.69" style="stroke:#F0F0F0;stroke-width:9.72"/>
	<line x1="4166.94" y1="217.69" x2="4231.74" y2="217.69" style="stroke:#F0F0F0;stroke-width:9.72"/>
	<line x1="4264.14" y1="217.69" x2="4328.94" y2="217.69" style="stroke:#F0F0F0;stroke-width:9.72"/>
	<line x1="4361.34" y1="217.69" x2="4426.14" y2="217.69" style="stroke:#F0F0F0;stroke-width:9.72"/>
	<line x1="4458.54" y1="217.69" x2="4523.34" y2="217.69" style="stroke:#F0F0F0;stroke-width:9.72"/>
	<line x1="4555.74" y1="217.69" x2="4620.54" y2="217.69" style="stroke:#F0F0F0;stroke-width:9.72"/>
	<line x1="4652.94" y1="217.69" x2="4717.74" y2="217.69" style="stroke:#F0F0F0;stroke-width:9.72"/>
	<line x1="4750.14" y1="217.69" x2="4814.94" y2="217.69" style="stroke:#F0F0F0;stroke-width:9.72"/>
	<line x1="4847.34" y1="217.69" x2="4912.14" y2="217.69" style="stroke:#F0F0F0;stroke-width:9.72"/>
	<line x1="4944.54" y1="217.69" x2="5009.34" y2="217.69" style="stroke:#F0F0F0;stroke-width:9.72"/>
	<line x1="5041.74" y1="217.69" x2="5106.54" y2="217.69" style="stroke:#F0F0F0;stroke-width:9.72"/>
	<line x1="5138.94" y1="217.69" x2="5203.74" y2="217.69" style="stroke:#F0F0F0;stroke-width:9.72"/>
	<line x1="5236.14" y1="217.69" x2="5286.60" y2="217.69" style="stroke:#F0F0F0;stroke-width:9.72"/>
	<path d=" M544.56 1789.43 L700.31 1507.44 L855.90 1369.91 L1011.66 1358.78 L1167.41 1349.66 L1323.00 1250.44 L1478.76 1250.44 L1634.34 823.16 L1790.10 828.06 L1945.86 802.07 L2101.44 799.37 L2257.20 804.43 L2412.79 803.42 L2568.54 993.43 L2724.30 793.29 L2879.89 781.31 L3035.64 775.24 L3191.23 982.63 L3346.99 588.43 L3502.74 607.33 L3658.33 475.54 L3814.09 272.03 L3969.68 377.32 L4125.43 377.32 L4281.19 433.18 L4436.77 433.18 L4592.53 436.05 L4748.12 436.05 L4903.88 243.84 L5059.63 243.84 L5215.22 184.78" stroke-linejoin="round" style="fill:none;stroke:#000000;stroke-width:14.58"/>
	<line x1="544.56" y1="2251.13" x2="609.36" y2="2249.44" style="stroke:#000000;stroke-width:14.58"/>
	<line x1="641.76" y1="2248.59" x2="700.31" y2="2247.07" style="stroke:#000000;stroke-width:14.58"/>
	<line x1="700.31" y1="2247.07" x2="706.56" y2="2246.91" style="stroke:#000000;stroke-width:14.58"/>
	<line x1="738.96" y1="2246.06" x2="803.76" y2="2244.38" style="stroke:#000000;stroke-width:14.58"/>
	<line x1="836.16" y1="2243.53" x2="855.90" y2="2243.03" style="stroke:#000000;stroke-width:14.58"/>
	<line x1="855.90" y1="2243.03" x2="900.96" y2="2241.84" style="stroke:#000000;stroke-width:14.58"/>
	<line x1="933.36" y1="2241.00" x2="998.16" y2="2239.31" style="stroke:#000000;stroke-width:14.58"/>
	<line x1="1030.56" y1="2239.99" x2="1095.36" y2="2242.86" style="stroke:#000000;stroke-width:14.58"/>
	<line x1="1127.76" y1="2244.38" x2="1167.41" y2="2246.23" style="stroke:#000000;stroke-width:14.58"/>
	<line x1="1167.41" y1="2246.23" x2="1192.39" y2="2245.05" style="stroke:#000000;stroke-width:14.58"/>
	<line x1="1224.79" y1="2243.53" x2="1289.59" y2="2240.66" style="stroke:#000000;stroke-width:14.58"/>
	<line x1="1321.99" y1="2239.14" x2="1323.00" y2="2238.98" style="stroke:#000000;stroke-width:14.58"/>
	<line x1="1323.00" y1="2238.98" x2="1386.62" y2="2242.01" style="stroke:#000000;stroke-width:14.58"/>
	<line x1="1419.02" y1="2243.53" x2="1478.76" y2="2246.23" style="stroke:#000000;stroke-width:14.58"/>
	<line x1="1478.76" y1="2246.23" x2="1483.82" y2="2246.40" style="stroke:#000000;stroke-width:14.58"/>
	<line x1="1516.05" y1="2248.26" x2="1580.85" y2="2251.63" style="stroke:#000000;stroke-width:14.58"/>
	<line x1="1613.08" y1="2253.32" x2="1634.34" y2="2254.50" style="stroke:#000000;stroke-width:14.58"/>
	<line x1="1634.34" y1="2254.50" x2="1677.88" y2="2256.36" style="stroke:#000000;stroke-width:14.58"/>
	<line x1="1710.28" y1="2257.71" x2="1774.91" y2="2260.41" style="stroke:#000000;stroke-width:14.58"/>
	<line x1="1807.31" y1="2261.08" x2="1872.11" y2="2261.08" style="stroke:#000000;stroke-width:14.58"/>
	<line x1="1904.51" y1="2261.08" x2="1945.86" y2="2261.08" style="stroke:#000000;stroke-width:14.58"/>
	<line x1="1945.86" y1="2261.08" x2="1969.31" y2="2261.42" style="stroke:#000000;stroke-width:14.58"/>
	<line x1="2001.71" y1="2261.76" x2="2066.51" y2="2262.43" style="stroke:#000000;stroke-width:14.58"/>
	<line x1="2098.91" y1="2262.77" x2="2101.44" y2="2262.77" style="stroke:#000000;stroke-width:14.58"/>
	<line x1="2101.44" y1="2262.77" x2="2163.71" y2="2262.94" style="stroke:#000000;stroke-width:14.58"/>
	<line x1="2196.11" y1="2263.11" x2="2257.20" y2="2263.44" style="stroke:#000000;stroke-width:14.58"/>
	<line x1="2257.20" y1="2263.44" x2="2260.91" y2="2263.44" style="stroke:#000000;stroke-width:14.58"/>
	<line x1="2293.31" y1="2263.61" x2="2358.11" y2="2264.29" style="stroke:#000000;stroke-width:14.58"/>
	<line x1="2390.51" y1="2264.63" x2="2412.79" y2="2264.79" style="stroke:#000000;stroke-width:14.58"/>
	<line x1="2412.79" y1="2264.79" x2="2455.31" y2="2264.29" style="stroke:#000000;stroke-width:14.58"/>
	<line x1="2487.71" y1="2263.78" x2="2552.51" y2="2263.11" style="stroke:#000000;stroke-width:14.58"/>
	<line x1="2584.91" y1="2262.77" x2="2649.71" y2="2262.43" style="stroke:#000000;stroke-width:14.58"/>
	<line x1="2682.11" y1="2262.26" x2="2724.30" y2="2261.93" style="stroke:#000000;stroke-width:14.58"/>
	<line x1="2724.30" y1="2261.93" x2="2746.91" y2="2261.25" style="stroke:#000000;stroke-width:14.58"/>
	<line x1="2779.31" y1="2260.07" x2="2844.11" y2="2257.71" style="stroke:#000000;stroke-width:14.58"/>
	<line x1="2876.51" y1="2256.69" x2="2879.89" y2="2256.53" style="stroke:#000000;stroke-width:14.58"/>
	<line x1="2879.89" y1="2256.53" x2="2941.31" y2="2256.86" style="stroke:#000000;stroke-width:14.58"/>
	<line x1="2973.71" y1="2257.03" x2="3035.64" y2="2257.37" style="stroke:#000000;stroke-width:14.58"/>
	<line x1="3035.64" y1="2257.37" x2="3038.34" y2="2258.04" style="stroke:#000000;stroke-width:14.58"/>
	<line x1="3069.56" y1="2267.16" x2="3131.83" y2="2285.21" style="stroke:#000000;stroke-width:14.58"/>
	<line x1="3162.88" y1="2294.32" x2="3191.23" y2="2302.59" style="stroke:#000000;stroke-width:14.58"/>
	<line x1="3191.23" y1="2302.59" x2="3226.50" y2="2301.41" style="stroke:#000000;stroke-width:14.58"/>
	<line x1="3258.90" y1="2300.40" x2="3323.53" y2="2298.38" style="stroke:#000000;stroke-width:14.58"/>
	<line x1="3355.93" y1="2298.38" x2="3420.56" y2="2303.61" style="stroke:#000000;stroke-width:14.58"/>
	<line x1="3452.79" y1="2306.14" x2="3502.74" y2="2310.02" style="stroke:#000000;stroke-width:14.58"/>
	<line x1="3502.74" y1="2310.02" x2="3517.43" y2="2310.02" style="stroke:#000000;stroke-width:14.58"/>
	<line x1="3549.83" y1="2310.02" x2="3614.63" y2="2310.02" style="stroke:#000000;stroke-width:14.58"/>
	<line x1="3647.03" y1="2310.02" x2="3658.33" y2="2310.02" style="stroke:#000000;stroke-width:14.58"/>
	<line x1="3658.33" y1="2310.02" x2="3711.83" y2="2310.86" style="stroke:#000000;stroke-width:14.58"/>
	<line x1="3744.23" y1="2311.20" x2="3809.03" y2="2312.04" style="stroke:#000000;stroke-width:14.58"/>
	<line x1="3841.43" y1="2311.37" x2="3906.23" y2="2309.68" style="stroke:#000000;stroke-width:14.58"/>
	<line x1="3938.63" y1="2308.84" x2="3969.68" y2="2307.99" style="stroke:#000000;stroke-width:14.58"/>
	<line x1="3969.68" y1="2307.99" x2="4003.43" y2="2308.16" style="stroke:#000000;stroke-width:14.58"/>
	<line x1="4035.83" y1="2308.33" x2="4100.63" y2="2308.67" style="stroke:#000000;stroke-width:14.58"/>
	<line x1="4133.02" y1="2309.34" x2="4197.49" y2="2315.25" style="stroke:#000000;stroke-width:14.58"/>
	<line x1="4229.72" y1="2318.12" x2="4281.19" y2="2322.68" style="stroke:#000000;stroke-width:14.58"/>
	<line x1="4281.19" y1="2322.68" x2="4294.35" y2="2322.84" style="stroke:#000000;stroke-width:14.58"/>
	<line x1="4326.75" y1="2323.18" x2="4391.55" y2="2323.69" style="stroke:#000000;stroke-width:14.58"/>
	<line x1="4423.95" y1="2324.03" x2="4436.77" y2="2324.19" style="stroke:#000000;stroke-width:14.58"/>
	<line x1="4436.77" y1="2324.19" x2="4488.75" y2="2324.36" style="stroke:#000000;stroke-width:14.58"/>
	<line x1="4521.15" y1="2324.53" x2="4585.95" y2="2324.87" style="stroke:#000000;stroke-width:14.58"/>
	<line x1="4618.35" y1="2325.21" x2="4683.15" y2="2326.05" style="stroke:#000000;stroke-width:14.58"/>
	<line x1="4715.55" y1="2326.39" x2="4748.12" y2="2326.73" style="stroke:#000000;stroke-width:14.58"/>
	<line x1="4748.12" y1="2326.73" x2="4780.35" y2="2326.22" style="stroke:#000000;stroke-width:14.58"/>
	<line x1="4812.75" y1="2325.54" x2="4877.55" y2="2324.36" style="stroke:#000000;stroke-width:14.58"/>
	<line x1="4909.95" y1="2324.19" x2="4974.75" y2="2326.56" style="stroke:#000000;stroke-width:14.58"/>
	<line x1="5007.15" y1="2327.74" x2="5059.63" y2="2329.59" style="stroke:#000000;stroke-width:14.58"/>
	<line x1="5059.63" y1="2329.59" x2="5071.95" y2="2329.59" style="stroke:#000000;stroke-width:14.58"/>
	<line x1="5104.35" y1="2329.59" x2="5169.15" y2="2329.59" style="stroke:#000000;stroke-width:14.58"/>
	<line x1="5201.55" y1="2329.59" x2="5215.22" y2="2329.59" style="stroke:#000000;stroke-width:14.58"/>
	<path d="" stroke-linejoin="round" style="fill:none;stroke:#000000;stroke-width:14.58"/>
	<line x1="473.34" y1="2479.11" x2="473.34" y2="113.40" style="stroke:#000000;stroke-width:6.48"/>
	<line x1="473.34" y1="2407.89" x2="428.46" y2="2407.89" style="stroke:#000000;stroke-width:6.48"/>
	<text x="371.99" y="2407.89" style="font-family:'Helvetica';font-size:112.56px;fill:#000000" transform="rotate(-90 371.99,2407.89)" text-anchor="middle">0</text>
	<line x1="473.34" y1="1677.88" x2="428.46" y2="1677.88" style="stroke:#000000;stroke-width:6.48"/>
	<text x="371.99" y="1677.88" style="font-family:'Helvetica';font-size:112.56px;fill:#000000" transform="rotate(-90 371.99,1677.88)" text-anchor="middle">5</text>
	<line x1="473.34" y1="947.70" x2="428.46" y2="947.70" style="stroke:#000000;stroke-width:6.48"/>
	<text x="371.99" y="947.70" style="font-family:'Helvetica';font-size:112.56px;fill:#000000" transform="rotate(-90 371.99,947.70)" text-anchor="middle">10</text>
	<line x1="473.34" y1="217.69" x2="428.46" y2="217.69" style="stroke:#000000;stroke-width:6.48"/>
	<text x="371.99" y="217.69" style="font-family:'Helvetica';font-size:112.56px;fill:#000000" transform="rotate(-90 371.99,217.69)" text-anchor="middle">15</text>
	<text x="214.55" y="1296.34" style="font-family:'Helvetica';font-size:112.56px;fill:#000000" transform="rotate(-90 214.55,1296.34)" text-anchor="middle">Average Years</text>
	<line x1="473.34" y1="2479.11" x2="5286.60" y2="2479.11" style="stroke:#000000;stroke-width:6.48"/>
	<line x1="544.73" y1="2479.11" x2="544.73" y2="2524.16" style="stroke:#000000;stroke-width:6.48"/>
	<text x="544.73" y="2625.31" style="font-family:'Helvetica';font-size:112.56px;fill:#000000" text-anchor="middle">1980</text>
	<line x1="2101.61" y1="2479.11" x2="2101.61" y2="2524.16" style="stroke:#000000;stroke-width:6.48"/>
	<text x="2101.61" y="2625.31" style="font-family:'Helvetica';font-size:112.56px;fill:#000000" text-anchor="middle">1990</text>
	<line x1="3658.50" y1="2479.11" x2="3658.50" y2="2524.16" style="stroke:#000000;stroke-width:6.48"/>
	<text x="3658.50" y="2625.31" style="font-family:'Helvetica';font-size:112.56px;fill:#000000" text-anchor="middle">2000</text>
	<line x1="5215.39" y1="2479.11" x2="5215.39" y2="2524.16" style="stroke:#000000;stroke-width:6.48"/>
	<text x="5215.39" y="2625.31" style="font-family:'Helvetica';font-size:112.56px;fill:#000000" text-anchor="middle">2010</text>
	<text x="2880.06" y="2782.75" style="font-family:'Helvetica';font-size:112.56px;fill:#000000" text-anchor="middle">Year</text>
	<rect x="1534.61" y="2878.03" width="2330.77" height="209.76" style="fill:#FFFFFF"/>
	<rect x="1537.85" y="2881.27" width="2324.29" height="203.28" style="fill:none;stroke:#909090;stroke-width:6.48"/>
	<line x1="1583.21" y1="2982.83" x2="1842.41" y2="2982.83" style="stroke:#000000;stroke-width:14.58"/>
	<line x1="2833.82" y1="2982.83" x2="2898.62" y2="2982.83" style="stroke:#000000;stroke-width:14.58"/>
	<line x1="2931.02" y1="2982.83" x2="2995.82" y2="2982.83" style="stroke:#000000;stroke-width:14.58"/>
	<line x1="3028.22" y1="2982.83" x2="3093.02" y2="2982.83" style="stroke:#000000;stroke-width:14.58"/>
	<text x="1909.91" y="3014.35" style="font-family:'Helvetica';font-size:89.94px;fill:#000000">Loss Carryforward</text>
	<text x="3160.52" y="3014.35" style="font-family:'Helvetica';font-size:89.94px;fill:#000000">Loss Carryback</text>
</svg>
