<?xml version="1.0" encoding="UTF-8" standalone="no"?>
<!-- This is a Stata 18.0 generated SVG file (http://www.stata.com) -->

<svg version="1.1" width="7.500in" height="4.500in" viewBox="0 0 5400 3240" xmlns="http://www.w3.org/2000/svg" xmlns:xlink="http://www.w3.org/1999/xlink">
	<desc>Stata Graph - Graph</desc>
	<rect x="0" y="0" width="5400" height="3240" style="fill:#FFFFFF;stroke:none"/>
	<rect x="0.00" y="0.00" width="5400.00" height="3240.00" style="fill:#FFFFFF"/>
	<rect x="3.24" y="3.24" width="5393.52" height="3233.52" style="fill:none;stroke:#FFFFFF;stroke-width:6.48"/>
	<rect x="473.34" y="113.40" width="4813.26" height="2365.71" style="fill:#FFFFFF"/>
	<rect x="476.58" y="116.64" width="4806.78" height="2359.23" style="fill:none;stroke:#FFFFFF;stroke-width:6.48"/>
	<line x1="473.34" y1="1852.03" x2="538.14" y2="1852.03" style="stroke:#F0F0F0;stroke-width:9.72"/>
	<line x1="570.54" y1="1852.03" x2="635.34" y2="1852.03" style="stroke:#F0F0F0;stroke-width:9.72"/>
	<line x1="667.74" y1="1852.03" x2="732.54" y2="1852.03" style="stroke:#F0F0F0;stroke-width:9.72"/>
	<line x1="764.94" y1="1852.03" x2="829.74" y2="1852.03" style="stroke:#F0F0F0;stroke-width:9.72"/>
	<line x1="862.14" y1="1852.03" x2="926.94" y2="1852.03" style="stroke:#F0F0F0;stroke-width:9.72"/>
	<line x1="959.34" y1="1852.03" x2="1024.14" y2="1852.03" style="stroke:#F0F0F0;stroke-width:9.72"/>
	<line x1="1056.54" y1="1852.03" x2="1121.34" y2="1852.03" style="stroke:#F0F0F0;stroke-width:9.72"/>
	<line x1="1153.74" y1="1852.03" x2="1218.54" y2="1852.03" style="stroke:#F0F0F0;stroke-width:9.72"/>
	<line x1="1250.94" y1="1852.03" x2="1315.74" y2="1852.03" style="stroke:#F0F0F0;stroke-width:9.72"/>
	<line x1="1348.14" y1="1852.03" x2="1412.94" y2="1852.03" style="stroke:#F0F0F0;stroke-width:9.72"/>
	<line x1="1445.34" y1="1852.03" x2="1510.14" y2="1852.03" style="stroke:#F0F0F0;stroke-width:9.72"/>
	<line x1="1542.54" y1="1852.03" x2="1607.34" y2="1852.03" style="stroke:#F0F0F0;stroke-width:9.72"/>
	<line x1="1639.74" y1="1852.03" x2="1704.54" y2="1852.03" style="stroke:#F0F0F0;stroke-width:9.72"/>
	<line x1="1736.94" y1="1852.03" x2="1801.74" y2="1852.03" style="stroke:#F0F0F0;stroke-width:9.72"/>
	<line x1="1834.14" y1="1852.03" x2="1898.94" y2="1852.03" style="stroke:#F0F0F0;stroke-width:9.72"/>
	<line x1="1931.34" y1="1852.03" x2="1996.14" y2="1852.03" style="stroke:#F0F0F0;stroke-width:9.72"/>
	<line x1="2028.54" y1="1852.03" x2="2093.34" y2="1852.03" style="stroke:#F0F0F0;stroke-width:9.72"/>
	<line x1="2125.74" y1="1852.03" x2="2190.54" y2="1852.03" style="stroke:#F0F0F0;stroke-width:9.72"/>
	<line x1="2222.94" y1="1852.03" x2="2287.74" y2="1852.03" style="stroke:#F0F0F0;stroke-width:9.72"/>
	<line x1="2320.14" y1="1852.03" x2="2384.94" y2="1852.03" style="stroke:#F0F0F0;stroke-width:9.72"/>
	<line x1="2417.34" y1="1852.03" x2="2482.14" y2="1852.03" style="stroke:#F0F0F0;stroke-width:9.72"/>
	<line x1="2514.54" y1="1852.03" x2="2579.34" y2="1852.03" style="stroke:#F0F0F0;stroke-width:9.72"/>
	<line x1="2611.74" y1="1852.03" x2="2676.54" y2="1852.03" style="stroke:#F0F0F0;stroke-width:9.72"/>
	<line x1="2708.94" y1="1852.03" x2="2773.74" y2="1852.03" style="stroke:#F0F0F0;stroke-width:9.72"/>
	<line x1="2806.14" y1="1852.03" x2="2870.94" y2="1852.03" style="stroke:#F0F0F0;stroke-width:9.72"/>
	<line x1="2903.34" y1="1852.03" x2="2968.14" y2="1852.03" style="stroke:#F0F0F0;stroke-width:9.72"/>
	<line x1="3000.54" y1="1852.03" x2="3065.34" y2="1852.03" style="stroke:#F0F0F0;stroke-width:9.72"/>
	<line x1="3097.74" y1="1852.03" x2="3162.54" y2="1852.03" style="stroke:#F0F0F0;stroke-width:9.72"/>
	<line x1="3194.94" y1="1852.03" x2="3259.74" y2="1852.03" style="stroke:#F0F0F0;stroke-width:9.72"/>
	<line x1="3292.14" y1="1852.03" x2="3356.94" y2="1852.03" style="stroke:#F0F0F0;stroke-width:9.72"/>
	<line x1="3389.34" y1="1852.03" x2="3454.14" y2="1852.03" style="stroke:#F0F0F0;stroke-width:9.72"/>
	<line x1="3486.54" y1="1852.03" x2="3551.34" y2="1852.03" style="stroke:#F0F0F0;stroke-width:9.72"/>
	<line x1="3583.74" y1="1852.03" x2="3648.54" y2="1852.03" style="stroke:#F0F0F0;stroke-width:9.72"/>
	<line x1="3680.94" y1="1852.03" x2="3745.74" y2="1852.03" style="stroke:#F0F0F0;stroke-width:9.72"/>
	<line x1="3778.14" y1="1852.03" x2="3842.94" y2="1852.03" style="stroke:#F0F0F0;stroke-width:9.72"/>
	<line x1="3875.34" y1="1852.03" x2="3940.14" y2="1852.03" style="stroke:#F0F0F0;stroke-width:9.72"/>
	<line x1="3972.54" y1="1852.03" x2="4037.34" y2="1852.03" style="stroke:#F0F0F0;stroke-width:9.72"/>
	<line x1="4069.74" y1="1852.03" x2="4134.54" y2="1852.03" style="stroke:#F0F0F0;stroke-width:9.72"/>
	<line x1="4166.94" y1="1852.03" x2="4231.74" y2="1852.03" style="stroke:#F0F0F0;stroke-width:9.72"/>
	<line x1="4264.14" y1="1852.03" x2="4328.94" y2="1852.03" style="stroke:#F0F0F0;stroke-width:9.72"/>
	<line x1="4361.34" y1="1852.03" x2="4426.14" y2="1852.03" style="stroke:#F0F0F0;stroke-width:9.72"/>
	<line x1="4458.54" y1="1852.03" x2="4523.34" y2="1852.03" style="stroke:#F0F0F0;stroke-width:9.72"/>
	<line x1="4555.74" y1="1852.03" x2="4620.54" y2="1852.03" style="stroke:#F0F0F0;stroke-width:9.72"/>
	<line x1="4652.94" y1="1852.03" x2="4717.74" y2="1852.03" style="stroke:#F0F0F0;stroke-width:9.72"/>
	<line x1="4750.14" y1="1852.03" x2="4814.94" y2="1852.03" style="stroke:#F0F0F0;stroke-width:9.72"/>
	<line x1="4847.34" y1="1852.03" x2="4912.14" y2="1852.03" style="stroke:#F0F0F0;stroke-width:9.72"/>
	<line x1="4944.54" y1="1852.03" x2="5009.34" y2="1852.03" style="stroke:#F0F0F0;stroke-width:9.72"/>
	<line x1="5041.74" y1="1852.03" x2="5106.54" y2="1852.03" style="stroke:#F0F0F0;stroke-width:9.72"/>
	<line x1="5138.94" y1="1852.03" x2="5203.74" y2="1852.03" style="stroke:#F0F0F0;stroke-width:9.72"/>
	<line x1="5236.14" y1="1852.03" x2="5286.60" y2="1852.03" style="stroke:#F0F0F0;stroke-width:9.72"/>
	<line x1="473.34" y1="1296.34" x2="538.14" y2="1296.34" style="stroke:#F0F0F0;stroke-width:9.72"/>
	<line x1="570.54" y1="1296.34" x2="635.34" y2="1296.34" style="stroke:#F0F0F0;stroke-width:9.72"/>
	<line x1="667.74" y1="1296.34" x2="732.54" y2="1296.34" style="stroke:#F0F0F0;stroke-width:9.72"/>
	<line x1="764.94" y1="1296.34" x2="829.74" y2="1296.34" style="stroke:#F0F0F0;stroke-width:9.72"/>
	<line x1="862.14" y1="1296.34" x2="926.94" y2="1296.34" style="stroke:#F0F0F0;stroke-width:9.72"/>
	<line x1="959.34" y1="1296.34" x2="1024.14" y2="1296.34" style="stroke:#F0F0F0;stroke-width:9.72"/>
	<line x1="1056.54" y1="1296.34" x2="1121.34" y2="1296.34" style="stroke:#F0F0F0;stroke-width:9.72"/>
	<line x1="1153.74" y1="1296.34" x2="1218.54" y2="1296.34" style="stroke:#F0F0F0;stroke-width:9.72"/>
	<line x1="1250.94" y1="1296.34" x2="1315.74" y2="1296.34" style="stroke:#F0F0F0;stroke-width:9.72"/>
	<line x1="1348.14" y1="1296.34" x2="1412.94" y2="1296.34" style="stroke:#F0F0F0;stroke-width:9.72"/>
	<line x1="1445.34" y1="1296.34" x2="1510.14" y2="1296.34" style="stroke:#F0F0F0;stroke-width:9.72"/>
	<line x1="1542.54" y1="1296.34" x2="1607.34" y2="1296.34" style="stroke:#F0F0F0;stroke-width:9.72"/>
	<line x1="1639.74" y1="1296.34" x2="1704.54" y2="1296.34" style="stroke:#F0F0F0;stroke-width:9.72"/>
	<line x1="1736.94" y1="1296.34" x2="1801.74" y2="1296.34" style="stroke:#F0F0F0;stroke-width:9.72"/>
	<line x1="1834.14" y1="1296.34" x2="1898.94" y2="1296.34" style="stroke:#F0F0F0;stroke-width:9.72"/>
	<line x1="1931.34" y1="1296.34" x2="1996.14" y2="1296.34" style="stroke:#F0F0F0;stroke-width:9.72"/>
	<line x1="2028.54" y1="1296.34" x2="2093.34" y2="1296.34" style="stroke:#F0F0F0;stroke-width:9.72"/>
	<line x1="2125.74" y1="1296.34" x2="2190.54" y2="1296.34" style="stroke:#F0F0F0;stroke-width:9.72"/>
	<line x1="2222.94" y1="1296.34" x2="2287.74" y2="1296.34" style="stroke:#F0F0F0;stroke-width:9.72"/>
	<line x1="2320.14" y1="1296.34" x2="2384.94" y2="1296.34" style="stroke:#F0F0F0;stroke-width:9.72"/>
	<line x1="2417.34" y1="1296.34" x2="2482.14" y2="1296.34" style="stroke:#F0F0F0;stroke-width:9.72"/>
	<line x1="2514.54" y1="1296.34" x2="2579.34" y2="1296.34" style="stroke:#F0F0F0;stroke-width:9.72"/>
	<line x1="2611.74" y1="1296.34" x2="2676.54" y2="1296.34" style="stroke:#F0F0F0;stroke-width:9.72"/>
	<line x1="2708.94" y1="1296.34" x2="2773.74" y2="1296.34" style="stroke:#F0F0F0;stroke-width:9.72"/>
	<line x1="2806.14" y1="1296.34" x2="2870.94" y2="1296.34" style="stroke:#F0F0F0;stroke-width:9.72"/>
	<line x1="2903.34" y1="1296.34" x2="2968.14" y2="1296.34" style="stroke:#F0F0F0;stroke-width:9.72"/>
	<line x1="3000.54" y1="1296.34" x2="3065.34" y2="1296.34" style="stroke:#F0F0F0;stroke-width:9.72"/>
	<line x1="3097.74" y1="1296.34" x2="3162.54" y2="1296.34" style="stroke:#F0F0F0;stroke-width:9.72"/>
	<line x1="3194.94" y1="1296.34" x2="3259.74" y2="1296.34" style="stroke:#F0F0F0;stroke-width:9.72"/>
	<line x1="3292.14" y1="1296.34" x2="3356.94" y2="1296.34" style="stroke:#F0F0F0;stroke-width:9.72"/>
	<line x1="3389.34" y1="1296.34" x2="3454.14" y2="1296.34" style="stroke:#F0F0F0;stroke-width:9.72"/>
	<line x1="3486.54" y1="1296.34" x2="3551.34" y2="1296.34" style="stroke:#F0F0F0;stroke-width:9.72"/>
	<line x1="3583.74" y1="1296.34" x2="3648.54" y2="1296.34" style="stroke:#F0F0F0;stroke-width:9.72"/>
	<line x1="3680.94" y1="1296.34" x2="3745.74" y2="1296.34" style="stroke:#F0F0F0;stroke-width:9.72"/>
	<line x1="3778.14" y1="1296.34" x2="3842.94" y2="1296.34" style="stroke:#F0F0F0;stroke-width:9.72"/>
	<line x1="3875.34" y1="1296.34" x2="3940.14" y2="1296.34" style="stroke:#F0F0F0;stroke-width:9.72"/>
	<line x1="3972.54" y1="1296.34" x2="4037.34" y2="1296.34" style="stroke:#F0F0F0;stroke-width:9.72"/>
	<line x1="4069.74" y1="1296.34" x2="4134.54" y2="1296.34" style="stroke:#F0F0F0;stroke-width:9.72"/>
	<line x1="4166.94" y1="1296.34" x2="4231.74" y2="1296.34" style="stroke:#F0F0F0;stroke-width:9.72"/>
	<line x1="4264.14" y1="1296.34" x2="4328.94" y2="1296.34" style="stroke:#F0F0F0;stroke-width:9.72"/>
	<line x1="4361.34" y1="1296.34" x2="4426.14" y2="1296.34" style="stroke:#F0F0F0;stroke-width:9.72"/>
	<line x1="4458.54" y1="1296.34" x2="4523.34" y2="1296.34" style="stroke:#F0F0F0;stroke-width:9.72"/>
	<line x1="4555.74" y1="1296.34" x2="4620.54" y2="1296.34" style="stroke:#F0F0F0;stroke-width:9.72"/>
	<line x1="4652.94" y1="1296.34" x2="4717.74" y2="1296.34" style="stroke:#F0F0F0;stroke-width:9.72"/>
	<line x1="4750.14" y1="1296.34" x2="4814.94" y2="1296.34" style="stroke:#F0F0F0;stroke-width:9.72"/>
	<line x1="4847.34" y1="1296.34" x2="4912.14" y2="1296.34" style="stroke:#F0F0F0;stroke-width:9.72"/>
	<line x1="4944.54" y1="1296.34" x2="5009.34" y2="1296.34" style="stroke:#F0F0F0;stroke-width:9.72"/>
	<line x1="5041.74" y1="1296.34" x2="5106.54" y2="1296.34" style="stroke:#F0F0F0;stroke-width:9.72"/>
	<line x1="5138.94" y1="1296.34" x2="5203.74" y2="1296.34" style="stroke:#F0F0F0;stroke-width:9.72"/>
	<line x1="5236.14" y1="1296.34" x2="5286.60" y2="1296.34" style="stroke:#F0F0F0;stroke-width:9.72"/>
	<line x1="473.34" y1="740.47" x2="538.14" y2="740.47" style="stroke:#F0F0F0;stroke-width:9.72"/>
	<line x1="570.54" y1="740.47" x2="635.34" y2="740.47" style="stroke:#F0F0F0;stroke-width:9.72"/>
	<line x1="667.74" y1="740.47" x2="732.54" y2="740.47" style="stroke:#F0F0F0;stroke-width:9.72"/>
	<line x1="764.94" y1="740.47" x2="829.74" y2="740.47" style="stroke:#F0F0F0;stroke-width:9.72"/>
	<line x1="862.14" y1="740.47" x2="926.94" y2="740.47" style="stroke:#F0F0F0;stroke-width:9.72"/>
	<line x1="959.34" y1="740.47" x2="1024.14" y2="740.47" style="stroke:#F0F0F0;stroke-width:9.72"/>
	<line x1="1056.54" y1="740.47" x2="1121.34" y2="740.47" style="stroke:#F0F0F0;stroke-width:9.72"/>
	<line x1="1153.74" y1="740.47" x2="1218.54" y2="740.47" style="stroke:#F0F0F0;stroke-width:9.72"/>
	<line x1="1250.94" y1="740.47" x2="1315.74" y2="740.47" style="stroke:#F0F0F0;stroke-width:9.72"/>
	<line x1="1348.14" y1="740.47" x2="1412.94" y2="740.47" style="stroke:#F0F0F0;stroke-width:9.72"/>
	<line x1="1445.34" y1="740.47" x2="1510.14" y2="740.47" style="stroke:#F0F0F0;stroke-width:9.72"/>
	<line x1="1542.54" y1="740.47" x2="1607.34" y2="740.47" style="stroke:#F0F0F0;stroke-width:9.72"/>
	<line x1="1639.74" y1="740.47" x2="1704.54" y2="740.47" style="stroke:#F0F0F0;stroke-width:9.72"/>
	<line x1="1736.94" y1="740.47" x2="1801.74" y2="740.47" style="stroke:#F0F0F0;stroke-width:9.72"/>
	<line x1="1834.14" y1="740.47" x2="1898.94" y2="740.47" style="stroke:#F0F0F0;stroke-width:9.72"/>
	<line x1="1931.34" y1="740.47" x2="1996.14" y2="740.47" style="stroke:#F0F0F0;stroke-width:9.72"/>
	<line x1="2028.54" y1="740.47" x2="2093.34" y2="740.47" style="stroke:#F0F0F0;stroke-width:9.72"/>
	<line x1="2125.74" y1="740.47" x2="2190.54" y2="740.47" style="stroke:#F0F0F0;stroke-width:9.72"/>
	<line x1="2222.94" y1="740.47" x2="2287.74" y2="740.47" style="stroke:#F0F0F0;stroke-width:9.72"/>
	<line x1="2320.14" y1="740.47" x2="2384.94" y2="740.47" style="stroke:#F0F0F0;stroke-width:9.72"/>
	<line x1="2417.34" y1="740.47" x2="2482.14" y2="740.47" style="stroke:#F0F0F0;stroke-width:9.72"/>
	<line x1="2514.54" y1="740.47" x2="2579.34" y2="740.47" style="stroke:#F0F0F0;stroke-width:9.72"/>
	<line x1="2611.74" y1="740.47" x2="2676.54" y2="740.47" style="stroke:#F0F0F0;stroke-width:9.72"/>
	<line x1="2708.94" y1="740.47" x2="2773.74" y2="740.47" style="stroke:#F0F0F0;stroke-width:9.72"/>
	<line x1="2806.14" y1="740.47" x2="2870.94" y2="740.47" style="stroke:#F0F0F0;stroke-width:9.72"/>
	<line x1="2903.34" y1="740.47" x2="2968.14" y2="740.47" style="stroke:#F0F0F0;stroke-width:9.72"/>
	<line x1="3000.54" y1="740.47" x2="3065.34" y2="740.47" style="stroke:#F0F0F0;stroke-width:9.72"/>
	<line x1="3097.74" y1="740.47" x2="3162.54" y2="740.47" style="stroke:#F0F0F0;stroke-width:9.72"/>
	<line x1="3194.94" y1="740.47" x2="3259.74" y2="740.47" style="stroke:#F0F0F0;stroke-width:9.72"/>
	<line x1="3292.14" y1="740.47" x2="3356.94" y2="740.47" style="stroke:#F0F0F0;stroke-width:9.72"/>
	<line x1="3389.34" y1="740.47" x2="3454.14" y2="740.47" style="stroke:#F0F0F0;stroke-width:9.72"/>
	<line x1="3486.54" y1="740.47" x2="3551.34" y2="740.47" style="stroke:#F0F0F0;stroke-width:9.72"/>
	<line x1="3583.74" y1="740.47" x2="3648.54" y2="740.47" style="stroke:#F0F0F0;stroke-width:9.72"/>
	<line x1="3680.94" y1="740.47" x2="3745.74" y2="740.47" style="stroke:#F0F0F0;stroke-width:9.72"/>
	<line x1="3778.14" y1="740.47" x2="3842.94" y2="740.47" style="stroke:#F0F0F0;stroke-width:9.72"/>
	<line x1="3875.34" y1="740.47" x2="3940.14" y2="740.47" style="stroke:#F0F0F0;stroke-width:9.72"/>
	<line x1="3972.54" y1="740.47" x2="4037.34" y2="740.47" style="stroke:#F0F0F0;stroke-width:9.72"/>
	<line x1="4069.74" y1="740.47" x2="4134.54" y2="740.47" style="stroke:#F0F0F0;stroke-width:9.72"/>
	<line x1="4166.94" y1="740.47" x2="4231.74" y2="740.47" style="stroke:#F0F0F0;stroke-width:9.72"/>
	<line x1="4264.14" y1="740.47" x2="4328.94" y2="740.47" style="stroke:#F0F0F0;stroke-width:9.72"/>
	<line x1="4361.34" y1="740.47" x2="4426.14" y2="740.47" style="stroke:#F0F0F0;stroke-width:9.72"/>
	<line x1="4458.54" y1="740.47" x2="4523.34" y2="740.47" style="stroke:#F0F0F0;stroke-width:9.72"/>
	<line x1="4555.74" y1="740.47" x2="4620.54" y2="740.47" style="stroke:#F0F0F0;stroke-width:9.72"/>
	<line x1="4652.94" y1="740.47" x2="4717.74" y2="740.47" style="stroke:#F0F0F0;stroke-width:9.72"/>
	<line x1="4750.14" y1="740.47" x2="4814.94" y2="740.47" style="stroke:#F0F0F0;stroke-width:9.72"/>
	<line x1="4847.34" y1="740.47" x2="4912.14" y2="740.47" style="stroke:#F0F0F0;stroke-width:9.72"/>
	<line x1="4944.54" y1="740.47" x2="5009.34" y2="740.47" style="stroke:#F0F0F0;stroke-width:9.72"/>
	<line x1="5041.74" y1="740.47" x2="5106.54" y2="740.47" style="stroke:#F0F0F0;stroke-width:9.72"/>
	<line x1="5138.94" y1="740.47" x2="5203.74" y2="740.47" style="stroke:#F0F0F0;stroke-width:9.72"/>
	<line x1="5236.14" y1="740.47" x2="5286.60" y2="740.47" style="stroke:#F0F0F0;stroke-width:9.72"/>
	<line x1="473.34" y1="184.61" x2="538.14" y2="184.61" style="stroke:#F0F0F0;stroke-width:9.72"/>
	<line x1="570.54" y1="184.61" x2="635.34" y2="184.61" style="stroke:#F0F0F0;stroke-width:9.72"/>
	<line x1="667.74" y1="184.61" x2="732.54" y2="184.61" style="stroke:#F0F0F0;stroke-width:9.72"/>
	<line x1="764.94" y1="184.61" x2="829.74" y2="184.61" style="stroke:#F0F0F0;stroke-width:9.72"/>
	<line x1="862.14" y1="184.61" x2="926.94" y2="184.61" style="stroke:#F0F0F0;stroke-width:9.72"/>
	<line x1="959.34" y1="184.61" x2="1024.14" y2="184.61" style="stroke:#F0F0F0;stroke-width:9.72"/>
	<line x1="1056.54" y1="184.61" x2="1121.34" y2="184.61" style="stroke:#F0F0F0;stroke-width:9.72"/>
	<line x1="1153.74" y1="184.61" x2="1218.54" y2="184.61" style="stroke:#F0F0F0;stroke-width:9.72"/>
	<line x1="1250.94" y1="184.61" x2="1315.74" y2="184.61" style="stroke:#F0F0F0;stroke-width:9.72"/>
	<line x1="1348.14" y1="184.61" x2="1412.94" y2="184.61" style="stroke:#F0F0F0;stroke-width:9.72"/>
	<line x1="1445.34" y1="184.61" x2="1510.14" y2="184.61" style="stroke:#F0F0F0;stroke-width:9.72"/>
	<line x1="1542.54" y1="184.61" x2="1607.34" y2="184.61" style="stroke:#F0F0F0;stroke-width:9.72"/>
	<line x1="1639.74" y1="184.61" x2="1704.54" y2="184.61" style="stroke:#F0F0F0;stroke-width:9.72"/>
	<line x1="1736.94" y1="184.61" x2="1801.74" y2="184.61" style="stroke:#F0F0F0;stroke-width:9.72"/>
	<line x1="1834.14" y1="184.61" x2="1898.94" y2="184.61" style="stroke:#F0F0F0;stroke-width:9.72"/>
	<line x1="1931.34" y1="184.61" x2="1996.14" y2="184.61" style="stroke:#F0F0F0;stroke-width:9.72"/>
	<line x1="2028.54" y1="184.61" x2="2093.34" y2="184.61" style="stroke:#F0F0F0;stroke-width:9.72"/>
	<line x1="2125.74" y1="184.61" x2="2190.54" y2="184.61" style="stroke:#F0F0F0;stroke-width:9.72"/>
	<line x1="2222.94" y1="184.61" x2="2287.74" y2="184.61" style="stroke:#F0F0F0;stroke-width:9.72"/>
	<line x1="2320.14" y1="184.61" x2="2384.94" y2="184.61" style="stroke:#F0F0F0;stroke-width:9.72"/>
	<line x1="2417.34" y1="184.61" x2="2482.14" y2="184.61" style="stroke:#F0F0F0;stroke-width:9.72"/>
	<line x1="2514.54" y1="184.61" x2="2579.34" y2="184.61" style="stroke:#F0F0F0;stroke-width:9.72"/>
	<line x1="2611.74" y1="184.61" x2="2676.54" y2="184.61" style="stroke:#F0F0F0;stroke-width:9.72"/>
	<line x1="2708.94" y1="184.61" x2="2773.74" y2="184.61" style="stroke:#F0F0F0;stroke-width:9.72"/>
	<line x1="2806.14" y1="184.61" x2="2870.94" y2="184.61" style="stroke:#F0F0F0;stroke-width:9.72"/>
	<line x1="2903.34" y1="184.61" x2="2968.14" y2="184.61" style="stroke:#F0F0F0;stroke-width:9.72"/>
	<line x1="3000.54" y1="184.61" x2="3065.34" y2="184.61" style="stroke:#F0F0F0;stroke-width:9.72"/>
	<line x1="3097.74" y1="184.61" x2="3162.54" y2="184.61" style="stroke:#F0F0F0;stroke-width:9.72"/>
	<line x1="3194.94" y1="184.61" x2="3259.74" y2="184.61" style="stroke:#F0F0F0;stroke-width:9.72"/>
	<line x1="3292.14" y1="184.61" x2="3356.94" y2="184.61" style="stroke:#F0F0F0;stroke-width:9.72"/>
	<line x1="3389.34" y1="184.61" x2="3454.14" y2="184.61" style="stroke:#F0F0F0;stroke-width:9.72"/>
	<line x1="3486.54" y1="184.61" x2="3551.34" y2="184.61" style="stroke:#F0F0F0;stroke-width:9.72"/>
	<line x1="3583.74" y1="184.61" x2="3648.54" y2="184.61" style="stroke:#F0F0F0;stroke-width:9.72"/>
	<line x1="3680.94" y1="184.61" x2="3745.74" y2="184.61" style="stroke:#F0F0F0;stroke-width:9.72"/>
	<line x1="3778.14" y1="184.61" x2="3842.94" y2="184.61" style="stroke:#F0F0F0;stroke-width:9.72"/>
	<line x1="3875.34" y1="184.61" x2="3940.14" y2="184.61" style="stroke:#F0F0F0;stroke-width:9.72"/>
	<line x1="3972.54" y1="184.61" x2="4037.34" y2="184.61" style="stroke:#F0F0F0;stroke-width:9.72"/>
	<line x1="4069.74" y1="184.61" x2="4134.54" y2="184.61" style="stroke:#F0F0F0;stroke-width:9.72"/>
	<line x1="4166.94" y1="184.61" x2="4231.74" y2="184.61" style="stroke:#F0F0F0;stroke-width:9.72"/>
	<line x1="4264.14" y1="184.61" x2="4328.94" y2="184.61" style="stroke:#F0F0F0;stroke-width:9.72"/>
	<line x1="4361.34" y1="184.61" x2="4426.14" y2="184.61" style="stroke:#F0F0F0;stroke-width:9.72"/>
	<line x1="4458.54" y1="184.61" x2="4523.34" y2="184.61" style="stroke:#F0F0F0;stroke-width:9.72"/>
	<line x1="4555.74" y1="184.61" x2="4620.54" y2="184.61" style="stroke:#F0F0F0;stroke-width:9.72"/>
	<line x1="4652.94" y1="184.61" x2="4717.74" y2="184.61" style="stroke:#F0F0F0;stroke-width:9.72"/>
	<line x1="4750.14" y1="184.61" x2="4814.94" y2="184.61" style="stroke:#F0F0F0;stroke-width:9.72"/>
	<line x1="4847.34" y1="184.61" x2="4912.14" y2="184.61" style="stroke:#F0F0F0;stroke-width:9.72"/>
	<line x1="4944.54" y1="184.61" x2="5009.34" y2="184.61" style="stroke:#F0F0F0;stroke-width:9.72"/>
	<line x1="5041.74" y1="184.61" x2="5106.54" y2="184.61" style="stroke:#F0F0F0;stroke-width:9.72"/>
	<line x1="5138.94" y1="184.61" x2="5203.74" y2="184.61" style="stroke:#F0F0F0;stroke-width:9.72"/>
	<line x1="5236.14" y1="184.61" x2="5286.60" y2="184.61" style="stroke:#F0F0F0;stroke-width:9.72"/>
	<path d=" M544.56 1633.67 L700.31 1633.67 L855.90 1633.67 L1011.66 1637.38 L1167.41 1637.38 L1323.00 1646.16 L1478.76 1650.04 L1634.34 1670.63 L1790.10 1671.81 L1945.86 1679.23 L2101.44 1680.24 L2257.20 1689.02 L2412.79 1697.29 L2568.54 1702.35 L2724.30 1732.73 L2879.89 1754.33 L3035.64 1758.88 L3191.23 1780.14 L3346.99 1791.28 L3502.74 1812.21 L3658.33 1844.78 L3814.09 1844.78 L3969.68 1844.78 L4125.43 1844.78 L4281.19 1849.50 L4436.77 1849.50 L4592.53 1892.03 L4748.12 1967.79 L4903.88 1985.85 L5059.63 2014.20 L5215.22 2021.63" stroke-linejoin="round" style="fill:none;stroke:#000000;stroke-width:25.92"/>
	<line x1="544.56" y1="1177.71" x2="609.36" y2="1177.71" style="stroke:#000000;stroke-width:25.92"/>
	<line x1="641.76" y1="1177.71" x2="700.31" y2="1177.71" style="stroke:#000000;stroke-width:25.92"/>
	<line x1="700.31" y1="1177.71" x2="706.56" y2="1177.71" style="stroke:#000000;stroke-width:25.92"/>
	<line x1="738.96" y1="1177.71" x2="803.76" y2="1177.71" style="stroke:#000000;stroke-width:25.92"/>
	<line x1="836.16" y1="1177.71" x2="855.90" y2="1177.71" style="stroke:#000000;stroke-width:25.92"/>
	<line x1="855.90" y1="1177.71" x2="900.96" y2="1175.51" style="stroke:#000000;stroke-width:25.92"/>
	<line x1="933.19" y1="1173.99" x2="997.99" y2="1170.79" style="stroke:#000000;stroke-width:25.92"/>
	<line x1="1030.39" y1="1170.11" x2="1095.19" y2="1170.11" style="stroke:#000000;stroke-width:25.92"/>
	<line x1="1127.59" y1="1170.11" x2="1167.41" y2="1170.11" style="stroke:#000000;stroke-width:25.92"/>
	<line x1="1167.41" y1="1170.11" x2="1192.22" y2="1167.24" style="stroke:#000000;stroke-width:25.92"/>
	<line x1="1224.45" y1="1163.70" x2="1288.74" y2="1156.44" style="stroke:#000000;stroke-width:25.92"/>
	<line x1="1320.98" y1="1152.73" x2="1323.00" y2="1152.56" style="stroke:#000000;stroke-width:25.92"/>
	<line x1="1323.00" y1="1152.56" x2="1385.61" y2="1149.53" style="stroke:#000000;stroke-width:25.92"/>
	<line x1="1418.01" y1="1147.84" x2="1478.76" y2="1144.97" style="stroke:#000000;stroke-width:25.92"/>
	<line x1="1478.76" y1="1144.97" x2="1482.64" y2="1143.96" style="stroke:#000000;stroke-width:25.92"/>
	<line x1="1513.86" y1="1135.69" x2="1576.63" y2="1118.98" style="stroke:#000000;stroke-width:25.92"/>
	<line x1="1607.85" y1="1110.71" x2="1634.34" y2="1103.63" style="stroke:#000000;stroke-width:25.92"/>
	<line x1="1634.34" y1="1103.63" x2="1671.81" y2="1103.12" style="stroke:#000000;stroke-width:25.92"/>
	<line x1="1704.21" y1="1102.61" x2="1769.01" y2="1101.77" style="stroke:#000000;stroke-width:25.92"/>
	<line x1="1801.24" y1="1100.42" x2="1865.70" y2="1094.18" style="stroke:#000000;stroke-width:25.92"/>
	<line x1="1897.93" y1="1091.14" x2="1945.86" y2="1086.58" style="stroke:#000000;stroke-width:25.92"/>
	<line x1="1945.86" y1="1086.58" x2="1962.56" y2="1086.07" style="stroke:#000000;stroke-width:25.92"/>
	<line x1="1994.96" y1="1085.40" x2="2059.76" y2="1083.71" style="stroke:#000000;stroke-width:25.92"/>
	<line x1="2092.16" y1="1082.87" x2="2101.44" y2="1082.70" style="stroke:#000000;stroke-width:25.92"/>
	<line x1="2101.44" y1="1082.70" x2="2156.79" y2="1077.97" style="stroke:#000000;stroke-width:25.92"/>
	<line x1="2189.03" y1="1075.28" x2="2253.66" y2="1069.88" style="stroke:#000000;stroke-width:25.92"/>
	<line x1="2285.72" y1="1065.99" x2="2350.01" y2="1058.23" style="stroke:#000000;stroke-width:25.92"/>
	<line x1="2382.24" y1="1054.18" x2="2412.79" y2="1050.47" style="stroke:#000000;stroke-width:25.92"/>
	<line x1="2412.79" y1="1050.47" x2="2446.71" y2="1048.28" style="stroke:#000000;stroke-width:25.92"/>
	<line x1="2478.94" y1="1046.25" x2="2543.74" y2="1042.03" style="stroke:#000000;stroke-width:25.92"/>
	<line x1="2575.97" y1="1040.34" x2="2640.77" y2="1040.34" style="stroke:#000000;stroke-width:25.92"/>
	<line x1="2673.17" y1="1040.34" x2="2724.30" y2="1040.34" style="stroke:#000000;stroke-width:25.92"/>
	<line x1="2724.30" y1="1040.34" x2="2735.78" y2="1032.75" style="stroke:#000000;stroke-width:25.92"/>
	<line x1="2762.61" y1="1014.69" x2="2816.44" y2="978.58" style="stroke:#000000;stroke-width:25.92"/>
	<line x1="2843.44" y1="960.69" x2="2879.89" y2="936.22" style="stroke:#000000;stroke-width:25.92"/>
	<line x1="2879.89" y1="936.22" x2="2900.81" y2="934.88" style="stroke:#000000;stroke-width:25.92"/>
	<line x1="2933.04" y1="933.02" x2="2997.84" y2="929.31" style="stroke:#000000;stroke-width:25.92"/>
	<line x1="3030.08" y1="927.45" x2="3035.64" y2="927.11" style="stroke:#000000;stroke-width:25.92"/>
	<line x1="3035.64" y1="927.11" x2="3092.85" y2="911.59" style="stroke:#000000;stroke-width:25.92"/>
	<line x1="3124.07" y1="902.98" x2="3186.51" y2="885.77" style="stroke:#000000;stroke-width:25.92"/>
	<line x1="3218.57" y1="880.71" x2="3282.69" y2="871.59" style="stroke:#000000;stroke-width:25.92"/>
	<line x1="3314.76" y1="867.04" x2="3346.99" y2="862.31" style="stroke:#000000;stroke-width:25.92"/>
	<line x1="3346.99" y1="862.31" x2="3378.21" y2="854.04" style="stroke:#000000;stroke-width:25.92"/>
	<line x1="3409.43" y1="845.61" x2="3472.03" y2="828.90" style="stroke:#000000;stroke-width:25.92"/>
	<line x1="3503.25" y1="820.46" x2="3562.99" y2="795.32" style="stroke:#000000;stroke-width:25.92"/>
	<line x1="3592.86" y1="782.83" x2="3652.76" y2="757.86" style="stroke:#000000;stroke-width:25.92"/>
	<line x1="3684.66" y1="755.49" x2="3749.46" y2="755.49" style="stroke:#000000;stroke-width:25.92"/>
	<line x1="3781.86" y1="755.49" x2="3814.09" y2="755.49" style="stroke:#000000;stroke-width:25.92"/>
	<line x1="3814.09" y1="755.49" x2="3846.66" y2="755.49" style="stroke:#000000;stroke-width:25.92"/>
	<line x1="3879.06" y1="755.49" x2="3943.86" y2="755.49" style="stroke:#000000;stroke-width:25.92"/>
	<line x1="3976.26" y1="755.49" x2="4041.06" y2="755.49" style="stroke:#000000;stroke-width:25.92"/>
	<line x1="4073.46" y1="755.49" x2="4125.43" y2="755.49" style="stroke:#000000;stroke-width:25.92"/>
	<line x1="4125.43" y1="755.49" x2="4138.26" y2="754.82" style="stroke:#000000;stroke-width:25.92"/>
	<line x1="4170.49" y1="752.79" x2="4235.29" y2="748.91" style="stroke:#000000;stroke-width:25.92"/>
	<line x1="4267.52" y1="746.89" x2="4281.19" y2="746.04" style="stroke:#000000;stroke-width:25.92"/>
	<line x1="4281.19" y1="746.04" x2="4332.32" y2="746.04" style="stroke:#000000;stroke-width:25.92"/>
	<line x1="4364.72" y1="746.04" x2="4429.52" y2="746.04" style="stroke:#000000;stroke-width:25.92"/>
	<line x1="4458.88" y1="733.89" x2="4515.75" y2="702.84" style="stroke:#000000;stroke-width:25.92"/>
	<line x1="4544.10" y1="687.32" x2="4592.53" y2="660.82" style="stroke:#000000;stroke-width:25.92"/>
	<line x1="4592.53" y1="660.82" x2="4599.45" y2="654.07" style="stroke:#000000;stroke-width:25.92"/>
	<line x1="4622.57" y1="631.46" x2="4668.98" y2="586.24" style="stroke:#000000;stroke-width:25.92"/>
	<line x1="4692.26" y1="563.63" x2="4738.50" y2="518.40" style="stroke:#000000;stroke-width:25.92"/>
	<line x1="4766.68" y1="504.90" x2="4829.79" y2="490.39" style="stroke:#000000;stroke-width:25.92"/>
	<line x1="4861.35" y1="483.13" x2="4903.88" y2="473.34" style="stroke:#000000;stroke-width:25.92"/>
	<line x1="4903.88" y1="473.34" x2="4923.79" y2="466.09" style="stroke:#000000;stroke-width:25.92"/>
	<line x1="4954.16" y1="454.95" x2="5015.08" y2="432.68" style="stroke:#000000;stroke-width:25.92"/>
	<line x1="5045.46" y1="421.54" x2="5059.63" y2="416.47" style="stroke:#000000;stroke-width:25.92"/>
	<line x1="5059.63" y1="416.47" x2="5109.08" y2="411.58" style="stroke:#000000;stroke-width:25.92"/>
	<line x1="5141.31" y1="408.54" x2="5205.94" y2="402.30" style="stroke:#000000;stroke-width:25.92"/>
	<path d="" stroke-linejoin="round" style="fill:none;stroke:#000000;stroke-width:25.92"/>
	<line x1="473.34" y1="2479.11" x2="473.34" y2="113.40" style="stroke:#000000;stroke-width:6.48"/>
	<line x1="473.34" y1="2407.89" x2="428.46" y2="2407.89" style="stroke:#000000;stroke-width:6.48"/>
	<text x="371.99" y="2407.89" style="font-family:'Helvetica';font-size:112.56px;fill:#000000" transform="rotate(-90 371.99,2407.89)" text-anchor="middle">0</text>
	<line x1="473.34" y1="1852.03" x2="428.46" y2="1852.03" style="stroke:#000000;stroke-width:6.48"/>
	<text x="371.99" y="1852.03" style="font-family:'Helvetica';font-size:112.56px;fill:#000000" transform="rotate(-90 371.99,1852.03)" text-anchor="middle">.2</text>
	<line x1="473.34" y1="1296.34" x2="428.46" y2="1296.34" style="stroke:#000000;stroke-width:6.48"/>
	<text x="371.99" y="1296.34" style="font-family:'Helvetica';font-size:112.56px;fill:#000000" transform="rotate(-90 371.99,1296.34)" text-anchor="middle">.4</text>
	<line x1="473.34" y1="740.47" x2="428.46" y2="740.47" style="stroke:#000000;stroke-width:6.48"/>
	<text x="371.99" y="740.47" style="font-family:'Helvetica';font-size:112.56px;fill:#000000" transform="rotate(-90 371.99,740.47)" text-anchor="middle">.6</text>
	<line x1="473.34" y1="184.61" x2="428.46" y2="184.61" style="stroke:#000000;stroke-width:6.48"/>
	<text x="371.99" y="184.61" style="font-family:'Helvetica';font-size:112.56px;fill:#000000" transform="rotate(-90 371.99,184.61)" text-anchor="middle">.8</text>
	<text x="214.55" y="1296.34" style="font-family:'Helvetica';font-size:112.56px;fill:#000000" transform="rotate(-90 214.55,1296.34)" text-anchor="middle">Average Apportionment Weight</text>
	<line x1="473.34" y1="2479.11" x2="5286.60" y2="2479.11" style="stroke:#000000;stroke-width:6.48"/>
	<line x1="544.73" y1="2479.11" x2="544.73" y2="2524.16" style="stroke:#000000;stroke-width:6.48"/>
	<text x="544.73" y="2625.31" style="font-family:'Helvetica';font-size:112.56px;fill:#000000" text-anchor="middle">1980</text>
	<line x1="2101.61" y1="2479.11" x2="2101.61" y2="2524.16" style="stroke:#000000;stroke-width:6.48"/>
	<text x="2101.61" y="2625.31" style="font-family:'Helvetica';font-size:112.56px;fill:#000000" text-anchor="middle">1990</text>
	<line x1="3658.50" y1="2479.11" x2="3658.50" y2="2524.16" style="stroke:#000000;stroke-width:6.48"/>
	<text x="3658.50" y="2625.31" style="font-family:'Helvetica';font-size:112.56px;fill:#000000" text-anchor="middle">2000</text>
	<line x1="5215.39" y1="2479.11" x2="5215.39" y2="2524.16" style="stroke:#000000;stroke-width:6.48"/>
	<text x="5215.39" y="2625.31" style="font-family:'Helvetica';font-size:112.56px;fill:#000000" text-anchor="middle">2010</text>
	<text x="2880.06" y="2782.75" style="font-family:'Helvetica';font-size:112.56px;fill:#000000" text-anchor="middle">Year</text>
	<rect x="1356.08" y="2878.03" width="2687.85" height="209.76" style="fill:#FFFFFF"/>
	<rect x="1359.32" y="2881.27" width="2681.37" height="203.28" style="fill:none;stroke:#909090;stroke-width:6.48"/>
	<line x1="1404.68" y1="2982.83" x2="1663.88" y2="2982.83" style="stroke:#000000;stroke-width:25.92"/>
	<line x1="2802.43" y1="2982.83" x2="2867.23" y2="2982.83" style="stroke:#000000;stroke-width:25.92"/>
	<line x1="2899.63" y1="2982.83" x2="2964.43" y2="2982.83" style="stroke:#000000;stroke-width:25.92"/>
	<line x1="2996.83" y1="2982.83" x2="3061.63" y2="2982.83" style="stroke:#000000;stroke-width:25.92"/>
	<text x="1731.38" y="3014.35" style="font-family:'Helvetica';font-size:89.94px;fill:#000000">Payroll Apportionment</text>
	<text x="3129.13" y="3014.35" style="font-family:'Helvetica';font-size:89.94px;fill:#000000">Sales Apportionment</text>
</svg>
