<?xml version="1.0" encoding="UTF-8" standalone="no"?>
<!-- This is a Stata 18.0 generated SVG file (http://www.stata.com) -->

<svg version="1.1" width="7.500in" height="4.500in" viewBox="0 0 5400 3240" xmlns="http://www.w3.org/2000/svg" xmlns:xlink="http://www.w3.org/1999/xlink">
	<desc>Stata Graph - Graph</desc>
	<rect x="0" y="0" width="5400" height="3240" style="fill:#FFFFFF;stroke:none"/>
	<rect x="0.00" y="0.00" width="5400.00" height="3240.00" style="fill:#FFFFFF"/>
	<rect x="3.24" y="3.24" width="5393.52" height="3233.52" style="fill:none;stroke:#FFFFFF;stroke-width:6.48"/>
	<rect x="450.90" y="113.40" width="4835.70" height="2675.70" style="fill:#FFFFFF"/>
	<rect x="454.14" y="116.64" width="4829.22" height="2669.22" style="fill:none;stroke:#FFFFFF;stroke-width:6.48"/>
	<line x1="450.90" y1="2717.89" x2="515.70" y2="2717.89" style="stroke:#F0F0F0;stroke-width:9.72"/>
	<line x1="548.10" y1="2717.89" x2="612.90" y2="2717.89" style="stroke:#F0F0F0;stroke-width:9.72"/>
	<line x1="645.30" y1="2717.89" x2="710.10" y2="2717.89" style="stroke:#F0F0F0;stroke-width:9.72"/>
	<line x1="742.50" y1="2717.89" x2="807.30" y2="2717.89" style="stroke:#F0F0F0;stroke-width:9.72"/>
	<line x1="839.70" y1="2717.89" x2="904.50" y2="2717.89" style="stroke:#F0F0F0;stroke-width:9.72"/>
	<line x1="936.90" y1="2717.89" x2="1001.70" y2="2717.89" style="stroke:#F0F0F0;stroke-width:9.72"/>
	<line x1="1034.10" y1="2717.89" x2="1098.90" y2="2717.89" style="stroke:#F0F0F0;stroke-width:9.72"/>
	<line x1="1131.30" y1="2717.89" x2="1196.10" y2="2717.89" style="stroke:#F0F0F0;stroke-width:9.72"/>
	<line x1="1228.50" y1="2717.89" x2="1293.30" y2="2717.89" style="stroke:#F0F0F0;stroke-width:9.72"/>
	<line x1="1325.70" y1="2717.89" x2="1390.50" y2="2717.89" style="stroke:#F0F0F0;stroke-width:9.72"/>
	<line x1="1422.90" y1="2717.89" x2="1487.70" y2="2717.89" style="stroke:#F0F0F0;stroke-width:9.72"/>
	<line x1="1520.10" y1="2717.89" x2="1584.90" y2="2717.89" style="stroke:#F0F0F0;stroke-width:9.72"/>
	<line x1="1617.30" y1="2717.89" x2="1682.10" y2="2717.89" style="stroke:#F0F0F0;stroke-width:9.72"/>
	<line x1="1714.50" y1="2717.89" x2="1779.30" y2="2717.89" style="stroke:#F0F0F0;stroke-width:9.72"/>
	<line x1="1811.70" y1="2717.89" x2="1876.50" y2="2717.89" style="stroke:#F0F0F0;stroke-width:9.72"/>
	<line x1="1908.90" y1="2717.89" x2="1973.70" y2="2717.89" style="stroke:#F0F0F0;stroke-width:9.72"/>
	<line x1="2006.10" y1="2717.89" x2="2070.90" y2="2717.89" style="stroke:#F0F0F0;stroke-width:9.72"/>
	<line x1="2103.30" y1="2717.89" x2="2168.10" y2="2717.89" style="stroke:#F0F0F0;stroke-width:9.72"/>
	<line x1="2200.50" y1="2717.89" x2="2265.30" y2="2717.89" style="stroke:#F0F0F0;stroke-width:9.72"/>
	<line x1="2297.70" y1="2717.89" x2="2362.50" y2="2717.89" style="stroke:#F0F0F0;stroke-width:9.72"/>
	<line x1="2394.90" y1="2717.89" x2="2459.70" y2="2717.89" style="stroke:#F0F0F0;stroke-width:9.72"/>
	<line x1="2492.10" y1="2717.89" x2="2556.90" y2="2717.89" style="stroke:#F0F0F0;stroke-width:9.72"/>
	<line x1="2589.30" y1="2717.89" x2="2654.10" y2="2717.89" style="stroke:#F0F0F0;stroke-width:9.72"/>
	<line x1="2686.50" y1="2717.89" x2="2751.30" y2="2717.89" style="stroke:#F0F0F0;stroke-width:9.72"/>
	<line x1="2783.70" y1="2717.89" x2="2848.50" y2="2717.89" style="stroke:#F0F0F0;stroke-width:9.72"/>
	<line x1="2880.90" y1="2717.89" x2="2945.70" y2="2717.89" style="stroke:#F0F0F0;stroke-width:9.72"/>
	<line x1="2978.10" y1="2717.89" x2="3042.90" y2="2717.89" style="stroke:#F0F0F0;stroke-width:9.72"/>
	<line x1="3075.30" y1="2717.89" x2="3140.10" y2="2717.89" style="stroke:#F0F0F0;stroke-width:9.72"/>
	<line x1="3172.50" y1="2717.89" x2="3237.30" y2="2717.89" style="stroke:#F0F0F0;stroke-width:9.72"/>
	<line x1="3269.70" y1="2717.89" x2="3334.50" y2="2717.89" style="stroke:#F0F0F0;stroke-width:9.72"/>
	<line x1="3366.90" y1="2717.89" x2="3431.70" y2="2717.89" style="stroke:#F0F0F0;stroke-width:9.72"/>
	<line x1="3464.10" y1="2717.89" x2="3528.90" y2="2717.89" style="stroke:#F0F0F0;stroke-width:9.72"/>
	<line x1="3561.30" y1="2717.89" x2="3626.10" y2="2717.89" style="stroke:#F0F0F0;stroke-width:9.72"/>
	<line x1="3658.50" y1="2717.89" x2="3723.30" y2="2717.89" style="stroke:#F0F0F0;stroke-width:9.72"/>
	<line x1="3755.70" y1="2717.89" x2="3820.50" y2="2717.89" style="stroke:#F0F0F0;stroke-width:9.72"/>
	<line x1="3852.90" y1="2717.89" x2="3917.70" y2="2717.89" style="stroke:#F0F0F0;stroke-width:9.72"/>
	<line x1="3950.10" y1="2717.89" x2="4014.90" y2="2717.89" style="stroke:#F0F0F0;stroke-width:9.72"/>
	<line x1="4047.30" y1="2717.89" x2="4112.10" y2="2717.89" style="stroke:#F0F0F0;stroke-width:9.72"/>
	<line x1="4144.50" y1="2717.89" x2="4209.30" y2="2717.89" style="stroke:#F0F0F0;stroke-width:9.72"/>
	<line x1="4241.70" y1="2717.89" x2="4306.50" y2="2717.89" style="stroke:#F0F0F0;stroke-width:9.72"/>
	<line x1="4338.90" y1="2717.89" x2="4403.70" y2="2717.89" style="stroke:#F0F0F0;stroke-width:9.72"/>
	<line x1="4436.10" y1="2717.89" x2="4500.90" y2="2717.89" style="stroke:#F0F0F0;stroke-width:9.72"/>
	<line x1="4533.30" y1="2717.89" x2="4598.10" y2="2717.89" style="stroke:#F0F0F0;stroke-width:9.72"/>
	<line x1="4630.50" y1="2717.89" x2="4695.30" y2="2717.89" style="stroke:#F0F0F0;stroke-width:9.72"/>
	<line x1="4727.70" y1="2717.89" x2="4792.50" y2="2717.89" style="stroke:#F0F0F0;stroke-width:9.72"/>
	<line x1="4824.90" y1="2717.89" x2="4889.70" y2="2717.89" style="stroke:#F0F0F0;stroke-width:9.72"/>
	<line x1="4922.10" y1="2717.89" x2="4986.90" y2="2717.89" style="stroke:#F0F0F0;stroke-width:9.72"/>
	<line x1="5019.30" y1="2717.89" x2="5084.10" y2="2717.89" style="stroke:#F0F0F0;stroke-width:9.72"/>
	<line x1="5116.50" y1="2717.89" x2="5181.30" y2="2717.89" style="stroke:#F0F0F0;stroke-width:9.72"/>
	<line x1="5213.70" y1="2717.89" x2="5278.50" y2="2717.89" style="stroke:#F0F0F0;stroke-width:9.72"/>
	<line x1="450.90" y1="1873.46" x2="515.70" y2="1873.46" style="stroke:#F0F0F0;stroke-width:9.72"/>
	<line x1="548.10" y1="1873.46" x2="612.90" y2="1873.46" style="stroke:#F0F0F0;stroke-width:9.72"/>
	<line x1="645.30" y1="1873.46" x2="710.10" y2="1873.46" style="stroke:#F0F0F0;stroke-width:9.72"/>
	<line x1="742.50" y1="1873.46" x2="807.30" y2="1873.46" style="stroke:#F0F0F0;stroke-width:9.72"/>
	<line x1="839.70" y1="1873.46" x2="904.50" y2="1873.46" style="stroke:#F0F0F0;stroke-width:9.72"/>
	<line x1="936.90" y1="1873.46" x2="1001.70" y2="1873.46" style="stroke:#F0F0F0;stroke-width:9.72"/>
	<line x1="1034.10" y1="1873.46" x2="1098.90" y2="1873.46" style="stroke:#F0F0F0;stroke-width:9.72"/>
	<line x1="1131.30" y1="1873.46" x2="1196.10" y2="1873.46" style="stroke:#F0F0F0;stroke-width:9.72"/>
	<line x1="1228.50" y1="1873.46" x2="1293.30" y2="1873.46" style="stroke:#F0F0F0;stroke-width:9.72"/>
	<line x1="1325.70" y1="1873.46" x2="1390.50" y2="1873.46" style="stroke:#F0F0F0;stroke-width:9.72"/>
	<line x1="1422.90" y1="1873.46" x2="1487.70" y2="1873.46" style="stroke:#F0F0F0;stroke-width:9.72"/>
	<line x1="1520.10" y1="1873.46" x2="1584.90" y2="1873.46" style="stroke:#F0F0F0;stroke-width:9.72"/>
	<line x1="1617.30" y1="1873.46" x2="1682.10" y2="1873.46" style="stroke:#F0F0F0;stroke-width:9.72"/>
	<line x1="1714.50" y1="1873.46" x2="1779.30" y2="1873.46" style="stroke:#F0F0F0;stroke-width:9.72"/>
	<line x1="1811.70" y1="1873.46" x2="1876.50" y2="1873.46" style="stroke:#F0F0F0;stroke-width:9.72"/>
	<line x1="1908.90" y1="1873.46" x2="1973.70" y2="1873.46" style="stroke:#F0F0F0;stroke-width:9.72"/>
	<line x1="2006.10" y1="1873.46" x2="2070.90" y2="1873.46" style="stroke:#F0F0F0;stroke-width:9.72"/>
	<line x1="2103.30" y1="1873.46" x2="2168.10" y2="1873.46" style="stroke:#F0F0F0;stroke-width:9.72"/>
	<line x1="2200.50" y1="1873.46" x2="2265.30" y2="1873.46" style="stroke:#F0F0F0;stroke-width:9.72"/>
	<line x1="2297.70" y1="1873.46" x2="2362.50" y2="1873.46" style="stroke:#F0F0F0;stroke-width:9.72"/>
	<line x1="2394.90" y1="1873.46" x2="2459.70" y2="1873.46" style="stroke:#F0F0F0;stroke-width:9.72"/>
	<line x1="2492.10" y1="1873.46" x2="2556.90" y2="1873.46" style="stroke:#F0F0F0;stroke-width:9.72"/>
	<line x1="2589.30" y1="1873.46" x2="2654.10" y2="1873.46" style="stroke:#F0F0F0;stroke-width:9.72"/>
	<line x1="2686.50" y1="1873.46" x2="2751.30" y2="1873.46" style="stroke:#F0F0F0;stroke-width:9.72"/>
	<line x1="2783.70" y1="1873.46" x2="2848.50" y2="1873.46" style="stroke:#F0F0F0;stroke-width:9.72"/>
	<line x1="2880.90" y1="1873.46" x2="2945.70" y2="1873.46" style="stroke:#F0F0F0;stroke-width:9.72"/>
	<line x1="2978.10" y1="1873.46" x2="3042.90" y2="1873.46" style="stroke:#F0F0F0;stroke-width:9.72"/>
	<line x1="3075.30" y1="1873.46" x2="3140.10" y2="1873.46" style="stroke:#F0F0F0;stroke-width:9.72"/>
	<line x1="3172.50" y1="1873.46" x2="3237.30" y2="1873.46" style="stroke:#F0F0F0;stroke-width:9.72"/>
	<line x1="3269.70" y1="1873.46" x2="3334.50" y2="1873.46" style="stroke:#F0F0F0;stroke-width:9.72"/>
	<line x1="3366.90" y1="1873.46" x2="3431.70" y2="1873.46" style="stroke:#F0F0F0;stroke-width:9.72"/>
	<line x1="3464.10" y1="1873.46" x2="3528.90" y2="1873.46" style="stroke:#F0F0F0;stroke-width:9.72"/>
	<line x1="3561.30" y1="1873.46" x2="3626.10" y2="1873.46" style="stroke:#F0F0F0;stroke-width:9.72"/>
	<line x1="3658.50" y1="1873.46" x2="3723.30" y2="1873.46" style="stroke:#F0F0F0;stroke-width:9.72"/>
	<line x1="3755.70" y1="1873.46" x2="3820.50" y2="1873.46" style="stroke:#F0F0F0;stroke-width:9.72"/>
	<line x1="3852.90" y1="1873.46" x2="3917.70" y2="1873.46" style="stroke:#F0F0F0;stroke-width:9.72"/>
	<line x1="3950.10" y1="1873.46" x2="4014.90" y2="1873.46" style="stroke:#F0F0F0;stroke-width:9.72"/>
	<line x1="4047.30" y1="1873.46" x2="4112.10" y2="1873.46" style="stroke:#F0F0F0;stroke-width:9.72"/>
	<line x1="4144.50" y1="1873.46" x2="4209.30" y2="1873.46" style="stroke:#F0F0F0;stroke-width:9.72"/>
	<line x1="4241.70" y1="1873.46" x2="4306.50" y2="1873.46" style="stroke:#F0F0F0;stroke-width:9.72"/>
	<line x1="4338.90" y1="1873.46" x2="4403.70" y2="1873.46" style="stroke:#F0F0F0;stroke-width:9.72"/>
	<line x1="4436.10" y1="1873.46" x2="4500.90" y2="1873.46" style="stroke:#F0F0F0;stroke-width:9.72"/>
	<line x1="4533.30" y1="1873.46" x2="4598.10" y2="1873.46" style="stroke:#F0F0F0;stroke-width:9.72"/>
	<line x1="4630.50" y1="1873.46" x2="4695.30" y2="1873.46" style="stroke:#F0F0F0;stroke-width:9.72"/>
	<line x1="4727.70" y1="1873.46" x2="4792.50" y2="1873.46" style="stroke:#F0F0F0;stroke-width:9.72"/>
	<line x1="4824.90" y1="1873.46" x2="4889.70" y2="1873.46" style="stroke:#F0F0F0;stroke-width:9.72"/>
	<line x1="4922.10" y1="1873.46" x2="4986.90" y2="1873.46" style="stroke:#F0F0F0;stroke-width:9.72"/>
	<line x1="5019.30" y1="1873.46" x2="5084.10" y2="1873.46" style="stroke:#F0F0F0;stroke-width:9.72"/>
	<line x1="5116.50" y1="1873.46" x2="5181.30" y2="1873.46" style="stroke:#F0F0F0;stroke-width:9.72"/>
	<line x1="5213.70" y1="1873.46" x2="5278.50" y2="1873.46" style="stroke:#F0F0F0;stroke-width:9.72"/>
	<line x1="450.90" y1="1029.04" x2="515.70" y2="1029.04" style="stroke:#F0F0F0;stroke-width:9.72"/>
	<line x1="548.10" y1="1029.04" x2="612.90" y2="1029.04" style="stroke:#F0F0F0;stroke-width:9.72"/>
	<line x1="645.30" y1="1029.04" x2="710.10" y2="1029.04" style="stroke:#F0F0F0;stroke-width:9.72"/>
	<line x1="742.50" y1="1029.04" x2="807.30" y2="1029.04" style="stroke:#F0F0F0;stroke-width:9.72"/>
	<line x1="839.70" y1="1029.04" x2="904.50" y2="1029.04" style="stroke:#F0F0F0;stroke-width:9.72"/>
	<line x1="936.90" y1="1029.04" x2="1001.70" y2="1029.04" style="stroke:#F0F0F0;stroke-width:9.72"/>
	<line x1="1034.10" y1="1029.04" x2="1098.90" y2="1029.04" style="stroke:#F0F0F0;stroke-width:9.72"/>
	<line x1="1131.30" y1="1029.04" x2="1196.10" y2="1029.04" style="stroke:#F0F0F0;stroke-width:9.72"/>
	<line x1="1228.50" y1="1029.04" x2="1293.30" y2="1029.04" style="stroke:#F0F0F0;stroke-width:9.72"/>
	<line x1="1325.70" y1="1029.04" x2="1390.50" y2="1029.04" style="stroke:#F0F0F0;stroke-width:9.72"/>
	<line x1="1422.90" y1="1029.04" x2="1487.70" y2="1029.04" style="stroke:#F0F0F0;stroke-width:9.72"/>
	<line x1="1520.10" y1="1029.04" x2="1584.90" y2="1029.04" style="stroke:#F0F0F0;stroke-width:9.72"/>
	<line x1="1617.30" y1="1029.04" x2="1682.10" y2="1029.04" style="stroke:#F0F0F0;stroke-width:9.72"/>
	<line x1="1714.50" y1="1029.04" x2="1779.30" y2="1029.04" style="stroke:#F0F0F0;stroke-width:9.72"/>
	<line x1="1811.70" y1="1029.04" x2="1876.50" y2="1029.04" style="stroke:#F0F0F0;stroke-width:9.72"/>
	<line x1="1908.90" y1="1029.04" x2="1973.70" y2="1029.04" style="stroke:#F0F0F0;stroke-width:9.72"/>
	<line x1="2006.10" y1="1029.04" x2="2070.90" y2="1029.04" style="stroke:#F0F0F0;stroke-width:9.72"/>
	<line x1="2103.30" y1="1029.04" x2="2168.10" y2="1029.04" style="stroke:#F0F0F0;stroke-width:9.72"/>
	<line x1="2200.50" y1="1029.04" x2="2265.30" y2="1029.04" style="stroke:#F0F0F0;stroke-width:9.72"/>
	<line x1="2297.70" y1="1029.04" x2="2362.50" y2="1029.04" style="stroke:#F0F0F0;stroke-width:9.72"/>
	<line x1="2394.90" y1="1029.04" x2="2459.70" y2="1029.04" style="stroke:#F0F0F0;stroke-width:9.72"/>
	<line x1="2492.10" y1="1029.04" x2="2556.90" y2="1029.04" style="stroke:#F0F0F0;stroke-width:9.72"/>
	<line x1="2589.30" y1="1029.04" x2="2654.10" y2="1029.04" style="stroke:#F0F0F0;stroke-width:9.72"/>
	<line x1="2686.50" y1="1029.04" x2="2751.30" y2="1029.04" style="stroke:#F0F0F0;stroke-width:9.72"/>
	<line x1="2783.70" y1="1029.04" x2="2848.50" y2="1029.04" style="stroke:#F0F0F0;stroke-width:9.72"/>
	<line x1="2880.90" y1="1029.04" x2="2945.70" y2="1029.04" style="stroke:#F0F0F0;stroke-width:9.72"/>
	<line x1="2978.10" y1="1029.04" x2="3042.90" y2="1029.04" style="stroke:#F0F0F0;stroke-width:9.72"/>
	<line x1="3075.30" y1="1029.04" x2="3140.10" y2="1029.04" style="stroke:#F0F0F0;stroke-width:9.72"/>
	<line x1="3172.50" y1="1029.04" x2="3237.30" y2="1029.04" style="stroke:#F0F0F0;stroke-width:9.72"/>
	<line x1="3269.70" y1="1029.04" x2="3334.50" y2="1029.04" style="stroke:#F0F0F0;stroke-width:9.72"/>
	<line x1="3366.90" y1="1029.04" x2="3431.70" y2="1029.04" style="stroke:#F0F0F0;stroke-width:9.72"/>
	<line x1="3464.10" y1="1029.04" x2="3528.90" y2="1029.04" style="stroke:#F0F0F0;stroke-width:9.72"/>
	<line x1="3561.30" y1="1029.04" x2="3626.10" y2="1029.04" style="stroke:#F0F0F0;stroke-width:9.72"/>
	<line x1="3658.50" y1="1029.04" x2="3723.30" y2="1029.04" style="stroke:#F0F0F0;stroke-width:9.72"/>
	<line x1="3755.70" y1="1029.04" x2="3820.50" y2="1029.04" style="stroke:#F0F0F0;stroke-width:9.72"/>
	<line x1="3852.90" y1="1029.04" x2="3917.70" y2="1029.04" style="stroke:#F0F0F0;stroke-width:9.72"/>
	<line x1="3950.10" y1="1029.04" x2="4014.90" y2="1029.04" style="stroke:#F0F0F0;stroke-width:9.72"/>
	<line x1="4047.30" y1="1029.04" x2="4112.10" y2="1029.04" style="stroke:#F0F0F0;stroke-width:9.72"/>
	<line x1="4144.50" y1="1029.04" x2="4209.30" y2="1029.04" style="stroke:#F0F0F0;stroke-width:9.72"/>
	<line x1="4241.70" y1="1029.04" x2="4306.50" y2="1029.04" style="stroke:#F0F0F0;stroke-width:9.72"/>
	<line x1="4338.90" y1="1029.04" x2="4403.70" y2="1029.04" style="stroke:#F0F0F0;stroke-width:9.72"/>
	<line x1="4436.10" y1="1029.04" x2="4500.90" y2="1029.04" style="stroke:#F0F0F0;stroke-width:9.72"/>
	<line x1="4533.30" y1="1029.04" x2="4598.10" y2="1029.04" style="stroke:#F0F0F0;stroke-width:9.72"/>
	<line x1="4630.50" y1="1029.04" x2="4695.30" y2="1029.04" style="stroke:#F0F0F0;stroke-width:9.72"/>
	<line x1="4727.70" y1="1029.04" x2="4792.50" y2="1029.04" style="stroke:#F0F0F0;stroke-width:9.72"/>
	<line x1="4824.90" y1="1029.04" x2="4889.70" y2="1029.04" style="stroke:#F0F0F0;stroke-width:9.72"/>
	<line x1="4922.10" y1="1029.04" x2="4986.90" y2="1029.04" style="stroke:#F0F0F0;stroke-width:9.72"/>
	<line x1="5019.30" y1="1029.04" x2="5084.10" y2="1029.04" style="stroke:#F0F0F0;stroke-width:9.72"/>
	<line x1="5116.50" y1="1029.04" x2="5181.30" y2="1029.04" style="stroke:#F0F0F0;stroke-width:9.72"/>
	<line x1="5213.70" y1="1029.04" x2="5278.50" y2="1029.04" style="stroke:#F0F0F0;stroke-width:9.72"/>
	<line x1="450.90" y1="184.61" x2="515.70" y2="184.61" style="stroke:#F0F0F0;stroke-width:9.72"/>
	<line x1="548.10" y1="184.61" x2="612.90" y2="184.61" style="stroke:#F0F0F0;stroke-width:9.72"/>
	<line x1="645.30" y1="184.61" x2="710.10" y2="184.61" style="stroke:#F0F0F0;stroke-width:9.72"/>
	<line x1="742.50" y1="184.61" x2="807.30" y2="184.61" style="stroke:#F0F0F0;stroke-width:9.72"/>
	<line x1="839.70" y1="184.61" x2="904.50" y2="184.61" style="stroke:#F0F0F0;stroke-width:9.72"/>
	<line x1="936.90" y1="184.61" x2="1001.70" y2="184.61" style="stroke:#F0F0F0;stroke-width:9.72"/>
	<line x1="1034.10" y1="184.61" x2="1098.90" y2="184.61" style="stroke:#F0F0F0;stroke-width:9.72"/>
	<line x1="1131.30" y1="184.61" x2="1196.10" y2="184.61" style="stroke:#F0F0F0;stroke-width:9.72"/>
	<line x1="1228.50" y1="184.61" x2="1293.30" y2="184.61" style="stroke:#F0F0F0;stroke-width:9.72"/>
	<line x1="1325.70" y1="184.61" x2="1390.50" y2="184.61" style="stroke:#F0F0F0;stroke-width:9.72"/>
	<line x1="1422.90" y1="184.61" x2="1487.70" y2="184.61" style="stroke:#F0F0F0;stroke-width:9.72"/>
	<line x1="1520.10" y1="184.61" x2="1584.90" y2="184.61" style="stroke:#F0F0F0;stroke-width:9.72"/>
	<line x1="1617.30" y1="184.61" x2="1682.10" y2="184.61" style="stroke:#F0F0F0;stroke-width:9.72"/>
	<line x1="1714.50" y1="184.61" x2="1779.30" y2="184.61" style="stroke:#F0F0F0;stroke-width:9.72"/>
	<line x1="1811.70" y1="184.61" x2="1876.50" y2="184.61" style="stroke:#F0F0F0;stroke-width:9.72"/>
	<line x1="1908.90" y1="184.61" x2="1973.70" y2="184.61" style="stroke:#F0F0F0;stroke-width:9.72"/>
	<line x1="2006.10" y1="184.61" x2="2070.90" y2="184.61" style="stroke:#F0F0F0;stroke-width:9.72"/>
	<line x1="2103.30" y1="184.61" x2="2168.10" y2="184.61" style="stroke:#F0F0F0;stroke-width:9.72"/>
	<line x1="2200.50" y1="184.61" x2="2265.30" y2="184.61" style="stroke:#F0F0F0;stroke-width:9.72"/>
	<line x1="2297.70" y1="184.61" x2="2362.50" y2="184.61" style="stroke:#F0F0F0;stroke-width:9.72"/>
	<line x1="2394.90" y1="184.61" x2="2459.70" y2="184.61" style="stroke:#F0F0F0;stroke-width:9.72"/>
	<line x1="2492.10" y1="184.61" x2="2556.90" y2="184.61" style="stroke:#F0F0F0;stroke-width:9.72"/>
	<line x1="2589.30" y1="184.61" x2="2654.10" y2="184.61" style="stroke:#F0F0F0;stroke-width:9.72"/>
	<line x1="2686.50" y1="184.61" x2="2751.30" y2="184.61" style="stroke:#F0F0F0;stroke-width:9.72"/>
	<line x1="2783.70" y1="184.61" x2="2848.50" y2="184.61" style="stroke:#F0F0F0;stroke-width:9.72"/>
	<line x1="2880.90" y1="184.61" x2="2945.70" y2="184.61" style="stroke:#F0F0F0;stroke-width:9.72"/>
	<line x1="2978.10" y1="184.61" x2="3042.90" y2="184.61" style="stroke:#F0F0F0;stroke-width:9.72"/>
	<line x1="3075.30" y1="184.61" x2="3140.10" y2="184.61" style="stroke:#F0F0F0;stroke-width:9.72"/>
	<line x1="3172.50" y1="184.61" x2="3237.30" y2="184.61" style="stroke:#F0F0F0;stroke-width:9.72"/>
	<line x1="3269.70" y1="184.61" x2="3334.50" y2="184.61" style="stroke:#F0F0F0;stroke-width:9.72"/>
	<line x1="3366.90" y1="184.61" x2="3431.70" y2="184.61" style="stroke:#F0F0F0;stroke-width:9.72"/>
	<line x1="3464.10" y1="184.61" x2="3528.90" y2="184.61" style="stroke:#F0F0F0;stroke-width:9.72"/>
	<line x1="3561.30" y1="184.61" x2="3626.10" y2="184.61" style="stroke:#F0F0F0;stroke-width:9.72"/>
	<line x1="3658.50" y1="184.61" x2="3723.30" y2="184.61" style="stroke:#F0F0F0;stroke-width:9.72"/>
	<line x1="3755.70" y1="184.61" x2="3820.50" y2="184.61" style="stroke:#F0F0F0;stroke-width:9.72"/>
	<line x1="3852.90" y1="184.61" x2="3917.70" y2="184.61" style="stroke:#F0F0F0;stroke-width:9.72"/>
	<line x1="3950.10" y1="184.61" x2="4014.90" y2="184.61" style="stroke:#F0F0F0;stroke-width:9.72"/>
	<line x1="4047.30" y1="184.61" x2="4112.10" y2="184.61" style="stroke:#F0F0F0;stroke-width:9.72"/>
	<line x1="4144.50" y1="184.61" x2="4209.30" y2="184.61" style="stroke:#F0F0F0;stroke-width:9.72"/>
	<line x1="4241.70" y1="184.61" x2="4306.50" y2="184.61" style="stroke:#F0F0F0;stroke-width:9.72"/>
	<line x1="4338.90" y1="184.61" x2="4403.70" y2="184.61" style="stroke:#F0F0F0;stroke-width:9.72"/>
	<line x1="4436.10" y1="184.61" x2="4500.90" y2="184.61" style="stroke:#F0F0F0;stroke-width:9.72"/>
	<line x1="4533.30" y1="184.61" x2="4598.10" y2="184.61" style="stroke:#F0F0F0;stroke-width:9.72"/>
	<line x1="4630.50" y1="184.61" x2="4695.30" y2="184.61" style="stroke:#F0F0F0;stroke-width:9.72"/>
	<line x1="4727.70" y1="184.61" x2="4792.50" y2="184.61" style="stroke:#F0F0F0;stroke-width:9.72"/>
	<line x1="4824.90" y1="184.61" x2="4889.70" y2="184.61" style="stroke:#F0F0F0;stroke-width:9.72"/>
	<line x1="4922.10" y1="184.61" x2="4986.90" y2="184.61" style="stroke:#F0F0F0;stroke-width:9.72"/>
	<line x1="5019.30" y1="184.61" x2="5084.10" y2="184.61" style="stroke:#F0F0F0;stroke-width:9.72"/>
	<line x1="5116.50" y1="184.61" x2="5181.30" y2="184.61" style="stroke:#F0F0F0;stroke-width:9.72"/>
	<line x1="5213.70" y1="184.61" x2="5278.50" y2="184.61" style="stroke:#F0F0F0;stroke-width:9.72"/>
	<line x1="1271.19" y1="2789.10" x2="1271.19" y2="2724.30" style="stroke:#909090;stroke-width:9.72"/>
	<line x1="1271.19" y1="2691.90" x2="1271.19" y2="2627.10" style="stroke:#909090;stroke-width:9.72"/>
	<line x1="1271.19" y1="2594.70" x2="1271.19" y2="2529.90" style="stroke:#909090;stroke-width:9.72"/>
	<line x1="1271.19" y1="2497.50" x2="1271.19" y2="2432.70" style="stroke:#909090;stroke-width:9.72"/>
	<line x1="1271.19" y1="2400.30" x2="1271.19" y2="2335.50" style="stroke:#909090;stroke-width:9.72"/>
	<line x1="1271.19" y1="2303.10" x2="1271.19" y2="2238.30" style="stroke:#909090;stroke-width:9.72"/>
	<line x1="1271.19" y1="2205.90" x2="1271.19" y2="2141.10" style="stroke:#909090;stroke-width:9.72"/>
	<line x1="1271.19" y1="2108.70" x2="1271.19" y2="2043.90" style="stroke:#909090;stroke-width:9.72"/>
	<line x1="1271.19" y1="2011.50" x2="1271.19" y2="1946.70" style="stroke:#909090;stroke-width:9.72"/>
	<line x1="1271.19" y1="1914.30" x2="1271.19" y2="1849.50" style="stroke:#909090;stroke-width:9.72"/>
	<line x1="1271.19" y1="1817.10" x2="1271.19" y2="1752.30" style="stroke:#909090;stroke-width:9.72"/>
	<line x1="1271.19" y1="1719.90" x2="1271.19" y2="1655.10" style="stroke:#909090;stroke-width:9.72"/>
	<line x1="1271.19" y1="1622.70" x2="1271.19" y2="1557.90" style="stroke:#909090;stroke-width:9.72"/>
	<line x1="1271.19" y1="1525.50" x2="1271.19" y2="1460.70" style="stroke:#909090;stroke-width:9.72"/>
	<line x1="1271.19" y1="1428.30" x2="1271.19" y2="1363.50" style="stroke:#909090;stroke-width:9.72"/>
	<line x1="1271.19" y1="1331.10" x2="1271.19" y2="1266.30" style="stroke:#909090;stroke-width:9.72"/>
	<line x1="1271.19" y1="1233.90" x2="1271.19" y2="1169.10" style="stroke:#909090;stroke-width:9.72"/>
	<line x1="1271.19" y1="1136.70" x2="1271.19" y2="1071.90" style="stroke:#909090;stroke-width:9.72"/>
	<line x1="1271.19" y1="1039.50" x2="1271.19" y2="974.70" style="stroke:#909090;stroke-width:9.72"/>
	<line x1="1271.19" y1="942.30" x2="1271.19" y2="877.50" style="stroke:#909090;stroke-width:9.72"/>
	<line x1="1271.19" y1="845.10" x2="1271.19" y2="780.30" style="stroke:#909090;stroke-width:9.72"/>
	<line x1="1271.19" y1="747.90" x2="1271.19" y2="683.10" style="stroke:#909090;stroke-width:9.72"/>
	<line x1="1271.19" y1="650.70" x2="1271.19" y2="585.90" style="stroke:#909090;stroke-width:9.72"/>
	<line x1="1271.19" y1="553.50" x2="1271.19" y2="488.70" style="stroke:#909090;stroke-width:9.72"/>
	<line x1="1271.19" y1="456.30" x2="1271.19" y2="391.50" style="stroke:#909090;stroke-width:9.72"/>
	<line x1="1271.19" y1="359.10" x2="1271.19" y2="294.30" style="stroke:#909090;stroke-width:9.72"/>
	<line x1="1271.19" y1="261.90" x2="1271.19" y2="197.10" style="stroke:#909090;stroke-width:9.72"/>
	<line x1="1271.19" y1="164.70" x2="1271.19" y2="113.40" style="stroke:#909090;stroke-width:9.72"/>
	<line x1="450.90" y1="2717.89" x2="5286.60" y2="2717.89" style="stroke:#C10534;stroke-width:9.72"/>
	<path d=" M522.11 2717.89 L527.51 2682.62 L533.08 2647.52 L538.48 2612.59 L544.05 2578.16 L549.45 2543.74 L555.02 2509.65 L560.59 2475.90 L565.99 2442.32 L571.56 2409.07 L576.96 2376.17 L582.53 2343.43 L587.92 2310.86 L593.49 2278.63 L598.89 2246.74 L604.46 2215.01 L610.03 2183.46 L615.43 2152.41 L621.00 2121.36 L626.40 2090.64 L631.97 2060.27 L637.37 2030.23 L642.94 2000.19 L648.34 1970.66 L653.91 1941.30 L659.48 1912.11 L664.88 1883.25 L670.44 1854.73 L675.84 1826.38 L681.41 1798.37 L686.81 1770.53 L692.38 1743.02 L697.78 1715.68 L703.35 1688.68 L708.92 1661.85 L714.32 1635.36 L719.89 1609.20 L725.29 1583.21 L730.86 1557.39 L736.26 1531.91 L741.83 1506.77 L747.23 1481.79 L752.79 1457.16 L758.36 1432.69 L763.76 1408.56 L769.33 1384.59 L774.73 1360.97 L780.30 1337.68 L785.70 1314.56 L791.27 1291.61 L796.67 1269.00 L802.24 1246.72 L807.81 1224.62 L813.21 1202.85 L818.78 1181.25 L824.18 1159.99 L829.74 1138.89 L835.14 1118.14 L840.71 1097.55 L846.11 1077.30 L851.68 1057.39 L857.25 1037.64 L862.65 1018.07 L868.22 998.83 L873.62 979.93 L879.19 961.20 L884.59 942.81 L890.16 924.58 L895.56 906.69 L901.13 888.97 L906.69 871.59 L912.09 854.55 L917.66 837.68 L923.06 820.97 L928.63 804.60 L934.03 788.57 L939.60 772.71 L945.00 757.18 L950.57 741.82 L956.14 726.81 L961.54 711.96 L967.11 697.44 L972.51 683.10 L978.08 669.09 L983.48 655.43 L989.04 641.93 L994.44 628.59 L1000.01 615.77 L1005.58 602.94 L1010.98 590.46 L1016.55 578.31 L1021.95 566.32 L1027.52 554.68 L1032.92 543.38 L1038.49 532.24 L1043.89 521.27 L1049.46 510.64 L1055.03 500.34 L1060.43 490.22 L1065.99 480.26 L1071.39 470.64 L1076.96 461.36 L1082.36 452.25 L1087.93 443.47 L1093.33 434.87 L1098.90 426.60 L1104.47 418.67 L1109.87 410.91 L1115.44 403.31 L1120.84 396.06 L1126.41 389.14 L1131.81 382.39 L1137.38 375.97 L1142.78 369.73 L1148.34 363.82 L1153.91 358.09 L1159.31 352.69 L1164.88 347.46 L1170.28 342.56 L1175.85 338.01 L1181.25 333.62 L1186.82 329.40 L1192.22 325.52 L1197.79 321.97 L1203.36 318.60 L1208.76 315.56 L1214.33 312.69 L1219.72 310.16 L1225.29 307.80 L1230.69 305.78 L1236.26 303.92 L1241.66 302.40 L1247.23 301.22 L1252.80 300.21 L1258.20 299.53 L1263.77 299.03 L1269.17 298.69 L1274.74 298.86 L1280.14 299.03 L1285.71 299.70 L1291.11 300.38 L1296.68 301.56 L1302.24 302.91 L1307.64 304.43 L1313.21 306.28 L1318.61 308.47 L1324.18 310.84 L1329.58 313.54 L1335.15 316.41 L1340.55 319.44 L1346.12 322.99 L1351.69 326.70 L1357.09 330.58 L1362.66 334.80 L1368.06 339.19 L1373.63 343.91 L1379.03 348.97 L1384.59 354.21 L1389.99 359.61 L1395.56 365.51 L1401.13 371.42 L1406.53 377.66 L1412.10 384.24 L1417.50 391.16 L1423.07 398.08 L1428.47 405.51 L1434.04 413.10 L1439.44 420.86 L1445.01 428.96 L1450.58 437.40 L1455.98 446.01 L1461.54 454.95 L1466.94 464.06 L1472.51 473.34 L1477.91 483.13 L1483.48 493.09 L1488.88 503.21 L1494.45 513.68 L1500.02 524.31 L1505.42 535.28 L1510.99 546.58 L1516.39 558.06 L1521.96 569.70 L1527.36 581.85 L1532.93 594.00 L1538.33 606.66 L1543.89 619.31 L1549.46 632.47 L1554.86 645.81 L1560.43 659.31 L1565.83 673.14 L1571.40 687.15 L1576.80 701.49 L1582.37 716.18 L1587.77 731.03 L1593.34 746.21 L1598.91 761.57 L1604.31 777.26 L1609.88 793.13 L1615.28 809.32 L1620.84 825.69 L1626.24 842.40 L1631.81 859.44 L1637.21 876.66 L1642.78 894.04 L1648.35 911.76 L1653.75 929.81 L1659.32 948.04 L1664.72 966.60 L1670.29 985.33 L1675.69 1004.40 L1681.26 1023.64 L1686.66 1043.21 L1692.23 1062.96 L1697.79 1083.04 L1703.19 1103.46 L1708.76 1124.04 L1714.16 1144.80 L1719.73 1166.06 L1725.13 1187.32 L1730.70 1208.93 L1736.10 1230.86 L1741.67 1253.14 L1747.07 1275.41 L1752.64 1298.19 L1758.21 1321.14 L1763.61 1344.26 L1769.18 1367.72 L1774.58 1391.51 L1780.14 1415.48 L1785.54 1439.61 L1791.11 1464.24 L1796.51 1488.88 L1802.08 1514.03 L1807.65 1539.17 L1813.05 1564.82 L1818.62 1590.64 L1824.02 1616.63 L1829.59 1642.95 L1834.99 1669.61 L1840.56 1696.44 L1845.96 1723.44 L1851.53 1750.78 L1857.09 1778.46 L1862.49 1806.30 L1868.06 1834.48 L1873.46 1862.83 L1879.03 1891.52 L1884.43 1920.54 L1890.00 1949.57 L1895.40 1979.10 L1900.97 2008.80 L1906.54 2038.67 L1911.94 2069.04 L1917.51 2099.42 L1922.91 2130.13 L1928.48 2161.18 L1933.88 2192.40 L1939.44 2223.96 L1944.84 2255.85 L1950.41 2287.74 L1955.98 2320.14 L1961.38 2352.71 L1966.95 2385.45 L1972.35 2418.53 L1977.92 2451.94 L1983.32 2485.52 L1988.89 2519.44 L1994.29 2553.53 L1999.86 2587.95 L2005.43 2622.54 L2010.83 2657.48 L2016.39 2692.58 L2021.79 2717.89 L2027.36 2717.89 L2032.76 2717.89 L2038.33 2717.89 L2043.73 2717.89 L2049.30 2717.89 L2054.87 2717.89 L2060.27 2717.89 L2065.84 2717.89 L2071.24 2717.89 L2076.81 2717.89 L2082.21 2717.89 L2087.78 2717.89 L2093.18 2717.89 L2098.74 2717.89 L2104.31 2717.89 L2109.71 2717.89 L2115.28 2717.89 L2120.68 2717.89 L2126.25 2717.89 L2131.65 2717.89 L2137.22 2717.89 L2142.62 2717.89 L2148.19 2717.89 L2153.76 2717.89 L2159.16 2717.89 L2164.73 2717.89" stroke-linejoin="round" style="fill:none;stroke:#1A85FF;stroke-width:9.72"/>
	<line x1="450.90" y1="2789.10" x2="450.90" y2="113.40" style="stroke:#000000;stroke-width:6.48"/>
	<line x1="450.90" y1="2717.89" x2="405.84" y2="2717.89" style="stroke:#000000;stroke-width:6.48"/>
	<text x="356.33" y="2717.89" style="font-family:'Helvetica';font-size:89.94px;fill:#000000" transform="rotate(-90 356.33,2717.89)" text-anchor="middle">0</text>
	<line x1="450.90" y1="1873.46" x2="405.84" y2="1873.46" style="stroke:#000000;stroke-width:6.48"/>
	<text x="356.33" y="1873.46" style="font-family:'Helvetica';font-size:89.94px;fill:#000000" transform="rotate(-90 356.33,1873.46)" text-anchor="middle">50</text>
	<line x1="450.90" y1="1029.04" x2="405.84" y2="1029.04" style="stroke:#000000;stroke-width:6.48"/>
	<text x="356.33" y="1029.04" style="font-family:'Helvetica';font-size:89.94px;fill:#000000" transform="rotate(-90 356.33,1029.04)" text-anchor="middle">100</text>
	<line x1="450.90" y1="184.61" x2="405.84" y2="184.61" style="stroke:#000000;stroke-width:6.48"/>
	<text x="356.33" y="184.61" style="font-family:'Helvetica';font-size:89.94px;fill:#000000" transform="rotate(-90 356.33,184.61)" text-anchor="middle">150</text>
	<text x="214.55" y="1451.25" style="font-family:'Helvetica';font-size:112.56px;fill:#000000" transform="rotate(-90 214.55,1451.25)" text-anchor="middle">Tax Revenue/GDP</text>
	<line x1="450.90" y1="2789.10" x2="5286.60" y2="2789.10" style="stroke:#000000;stroke-width:6.48"/>
	<line x1="522.11" y1="2789.10" x2="522.11" y2="2834.16" style="stroke:#000000;stroke-width:6.48"/>
	<text x="522.11" y="2919.48" style="font-family:'Helvetica';font-size:89.94px;fill:#000000" text-anchor="middle">0</text>
	<line x1="913.28" y1="2789.10" x2="913.28" y2="2834.16" style="stroke:#000000;stroke-width:6.48"/>
	<text x="913.28" y="2919.48" style="font-family:'Helvetica';font-size:89.94px;fill:#000000" text-anchor="middle">.05</text>
	<line x1="1304.27" y1="2789.10" x2="1304.27" y2="2834.16" style="stroke:#000000;stroke-width:6.48"/>
	<text x="1304.27" y="2919.48" style="font-family:'Helvetica';font-size:89.94px;fill:#000000" text-anchor="middle">.1</text>
	<line x1="1695.43" y1="2789.10" x2="1695.43" y2="2834.16" style="stroke:#000000;stroke-width:6.48"/>
	<text x="1695.43" y="2919.48" style="font-family:'Helvetica';font-size:89.94px;fill:#000000" text-anchor="middle">.15</text>
	<line x1="2086.59" y1="2789.10" x2="2086.59" y2="2834.16" style="stroke:#000000;stroke-width:6.48"/>
	<text x="2086.59" y="2919.48" style="font-family:'Helvetica';font-size:89.94px;fill:#000000" text-anchor="middle">.2</text>
	<line x1="2477.59" y1="2789.10" x2="2477.59" y2="2834.16" style="stroke:#000000;stroke-width:6.48"/>
	<text x="2477.59" y="2919.48" style="font-family:'Helvetica';font-size:89.94px;fill:#000000" text-anchor="middle">.25</text>
	<line x1="2868.75" y1="2789.10" x2="2868.75" y2="2834.16" style="stroke:#000000;stroke-width:6.48"/>
	<text x="2868.75" y="2919.48" style="font-family:'Helvetica';font-size:89.94px;fill:#000000" text-anchor="middle">.3</text>
	<line x1="3259.91" y1="2789.10" x2="3259.91" y2="2834.16" style="stroke:#000000;stroke-width:6.48"/>
	<text x="3259.91" y="2919.48" style="font-family:'Helvetica';font-size:89.94px;fill:#000000" text-anchor="middle">.35</text>
	<line x1="3650.91" y1="2789.10" x2="3650.91" y2="2834.16" style="stroke:#000000;stroke-width:6.48"/>
	<text x="3650.91" y="2919.48" style="font-family:'Helvetica';font-size:89.94px;fill:#000000" text-anchor="middle">.4</text>
	<line x1="4042.07" y1="2789.10" x2="4042.07" y2="2834.16" style="stroke:#000000;stroke-width:6.48"/>
	<text x="4042.07" y="2919.48" style="font-family:'Helvetica';font-size:89.94px;fill:#000000" text-anchor="middle">.45</text>
	<line x1="4433.06" y1="2789.10" x2="4433.06" y2="2834.16" style="stroke:#000000;stroke-width:6.48"/>
	<text x="4433.06" y="2919.48" style="font-family:'Helvetica';font-size:89.94px;fill:#000000" text-anchor="middle">.5</text>
	<line x1="4824.23" y1="2789.10" x2="4824.23" y2="2834.16" style="stroke:#000000;stroke-width:6.48"/>
	<text x="4824.23" y="2919.48" style="font-family:'Helvetica';font-size:89.94px;fill:#000000" text-anchor="middle">.55</text>
	<line x1="5215.39" y1="2789.10" x2="5215.39" y2="2834.16" style="stroke:#000000;stroke-width:6.48"/>
	<text x="5215.39" y="2919.48" style="font-family:'Helvetica';font-size:89.94px;fill:#000000" text-anchor="middle">.6</text>
	<text x="2868.75" y="3070.31" style="font-family:'Helvetica';font-size:112.56px;fill:#000000" text-anchor="middle">Corporate Tax Rate</text>
</svg>
