<?xml version="1.0" encoding="UTF-8" standalone="no"?>
<!-- This is a Stata 18.0 generated SVG file (http://www.stata.com) -->

<svg version="1.1" width="7.500in" height="4.500in" viewBox="0 0 5400 3240" xmlns="http://www.w3.org/2000/svg" xmlns:xlink="http://www.w3.org/1999/xlink">
	<desc>Stata Graph - Graph</desc>
	<rect x="0" y="0" width="5400" height="3240" style="fill:#FFFFFF;stroke:none"/>
	<rect x="0.00" y="0.00" width="5400.00" height="3240.00" style="fill:#FFFFFF"/>
	<rect x="3.24" y="3.24" width="5393.52" height="3233.52" style="fill:none;stroke:#FFFFFF;stroke-width:6.48"/>
	<rect x="499.50" y="290.59" width="2223.45" height="1157.79" style="fill:#FFFFFF"/>
	<rect x="502.25" y="293.34" width="2217.94" height="1152.29" style="fill:none;stroke:#FFFFFF;stroke-width:5.51"/>
	<line x1="499.50" y1="1338.86" x2="564.30" y2="1338.86" style="stroke:#F0F0F0;stroke-width:8.26"/>
	<line x1="596.70" y1="1338.86" x2="661.50" y2="1338.86" style="stroke:#F0F0F0;stroke-width:8.26"/>
	<line x1="693.90" y1="1338.86" x2="758.70" y2="1338.86" style="stroke:#F0F0F0;stroke-width:8.26"/>
	<line x1="791.10" y1="1338.86" x2="855.90" y2="1338.86" style="stroke:#F0F0F0;stroke-width:8.26"/>
	<line x1="888.30" y1="1338.86" x2="953.10" y2="1338.86" style="stroke:#F0F0F0;stroke-width:8.26"/>
	<line x1="985.50" y1="1338.86" x2="1050.30" y2="1338.86" style="stroke:#F0F0F0;stroke-width:8.26"/>
	<line x1="1082.70" y1="1338.86" x2="1147.50" y2="1338.86" style="stroke:#F0F0F0;stroke-width:8.26"/>
	<line x1="1179.90" y1="1338.86" x2="1244.70" y2="1338.86" style="stroke:#F0F0F0;stroke-width:8.26"/>
	<line x1="1277.10" y1="1338.86" x2="1341.90" y2="1338.86" style="stroke:#F0F0F0;stroke-width:8.26"/>
	<line x1="1374.30" y1="1338.86" x2="1439.10" y2="1338.86" style="stroke:#F0F0F0;stroke-width:8.26"/>
	<line x1="1471.50" y1="1338.86" x2="1536.30" y2="1338.86" style="stroke:#F0F0F0;stroke-width:8.26"/>
	<line x1="1568.70" y1="1338.86" x2="1633.50" y2="1338.86" style="stroke:#F0F0F0;stroke-width:8.26"/>
	<line x1="1665.90" y1="1338.86" x2="1730.70" y2="1338.86" style="stroke:#F0F0F0;stroke-width:8.26"/>
	<line x1="1763.10" y1="1338.86" x2="1827.90" y2="1338.86" style="stroke:#F0F0F0;stroke-width:8.26"/>
	<line x1="1860.30" y1="1338.86" x2="1925.10" y2="1338.86" style="stroke:#F0F0F0;stroke-width:8.26"/>
	<line x1="1957.50" y1="1338.86" x2="2022.30" y2="1338.86" style="stroke:#F0F0F0;stroke-width:8.26"/>
	<line x1="2054.70" y1="1338.86" x2="2119.50" y2="1338.86" style="stroke:#F0F0F0;stroke-width:8.26"/>
	<line x1="2151.90" y1="1338.86" x2="2216.70" y2="1338.86" style="stroke:#F0F0F0;stroke-width:8.26"/>
	<line x1="2249.10" y1="1338.86" x2="2313.90" y2="1338.86" style="stroke:#F0F0F0;stroke-width:8.26"/>
	<line x1="2346.30" y1="1338.86" x2="2411.10" y2="1338.86" style="stroke:#F0F0F0;stroke-width:8.26"/>
	<line x1="2443.50" y1="1338.86" x2="2508.30" y2="1338.86" style="stroke:#F0F0F0;stroke-width:8.26"/>
	<line x1="2540.70" y1="1338.86" x2="2605.50" y2="1338.86" style="stroke:#F0F0F0;stroke-width:8.26"/>
	<line x1="2637.90" y1="1338.86" x2="2702.70" y2="1338.86" style="stroke:#F0F0F0;stroke-width:8.26"/>
	<line x1="499.50" y1="1031.91" x2="564.30" y2="1031.91" style="stroke:#F0F0F0;stroke-width:8.26"/>
	<line x1="596.70" y1="1031.91" x2="661.50" y2="1031.91" style="stroke:#F0F0F0;stroke-width:8.26"/>
	<line x1="693.90" y1="1031.91" x2="758.70" y2="1031.91" style="stroke:#F0F0F0;stroke-width:8.26"/>
	<line x1="791.10" y1="1031.91" x2="855.90" y2="1031.91" style="stroke:#F0F0F0;stroke-width:8.26"/>
	<line x1="888.30" y1="1031.91" x2="953.10" y2="1031.91" style="stroke:#F0F0F0;stroke-width:8.26"/>
	<line x1="985.50" y1="1031.91" x2="1050.30" y2="1031.91" style="stroke:#F0F0F0;stroke-width:8.26"/>
	<line x1="1082.70" y1="1031.91" x2="1147.50" y2="1031.91" style="stroke:#F0F0F0;stroke-width:8.26"/>
	<line x1="1179.90" y1="1031.91" x2="1244.70" y2="1031.91" style="stroke:#F0F0F0;stroke-width:8.26"/>
	<line x1="1277.10" y1="1031.91" x2="1341.90" y2="1031.91" style="stroke:#F0F0F0;stroke-width:8.26"/>
	<line x1="1374.30" y1="1031.91" x2="1439.10" y2="1031.91" style="stroke:#F0F0F0;stroke-width:8.26"/>
	<line x1="1471.50" y1="1031.91" x2="1536.30" y2="1031.91" style="stroke:#F0F0F0;stroke-width:8.26"/>
	<line x1="1568.70" y1="1031.91" x2="1633.50" y2="1031.91" style="stroke:#F0F0F0;stroke-width:8.26"/>
	<line x1="1665.90" y1="1031.91" x2="1730.70" y2="1031.91" style="stroke:#F0F0F0;stroke-width:8.26"/>
	<line x1="1763.10" y1="1031.91" x2="1827.90" y2="1031.91" style="stroke:#F0F0F0;stroke-width:8.26"/>
	<line x1="1860.30" y1="1031.91" x2="1925.10" y2="1031.91" style="stroke:#F0F0F0;stroke-width:8.26"/>
	<line x1="1957.50" y1="1031.91" x2="2022.30" y2="1031.91" style="stroke:#F0F0F0;stroke-width:8.26"/>
	<line x1="2054.70" y1="1031.91" x2="2119.50" y2="1031.91" style="stroke:#F0F0F0;stroke-width:8.26"/>
	<line x1="2151.90" y1="1031.91" x2="2216.70" y2="1031.91" style="stroke:#F0F0F0;stroke-width:8.26"/>
	<line x1="2249.10" y1="1031.91" x2="2313.90" y2="1031.91" style="stroke:#F0F0F0;stroke-width:8.26"/>
	<line x1="2346.30" y1="1031.91" x2="2411.10" y2="1031.91" style="stroke:#F0F0F0;stroke-width:8.26"/>
	<line x1="2443.50" y1="1031.91" x2="2508.30" y2="1031.91" style="stroke:#F0F0F0;stroke-width:8.26"/>
	<line x1="2540.70" y1="1031.91" x2="2605.50" y2="1031.91" style="stroke:#F0F0F0;stroke-width:8.26"/>
	<line x1="2637.90" y1="1031.91" x2="2702.70" y2="1031.91" style="stroke:#F0F0F0;stroke-width:8.26"/>
	<line x1="499.50" y1="724.95" x2="564.30" y2="724.95" style="stroke:#F0F0F0;stroke-width:8.26"/>
	<line x1="596.70" y1="724.95" x2="661.50" y2="724.95" style="stroke:#F0F0F0;stroke-width:8.26"/>
	<line x1="693.90" y1="724.95" x2="758.70" y2="724.95" style="stroke:#F0F0F0;stroke-width:8.26"/>
	<line x1="791.10" y1="724.95" x2="855.90" y2="724.95" style="stroke:#F0F0F0;stroke-width:8.26"/>
	<line x1="888.30" y1="724.95" x2="953.10" y2="724.95" style="stroke:#F0F0F0;stroke-width:8.26"/>
	<line x1="985.50" y1="724.95" x2="1050.30" y2="724.95" style="stroke:#F0F0F0;stroke-width:8.26"/>
	<line x1="1082.70" y1="724.95" x2="1147.50" y2="724.95" style="stroke:#F0F0F0;stroke-width:8.26"/>
	<line x1="1179.90" y1="724.95" x2="1244.70" y2="724.95" style="stroke:#F0F0F0;stroke-width:8.26"/>
	<line x1="1277.10" y1="724.95" x2="1341.90" y2="724.95" style="stroke:#F0F0F0;stroke-width:8.26"/>
	<line x1="1374.30" y1="724.95" x2="1439.10" y2="724.95" style="stroke:#F0F0F0;stroke-width:8.26"/>
	<line x1="1471.50" y1="724.95" x2="1536.30" y2="724.95" style="stroke:#F0F0F0;stroke-width:8.26"/>
	<line x1="1568.70" y1="724.95" x2="1633.50" y2="724.95" style="stroke:#F0F0F0;stroke-width:8.26"/>
	<line x1="1665.90" y1="724.95" x2="1730.70" y2="724.95" style="stroke:#F0F0F0;stroke-width:8.26"/>
	<line x1="1763.10" y1="724.95" x2="1827.90" y2="724.95" style="stroke:#F0F0F0;stroke-width:8.26"/>
	<line x1="1860.30" y1="724.95" x2="1925.10" y2="724.95" style="stroke:#F0F0F0;stroke-width:8.26"/>
	<line x1="1957.50" y1="724.95" x2="2022.30" y2="724.95" style="stroke:#F0F0F0;stroke-width:8.26"/>
	<line x1="2054.70" y1="724.95" x2="2119.50" y2="724.95" style="stroke:#F0F0F0;stroke-width:8.26"/>
	<line x1="2151.90" y1="724.95" x2="2216.70" y2="724.95" style="stroke:#F0F0F0;stroke-width:8.26"/>
	<line x1="2249.10" y1="724.95" x2="2313.90" y2="724.95" style="stroke:#F0F0F0;stroke-width:8.26"/>
	<line x1="2346.30" y1="724.95" x2="2411.10" y2="724.95" style="stroke:#F0F0F0;stroke-width:8.26"/>
	<line x1="2443.50" y1="724.95" x2="2508.30" y2="724.95" style="stroke:#F0F0F0;stroke-width:8.26"/>
	<line x1="2540.70" y1="724.95" x2="2605.50" y2="724.95" style="stroke:#F0F0F0;stroke-width:8.26"/>
	<line x1="2637.90" y1="724.95" x2="2702.70" y2="724.95" style="stroke:#F0F0F0;stroke-width:8.26"/>
	<line x1="499.50" y1="417.99" x2="564.30" y2="417.99" style="stroke:#F0F0F0;stroke-width:8.26"/>
	<line x1="596.70" y1="417.99" x2="661.50" y2="417.99" style="stroke:#F0F0F0;stroke-width:8.26"/>
	<line x1="693.90" y1="417.99" x2="758.70" y2="417.99" style="stroke:#F0F0F0;stroke-width:8.26"/>
	<line x1="791.10" y1="417.99" x2="855.90" y2="417.99" style="stroke:#F0F0F0;stroke-width:8.26"/>
	<line x1="888.30" y1="417.99" x2="953.10" y2="417.99" style="stroke:#F0F0F0;stroke-width:8.26"/>
	<line x1="985.50" y1="417.99" x2="1050.30" y2="417.99" style="stroke:#F0F0F0;stroke-width:8.26"/>
	<line x1="1082.70" y1="417.99" x2="1147.50" y2="417.99" style="stroke:#F0F0F0;stroke-width:8.26"/>
	<line x1="1179.90" y1="417.99" x2="1244.70" y2="417.99" style="stroke:#F0F0F0;stroke-width:8.26"/>
	<line x1="1277.10" y1="417.99" x2="1341.90" y2="417.99" style="stroke:#F0F0F0;stroke-width:8.26"/>
	<line x1="1374.30" y1="417.99" x2="1439.10" y2="417.99" style="stroke:#F0F0F0;stroke-width:8.26"/>
	<line x1="1471.50" y1="417.99" x2="1536.30" y2="417.99" style="stroke:#F0F0F0;stroke-width:8.26"/>
	<line x1="1568.70" y1="417.99" x2="1633.50" y2="417.99" style="stroke:#F0F0F0;stroke-width:8.26"/>
	<line x1="1665.90" y1="417.99" x2="1730.70" y2="417.99" style="stroke:#F0F0F0;stroke-width:8.26"/>
	<line x1="1763.10" y1="417.99" x2="1827.90" y2="417.99" style="stroke:#F0F0F0;stroke-width:8.26"/>
	<line x1="1860.30" y1="417.99" x2="1925.10" y2="417.99" style="stroke:#F0F0F0;stroke-width:8.26"/>
	<line x1="1957.50" y1="417.99" x2="2022.30" y2="417.99" style="stroke:#F0F0F0;stroke-width:8.26"/>
	<line x1="2054.70" y1="417.99" x2="2119.50" y2="417.99" style="stroke:#F0F0F0;stroke-width:8.26"/>
	<line x1="2151.90" y1="417.99" x2="2216.70" y2="417.99" style="stroke:#F0F0F0;stroke-width:8.26"/>
	<line x1="2249.10" y1="417.99" x2="2313.90" y2="417.99" style="stroke:#F0F0F0;stroke-width:8.26"/>
	<line x1="2346.30" y1="417.99" x2="2411.10" y2="417.99" style="stroke:#F0F0F0;stroke-width:8.26"/>
	<line x1="2443.50" y1="417.99" x2="2508.30" y2="417.99" style="stroke:#F0F0F0;stroke-width:8.26"/>
	<line x1="2540.70" y1="417.99" x2="2605.50" y2="417.99" style="stroke:#F0F0F0;stroke-width:8.26"/>
	<line x1="2637.90" y1="417.99" x2="2702.70" y2="417.99" style="stroke:#F0F0F0;stroke-width:8.26"/>
	<line x1="499.50" y1="1338.86" x2="2722.95" y2="1338.86" style="stroke:#C10534;stroke-width:8.26"/>
	<rect x="2949.75" y="290.59" width="2223.45" height="1157.79" style="fill:#FFFFFF"/>
	<rect x="2952.50" y="293.34" width="2217.94" height="1152.29" style="fill:none;stroke:#FFFFFF;stroke-width:5.51"/>
	<line x1="2949.75" y1="1338.86" x2="3014.55" y2="1338.86" style="stroke:#F0F0F0;stroke-width:8.26"/>
	<line x1="3046.95" y1="1338.86" x2="3111.75" y2="1338.86" style="stroke:#F0F0F0;stroke-width:8.26"/>
	<line x1="3144.15" y1="1338.86" x2="3208.95" y2="1338.86" style="stroke:#F0F0F0;stroke-width:8.26"/>
	<line x1="3241.35" y1="1338.86" x2="3306.15" y2="1338.86" style="stroke:#F0F0F0;stroke-width:8.26"/>
	<line x1="3338.55" y1="1338.86" x2="3403.35" y2="1338.86" style="stroke:#F0F0F0;stroke-width:8.26"/>
	<line x1="3435.75" y1="1338.86" x2="3500.55" y2="1338.86" style="stroke:#F0F0F0;stroke-width:8.26"/>
	<line x1="3532.95" y1="1338.86" x2="3597.75" y2="1338.86" style="stroke:#F0F0F0;stroke-width:8.26"/>
	<line x1="3630.15" y1="1338.86" x2="3694.95" y2="1338.86" style="stroke:#F0F0F0;stroke-width:8.26"/>
	<line x1="3727.35" y1="1338.86" x2="3792.15" y2="1338.86" style="stroke:#F0F0F0;stroke-width:8.26"/>
	<line x1="3824.55" y1="1338.86" x2="3889.35" y2="1338.86" style="stroke:#F0F0F0;stroke-width:8.26"/>
	<line x1="3921.75" y1="1338.86" x2="3986.55" y2="1338.86" style="stroke:#F0F0F0;stroke-width:8.26"/>
	<line x1="4018.95" y1="1338.86" x2="4083.75" y2="1338.86" style="stroke:#F0F0F0;stroke-width:8.26"/>
	<line x1="4116.15" y1="1338.86" x2="4180.95" y2="1338.86" style="stroke:#F0F0F0;stroke-width:8.26"/>
	<line x1="4213.35" y1="1338.86" x2="4278.15" y2="1338.86" style="stroke:#F0F0F0;stroke-width:8.26"/>
	<line x1="4310.55" y1="1338.86" x2="4375.35" y2="1338.86" style="stroke:#F0F0F0;stroke-width:8.26"/>
	<line x1="4407.75" y1="1338.86" x2="4472.55" y2="1338.86" style="stroke:#F0F0F0;stroke-width:8.26"/>
	<line x1="4504.95" y1="1338.86" x2="4569.75" y2="1338.86" style="stroke:#F0F0F0;stroke-width:8.26"/>
	<line x1="4602.15" y1="1338.86" x2="4666.95" y2="1338.86" style="stroke:#F0F0F0;stroke-width:8.26"/>
	<line x1="4699.35" y1="1338.86" x2="4764.15" y2="1338.86" style="stroke:#F0F0F0;stroke-width:8.26"/>
	<line x1="4796.55" y1="1338.86" x2="4861.35" y2="1338.86" style="stroke:#F0F0F0;stroke-width:8.26"/>
	<line x1="4893.75" y1="1338.86" x2="4958.55" y2="1338.86" style="stroke:#F0F0F0;stroke-width:8.26"/>
	<line x1="4990.95" y1="1338.86" x2="5055.75" y2="1338.86" style="stroke:#F0F0F0;stroke-width:8.26"/>
	<line x1="5088.15" y1="1338.86" x2="5152.95" y2="1338.86" style="stroke:#F0F0F0;stroke-width:8.26"/>
	<line x1="2949.75" y1="1031.91" x2="3014.55" y2="1031.91" style="stroke:#F0F0F0;stroke-width:8.26"/>
	<line x1="3046.95" y1="1031.91" x2="3111.75" y2="1031.91" style="stroke:#F0F0F0;stroke-width:8.26"/>
	<line x1="3144.15" y1="1031.91" x2="3208.95" y2="1031.91" style="stroke:#F0F0F0;stroke-width:8.26"/>
	<line x1="3241.35" y1="1031.91" x2="3306.15" y2="1031.91" style="stroke:#F0F0F0;stroke-width:8.26"/>
	<line x1="3338.55" y1="1031.91" x2="3403.35" y2="1031.91" style="stroke:#F0F0F0;stroke-width:8.26"/>
	<line x1="3435.75" y1="1031.91" x2="3500.55" y2="1031.91" style="stroke:#F0F0F0;stroke-width:8.26"/>
	<line x1="3532.95" y1="1031.91" x2="3597.75" y2="1031.91" style="stroke:#F0F0F0;stroke-width:8.26"/>
	<line x1="3630.15" y1="1031.91" x2="3694.95" y2="1031.91" style="stroke:#F0F0F0;stroke-width:8.26"/>
	<line x1="3727.35" y1="1031.91" x2="3792.15" y2="1031.91" style="stroke:#F0F0F0;stroke-width:8.26"/>
	<line x1="3824.55" y1="1031.91" x2="3889.35" y2="1031.91" style="stroke:#F0F0F0;stroke-width:8.26"/>
	<line x1="3921.75" y1="1031.91" x2="3986.55" y2="1031.91" style="stroke:#F0F0F0;stroke-width:8.26"/>
	<line x1="4018.95" y1="1031.91" x2="4083.75" y2="1031.91" style="stroke:#F0F0F0;stroke-width:8.26"/>
	<line x1="4116.15" y1="1031.91" x2="4180.95" y2="1031.91" style="stroke:#F0F0F0;stroke-width:8.26"/>
	<line x1="4213.35" y1="1031.91" x2="4278.15" y2="1031.91" style="stroke:#F0F0F0;stroke-width:8.26"/>
	<line x1="4310.55" y1="1031.91" x2="4375.35" y2="1031.91" style="stroke:#F0F0F0;stroke-width:8.26"/>
	<line x1="4407.75" y1="1031.91" x2="4472.55" y2="1031.91" style="stroke:#F0F0F0;stroke-width:8.26"/>
	<line x1="4504.95" y1="1031.91" x2="4569.75" y2="1031.91" style="stroke:#F0F0F0;stroke-width:8.26"/>
	<line x1="4602.15" y1="1031.91" x2="4666.95" y2="1031.91" style="stroke:#F0F0F0;stroke-width:8.26"/>
	<line x1="4699.35" y1="1031.91" x2="4764.15" y2="1031.91" style="stroke:#F0F0F0;stroke-width:8.26"/>
	<line x1="4796.55" y1="1031.91" x2="4861.35" y2="1031.91" style="stroke:#F0F0F0;stroke-width:8.26"/>
	<line x1="4893.75" y1="1031.91" x2="4958.55" y2="1031.91" style="stroke:#F0F0F0;stroke-width:8.26"/>
	<line x1="4990.95" y1="1031.91" x2="5055.75" y2="1031.91" style="stroke:#F0F0F0;stroke-width:8.26"/>
	<line x1="5088.15" y1="1031.91" x2="5152.95" y2="1031.91" style="stroke:#F0F0F0;stroke-width:8.26"/>
	<line x1="2949.75" y1="724.95" x2="3014.55" y2="724.95" style="stroke:#F0F0F0;stroke-width:8.26"/>
	<line x1="3046.95" y1="724.95" x2="3111.75" y2="724.95" style="stroke:#F0F0F0;stroke-width:8.26"/>
	<line x1="3144.15" y1="724.95" x2="3208.95" y2="724.95" style="stroke:#F0F0F0;stroke-width:8.26"/>
	<line x1="3241.35" y1="724.95" x2="3306.15" y2="724.95" style="stroke:#F0F0F0;stroke-width:8.26"/>
	<line x1="3338.55" y1="724.95" x2="3403.35" y2="724.95" style="stroke:#F0F0F0;stroke-width:8.26"/>
	<line x1="3435.75" y1="724.95" x2="3500.55" y2="724.95" style="stroke:#F0F0F0;stroke-width:8.26"/>
	<line x1="3532.95" y1="724.95" x2="3597.75" y2="724.95" style="stroke:#F0F0F0;stroke-width:8.26"/>
	<line x1="3630.15" y1="724.95" x2="3694.95" y2="724.95" style="stroke:#F0F0F0;stroke-width:8.26"/>
	<line x1="3727.35" y1="724.95" x2="3792.15" y2="724.95" style="stroke:#F0F0F0;stroke-width:8.26"/>
	<line x1="3824.55" y1="724.95" x2="3889.35" y2="724.95" style="stroke:#F0F0F0;stroke-width:8.26"/>
	<line x1="3921.75" y1="724.95" x2="3986.55" y2="724.95" style="stroke:#F0F0F0;stroke-width:8.26"/>
	<line x1="4018.95" y1="724.95" x2="4083.75" y2="724.95" style="stroke:#F0F0F0;stroke-width:8.26"/>
	<line x1="4116.15" y1="724.95" x2="4180.95" y2="724.95" style="stroke:#F0F0F0;stroke-width:8.26"/>
	<line x1="4213.35" y1="724.95" x2="4278.15" y2="724.95" style="stroke:#F0F0F0;stroke-width:8.26"/>
	<line x1="4310.55" y1="724.95" x2="4375.35" y2="724.95" style="stroke:#F0F0F0;stroke-width:8.26"/>
	<line x1="4407.75" y1="724.95" x2="4472.55" y2="724.95" style="stroke:#F0F0F0;stroke-width:8.26"/>
	<line x1="4504.95" y1="724.95" x2="4569.75" y2="724.95" style="stroke:#F0F0F0;stroke-width:8.26"/>
	<line x1="4602.15" y1="724.95" x2="4666.95" y2="724.95" style="stroke:#F0F0F0;stroke-width:8.26"/>
	<line x1="4699.35" y1="724.95" x2="4764.15" y2="724.95" style="stroke:#F0F0F0;stroke-width:8.26"/>
	<line x1="4796.55" y1="724.95" x2="4861.35" y2="724.95" style="stroke:#F0F0F0;stroke-width:8.26"/>
	<line x1="4893.75" y1="724.95" x2="4958.55" y2="724.95" style="stroke:#F0F0F0;stroke-width:8.26"/>
	<line x1="4990.95" y1="724.95" x2="5055.75" y2="724.95" style="stroke:#F0F0F0;stroke-width:8.26"/>
	<line x1="5088.15" y1="724.95" x2="5152.95" y2="724.95" style="stroke:#F0F0F0;stroke-width:8.26"/>
	<line x1="2949.75" y1="417.99" x2="3014.55" y2="417.99" style="stroke:#F0F0F0;stroke-width:8.26"/>
	<line x1="3046.95" y1="417.99" x2="3111.75" y2="417.99" style="stroke:#F0F0F0;stroke-width:8.26"/>
	<line x1="3144.15" y1="417.99" x2="3208.95" y2="417.99" style="stroke:#F0F0F0;stroke-width:8.26"/>
	<line x1="3241.35" y1="417.99" x2="3306.15" y2="417.99" style="stroke:#F0F0F0;stroke-width:8.26"/>
	<line x1="3338.55" y1="417.99" x2="3403.35" y2="417.99" style="stroke:#F0F0F0;stroke-width:8.26"/>
	<line x1="3435.75" y1="417.99" x2="3500.55" y2="417.99" style="stroke:#F0F0F0;stroke-width:8.26"/>
	<line x1="3532.95" y1="417.99" x2="3597.75" y2="417.99" style="stroke:#F0F0F0;stroke-width:8.26"/>
	<line x1="3630.15" y1="417.99" x2="3694.95" y2="417.99" style="stroke:#F0F0F0;stroke-width:8.26"/>
	<line x1="3727.35" y1="417.99" x2="3792.15" y2="417.99" style="stroke:#F0F0F0;stroke-width:8.26"/>
	<line x1="3824.55" y1="417.99" x2="3889.35" y2="417.99" style="stroke:#F0F0F0;stroke-width:8.26"/>
	<line x1="3921.75" y1="417.99" x2="3986.55" y2="417.99" style="stroke:#F0F0F0;stroke-width:8.26"/>
	<line x1="4018.95" y1="417.99" x2="4083.75" y2="417.99" style="stroke:#F0F0F0;stroke-width:8.26"/>
	<line x1="4116.15" y1="417.99" x2="4180.95" y2="417.99" style="stroke:#F0F0F0;stroke-width:8.26"/>
	<line x1="4213.35" y1="417.99" x2="4278.15" y2="417.99" style="stroke:#F0F0F0;stroke-width:8.26"/>
	<line x1="4310.55" y1="417.99" x2="4375.35" y2="417.99" style="stroke:#F0F0F0;stroke-width:8.26"/>
	<line x1="4407.75" y1="417.99" x2="4472.55" y2="417.99" style="stroke:#F0F0F0;stroke-width:8.26"/>
	<line x1="4504.95" y1="417.99" x2="4569.75" y2="417.99" style="stroke:#F0F0F0;stroke-width:8.26"/>
	<line x1="4602.15" y1="417.99" x2="4666.95" y2="417.99" style="stroke:#F0F0F0;stroke-width:8.26"/>
	<line x1="4699.35" y1="417.99" x2="4764.15" y2="417.99" style="stroke:#F0F0F0;stroke-width:8.26"/>
	<line x1="4796.55" y1="417.99" x2="4861.35" y2="417.99" style="stroke:#F0F0F0;stroke-width:8.26"/>
	<line x1="4893.75" y1="417.99" x2="4958.55" y2="417.99" style="stroke:#F0F0F0;stroke-width:8.26"/>
	<line x1="4990.95" y1="417.99" x2="5055.75" y2="417.99" style="stroke:#F0F0F0;stroke-width:8.26"/>
	<line x1="5088.15" y1="417.99" x2="5152.95" y2="417.99" style="stroke:#F0F0F0;stroke-width:8.26"/>
	<line x1="2949.75" y1="1338.86" x2="5173.20" y2="1338.86" style="stroke:#C10534;stroke-width:8.26"/>
	<rect x="499.50" y="1664.38" width="2223.45" height="1157.79" style="fill:#FFFFFF"/>
	<rect x="502.25" y="1667.14" width="2217.94" height="1152.29" style="fill:none;stroke:#FFFFFF;stroke-width:5.51"/>
	<line x1="499.50" y1="2712.66" x2="564.30" y2="2712.66" style="stroke:#F0F0F0;stroke-width:8.26"/>
	<line x1="596.70" y1="2712.66" x2="661.50" y2="2712.66" style="stroke:#F0F0F0;stroke-width:8.26"/>
	<line x1="693.90" y1="2712.66" x2="758.70" y2="2712.66" style="stroke:#F0F0F0;stroke-width:8.26"/>
	<line x1="791.10" y1="2712.66" x2="855.90" y2="2712.66" style="stroke:#F0F0F0;stroke-width:8.26"/>
	<line x1="888.30" y1="2712.66" x2="953.10" y2="2712.66" style="stroke:#F0F0F0;stroke-width:8.26"/>
	<line x1="985.50" y1="2712.66" x2="1050.30" y2="2712.66" style="stroke:#F0F0F0;stroke-width:8.26"/>
	<line x1="1082.70" y1="2712.66" x2="1147.50" y2="2712.66" style="stroke:#F0F0F0;stroke-width:8.26"/>
	<line x1="1179.90" y1="2712.66" x2="1244.70" y2="2712.66" style="stroke:#F0F0F0;stroke-width:8.26"/>
	<line x1="1277.10" y1="2712.66" x2="1341.90" y2="2712.66" style="stroke:#F0F0F0;stroke-width:8.26"/>
	<line x1="1374.30" y1="2712.66" x2="1439.10" y2="2712.66" style="stroke:#F0F0F0;stroke-width:8.26"/>
	<line x1="1471.50" y1="2712.66" x2="1536.30" y2="2712.66" style="stroke:#F0F0F0;stroke-width:8.26"/>
	<line x1="1568.70" y1="2712.66" x2="1633.50" y2="2712.66" style="stroke:#F0F0F0;stroke-width:8.26"/>
	<line x1="1665.90" y1="2712.66" x2="1730.70" y2="2712.66" style="stroke:#F0F0F0;stroke-width:8.26"/>
	<line x1="1763.10" y1="2712.66" x2="1827.90" y2="2712.66" style="stroke:#F0F0F0;stroke-width:8.26"/>
	<line x1="1860.30" y1="2712.66" x2="1925.10" y2="2712.66" style="stroke:#F0F0F0;stroke-width:8.26"/>
	<line x1="1957.50" y1="2712.66" x2="2022.30" y2="2712.66" style="stroke:#F0F0F0;stroke-width:8.26"/>
	<line x1="2054.70" y1="2712.66" x2="2119.50" y2="2712.66" style="stroke:#F0F0F0;stroke-width:8.26"/>
	<line x1="2151.90" y1="2712.66" x2="2216.70" y2="2712.66" style="stroke:#F0F0F0;stroke-width:8.26"/>
	<line x1="2249.10" y1="2712.66" x2="2313.90" y2="2712.66" style="stroke:#F0F0F0;stroke-width:8.26"/>
	<line x1="2346.30" y1="2712.66" x2="2411.10" y2="2712.66" style="stroke:#F0F0F0;stroke-width:8.26"/>
	<line x1="2443.50" y1="2712.66" x2="2508.30" y2="2712.66" style="stroke:#F0F0F0;stroke-width:8.26"/>
	<line x1="2540.70" y1="2712.66" x2="2605.50" y2="2712.66" style="stroke:#F0F0F0;stroke-width:8.26"/>
	<line x1="2637.90" y1="2712.66" x2="2702.70" y2="2712.66" style="stroke:#F0F0F0;stroke-width:8.26"/>
	<line x1="499.50" y1="2405.70" x2="564.30" y2="2405.70" style="stroke:#F0F0F0;stroke-width:8.26"/>
	<line x1="596.70" y1="2405.70" x2="661.50" y2="2405.70" style="stroke:#F0F0F0;stroke-width:8.26"/>
	<line x1="693.90" y1="2405.70" x2="758.70" y2="2405.70" style="stroke:#F0F0F0;stroke-width:8.26"/>
	<line x1="791.10" y1="2405.70" x2="855.90" y2="2405.70" style="stroke:#F0F0F0;stroke-width:8.26"/>
	<line x1="888.30" y1="2405.70" x2="953.10" y2="2405.70" style="stroke:#F0F0F0;stroke-width:8.26"/>
	<line x1="985.50" y1="2405.70" x2="1050.30" y2="2405.70" style="stroke:#F0F0F0;stroke-width:8.26"/>
	<line x1="1082.70" y1="2405.70" x2="1147.50" y2="2405.70" style="stroke:#F0F0F0;stroke-width:8.26"/>
	<line x1="1179.90" y1="2405.70" x2="1244.70" y2="2405.70" style="stroke:#F0F0F0;stroke-width:8.26"/>
	<line x1="1277.10" y1="2405.70" x2="1341.90" y2="2405.70" style="stroke:#F0F0F0;stroke-width:8.26"/>
	<line x1="1374.30" y1="2405.70" x2="1439.10" y2="2405.70" style="stroke:#F0F0F0;stroke-width:8.26"/>
	<line x1="1471.50" y1="2405.70" x2="1536.30" y2="2405.70" style="stroke:#F0F0F0;stroke-width:8.26"/>
	<line x1="1568.70" y1="2405.70" x2="1633.50" y2="2405.70" style="stroke:#F0F0F0;stroke-width:8.26"/>
	<line x1="1665.90" y1="2405.70" x2="1730.70" y2="2405.70" style="stroke:#F0F0F0;stroke-width:8.26"/>
	<line x1="1763.10" y1="2405.70" x2="1827.90" y2="2405.70" style="stroke:#F0F0F0;stroke-width:8.26"/>
	<line x1="1860.30" y1="2405.70" x2="1925.10" y2="2405.70" style="stroke:#F0F0F0;stroke-width:8.26"/>
	<line x1="1957.50" y1="2405.70" x2="2022.30" y2="2405.70" style="stroke:#F0F0F0;stroke-width:8.26"/>
	<line x1="2054.70" y1="2405.70" x2="2119.50" y2="2405.70" style="stroke:#F0F0F0;stroke-width:8.26"/>
	<line x1="2151.90" y1="2405.70" x2="2216.70" y2="2405.70" style="stroke:#F0F0F0;stroke-width:8.26"/>
	<line x1="2249.10" y1="2405.70" x2="2313.90" y2="2405.70" style="stroke:#F0F0F0;stroke-width:8.26"/>
	<line x1="2346.30" y1="2405.70" x2="2411.10" y2="2405.70" style="stroke:#F0F0F0;stroke-width:8.26"/>
	<line x1="2443.50" y1="2405.70" x2="2508.30" y2="2405.70" style="stroke:#F0F0F0;stroke-width:8.26"/>
	<line x1="2540.70" y1="2405.70" x2="2605.50" y2="2405.70" style="stroke:#F0F0F0;stroke-width:8.26"/>
	<line x1="2637.90" y1="2405.70" x2="2702.70" y2="2405.70" style="stroke:#F0F0F0;stroke-width:8.26"/>
	<line x1="499.50" y1="2098.74" x2="564.30" y2="2098.74" style="stroke:#F0F0F0;stroke-width:8.26"/>
	<line x1="596.70" y1="2098.74" x2="661.50" y2="2098.74" style="stroke:#F0F0F0;stroke-width:8.26"/>
	<line x1="693.90" y1="2098.74" x2="758.70" y2="2098.74" style="stroke:#F0F0F0;stroke-width:8.26"/>
	<line x1="791.10" y1="2098.74" x2="855.90" y2="2098.74" style="stroke:#F0F0F0;stroke-width:8.26"/>
	<line x1="888.30" y1="2098.74" x2="953.10" y2="2098.74" style="stroke:#F0F0F0;stroke-width:8.26"/>
	<line x1="985.50" y1="2098.74" x2="1050.30" y2="2098.74" style="stroke:#F0F0F0;stroke-width:8.26"/>
	<line x1="1082.70" y1="2098.74" x2="1147.50" y2="2098.74" style="stroke:#F0F0F0;stroke-width:8.26"/>
	<line x1="1179.90" y1="2098.74" x2="1244.70" y2="2098.74" style="stroke:#F0F0F0;stroke-width:8.26"/>
	<line x1="1277.10" y1="2098.74" x2="1341.90" y2="2098.74" style="stroke:#F0F0F0;stroke-width:8.26"/>
	<line x1="1374.30" y1="2098.74" x2="1439.10" y2="2098.74" style="stroke:#F0F0F0;stroke-width:8.26"/>
	<line x1="1471.50" y1="2098.74" x2="1536.30" y2="2098.74" style="stroke:#F0F0F0;stroke-width:8.26"/>
	<line x1="1568.70" y1="2098.74" x2="1633.50" y2="2098.74" style="stroke:#F0F0F0;stroke-width:8.26"/>
	<line x1="1665.90" y1="2098.74" x2="1730.70" y2="2098.74" style="stroke:#F0F0F0;stroke-width:8.26"/>
	<line x1="1763.10" y1="2098.74" x2="1827.90" y2="2098.74" style="stroke:#F0F0F0;stroke-width:8.26"/>
	<line x1="1860.30" y1="2098.74" x2="1925.10" y2="2098.74" style="stroke:#F0F0F0;stroke-width:8.26"/>
	<line x1="1957.50" y1="2098.74" x2="2022.30" y2="2098.74" style="stroke:#F0F0F0;stroke-width:8.26"/>
	<line x1="2054.70" y1="2098.74" x2="2119.50" y2="2098.74" style="stroke:#F0F0F0;stroke-width:8.26"/>
	<line x1="2151.90" y1="2098.74" x2="2216.70" y2="2098.74" style="stroke:#F0F0F0;stroke-width:8.26"/>
	<line x1="2249.10" y1="2098.74" x2="2313.90" y2="2098.74" style="stroke:#F0F0F0;stroke-width:8.26"/>
	<line x1="2346.30" y1="2098.74" x2="2411.10" y2="2098.74" style="stroke:#F0F0F0;stroke-width:8.26"/>
	<line x1="2443.50" y1="2098.74" x2="2508.30" y2="2098.74" style="stroke:#F0F0F0;stroke-width:8.26"/>
	<line x1="2540.70" y1="2098.74" x2="2605.50" y2="2098.74" style="stroke:#F0F0F0;stroke-width:8.26"/>
	<line x1="2637.90" y1="2098.74" x2="2702.70" y2="2098.74" style="stroke:#F0F0F0;stroke-width:8.26"/>
	<line x1="499.50" y1="1791.96" x2="564.30" y2="1791.96" style="stroke:#F0F0F0;stroke-width:8.26"/>
	<line x1="596.70" y1="1791.96" x2="661.50" y2="1791.96" style="stroke:#F0F0F0;stroke-width:8.26"/>
	<line x1="693.90" y1="1791.96" x2="758.70" y2="1791.96" style="stroke:#F0F0F0;stroke-width:8.26"/>
	<line x1="791.10" y1="1791.96" x2="855.90" y2="1791.96" style="stroke:#F0F0F0;stroke-width:8.26"/>
	<line x1="888.30" y1="1791.96" x2="953.10" y2="1791.96" style="stroke:#F0F0F0;stroke-width:8.26"/>
	<line x1="985.50" y1="1791.96" x2="1050.30" y2="1791.96" style="stroke:#F0F0F0;stroke-width:8.26"/>
	<line x1="1082.70" y1="1791.96" x2="1147.50" y2="1791.96" style="stroke:#F0F0F0;stroke-width:8.26"/>
	<line x1="1179.90" y1="1791.96" x2="1244.70" y2="1791.96" style="stroke:#F0F0F0;stroke-width:8.26"/>
	<line x1="1277.10" y1="1791.96" x2="1341.90" y2="1791.96" style="stroke:#F0F0F0;stroke-width:8.26"/>
	<line x1="1374.30" y1="1791.96" x2="1439.10" y2="1791.96" style="stroke:#F0F0F0;stroke-width:8.26"/>
	<line x1="1471.50" y1="1791.96" x2="1536.30" y2="1791.96" style="stroke:#F0F0F0;stroke-width:8.26"/>
	<line x1="1568.70" y1="1791.96" x2="1633.50" y2="1791.96" style="stroke:#F0F0F0;stroke-width:8.26"/>
	<line x1="1665.90" y1="1791.96" x2="1730.70" y2="1791.96" style="stroke:#F0F0F0;stroke-width:8.26"/>
	<line x1="1763.10" y1="1791.96" x2="1827.90" y2="1791.96" style="stroke:#F0F0F0;stroke-width:8.26"/>
	<line x1="1860.30" y1="1791.96" x2="1925.10" y2="1791.96" style="stroke:#F0F0F0;stroke-width:8.26"/>
	<line x1="1957.50" y1="1791.96" x2="2022.30" y2="1791.96" style="stroke:#F0F0F0;stroke-width:8.26"/>
	<line x1="2054.70" y1="1791.96" x2="2119.50" y2="1791.96" style="stroke:#F0F0F0;stroke-width:8.26"/>
	<line x1="2151.90" y1="1791.96" x2="2216.70" y2="1791.96" style="stroke:#F0F0F0;stroke-width:8.26"/>
	<line x1="2249.10" y1="1791.96" x2="2313.90" y2="1791.96" style="stroke:#F0F0F0;stroke-width:8.26"/>
	<line x1="2346.30" y1="1791.96" x2="2411.10" y2="1791.96" style="stroke:#F0F0F0;stroke-width:8.26"/>
	<line x1="2443.50" y1="1791.96" x2="2508.30" y2="1791.96" style="stroke:#F0F0F0;stroke-width:8.26"/>
	<line x1="2540.70" y1="1791.96" x2="2605.50" y2="1791.96" style="stroke:#F0F0F0;stroke-width:8.26"/>
	<line x1="2637.90" y1="1791.96" x2="2702.70" y2="1791.96" style="stroke:#F0F0F0;stroke-width:8.26"/>
	<line x1="499.50" y1="2712.66" x2="2722.95" y2="2712.66" style="stroke:#C10534;stroke-width:8.26"/>
	<rect x="2949.75" y="1664.38" width="2223.45" height="1157.79" style="fill:#FFFFFF"/>
	<rect x="2952.50" y="1667.14" width="2217.94" height="1152.29" style="fill:none;stroke:#FFFFFF;stroke-width:5.51"/>
	<line x1="2949.75" y1="2712.66" x2="3014.55" y2="2712.66" style="stroke:#F0F0F0;stroke-width:8.26"/>
	<line x1="3046.95" y1="2712.66" x2="3111.75" y2="2712.66" style="stroke:#F0F0F0;stroke-width:8.26"/>
	<line x1="3144.15" y1="2712.66" x2="3208.95" y2="2712.66" style="stroke:#F0F0F0;stroke-width:8.26"/>
	<line x1="3241.35" y1="2712.66" x2="3306.15" y2="2712.66" style="stroke:#F0F0F0;stroke-width:8.26"/>
	<line x1="3338.55" y1="2712.66" x2="3403.35" y2="2712.66" style="stroke:#F0F0F0;stroke-width:8.26"/>
	<line x1="3435.75" y1="2712.66" x2="3500.55" y2="2712.66" style="stroke:#F0F0F0;stroke-width:8.26"/>
	<line x1="3532.95" y1="2712.66" x2="3597.75" y2="2712.66" style="stroke:#F0F0F0;stroke-width:8.26"/>
	<line x1="3630.15" y1="2712.66" x2="3694.95" y2="2712.66" style="stroke:#F0F0F0;stroke-width:8.26"/>
	<line x1="3727.35" y1="2712.66" x2="3792.15" y2="2712.66" style="stroke:#F0F0F0;stroke-width:8.26"/>
	<line x1="3824.55" y1="2712.66" x2="3889.35" y2="2712.66" style="stroke:#F0F0F0;stroke-width:8.26"/>
	<line x1="3921.75" y1="2712.66" x2="3986.55" y2="2712.66" style="stroke:#F0F0F0;stroke-width:8.26"/>
	<line x1="4018.95" y1="2712.66" x2="4083.75" y2="2712.66" style="stroke:#F0F0F0;stroke-width:8.26"/>
	<line x1="4116.15" y1="2712.66" x2="4180.95" y2="2712.66" style="stroke:#F0F0F0;stroke-width:8.26"/>
	<line x1="4213.35" y1="2712.66" x2="4278.15" y2="2712.66" style="stroke:#F0F0F0;stroke-width:8.26"/>
	<line x1="4310.55" y1="2712.66" x2="4375.35" y2="2712.66" style="stroke:#F0F0F0;stroke-width:8.26"/>
	<line x1="4407.75" y1="2712.66" x2="4472.55" y2="2712.66" style="stroke:#F0F0F0;stroke-width:8.26"/>
	<line x1="4504.95" y1="2712.66" x2="4569.75" y2="2712.66" style="stroke:#F0F0F0;stroke-width:8.26"/>
	<line x1="4602.15" y1="2712.66" x2="4666.95" y2="2712.66" style="stroke:#F0F0F0;stroke-width:8.26"/>
	<line x1="4699.35" y1="2712.66" x2="4764.15" y2="2712.66" style="stroke:#F0F0F0;stroke-width:8.26"/>
	<line x1="4796.55" y1="2712.66" x2="4861.35" y2="2712.66" style="stroke:#F0F0F0;stroke-width:8.26"/>
	<line x1="4893.75" y1="2712.66" x2="4958.55" y2="2712.66" style="stroke:#F0F0F0;stroke-width:8.26"/>
	<line x1="4990.95" y1="2712.66" x2="5055.75" y2="2712.66" style="stroke:#F0F0F0;stroke-width:8.26"/>
	<line x1="5088.15" y1="2712.66" x2="5152.95" y2="2712.66" style="stroke:#F0F0F0;stroke-width:8.26"/>
	<line x1="2949.75" y1="2405.70" x2="3014.55" y2="2405.70" style="stroke:#F0F0F0;stroke-width:8.26"/>
	<line x1="3046.95" y1="2405.70" x2="3111.75" y2="2405.70" style="stroke:#F0F0F0;stroke-width:8.26"/>
	<line x1="3144.15" y1="2405.70" x2="3208.95" y2="2405.70" style="stroke:#F0F0F0;stroke-width:8.26"/>
	<line x1="3241.35" y1="2405.70" x2="3306.15" y2="2405.70" style="stroke:#F0F0F0;stroke-width:8.26"/>
	<line x1="3338.55" y1="2405.70" x2="3403.35" y2="2405.70" style="stroke:#F0F0F0;stroke-width:8.26"/>
	<line x1="3435.75" y1="2405.70" x2="3500.55" y2="2405.70" style="stroke:#F0F0F0;stroke-width:8.26"/>
	<line x1="3532.95" y1="2405.70" x2="3597.75" y2="2405.70" style="stroke:#F0F0F0;stroke-width:8.26"/>
	<line x1="3630.15" y1="2405.70" x2="3694.95" y2="2405.70" style="stroke:#F0F0F0;stroke-width:8.26"/>
	<line x1="3727.35" y1="2405.70" x2="3792.15" y2="2405.70" style="stroke:#F0F0F0;stroke-width:8.26"/>
	<line x1="3824.55" y1="2405.70" x2="3889.35" y2="2405.70" style="stroke:#F0F0F0;stroke-width:8.26"/>
	<line x1="3921.75" y1="2405.70" x2="3986.55" y2="2405.70" style="stroke:#F0F0F0;stroke-width:8.26"/>
	<line x1="4018.95" y1="2405.70" x2="4083.75" y2="2405.70" style="stroke:#F0F0F0;stroke-width:8.26"/>
	<line x1="4116.15" y1="2405.70" x2="4180.95" y2="2405.70" style="stroke:#F0F0F0;stroke-width:8.26"/>
	<line x1="4213.35" y1="2405.70" x2="4278.15" y2="2405.70" style="stroke:#F0F0F0;stroke-width:8.26"/>
	<line x1="4310.55" y1="2405.70" x2="4375.35" y2="2405.70" style="stroke:#F0F0F0;stroke-width:8.26"/>
	<line x1="4407.75" y1="2405.70" x2="4472.55" y2="2405.70" style="stroke:#F0F0F0;stroke-width:8.26"/>
	<line x1="4504.95" y1="2405.70" x2="4569.75" y2="2405.70" style="stroke:#F0F0F0;stroke-width:8.26"/>
	<line x1="4602.15" y1="2405.70" x2="4666.95" y2="2405.70" style="stroke:#F0F0F0;stroke-width:8.26"/>
	<line x1="4699.35" y1="2405.70" x2="4764.15" y2="2405.70" style="stroke:#F0F0F0;stroke-width:8.26"/>
	<line x1="4796.55" y1="2405.70" x2="4861.35" y2="2405.70" style="stroke:#F0F0F0;stroke-width:8.26"/>
	<line x1="4893.75" y1="2405.70" x2="4958.55" y2="2405.70" style="stroke:#F0F0F0;stroke-width:8.26"/>
	<line x1="4990.95" y1="2405.70" x2="5055.75" y2="2405.70" style="stroke:#F0F0F0;stroke-width:8.26"/>
	<line x1="5088.15" y1="2405.70" x2="5152.95" y2="2405.70" style="stroke:#F0F0F0;stroke-width:8.26"/>
	<line x1="2949.75" y1="2098.74" x2="3014.55" y2="2098.74" style="stroke:#F0F0F0;stroke-width:8.26"/>
	<line x1="3046.95" y1="2098.74" x2="3111.75" y2="2098.74" style="stroke:#F0F0F0;stroke-width:8.26"/>
	<line x1="3144.15" y1="2098.74" x2="3208.95" y2="2098.74" style="stroke:#F0F0F0;stroke-width:8.26"/>
	<line x1="3241.35" y1="2098.74" x2="3306.15" y2="2098.74" style="stroke:#F0F0F0;stroke-width:8.26"/>
	<line x1="3338.55" y1="2098.74" x2="3403.35" y2="2098.74" style="stroke:#F0F0F0;stroke-width:8.26"/>
	<line x1="3435.75" y1="2098.74" x2="3500.55" y2="2098.74" style="stroke:#F0F0F0;stroke-width:8.26"/>
	<line x1="3532.95" y1="2098.74" x2="3597.75" y2="2098.74" style="stroke:#F0F0F0;stroke-width:8.26"/>
	<line x1="3630.15" y1="2098.74" x2="3694.95" y2="2098.74" style="stroke:#F0F0F0;stroke-width:8.26"/>
	<line x1="3727.35" y1="2098.74" x2="3792.15" y2="2098.74" style="stroke:#F0F0F0;stroke-width:8.26"/>
	<line x1="3824.55" y1="2098.74" x2="3889.35" y2="2098.74" style="stroke:#F0F0F0;stroke-width:8.26"/>
	<line x1="3921.75" y1="2098.74" x2="3986.55" y2="2098.74" style="stroke:#F0F0F0;stroke-width:8.26"/>
	<line x1="4018.95" y1="2098.74" x2="4083.75" y2="2098.74" style="stroke:#F0F0F0;stroke-width:8.26"/>
	<line x1="4116.15" y1="2098.74" x2="4180.95" y2="2098.74" style="stroke:#F0F0F0;stroke-width:8.26"/>
	<line x1="4213.35" y1="2098.74" x2="4278.15" y2="2098.74" style="stroke:#F0F0F0;stroke-width:8.26"/>
	<line x1="4310.55" y1="2098.74" x2="4375.35" y2="2098.74" style="stroke:#F0F0F0;stroke-width:8.26"/>
	<line x1="4407.75" y1="2098.74" x2="4472.55" y2="2098.74" style="stroke:#F0F0F0;stroke-width:8.26"/>
	<line x1="4504.95" y1="2098.74" x2="4569.75" y2="2098.74" style="stroke:#F0F0F0;stroke-width:8.26"/>
	<line x1="4602.15" y1="2098.74" x2="4666.95" y2="2098.74" style="stroke:#F0F0F0;stroke-width:8.26"/>
	<line x1="4699.35" y1="2098.74" x2="4764.15" y2="2098.74" style="stroke:#F0F0F0;stroke-width:8.26"/>
	<line x1="4796.55" y1="2098.74" x2="4861.35" y2="2098.74" style="stroke:#F0F0F0;stroke-width:8.26"/>
	<line x1="4893.75" y1="2098.74" x2="4958.55" y2="2098.74" style="stroke:#F0F0F0;stroke-width:8.26"/>
	<line x1="4990.95" y1="2098.74" x2="5055.75" y2="2098.74" style="stroke:#F0F0F0;stroke-width:8.26"/>
	<line x1="5088.15" y1="2098.74" x2="5152.95" y2="2098.74" style="stroke:#F0F0F0;stroke-width:8.26"/>
	<line x1="2949.75" y1="1791.96" x2="3014.55" y2="1791.96" style="stroke:#F0F0F0;stroke-width:8.26"/>
	<line x1="3046.95" y1="1791.96" x2="3111.75" y2="1791.96" style="stroke:#F0F0F0;stroke-width:8.26"/>
	<line x1="3144.15" y1="1791.96" x2="3208.95" y2="1791.96" style="stroke:#F0F0F0;stroke-width:8.26"/>
	<line x1="3241.35" y1="1791.96" x2="3306.15" y2="1791.96" style="stroke:#F0F0F0;stroke-width:8.26"/>
	<line x1="3338.55" y1="1791.96" x2="3403.35" y2="1791.96" style="stroke:#F0F0F0;stroke-width:8.26"/>
	<line x1="3435.75" y1="1791.96" x2="3500.55" y2="1791.96" style="stroke:#F0F0F0;stroke-width:8.26"/>
	<line x1="3532.95" y1="1791.96" x2="3597.75" y2="1791.96" style="stroke:#F0F0F0;stroke-width:8.26"/>
	<line x1="3630.15" y1="1791.96" x2="3694.95" y2="1791.96" style="stroke:#F0F0F0;stroke-width:8.26"/>
	<line x1="3727.35" y1="1791.96" x2="3792.15" y2="1791.96" style="stroke:#F0F0F0;stroke-width:8.26"/>
	<line x1="3824.55" y1="1791.96" x2="3889.35" y2="1791.96" style="stroke:#F0F0F0;stroke-width:8.26"/>
	<line x1="3921.75" y1="1791.96" x2="3986.55" y2="1791.96" style="stroke:#F0F0F0;stroke-width:8.26"/>
	<line x1="4018.95" y1="1791.96" x2="4083.75" y2="1791.96" style="stroke:#F0F0F0;stroke-width:8.26"/>
	<line x1="4116.15" y1="1791.96" x2="4180.95" y2="1791.96" style="stroke:#F0F0F0;stroke-width:8.26"/>
	<line x1="4213.35" y1="1791.96" x2="4278.15" y2="1791.96" style="stroke:#F0F0F0;stroke-width:8.26"/>
	<line x1="4310.55" y1="1791.96" x2="4375.35" y2="1791.96" style="stroke:#F0F0F0;stroke-width:8.26"/>
	<line x1="4407.75" y1="1791.96" x2="4472.55" y2="1791.96" style="stroke:#F0F0F0;stroke-width:8.26"/>
	<line x1="4504.95" y1="1791.96" x2="4569.75" y2="1791.96" style="stroke:#F0F0F0;stroke-width:8.26"/>
	<line x1="4602.15" y1="1791.96" x2="4666.95" y2="1791.96" style="stroke:#F0F0F0;stroke-width:8.26"/>
	<line x1="4699.35" y1="1791.96" x2="4764.15" y2="1791.96" style="stroke:#F0F0F0;stroke-width:8.26"/>
	<line x1="4796.55" y1="1791.96" x2="4861.35" y2="1791.96" style="stroke:#F0F0F0;stroke-width:8.26"/>
	<line x1="4893.75" y1="1791.96" x2="4958.55" y2="1791.96" style="stroke:#F0F0F0;stroke-width:8.26"/>
	<line x1="4990.95" y1="1791.96" x2="5055.75" y2="1791.96" style="stroke:#F0F0F0;stroke-width:8.26"/>
	<line x1="5088.15" y1="1791.96" x2="5152.95" y2="1791.96" style="stroke:#F0F0F0;stroke-width:8.26"/>
	<line x1="2949.75" y1="2712.66" x2="5173.20" y2="2712.66" style="stroke:#C10534;stroke-width:8.26"/>
	<path d=" M559.91 683.27 L630.11 779.96 L700.14 779.96 L770.18 779.96 L840.21 779.96 L910.41 772.03 L980.44 772.03 L1050.47 772.03 L1120.50 772.03 L1190.70 772.03 L1260.73 772.03 L1330.76 772.03 L1400.96 772.03 L1470.99 772.03 L1541.03 772.03 L1611.06 772.03 L1681.26 772.03 L1751.29 773.72 L1821.32 871.26 L1891.35 926.61 L1961.55 945.34 L2031.58 945.34 L2101.61 945.34 L2171.64 945.34 L2241.84 945.34 L2311.88 945.34 L2381.91 945.34 L2452.11 945.34 L2522.14 945.34 L2592.17 945.34 L2662.20 945.34" stroke-linejoin="round" style="fill:none;stroke:#1A476F;stroke-width:8.26"/>
	<path d=" M3010.16 1387.80 L3080.36 1328.57 L3150.39 1328.57 L3220.43 1328.57 L3290.63 1328.57 L3360.66 1328.57 L3430.69 1328.57 L3500.72 1328.57 L3570.92 1328.57 L3640.95 1328.40 L3710.98 1328.57 L3781.01 1309.33 L3851.21 1309.33 L3921.24 1280.64 L3991.28 1289.25 L4061.31 1289.25 L4131.51 1120.16 L4201.54 1033.93 L4271.57 1033.93 L4341.77 996.47 L4411.80 1006.09 L4481.83 1006.09 L4551.86 1006.09 L4622.06 1006.09 L4692.09 1006.09 L4762.13 1006.09 L4832.16 999.00 L4902.36 999.00 L4972.39 512.83 L5042.42 351.17 L5112.45 351.17" stroke-linejoin="round" style="fill:none;stroke:#1A476F;stroke-width:8.26"/>
	<path d=" M559.91 2014.54 L630.11 1974.54 L700.14 2053.52 L770.18 1854.90 L840.21 1854.90 L910.41 2004.92 L980.44 2004.92 L1050.47 2004.92 L1120.50 2004.92 L1190.70 2004.92 L1260.73 2004.92 L1330.76 1946.36 L1400.96 1946.36 L1470.99 1946.36 L1541.03 1946.36 L1611.06 1937.59 L1681.26 1956.99 L1751.29 1975.89 L1821.32 2112.58 L1891.35 2112.58 L1961.55 2083.73 L2031.58 2083.73 L2101.61 2179.57 L2171.64 2179.57 L2241.84 2120.18 L2311.88 2120.18 L2381.91 2120.18 L2452.11 2100.09 L2522.14 2100.09 L2592.17 2062.63 L2662.20 2042.55" stroke-linejoin="round" style="fill:none;stroke:#1A476F;stroke-width:8.26"/>
	<path d=" M3010.16 2077.65 L3080.36 2174.34 L3150.39 2174.34 L3220.43 2174.34 L3290.63 2174.34 L3360.66 2165.74 L3430.69 2165.74 L3500.72 2165.74 L3570.92 2165.74 L3640.95 2165.74 L3710.98 2165.74 L3781.01 2165.74 L3851.21 2136.54 L3921.24 2136.54 L3991.28 2407.05 L4061.31 2406.88 L4131.51 2406.88 L4201.54 2406.88 L4271.57 2385.96 L4341.77 2385.96 L4411.80 2385.96 L4481.83 2385.96 L4551.86 2227.16 L4622.06 2227.16 L4692.09 2227.16 L4762.13 2227.16 L4832.16 2227.16 L4902.36 2227.16 L4972.39 2227.16 L5042.42 2227.16 L5112.45 2227.16" stroke-linejoin="round" style="fill:none;stroke:#1A476F;stroke-width:8.26"/>
	<line x1="499.50" y1="1448.38" x2="499.50" y2="290.59" style="stroke:#000000;stroke-width:5.51"/>
	<line x1="499.50" y1="1338.86" x2="461.19" y2="1338.86" style="stroke:#000000;stroke-width:5.51"/>
	<text x="442.13" y="1372.39" style="font-family:'Helvetica';font-size:95.68px;fill:#000000" text-anchor="end">0</text>
	<line x1="499.50" y1="1031.91" x2="461.19" y2="1031.91" style="stroke:#000000;stroke-width:5.51"/>
	<text x="442.13" y="1065.44" style="font-family:'Helvetica';font-size:95.68px;fill:#000000" text-anchor="end">2</text>
	<line x1="499.50" y1="724.95" x2="461.19" y2="724.95" style="stroke:#000000;stroke-width:5.51"/>
	<text x="442.13" y="758.48" style="font-family:'Helvetica';font-size:95.68px;fill:#000000" text-anchor="end">4</text>
	<line x1="499.50" y1="417.99" x2="461.19" y2="417.99" style="stroke:#000000;stroke-width:5.51"/>
	<text x="442.13" y="451.52" style="font-family:'Helvetica';font-size:95.68px;fill:#000000" text-anchor="end">6</text>
	<line x1="499.50" y1="2822.18" x2="499.50" y2="1664.38" style="stroke:#000000;stroke-width:5.51"/>
	<line x1="499.50" y1="2712.66" x2="461.19" y2="2712.66" style="stroke:#000000;stroke-width:5.51"/>
	<text x="442.13" y="2746.19" style="font-family:'Helvetica';font-size:95.68px;fill:#000000" text-anchor="end">0</text>
	<line x1="499.50" y1="2405.70" x2="461.19" y2="2405.70" style="stroke:#000000;stroke-width:5.51"/>
	<text x="442.13" y="2439.23" style="font-family:'Helvetica';font-size:95.68px;fill:#000000" text-anchor="end">2</text>
	<line x1="499.50" y1="2098.74" x2="461.19" y2="2098.74" style="stroke:#000000;stroke-width:5.51"/>
	<text x="442.13" y="2132.27" style="font-family:'Helvetica';font-size:95.68px;fill:#000000" text-anchor="end">4</text>
	<line x1="499.50" y1="1791.96" x2="461.19" y2="1791.96" style="stroke:#000000;stroke-width:5.51"/>
	<text x="442.13" y="1825.49" style="font-family:'Helvetica';font-size:95.68px;fill:#000000" text-anchor="end">6</text>
	<line x1="499.50" y1="2822.18" x2="2722.95" y2="2822.18" style="stroke:#000000;stroke-width:5.51"/>
	<line x1="560.08" y1="2822.18" x2="560.08" y2="2860.48" style="stroke:#000000;stroke-width:5.51"/>
	<text x="560.08" y="2932.98" style="font-family:'Helvetica';font-size:76.44px;fill:#000000" text-anchor="middle">1980</text>
	<line x1="1260.90" y1="2822.18" x2="1260.90" y2="2860.48" style="stroke:#000000;stroke-width:5.51"/>
	<text x="1260.90" y="2932.98" style="font-family:'Helvetica';font-size:76.44px;fill:#000000" text-anchor="middle">1990</text>
	<line x1="1961.55" y1="2822.18" x2="1961.55" y2="2860.48" style="stroke:#000000;stroke-width:5.51"/>
	<text x="1961.55" y="2932.98" style="font-family:'Helvetica';font-size:76.44px;fill:#000000" text-anchor="middle">2000</text>
	<line x1="2662.37" y1="2822.18" x2="2662.37" y2="2860.48" style="stroke:#000000;stroke-width:5.51"/>
	<text x="2662.37" y="2932.98" style="font-family:'Helvetica';font-size:76.44px;fill:#000000" text-anchor="middle">2010</text>
	<line x1="2949.75" y1="2822.18" x2="5173.20" y2="2822.18" style="stroke:#000000;stroke-width:5.51"/>
	<line x1="3010.33" y1="2822.18" x2="3010.33" y2="2860.48" style="stroke:#000000;stroke-width:5.51"/>
	<text x="3010.33" y="2932.98" style="font-family:'Helvetica';font-size:76.44px;fill:#000000" text-anchor="middle">1980</text>
	<line x1="3711.15" y1="2822.18" x2="3711.15" y2="2860.48" style="stroke:#000000;stroke-width:5.51"/>
	<text x="3711.15" y="2932.98" style="font-family:'Helvetica';font-size:76.44px;fill:#000000" text-anchor="middle">1990</text>
	<line x1="4411.80" y1="2822.18" x2="4411.80" y2="2860.48" style="stroke:#000000;stroke-width:5.51"/>
	<text x="4411.80" y="2932.98" style="font-family:'Helvetica';font-size:76.44px;fill:#000000" text-anchor="middle">2000</text>
	<line x1="5112.62" y1="2822.18" x2="5112.62" y2="2860.48" style="stroke:#000000;stroke-width:5.51"/>
	<text x="5112.62" y="2932.98" style="font-family:'Helvetica';font-size:76.44px;fill:#000000" text-anchor="middle">2010</text>
	<rect x="499.50" y="152.21" width="2223.45" height="138.38" style="fill:#F0F0F0;stroke:#F0F0F0;stroke-width:5.51"/>
	<text x="1611.23" y="258.24" style="font-family:'Helvetica';font-size:105.13px;fill:#000000" text-anchor="middle">Delaware</text>
	<rect x="2949.75" y="152.21" width="2223.45" height="138.38" style="fill:#F0F0F0;stroke:#F0F0F0;stroke-width:5.51"/>
	<text x="4061.48" y="258.24" style="font-family:'Helvetica';font-size:105.13px;fill:#000000" text-anchor="middle">Michigan</text>
	<rect x="499.50" y="1526.18" width="2223.45" height="138.21" style="fill:#F0F0F0;stroke:#F0F0F0;stroke-width:5.51"/>
	<text x="1611.23" y="1632.03" style="font-family:'Helvetica';font-size:105.13px;fill:#000000" text-anchor="middle">Pennsylvania</text>
	<rect x="2949.75" y="1526.18" width="2223.45" height="138.21" style="fill:#F0F0F0;stroke:#F0F0F0;stroke-width:5.51"/>
	<text x="4061.48" y="1632.03" style="font-family:'Helvetica';font-size:105.13px;fill:#000000" text-anchor="middle">Rhode Island</text>
	<text x="192.11" y="1563.81" style="font-family:'Helvetica';font-size:112.56px;fill:#000000" transform="rotate(-90 192.11,1563.81)" text-anchor="middle">Effect of τ on Revenue to GDP Ratio</text>
	<text x="2756.19" y="3092.75" style="font-family:'Helvetica';font-size:112.56px;fill:#000000" text-anchor="middle">Year</text>
</svg>
