<?xml version="1.0" encoding="UTF-8" standalone="no"?>
<!-- This is a Stata 18.0 generated SVG file (http://www.stata.com) -->

<svg version="1.1" width="7.500in" height="4.500in" viewBox="0 0 5400 3240" xmlns="http://www.w3.org/2000/svg" xmlns:xlink="http://www.w3.org/1999/xlink">
	<desc>Stata Graph - Graph</desc>
	<rect x="0" y="0" width="5400" height="3240" style="fill:#FFFFFF;stroke:none"/>
	<rect x="0.00" y="0.00" width="5400.00" height="3240.00" style="fill:#FFFFFF"/>
	<rect x="3.24" y="3.24" width="5393.52" height="3233.52" style="fill:none;stroke:#FFFFFF;stroke-width:6.48"/>
	<rect x="450.90" y="113.40" width="4835.70" height="2675.70" style="fill:#FFFFFF"/>
	<rect x="454.14" y="116.64" width="4829.22" height="2669.22" style="fill:none;stroke:#FFFFFF;stroke-width:6.48"/>
	<line x1="450.90" y1="2717.89" x2="515.70" y2="2717.89" style="stroke:#F0F0F0;stroke-width:9.72"/>
	<line x1="548.10" y1="2717.89" x2="612.90" y2="2717.89" style="stroke:#F0F0F0;stroke-width:9.72"/>
	<line x1="645.30" y1="2717.89" x2="710.10" y2="2717.89" style="stroke:#F0F0F0;stroke-width:9.72"/>
	<line x1="742.50" y1="2717.89" x2="807.30" y2="2717.89" style="stroke:#F0F0F0;stroke-width:9.72"/>
	<line x1="839.70" y1="2717.89" x2="904.50" y2="2717.89" style="stroke:#F0F0F0;stroke-width:9.72"/>
	<line x1="936.90" y1="2717.89" x2="1001.70" y2="2717.89" style="stroke:#F0F0F0;stroke-width:9.72"/>
	<line x1="1034.10" y1="2717.89" x2="1098.90" y2="2717.89" style="stroke:#F0F0F0;stroke-width:9.72"/>
	<line x1="1131.30" y1="2717.89" x2="1196.10" y2="2717.89" style="stroke:#F0F0F0;stroke-width:9.72"/>
	<line x1="1228.50" y1="2717.89" x2="1293.30" y2="2717.89" style="stroke:#F0F0F0;stroke-width:9.72"/>
	<line x1="1325.70" y1="2717.89" x2="1390.50" y2="2717.89" style="stroke:#F0F0F0;stroke-width:9.72"/>
	<line x1="1422.90" y1="2717.89" x2="1487.70" y2="2717.89" style="stroke:#F0F0F0;stroke-width:9.72"/>
	<line x1="1520.10" y1="2717.89" x2="1584.90" y2="2717.89" style="stroke:#F0F0F0;stroke-width:9.72"/>
	<line x1="1617.30" y1="2717.89" x2="1682.10" y2="2717.89" style="stroke:#F0F0F0;stroke-width:9.72"/>
	<line x1="1714.50" y1="2717.89" x2="1779.30" y2="2717.89" style="stroke:#F0F0F0;stroke-width:9.72"/>
	<line x1="1811.70" y1="2717.89" x2="1876.50" y2="2717.89" style="stroke:#F0F0F0;stroke-width:9.72"/>
	<line x1="1908.90" y1="2717.89" x2="1973.70" y2="2717.89" style="stroke:#F0F0F0;stroke-width:9.72"/>
	<line x1="2006.10" y1="2717.89" x2="2070.90" y2="2717.89" style="stroke:#F0F0F0;stroke-width:9.72"/>
	<line x1="2103.30" y1="2717.89" x2="2168.10" y2="2717.89" style="stroke:#F0F0F0;stroke-width:9.72"/>
	<line x1="2200.50" y1="2717.89" x2="2265.30" y2="2717.89" style="stroke:#F0F0F0;stroke-width:9.72"/>
	<line x1="2297.70" y1="2717.89" x2="2362.50" y2="2717.89" style="stroke:#F0F0F0;stroke-width:9.72"/>
	<line x1="2394.90" y1="2717.89" x2="2459.70" y2="2717.89" style="stroke:#F0F0F0;stroke-width:9.72"/>
	<line x1="2492.10" y1="2717.89" x2="2556.90" y2="2717.89" style="stroke:#F0F0F0;stroke-width:9.72"/>
	<line x1="2589.30" y1="2717.89" x2="2654.10" y2="2717.89" style="stroke:#F0F0F0;stroke-width:9.72"/>
	<line x1="2686.50" y1="2717.89" x2="2751.30" y2="2717.89" style="stroke:#F0F0F0;stroke-width:9.72"/>
	<line x1="2783.70" y1="2717.89" x2="2848.50" y2="2717.89" style="stroke:#F0F0F0;stroke-width:9.72"/>
	<line x1="2880.90" y1="2717.89" x2="2945.70" y2="2717.89" style="stroke:#F0F0F0;stroke-width:9.72"/>
	<line x1="2978.10" y1="2717.89" x2="3042.90" y2="2717.89" style="stroke:#F0F0F0;stroke-width:9.72"/>
	<line x1="3075.30" y1="2717.89" x2="3140.10" y2="2717.89" style="stroke:#F0F0F0;stroke-width:9.72"/>
	<line x1="3172.50" y1="2717.89" x2="3237.30" y2="2717.89" style="stroke:#F0F0F0;stroke-width:9.72"/>
	<line x1="3269.70" y1="2717.89" x2="3334.50" y2="2717.89" style="stroke:#F0F0F0;stroke-width:9.72"/>
	<line x1="3366.90" y1="2717.89" x2="3431.70" y2="2717.89" style="stroke:#F0F0F0;stroke-width:9.72"/>
	<line x1="3464.10" y1="2717.89" x2="3528.90" y2="2717.89" style="stroke:#F0F0F0;stroke-width:9.72"/>
	<line x1="3561.30" y1="2717.89" x2="3626.10" y2="2717.89" style="stroke:#F0F0F0;stroke-width:9.72"/>
	<line x1="3658.50" y1="2717.89" x2="3723.30" y2="2717.89" style="stroke:#F0F0F0;stroke-width:9.72"/>
	<line x1="3755.70" y1="2717.89" x2="3820.50" y2="2717.89" style="stroke:#F0F0F0;stroke-width:9.72"/>
	<line x1="3852.90" y1="2717.89" x2="3917.70" y2="2717.89" style="stroke:#F0F0F0;stroke-width:9.72"/>
	<line x1="3950.10" y1="2717.89" x2="4014.90" y2="2717.89" style="stroke:#F0F0F0;stroke-width:9.72"/>
	<line x1="4047.30" y1="2717.89" x2="4112.10" y2="2717.89" style="stroke:#F0F0F0;stroke-width:9.72"/>
	<line x1="4144.50" y1="2717.89" x2="4209.30" y2="2717.89" style="stroke:#F0F0F0;stroke-width:9.72"/>
	<line x1="4241.70" y1="2717.89" x2="4306.50" y2="2717.89" style="stroke:#F0F0F0;stroke-width:9.72"/>
	<line x1="4338.90" y1="2717.89" x2="4403.70" y2="2717.89" style="stroke:#F0F0F0;stroke-width:9.72"/>
	<line x1="4436.10" y1="2717.89" x2="4500.90" y2="2717.89" style="stroke:#F0F0F0;stroke-width:9.72"/>
	<line x1="4533.30" y1="2717.89" x2="4598.10" y2="2717.89" style="stroke:#F0F0F0;stroke-width:9.72"/>
	<line x1="4630.50" y1="2717.89" x2="4695.30" y2="2717.89" style="stroke:#F0F0F0;stroke-width:9.72"/>
	<line x1="4727.70" y1="2717.89" x2="4792.50" y2="2717.89" style="stroke:#F0F0F0;stroke-width:9.72"/>
	<line x1="4824.90" y1="2717.89" x2="4889.70" y2="2717.89" style="stroke:#F0F0F0;stroke-width:9.72"/>
	<line x1="4922.10" y1="2717.89" x2="4986.90" y2="2717.89" style="stroke:#F0F0F0;stroke-width:9.72"/>
	<line x1="5019.30" y1="2717.89" x2="5084.10" y2="2717.89" style="stroke:#F0F0F0;stroke-width:9.72"/>
	<line x1="5116.50" y1="2717.89" x2="5181.30" y2="2717.89" style="stroke:#F0F0F0;stroke-width:9.72"/>
	<line x1="5213.70" y1="2717.89" x2="5278.50" y2="2717.89" style="stroke:#F0F0F0;stroke-width:9.72"/>
	<line x1="450.90" y1="2211.30" x2="515.70" y2="2211.30" style="stroke:#F0F0F0;stroke-width:9.72"/>
	<line x1="548.10" y1="2211.30" x2="612.90" y2="2211.30" style="stroke:#F0F0F0;stroke-width:9.72"/>
	<line x1="645.30" y1="2211.30" x2="710.10" y2="2211.30" style="stroke:#F0F0F0;stroke-width:9.72"/>
	<line x1="742.50" y1="2211.30" x2="807.30" y2="2211.30" style="stroke:#F0F0F0;stroke-width:9.72"/>
	<line x1="839.70" y1="2211.30" x2="904.50" y2="2211.30" style="stroke:#F0F0F0;stroke-width:9.72"/>
	<line x1="936.90" y1="2211.30" x2="1001.70" y2="2211.30" style="stroke:#F0F0F0;stroke-width:9.72"/>
	<line x1="1034.10" y1="2211.30" x2="1098.90" y2="2211.30" style="stroke:#F0F0F0;stroke-width:9.72"/>
	<line x1="1131.30" y1="2211.30" x2="1196.10" y2="2211.30" style="stroke:#F0F0F0;stroke-width:9.72"/>
	<line x1="1228.50" y1="2211.30" x2="1293.30" y2="2211.30" style="stroke:#F0F0F0;stroke-width:9.72"/>
	<line x1="1325.70" y1="2211.30" x2="1390.50" y2="2211.30" style="stroke:#F0F0F0;stroke-width:9.72"/>
	<line x1="1422.90" y1="2211.30" x2="1487.70" y2="2211.30" style="stroke:#F0F0F0;stroke-width:9.72"/>
	<line x1="1520.10" y1="2211.30" x2="1584.90" y2="2211.30" style="stroke:#F0F0F0;stroke-width:9.72"/>
	<line x1="1617.30" y1="2211.30" x2="1682.10" y2="2211.30" style="stroke:#F0F0F0;stroke-width:9.72"/>
	<line x1="1714.50" y1="2211.30" x2="1779.30" y2="2211.30" style="stroke:#F0F0F0;stroke-width:9.72"/>
	<line x1="1811.70" y1="2211.30" x2="1876.50" y2="2211.30" style="stroke:#F0F0F0;stroke-width:9.72"/>
	<line x1="1908.90" y1="2211.30" x2="1973.70" y2="2211.30" style="stroke:#F0F0F0;stroke-width:9.72"/>
	<line x1="2006.10" y1="2211.30" x2="2070.90" y2="2211.30" style="stroke:#F0F0F0;stroke-width:9.72"/>
	<line x1="2103.30" y1="2211.30" x2="2168.10" y2="2211.30" style="stroke:#F0F0F0;stroke-width:9.72"/>
	<line x1="2200.50" y1="2211.30" x2="2265.30" y2="2211.30" style="stroke:#F0F0F0;stroke-width:9.72"/>
	<line x1="2297.70" y1="2211.30" x2="2362.50" y2="2211.30" style="stroke:#F0F0F0;stroke-width:9.72"/>
	<line x1="2394.90" y1="2211.30" x2="2459.70" y2="2211.30" style="stroke:#F0F0F0;stroke-width:9.72"/>
	<line x1="2492.10" y1="2211.30" x2="2556.90" y2="2211.30" style="stroke:#F0F0F0;stroke-width:9.72"/>
	<line x1="2589.30" y1="2211.30" x2="2654.10" y2="2211.30" style="stroke:#F0F0F0;stroke-width:9.72"/>
	<line x1="2686.50" y1="2211.30" x2="2751.30" y2="2211.30" style="stroke:#F0F0F0;stroke-width:9.72"/>
	<line x1="2783.70" y1="2211.30" x2="2848.50" y2="2211.30" style="stroke:#F0F0F0;stroke-width:9.72"/>
	<line x1="2880.90" y1="2211.30" x2="2945.70" y2="2211.30" style="stroke:#F0F0F0;stroke-width:9.72"/>
	<line x1="2978.10" y1="2211.30" x2="3042.90" y2="2211.30" style="stroke:#F0F0F0;stroke-width:9.72"/>
	<line x1="3075.30" y1="2211.30" x2="3140.10" y2="2211.30" style="stroke:#F0F0F0;stroke-width:9.72"/>
	<line x1="3172.50" y1="2211.30" x2="3237.30" y2="2211.30" style="stroke:#F0F0F0;stroke-width:9.72"/>
	<line x1="3269.70" y1="2211.30" x2="3334.50" y2="2211.30" style="stroke:#F0F0F0;stroke-width:9.72"/>
	<line x1="3366.90" y1="2211.30" x2="3431.70" y2="2211.30" style="stroke:#F0F0F0;stroke-width:9.72"/>
	<line x1="3464.10" y1="2211.30" x2="3528.90" y2="2211.30" style="stroke:#F0F0F0;stroke-width:9.72"/>
	<line x1="3561.30" y1="2211.30" x2="3626.10" y2="2211.30" style="stroke:#F0F0F0;stroke-width:9.72"/>
	<line x1="3658.50" y1="2211.30" x2="3723.30" y2="2211.30" style="stroke:#F0F0F0;stroke-width:9.72"/>
	<line x1="3755.70" y1="2211.30" x2="3820.50" y2="2211.30" style="stroke:#F0F0F0;stroke-width:9.72"/>
	<line x1="3852.90" y1="2211.30" x2="3917.70" y2="2211.30" style="stroke:#F0F0F0;stroke-width:9.72"/>
	<line x1="3950.10" y1="2211.30" x2="4014.90" y2="2211.30" style="stroke:#F0F0F0;stroke-width:9.72"/>
	<line x1="4047.30" y1="2211.30" x2="4112.10" y2="2211.30" style="stroke:#F0F0F0;stroke-width:9.72"/>
	<line x1="4144.50" y1="2211.30" x2="4209.30" y2="2211.30" style="stroke:#F0F0F0;stroke-width:9.72"/>
	<line x1="4241.70" y1="2211.30" x2="4306.50" y2="2211.30" style="stroke:#F0F0F0;stroke-width:9.72"/>
	<line x1="4338.90" y1="2211.30" x2="4403.70" y2="2211.30" style="stroke:#F0F0F0;stroke-width:9.72"/>
	<line x1="4436.10" y1="2211.30" x2="4500.90" y2="2211.30" style="stroke:#F0F0F0;stroke-width:9.72"/>
	<line x1="4533.30" y1="2211.30" x2="4598.10" y2="2211.30" style="stroke:#F0F0F0;stroke-width:9.72"/>
	<line x1="4630.50" y1="2211.30" x2="4695.30" y2="2211.30" style="stroke:#F0F0F0;stroke-width:9.72"/>
	<line x1="4727.70" y1="2211.30" x2="4792.50" y2="2211.30" style="stroke:#F0F0F0;stroke-width:9.72"/>
	<line x1="4824.90" y1="2211.30" x2="4889.70" y2="2211.30" style="stroke:#F0F0F0;stroke-width:9.72"/>
	<line x1="4922.10" y1="2211.30" x2="4986.90" y2="2211.30" style="stroke:#F0F0F0;stroke-width:9.72"/>
	<line x1="5019.30" y1="2211.30" x2="5084.10" y2="2211.30" style="stroke:#F0F0F0;stroke-width:9.72"/>
	<line x1="5116.50" y1="2211.30" x2="5181.30" y2="2211.30" style="stroke:#F0F0F0;stroke-width:9.72"/>
	<line x1="5213.70" y1="2211.30" x2="5278.50" y2="2211.30" style="stroke:#F0F0F0;stroke-width:9.72"/>
	<line x1="450.90" y1="1704.54" x2="515.70" y2="1704.54" style="stroke:#F0F0F0;stroke-width:9.72"/>
	<line x1="548.10" y1="1704.54" x2="612.90" y2="1704.54" style="stroke:#F0F0F0;stroke-width:9.72"/>
	<line x1="645.30" y1="1704.54" x2="710.10" y2="1704.54" style="stroke:#F0F0F0;stroke-width:9.72"/>
	<line x1="742.50" y1="1704.54" x2="807.30" y2="1704.54" style="stroke:#F0F0F0;stroke-width:9.72"/>
	<line x1="839.70" y1="1704.54" x2="904.50" y2="1704.54" style="stroke:#F0F0F0;stroke-width:9.72"/>
	<line x1="936.90" y1="1704.54" x2="1001.70" y2="1704.54" style="stroke:#F0F0F0;stroke-width:9.72"/>
	<line x1="1034.10" y1="1704.54" x2="1098.90" y2="1704.54" style="stroke:#F0F0F0;stroke-width:9.72"/>
	<line x1="1131.30" y1="1704.54" x2="1196.10" y2="1704.54" style="stroke:#F0F0F0;stroke-width:9.72"/>
	<line x1="1228.50" y1="1704.54" x2="1293.30" y2="1704.54" style="stroke:#F0F0F0;stroke-width:9.72"/>
	<line x1="1325.70" y1="1704.54" x2="1390.50" y2="1704.54" style="stroke:#F0F0F0;stroke-width:9.72"/>
	<line x1="1422.90" y1="1704.54" x2="1487.70" y2="1704.54" style="stroke:#F0F0F0;stroke-width:9.72"/>
	<line x1="1520.10" y1="1704.54" x2="1584.90" y2="1704.54" style="stroke:#F0F0F0;stroke-width:9.72"/>
	<line x1="1617.30" y1="1704.54" x2="1682.10" y2="1704.54" style="stroke:#F0F0F0;stroke-width:9.72"/>
	<line x1="1714.50" y1="1704.54" x2="1779.30" y2="1704.54" style="stroke:#F0F0F0;stroke-width:9.72"/>
	<line x1="1811.70" y1="1704.54" x2="1876.50" y2="1704.54" style="stroke:#F0F0F0;stroke-width:9.72"/>
	<line x1="1908.90" y1="1704.54" x2="1973.70" y2="1704.54" style="stroke:#F0F0F0;stroke-width:9.72"/>
	<line x1="2006.10" y1="1704.54" x2="2070.90" y2="1704.54" style="stroke:#F0F0F0;stroke-width:9.72"/>
	<line x1="2103.30" y1="1704.54" x2="2168.10" y2="1704.54" style="stroke:#F0F0F0;stroke-width:9.72"/>
	<line x1="2200.50" y1="1704.54" x2="2265.30" y2="1704.54" style="stroke:#F0F0F0;stroke-width:9.72"/>
	<line x1="2297.70" y1="1704.54" x2="2362.50" y2="1704.54" style="stroke:#F0F0F0;stroke-width:9.72"/>
	<line x1="2394.90" y1="1704.54" x2="2459.70" y2="1704.54" style="stroke:#F0F0F0;stroke-width:9.72"/>
	<line x1="2492.10" y1="1704.54" x2="2556.90" y2="1704.54" style="stroke:#F0F0F0;stroke-width:9.72"/>
	<line x1="2589.30" y1="1704.54" x2="2654.10" y2="1704.54" style="stroke:#F0F0F0;stroke-width:9.72"/>
	<line x1="2686.50" y1="1704.54" x2="2751.30" y2="1704.54" style="stroke:#F0F0F0;stroke-width:9.72"/>
	<line x1="2783.70" y1="1704.54" x2="2848.50" y2="1704.54" style="stroke:#F0F0F0;stroke-width:9.72"/>
	<line x1="2880.90" y1="1704.54" x2="2945.70" y2="1704.54" style="stroke:#F0F0F0;stroke-width:9.72"/>
	<line x1="2978.10" y1="1704.54" x2="3042.90" y2="1704.54" style="stroke:#F0F0F0;stroke-width:9.72"/>
	<line x1="3075.30" y1="1704.54" x2="3140.10" y2="1704.54" style="stroke:#F0F0F0;stroke-width:9.72"/>
	<line x1="3172.50" y1="1704.54" x2="3237.30" y2="1704.54" style="stroke:#F0F0F0;stroke-width:9.72"/>
	<line x1="3269.70" y1="1704.54" x2="3334.50" y2="1704.54" style="stroke:#F0F0F0;stroke-width:9.72"/>
	<line x1="3366.90" y1="1704.54" x2="3431.70" y2="1704.54" style="stroke:#F0F0F0;stroke-width:9.72"/>
	<line x1="3464.10" y1="1704.54" x2="3528.90" y2="1704.54" style="stroke:#F0F0F0;stroke-width:9.72"/>
	<line x1="3561.30" y1="1704.54" x2="3626.10" y2="1704.54" style="stroke:#F0F0F0;stroke-width:9.72"/>
	<line x1="3658.50" y1="1704.54" x2="3723.30" y2="1704.54" style="stroke:#F0F0F0;stroke-width:9.72"/>
	<line x1="3755.70" y1="1704.54" x2="3820.50" y2="1704.54" style="stroke:#F0F0F0;stroke-width:9.72"/>
	<line x1="3852.90" y1="1704.54" x2="3917.70" y2="1704.54" style="stroke:#F0F0F0;stroke-width:9.72"/>
	<line x1="3950.10" y1="1704.54" x2="4014.90" y2="1704.54" style="stroke:#F0F0F0;stroke-width:9.72"/>
	<line x1="4047.30" y1="1704.54" x2="4112.10" y2="1704.54" style="stroke:#F0F0F0;stroke-width:9.72"/>
	<line x1="4144.50" y1="1704.54" x2="4209.30" y2="1704.54" style="stroke:#F0F0F0;stroke-width:9.72"/>
	<line x1="4241.70" y1="1704.54" x2="4306.50" y2="1704.54" style="stroke:#F0F0F0;stroke-width:9.72"/>
	<line x1="4338.90" y1="1704.54" x2="4403.70" y2="1704.54" style="stroke:#F0F0F0;stroke-width:9.72"/>
	<line x1="4436.10" y1="1704.54" x2="4500.90" y2="1704.54" style="stroke:#F0F0F0;stroke-width:9.72"/>
	<line x1="4533.30" y1="1704.54" x2="4598.10" y2="1704.54" style="stroke:#F0F0F0;stroke-width:9.72"/>
	<line x1="4630.50" y1="1704.54" x2="4695.30" y2="1704.54" style="stroke:#F0F0F0;stroke-width:9.72"/>
	<line x1="4727.70" y1="1704.54" x2="4792.50" y2="1704.54" style="stroke:#F0F0F0;stroke-width:9.72"/>
	<line x1="4824.90" y1="1704.54" x2="4889.70" y2="1704.54" style="stroke:#F0F0F0;stroke-width:9.72"/>
	<line x1="4922.10" y1="1704.54" x2="4986.90" y2="1704.54" style="stroke:#F0F0F0;stroke-width:9.72"/>
	<line x1="5019.30" y1="1704.54" x2="5084.10" y2="1704.54" style="stroke:#F0F0F0;stroke-width:9.72"/>
	<line x1="5116.50" y1="1704.54" x2="5181.30" y2="1704.54" style="stroke:#F0F0F0;stroke-width:9.72"/>
	<line x1="5213.70" y1="1704.54" x2="5278.50" y2="1704.54" style="stroke:#F0F0F0;stroke-width:9.72"/>
	<line x1="450.90" y1="1197.96" x2="515.70" y2="1197.96" style="stroke:#F0F0F0;stroke-width:9.72"/>
	<line x1="548.10" y1="1197.96" x2="612.90" y2="1197.96" style="stroke:#F0F0F0;stroke-width:9.72"/>
	<line x1="645.30" y1="1197.96" x2="710.10" y2="1197.96" style="stroke:#F0F0F0;stroke-width:9.72"/>
	<line x1="742.50" y1="1197.96" x2="807.30" y2="1197.96" style="stroke:#F0F0F0;stroke-width:9.72"/>
	<line x1="839.70" y1="1197.96" x2="904.50" y2="1197.96" style="stroke:#F0F0F0;stroke-width:9.72"/>
	<line x1="936.90" y1="1197.96" x2="1001.70" y2="1197.96" style="stroke:#F0F0F0;stroke-width:9.72"/>
	<line x1="1034.10" y1="1197.96" x2="1098.90" y2="1197.96" style="stroke:#F0F0F0;stroke-width:9.72"/>
	<line x1="1131.30" y1="1197.96" x2="1196.10" y2="1197.96" style="stroke:#F0F0F0;stroke-width:9.72"/>
	<line x1="1228.50" y1="1197.96" x2="1293.30" y2="1197.96" style="stroke:#F0F0F0;stroke-width:9.72"/>
	<line x1="1325.70" y1="1197.96" x2="1390.50" y2="1197.96" style="stroke:#F0F0F0;stroke-width:9.72"/>
	<line x1="1422.90" y1="1197.96" x2="1487.70" y2="1197.96" style="stroke:#F0F0F0;stroke-width:9.72"/>
	<line x1="1520.10" y1="1197.96" x2="1584.90" y2="1197.96" style="stroke:#F0F0F0;stroke-width:9.72"/>
	<line x1="1617.30" y1="1197.96" x2="1682.10" y2="1197.96" style="stroke:#F0F0F0;stroke-width:9.72"/>
	<line x1="1714.50" y1="1197.96" x2="1779.30" y2="1197.96" style="stroke:#F0F0F0;stroke-width:9.72"/>
	<line x1="1811.70" y1="1197.96" x2="1876.50" y2="1197.96" style="stroke:#F0F0F0;stroke-width:9.72"/>
	<line x1="1908.90" y1="1197.96" x2="1973.70" y2="1197.96" style="stroke:#F0F0F0;stroke-width:9.72"/>
	<line x1="2006.10" y1="1197.96" x2="2070.90" y2="1197.96" style="stroke:#F0F0F0;stroke-width:9.72"/>
	<line x1="2103.30" y1="1197.96" x2="2168.10" y2="1197.96" style="stroke:#F0F0F0;stroke-width:9.72"/>
	<line x1="2200.50" y1="1197.96" x2="2265.30" y2="1197.96" style="stroke:#F0F0F0;stroke-width:9.72"/>
	<line x1="2297.70" y1="1197.96" x2="2362.50" y2="1197.96" style="stroke:#F0F0F0;stroke-width:9.72"/>
	<line x1="2394.90" y1="1197.96" x2="2459.70" y2="1197.96" style="stroke:#F0F0F0;stroke-width:9.72"/>
	<line x1="2492.10" y1="1197.96" x2="2556.90" y2="1197.96" style="stroke:#F0F0F0;stroke-width:9.72"/>
	<line x1="2589.30" y1="1197.96" x2="2654.10" y2="1197.96" style="stroke:#F0F0F0;stroke-width:9.72"/>
	<line x1="2686.50" y1="1197.96" x2="2751.30" y2="1197.96" style="stroke:#F0F0F0;stroke-width:9.72"/>
	<line x1="2783.70" y1="1197.96" x2="2848.50" y2="1197.96" style="stroke:#F0F0F0;stroke-width:9.72"/>
	<line x1="2880.90" y1="1197.96" x2="2945.70" y2="1197.96" style="stroke:#F0F0F0;stroke-width:9.72"/>
	<line x1="2978.10" y1="1197.96" x2="3042.90" y2="1197.96" style="stroke:#F0F0F0;stroke-width:9.72"/>
	<line x1="3075.30" y1="1197.96" x2="3140.10" y2="1197.96" style="stroke:#F0F0F0;stroke-width:9.72"/>
	<line x1="3172.50" y1="1197.96" x2="3237.30" y2="1197.96" style="stroke:#F0F0F0;stroke-width:9.72"/>
	<line x1="3269.70" y1="1197.96" x2="3334.50" y2="1197.96" style="stroke:#F0F0F0;stroke-width:9.72"/>
	<line x1="3366.90" y1="1197.96" x2="3431.70" y2="1197.96" style="stroke:#F0F0F0;stroke-width:9.72"/>
	<line x1="3464.10" y1="1197.96" x2="3528.90" y2="1197.96" style="stroke:#F0F0F0;stroke-width:9.72"/>
	<line x1="3561.30" y1="1197.96" x2="3626.10" y2="1197.96" style="stroke:#F0F0F0;stroke-width:9.72"/>
	<line x1="3658.50" y1="1197.96" x2="3723.30" y2="1197.96" style="stroke:#F0F0F0;stroke-width:9.72"/>
	<line x1="3755.70" y1="1197.96" x2="3820.50" y2="1197.96" style="stroke:#F0F0F0;stroke-width:9.72"/>
	<line x1="3852.90" y1="1197.96" x2="3917.70" y2="1197.96" style="stroke:#F0F0F0;stroke-width:9.72"/>
	<line x1="3950.10" y1="1197.96" x2="4014.90" y2="1197.96" style="stroke:#F0F0F0;stroke-width:9.72"/>
	<line x1="4047.30" y1="1197.96" x2="4112.10" y2="1197.96" style="stroke:#F0F0F0;stroke-width:9.72"/>
	<line x1="4144.50" y1="1197.96" x2="4209.30" y2="1197.96" style="stroke:#F0F0F0;stroke-width:9.72"/>
	<line x1="4241.70" y1="1197.96" x2="4306.50" y2="1197.96" style="stroke:#F0F0F0;stroke-width:9.72"/>
	<line x1="4338.90" y1="1197.96" x2="4403.70" y2="1197.96" style="stroke:#F0F0F0;stroke-width:9.72"/>
	<line x1="4436.10" y1="1197.96" x2="4500.90" y2="1197.96" style="stroke:#F0F0F0;stroke-width:9.72"/>
	<line x1="4533.30" y1="1197.96" x2="4598.10" y2="1197.96" style="stroke:#F0F0F0;stroke-width:9.72"/>
	<line x1="4630.50" y1="1197.96" x2="4695.30" y2="1197.96" style="stroke:#F0F0F0;stroke-width:9.72"/>
	<line x1="4727.70" y1="1197.96" x2="4792.50" y2="1197.96" style="stroke:#F0F0F0;stroke-width:9.72"/>
	<line x1="4824.90" y1="1197.96" x2="4889.70" y2="1197.96" style="stroke:#F0F0F0;stroke-width:9.72"/>
	<line x1="4922.10" y1="1197.96" x2="4986.90" y2="1197.96" style="stroke:#F0F0F0;stroke-width:9.72"/>
	<line x1="5019.30" y1="1197.96" x2="5084.10" y2="1197.96" style="stroke:#F0F0F0;stroke-width:9.72"/>
	<line x1="5116.50" y1="1197.96" x2="5181.30" y2="1197.96" style="stroke:#F0F0F0;stroke-width:9.72"/>
	<line x1="5213.70" y1="1197.96" x2="5278.50" y2="1197.96" style="stroke:#F0F0F0;stroke-width:9.72"/>
	<line x1="450.90" y1="691.37" x2="515.70" y2="691.37" style="stroke:#F0F0F0;stroke-width:9.72"/>
	<line x1="548.10" y1="691.37" x2="612.90" y2="691.37" style="stroke:#F0F0F0;stroke-width:9.72"/>
	<line x1="645.30" y1="691.37" x2="710.10" y2="691.37" style="stroke:#F0F0F0;stroke-width:9.72"/>
	<line x1="742.50" y1="691.37" x2="807.30" y2="691.37" style="stroke:#F0F0F0;stroke-width:9.72"/>
	<line x1="839.70" y1="691.37" x2="904.50" y2="691.37" style="stroke:#F0F0F0;stroke-width:9.72"/>
	<line x1="936.90" y1="691.37" x2="1001.70" y2="691.37" style="stroke:#F0F0F0;stroke-width:9.72"/>
	<line x1="1034.10" y1="691.37" x2="1098.90" y2="691.37" style="stroke:#F0F0F0;stroke-width:9.72"/>
	<line x1="1131.30" y1="691.37" x2="1196.10" y2="691.37" style="stroke:#F0F0F0;stroke-width:9.72"/>
	<line x1="1228.50" y1="691.37" x2="1293.30" y2="691.37" style="stroke:#F0F0F0;stroke-width:9.72"/>
	<line x1="1325.70" y1="691.37" x2="1390.50" y2="691.37" style="stroke:#F0F0F0;stroke-width:9.72"/>
	<line x1="1422.90" y1="691.37" x2="1487.70" y2="691.37" style="stroke:#F0F0F0;stroke-width:9.72"/>
	<line x1="1520.10" y1="691.37" x2="1584.90" y2="691.37" style="stroke:#F0F0F0;stroke-width:9.72"/>
	<line x1="1617.30" y1="691.37" x2="1682.10" y2="691.37" style="stroke:#F0F0F0;stroke-width:9.72"/>
	<line x1="1714.50" y1="691.37" x2="1779.30" y2="691.37" style="stroke:#F0F0F0;stroke-width:9.72"/>
	<line x1="1811.70" y1="691.37" x2="1876.50" y2="691.37" style="stroke:#F0F0F0;stroke-width:9.72"/>
	<line x1="1908.90" y1="691.37" x2="1973.70" y2="691.37" style="stroke:#F0F0F0;stroke-width:9.72"/>
	<line x1="2006.10" y1="691.37" x2="2070.90" y2="691.37" style="stroke:#F0F0F0;stroke-width:9.72"/>
	<line x1="2103.30" y1="691.37" x2="2168.10" y2="691.37" style="stroke:#F0F0F0;stroke-width:9.72"/>
	<line x1="2200.50" y1="691.37" x2="2265.30" y2="691.37" style="stroke:#F0F0F0;stroke-width:9.72"/>
	<line x1="2297.70" y1="691.37" x2="2362.50" y2="691.37" style="stroke:#F0F0F0;stroke-width:9.72"/>
	<line x1="2394.90" y1="691.37" x2="2459.70" y2="691.37" style="stroke:#F0F0F0;stroke-width:9.72"/>
	<line x1="2492.10" y1="691.37" x2="2556.90" y2="691.37" style="stroke:#F0F0F0;stroke-width:9.72"/>
	<line x1="2589.30" y1="691.37" x2="2654.10" y2="691.37" style="stroke:#F0F0F0;stroke-width:9.72"/>
	<line x1="2686.50" y1="691.37" x2="2751.30" y2="691.37" style="stroke:#F0F0F0;stroke-width:9.72"/>
	<line x1="2783.70" y1="691.37" x2="2848.50" y2="691.37" style="stroke:#F0F0F0;stroke-width:9.72"/>
	<line x1="2880.90" y1="691.37" x2="2945.70" y2="691.37" style="stroke:#F0F0F0;stroke-width:9.72"/>
	<line x1="2978.10" y1="691.37" x2="3042.90" y2="691.37" style="stroke:#F0F0F0;stroke-width:9.72"/>
	<line x1="3075.30" y1="691.37" x2="3140.10" y2="691.37" style="stroke:#F0F0F0;stroke-width:9.72"/>
	<line x1="3172.50" y1="691.37" x2="3237.30" y2="691.37" style="stroke:#F0F0F0;stroke-width:9.72"/>
	<line x1="3269.70" y1="691.37" x2="3334.50" y2="691.37" style="stroke:#F0F0F0;stroke-width:9.72"/>
	<line x1="3366.90" y1="691.37" x2="3431.70" y2="691.37" style="stroke:#F0F0F0;stroke-width:9.72"/>
	<line x1="3464.10" y1="691.37" x2="3528.90" y2="691.37" style="stroke:#F0F0F0;stroke-width:9.72"/>
	<line x1="3561.30" y1="691.37" x2="3626.10" y2="691.37" style="stroke:#F0F0F0;stroke-width:9.72"/>
	<line x1="3658.50" y1="691.37" x2="3723.30" y2="691.37" style="stroke:#F0F0F0;stroke-width:9.72"/>
	<line x1="3755.70" y1="691.37" x2="3820.50" y2="691.37" style="stroke:#F0F0F0;stroke-width:9.72"/>
	<line x1="3852.90" y1="691.37" x2="3917.70" y2="691.37" style="stroke:#F0F0F0;stroke-width:9.72"/>
	<line x1="3950.10" y1="691.37" x2="4014.90" y2="691.37" style="stroke:#F0F0F0;stroke-width:9.72"/>
	<line x1="4047.30" y1="691.37" x2="4112.10" y2="691.37" style="stroke:#F0F0F0;stroke-width:9.72"/>
	<line x1="4144.50" y1="691.37" x2="4209.30" y2="691.37" style="stroke:#F0F0F0;stroke-width:9.72"/>
	<line x1="4241.70" y1="691.37" x2="4306.50" y2="691.37" style="stroke:#F0F0F0;stroke-width:9.72"/>
	<line x1="4338.90" y1="691.37" x2="4403.70" y2="691.37" style="stroke:#F0F0F0;stroke-width:9.72"/>
	<line x1="4436.10" y1="691.37" x2="4500.90" y2="691.37" style="stroke:#F0F0F0;stroke-width:9.72"/>
	<line x1="4533.30" y1="691.37" x2="4598.10" y2="691.37" style="stroke:#F0F0F0;stroke-width:9.72"/>
	<line x1="4630.50" y1="691.37" x2="4695.30" y2="691.37" style="stroke:#F0F0F0;stroke-width:9.72"/>
	<line x1="4727.70" y1="691.37" x2="4792.50" y2="691.37" style="stroke:#F0F0F0;stroke-width:9.72"/>
	<line x1="4824.90" y1="691.37" x2="4889.70" y2="691.37" style="stroke:#F0F0F0;stroke-width:9.72"/>
	<line x1="4922.10" y1="691.37" x2="4986.90" y2="691.37" style="stroke:#F0F0F0;stroke-width:9.72"/>
	<line x1="5019.30" y1="691.37" x2="5084.10" y2="691.37" style="stroke:#F0F0F0;stroke-width:9.72"/>
	<line x1="5116.50" y1="691.37" x2="5181.30" y2="691.37" style="stroke:#F0F0F0;stroke-width:9.72"/>
	<line x1="5213.70" y1="691.37" x2="5278.50" y2="691.37" style="stroke:#F0F0F0;stroke-width:9.72"/>
	<line x1="450.90" y1="184.61" x2="515.70" y2="184.61" style="stroke:#F0F0F0;stroke-width:9.72"/>
	<line x1="548.10" y1="184.61" x2="612.90" y2="184.61" style="stroke:#F0F0F0;stroke-width:9.72"/>
	<line x1="645.30" y1="184.61" x2="710.10" y2="184.61" style="stroke:#F0F0F0;stroke-width:9.72"/>
	<line x1="742.50" y1="184.61" x2="807.30" y2="184.61" style="stroke:#F0F0F0;stroke-width:9.72"/>
	<line x1="839.70" y1="184.61" x2="904.50" y2="184.61" style="stroke:#F0F0F0;stroke-width:9.72"/>
	<line x1="936.90" y1="184.61" x2="1001.70" y2="184.61" style="stroke:#F0F0F0;stroke-width:9.72"/>
	<line x1="1034.10" y1="184.61" x2="1098.90" y2="184.61" style="stroke:#F0F0F0;stroke-width:9.72"/>
	<line x1="1131.30" y1="184.61" x2="1196.10" y2="184.61" style="stroke:#F0F0F0;stroke-width:9.72"/>
	<line x1="1228.50" y1="184.61" x2="1293.30" y2="184.61" style="stroke:#F0F0F0;stroke-width:9.72"/>
	<line x1="1325.70" y1="184.61" x2="1390.50" y2="184.61" style="stroke:#F0F0F0;stroke-width:9.72"/>
	<line x1="1422.90" y1="184.61" x2="1487.70" y2="184.61" style="stroke:#F0F0F0;stroke-width:9.72"/>
	<line x1="1520.10" y1="184.61" x2="1584.90" y2="184.61" style="stroke:#F0F0F0;stroke-width:9.72"/>
	<line x1="1617.30" y1="184.61" x2="1682.10" y2="184.61" style="stroke:#F0F0F0;stroke-width:9.72"/>
	<line x1="1714.50" y1="184.61" x2="1779.30" y2="184.61" style="stroke:#F0F0F0;stroke-width:9.72"/>
	<line x1="1811.70" y1="184.61" x2="1876.50" y2="184.61" style="stroke:#F0F0F0;stroke-width:9.72"/>
	<line x1="1908.90" y1="184.61" x2="1973.70" y2="184.61" style="stroke:#F0F0F0;stroke-width:9.72"/>
	<line x1="2006.10" y1="184.61" x2="2070.90" y2="184.61" style="stroke:#F0F0F0;stroke-width:9.72"/>
	<line x1="2103.30" y1="184.61" x2="2168.10" y2="184.61" style="stroke:#F0F0F0;stroke-width:9.72"/>
	<line x1="2200.50" y1="184.61" x2="2265.30" y2="184.61" style="stroke:#F0F0F0;stroke-width:9.72"/>
	<line x1="2297.70" y1="184.61" x2="2362.50" y2="184.61" style="stroke:#F0F0F0;stroke-width:9.72"/>
	<line x1="2394.90" y1="184.61" x2="2459.70" y2="184.61" style="stroke:#F0F0F0;stroke-width:9.72"/>
	<line x1="2492.10" y1="184.61" x2="2556.90" y2="184.61" style="stroke:#F0F0F0;stroke-width:9.72"/>
	<line x1="2589.30" y1="184.61" x2="2654.10" y2="184.61" style="stroke:#F0F0F0;stroke-width:9.72"/>
	<line x1="2686.50" y1="184.61" x2="2751.30" y2="184.61" style="stroke:#F0F0F0;stroke-width:9.72"/>
	<line x1="2783.70" y1="184.61" x2="2848.50" y2="184.61" style="stroke:#F0F0F0;stroke-width:9.72"/>
	<line x1="2880.90" y1="184.61" x2="2945.70" y2="184.61" style="stroke:#F0F0F0;stroke-width:9.72"/>
	<line x1="2978.10" y1="184.61" x2="3042.90" y2="184.61" style="stroke:#F0F0F0;stroke-width:9.72"/>
	<line x1="3075.30" y1="184.61" x2="3140.10" y2="184.61" style="stroke:#F0F0F0;stroke-width:9.72"/>
	<line x1="3172.50" y1="184.61" x2="3237.30" y2="184.61" style="stroke:#F0F0F0;stroke-width:9.72"/>
	<line x1="3269.70" y1="184.61" x2="3334.50" y2="184.61" style="stroke:#F0F0F0;stroke-width:9.72"/>
	<line x1="3366.90" y1="184.61" x2="3431.70" y2="184.61" style="stroke:#F0F0F0;stroke-width:9.72"/>
	<line x1="3464.10" y1="184.61" x2="3528.90" y2="184.61" style="stroke:#F0F0F0;stroke-width:9.72"/>
	<line x1="3561.30" y1="184.61" x2="3626.10" y2="184.61" style="stroke:#F0F0F0;stroke-width:9.72"/>
	<line x1="3658.50" y1="184.61" x2="3723.30" y2="184.61" style="stroke:#F0F0F0;stroke-width:9.72"/>
	<line x1="3755.70" y1="184.61" x2="3820.50" y2="184.61" style="stroke:#F0F0F0;stroke-width:9.72"/>
	<line x1="3852.90" y1="184.61" x2="3917.70" y2="184.61" style="stroke:#F0F0F0;stroke-width:9.72"/>
	<line x1="3950.10" y1="184.61" x2="4014.90" y2="184.61" style="stroke:#F0F0F0;stroke-width:9.72"/>
	<line x1="4047.30" y1="184.61" x2="4112.10" y2="184.61" style="stroke:#F0F0F0;stroke-width:9.72"/>
	<line x1="4144.50" y1="184.61" x2="4209.30" y2="184.61" style="stroke:#F0F0F0;stroke-width:9.72"/>
	<line x1="4241.70" y1="184.61" x2="4306.50" y2="184.61" style="stroke:#F0F0F0;stroke-width:9.72"/>
	<line x1="4338.90" y1="184.61" x2="4403.70" y2="184.61" style="stroke:#F0F0F0;stroke-width:9.72"/>
	<line x1="4436.10" y1="184.61" x2="4500.90" y2="184.61" style="stroke:#F0F0F0;stroke-width:9.72"/>
	<line x1="4533.30" y1="184.61" x2="4598.10" y2="184.61" style="stroke:#F0F0F0;stroke-width:9.72"/>
	<line x1="4630.50" y1="184.61" x2="4695.30" y2="184.61" style="stroke:#F0F0F0;stroke-width:9.72"/>
	<line x1="4727.70" y1="184.61" x2="4792.50" y2="184.61" style="stroke:#F0F0F0;stroke-width:9.72"/>
	<line x1="4824.90" y1="184.61" x2="4889.70" y2="184.61" style="stroke:#F0F0F0;stroke-width:9.72"/>
	<line x1="4922.10" y1="184.61" x2="4986.90" y2="184.61" style="stroke:#F0F0F0;stroke-width:9.72"/>
	<line x1="5019.30" y1="184.61" x2="5084.10" y2="184.61" style="stroke:#F0F0F0;stroke-width:9.72"/>
	<line x1="5116.50" y1="184.61" x2="5181.30" y2="184.61" style="stroke:#F0F0F0;stroke-width:9.72"/>
	<line x1="5213.70" y1="184.61" x2="5278.50" y2="184.61" style="stroke:#F0F0F0;stroke-width:9.72"/>
	<line x1="2127.43" y1="2789.10" x2="2127.43" y2="113.40" style="stroke:#909090;stroke-width:9.72"/>
	<line x1="2115.28" y1="2789.10" x2="2115.28" y2="2724.30" style="stroke:#909090;stroke-width:9.72"/>
	<line x1="2115.28" y1="2691.90" x2="2115.28" y2="2627.10" style="stroke:#909090;stroke-width:9.72"/>
	<line x1="2115.28" y1="2594.70" x2="2115.28" y2="2529.90" style="stroke:#909090;stroke-width:9.72"/>
	<line x1="2115.28" y1="2497.50" x2="2115.28" y2="2432.70" style="stroke:#909090;stroke-width:9.72"/>
	<line x1="2115.28" y1="2400.30" x2="2115.28" y2="2335.50" style="stroke:#909090;stroke-width:9.72"/>
	<line x1="2115.28" y1="2303.10" x2="2115.28" y2="2238.30" style="stroke:#909090;stroke-width:9.72"/>
	<line x1="2115.28" y1="2205.90" x2="2115.28" y2="2141.10" style="stroke:#909090;stroke-width:9.72"/>
	<line x1="2115.28" y1="2108.70" x2="2115.28" y2="2043.90" style="stroke:#909090;stroke-width:9.72"/>
	<line x1="2115.28" y1="2011.50" x2="2115.28" y2="1946.70" style="stroke:#909090;stroke-width:9.72"/>
	<line x1="2115.28" y1="1914.30" x2="2115.28" y2="1849.50" style="stroke:#909090;stroke-width:9.72"/>
	<line x1="2115.28" y1="1817.10" x2="2115.28" y2="1752.30" style="stroke:#909090;stroke-width:9.72"/>
	<line x1="2115.28" y1="1719.90" x2="2115.28" y2="1655.10" style="stroke:#909090;stroke-width:9.72"/>
	<line x1="2115.28" y1="1622.70" x2="2115.28" y2="1557.90" style="stroke:#909090;stroke-width:9.72"/>
	<line x1="2115.28" y1="1525.50" x2="2115.28" y2="1460.70" style="stroke:#909090;stroke-width:9.72"/>
	<line x1="2115.28" y1="1428.30" x2="2115.28" y2="1363.50" style="stroke:#909090;stroke-width:9.72"/>
	<line x1="2115.28" y1="1331.10" x2="2115.28" y2="1266.30" style="stroke:#909090;stroke-width:9.72"/>
	<line x1="2115.28" y1="1233.90" x2="2115.28" y2="1169.10" style="stroke:#909090;stroke-width:9.72"/>
	<line x1="2115.28" y1="1136.70" x2="2115.28" y2="1071.90" style="stroke:#909090;stroke-width:9.72"/>
	<line x1="2115.28" y1="1039.50" x2="2115.28" y2="974.70" style="stroke:#909090;stroke-width:9.72"/>
	<line x1="2115.28" y1="942.30" x2="2115.28" y2="877.50" style="stroke:#909090;stroke-width:9.72"/>
	<line x1="2115.28" y1="845.10" x2="2115.28" y2="780.30" style="stroke:#909090;stroke-width:9.72"/>
	<line x1="2115.28" y1="747.90" x2="2115.28" y2="683.10" style="stroke:#909090;stroke-width:9.72"/>
	<line x1="2115.28" y1="650.70" x2="2115.28" y2="585.90" style="stroke:#909090;stroke-width:9.72"/>
	<line x1="2115.28" y1="553.50" x2="2115.28" y2="488.70" style="stroke:#909090;stroke-width:9.72"/>
	<line x1="2115.28" y1="456.30" x2="2115.28" y2="391.50" style="stroke:#909090;stroke-width:9.72"/>
	<line x1="2115.28" y1="359.10" x2="2115.28" y2="294.30" style="stroke:#909090;stroke-width:9.72"/>
	<line x1="2115.28" y1="261.90" x2="2115.28" y2="197.10" style="stroke:#909090;stroke-width:9.72"/>
	<line x1="2115.28" y1="164.70" x2="2115.28" y2="113.40" style="stroke:#909090;stroke-width:9.72"/>
	<line x1="450.90" y1="2717.89" x2="5286.60" y2="2717.89" style="stroke:#C10534;stroke-width:9.72"/>
	<path d=" M1845.96 2712.99 L1847.81 2712.99 L1847.81 2711.48 L1896.92 2711.48 L1896.92 2700.00 L1947.38 2700.00 L1947.38 2698.31 L1971.17 2698.31 L1971.17 2696.63 L1974.21 2696.63 L1974.21 2691.73 L1975.05 2691.73 L1975.05 2690.21 L1980.62 2690.21 L1980.62 2681.94 L1980.62 2681.94 L1980.62 2680.43 L1985.51 2680.43 L1985.51 2678.74 L1990.74 2678.74 L1990.74 2677.05 L1993.61 2677.05 L1993.61 2675.53 L1993.95 2675.53 L1993.95 2673.84 L1997.83 2673.84 L1997.83 2665.58 L1999.69 2665.58 L1999.69 2646.00 L2001.71 2646.00 L2001.71 2637.90 L2002.05 2637.90 L2002.05 2634.53 L2004.41 2634.53 L2004.41 2633.01 L2004.41 2633.01 L2004.41 2624.74 L2008.46 2624.74 L2008.46 2619.84 L2008.80 2619.84 L2008.80 2601.96 L2010.32 2601.96 L2010.32 2600.27 L2011.16 2600.27 L2011.16 2598.58 L2013.36 2598.58 L2013.36 2597.06 L2024.66 2597.06 L2024.66 2593.69 L2025.17 2593.69 L2025.17 2592.17 L2026.69 2592.17 L2026.69 2585.59 L2026.69 2585.59 L2026.69 2580.69 L2027.36 2580.69 L2027.36 2575.80 L2028.71 2575.80 L2028.71 2570.91 L2030.91 2570.91 L2030.91 2531.59 L2032.76 2531.59 L2032.76 2526.69 L2032.76 2526.69 L2032.76 2520.11 L2032.93 2520.11 L2032.93 2510.32 L2033.44 2510.32 L2033.44 2508.81 L2033.61 2508.81 L2033.61 2505.43 L2034.11 2505.43 L2034.11 2499.02 L2034.62 2499.02 L2034.62 2484.17 L2034.79 2484.17 L2034.79 2462.91 L2034.79 2462.91 L2034.79 2458.01 L2034.79 2458.01 L2034.79 2456.49 L2037.32 2456.49 L2037.32 2454.81 L2039.34 2454.81 L2039.34 2446.71 L2039.68 2446.71 L2039.68 2445.02 L2041.20 2445.02 L2041.20 2441.81 L2043.39 2441.81 L2043.39 2440.13 L2045.93 2440.13 L2045.93 2438.44 L2048.29 2438.44 L2048.29 2436.92 L2050.14 2436.92 L2050.14 2435.23 L2051.16 2435.23 L2051.16 2431.86 L2051.16 2431.86 L2051.16 2430.34 L2051.83 2430.34 L2051.83 2428.65 L2051.83 2428.65 L2051.83 2415.66 L2051.83 2415.66 L2051.83 2413.97 L2051.83 2413.97 L2051.83 2412.28 L2052.84 2412.28 L2052.84 2407.39 L2052.84 2407.39 L2052.84 2405.87 L2053.01 2405.87 L2053.01 2391.02 L2057.57 2391.02 L2057.57 2387.81 L2057.57 2387.81 L2057.57 2386.13 L2059.59 2386.13 L2059.59 2384.61 L2060.44 2384.61 L2060.44 2382.92 L2061.11 2382.92 L2061.11 2381.23 L2061.45 2381.23 L2061.45 2379.71 L2062.13 2379.71 L2062.13 2373.13 L2062.29 2373.13 L2062.29 2371.44 L2062.80 2371.44 L2062.80 2369.76 L2063.31 2369.76 L2063.31 2363.34 L2063.64 2363.34 L2063.64 2359.97 L2064.66 2359.97 L2064.66 2355.07 L2064.82 2355.07 L2064.82 2353.56 L2065.84 2353.56 L2065.84 2345.29 L2066.34 2345.29 L2066.34 2343.60 L2066.85 2343.60 L2066.85 2324.03 L2067.19 2324.03 L2067.19 2322.51 L2067.69 2322.51 L2067.69 2320.82 L2068.03 2320.82 L2068.03 2317.61 L2068.37 2317.61 L2068.37 2314.24 L2068.88 2314.24 L2068.88 2312.55 L2070.23 2312.55 L2070.23 2307.66 L2071.91 2307.66 L2071.91 2304.45 L2072.08 2304.45 L2072.08 2297.87 L2074.11 2297.87 L2074.11 2296.35 L2074.61 2296.35 L2074.61 2294.66 L2074.95 2294.66 L2074.95 2288.08 L2076.30 2288.08 L2076.30 2283.19 L2076.81 2283.19 L2076.81 2281.50 L2077.31 2281.50 L2077.31 2279.98 L2077.99 2279.98 L2077.99 2275.09 L2078.32 2275.09 L2078.32 2258.72 L2078.32 2258.72 L2078.32 2253.82 L2078.49 2253.82 L2078.49 2247.24 L2079.00 2247.24 L2079.00 2245.56 L2079.34 2245.56 L2079.34 2239.14 L2079.84 2239.14 L2079.84 2232.56 L2079.84 2232.56 L2079.84 2230.88 L2080.35 2230.88 L2080.35 2224.46 L2080.86 2224.46 L2080.86 2222.78 L2081.19 2222.78 L2081.19 2216.19 L2081.19 2216.19 L2081.19 2203.20 L2081.70 2203.20 L2081.70 2199.82 L2081.70 2199.82 L2081.70 2190.04 L2082.04 2190.04 L2082.04 2188.35 L2082.21 2188.35 L2082.21 2178.56 L2082.54 2178.56 L2082.54 2139.41 L2082.54 2139.41 L2082.54 2123.04 L2083.22 2123.04 L2083.22 2116.46 L2083.39 2116.46 L2083.39 2111.57 L2084.06 2111.57 L2084.06 2110.05 L2084.23 2110.05 L2084.23 2108.36 L2084.40 2108.36 L2084.40 2106.68 L2084.57 2106.68 L2084.57 2100.09 L2084.74 2100.09 L2084.74 2098.57 L2084.91 2098.57 L2084.91 2093.68 L2084.91 2093.68 L2084.91 2088.79 L2084.91 2088.79 L2084.91 2087.10 L2085.07 2087.10 L2085.07 2082.21 L2085.41 2082.21 L2085.41 2077.31 L2085.58 2077.31 L2085.58 2070.73 L2086.26 2070.73 L2086.26 2044.58 L2086.26 2044.58 L2086.26 2036.48 L2086.26 2036.48 L2086.26 2033.10 L2086.26 2033.10 L2086.26 2031.58 L2086.26 2031.58 L2086.26 2021.79 L2086.26 2021.79 L2086.26 2011.84 L2087.10 2011.84 L2087.10 2010.32 L2087.61 2010.32 L2087.61 2008.63 L2087.94 2008.63 L2087.94 2006.94 L2088.11 2006.94 L2088.11 2003.74 L2088.28 2003.74 L2088.28 2002.05 L2088.62 2002.05 L2088.62 2000.53 L2089.63 2000.53 L2089.63 1998.84 L2089.80 1998.84 L2089.80 1992.26 L2090.31 1992.26 L2090.31 1990.74 L2090.64 1990.74 L2090.64 1989.06 L2091.99 1989.06 L2091.99 1985.85 L2093.34 1985.85 L2093.34 1980.79 L2094.19 1980.79 L2094.19 1974.38 L2094.19 1974.38 L2094.19 1954.80 L2094.53 1954.80 L2094.53 1953.11 L2094.86 1953.11 L2094.86 1944.84 L2095.37 1944.84 L2095.37 1943.33 L2095.71 1943.33 L2095.71 1939.95 L2096.04 1939.95 L2096.04 1936.74 L2096.72 1936.74 L2096.72 1933.54 L2097.90 1933.54 L2097.90 1931.85 L2098.91 1931.85 L2098.91 1920.38 L2099.08 1920.38 L2099.08 1913.79 L2099.42 1913.79 L2099.42 1912.28 L2099.42 1912.28 L2099.42 1910.59 L2100.60 1910.59 L2100.60 1908.90 L2101.11 1908.90 L2101.11 1907.38 L2101.28 1907.38 L2101.28 1904.01 L2101.44 1904.01 L2101.44 1894.22 L2101.61 1894.22 L2101.61 1891.01 L2101.61 1891.01 L2101.61 1887.64 L2103.64 1887.64 L2103.64 1886.12 L2105.16 1886.12 L2105.16 1874.64 L2106.00 1874.64 L2106.00 1866.54 L2106.00 1866.54 L2106.00 1858.28 L2106.00 1858.28 L2106.00 1850.18 L2106.17 1850.18 L2106.17 1833.81 L2106.34 1833.81 L2106.34 1828.91 L2106.34 1828.91 L2106.34 1827.23 L2106.34 1827.23 L2106.34 1810.86 L2106.68 1810.86 L2106.68 1807.65 L2106.68 1807.65 L2106.68 1794.49 L2106.84 1794.49 L2106.84 1792.97 L2107.01 1792.97 L2107.01 1779.81 L2107.52 1779.81 L2107.52 1773.39 L2108.87 1773.39 L2108.87 1771.71 L2109.38 1771.71 L2109.38 1766.81 L2109.71 1766.81 L2109.71 1765.13 L2110.05 1765.13 L2110.05 1758.54 L2110.05 1758.54 L2110.05 1757.03 L2110.22 1757.03 L2110.22 1750.44 L2110.22 1750.44 L2110.22 1745.55 L2110.39 1745.55 L2110.39 1740.66 L2111.23 1740.66 L2111.23 1735.76 L2111.23 1735.76 L2111.23 1732.39 L2111.23 1732.39 L2111.23 1730.87 L2112.24 1730.87 L2112.24 1725.98 L2112.58 1725.98 L2112.58 1724.29 L2114.61 1724.29 L2114.61 1704.71 L2114.78 1704.71 L2114.78 1703.03 L2114.94 1703.03 L2114.94 1698.13 L2115.62 1698.13 L2115.62 1696.44 L2115.96 1696.44 L2115.96 1603.29 L2116.13 1603.29 L2116.13 1596.88 L2116.29 1596.88 L2116.29 1590.30 L2116.97 1590.30 L2116.97 1583.72 L2117.64 1583.72 L2117.64 1573.93 L2117.81 1573.93 L2117.81 1567.35 L2118.32 1567.35 L2118.32 1565.83 L2118.66 1565.83 L2118.66 1560.77 L2119.33 1560.77 L2119.33 1534.78 L2119.33 1534.78 L2119.33 1531.41 L2119.33 1531.41 L2119.33 1529.72 L2119.50 1529.72 L2119.50 1523.31 L2119.67 1523.31 L2119.67 1521.62 L2119.84 1521.62 L2119.84 1515.04 L2119.84 1515.04 L2119.84 1508.63 L2120.01 1508.63 L2120.01 1500.36 L2120.34 1500.36 L2120.34 1498.67 L2120.34 1498.67 L2120.34 1497.15 L2120.34 1497.15 L2120.34 1495.46 L2120.51 1495.46 L2120.51 1487.36 L2121.19 1487.36 L2121.19 1485.68 L2121.36 1485.68 L2121.36 1479.09 L2121.69 1479.09 L2121.69 1472.68 L2122.03 1472.68 L2122.03 1470.99 L2122.03 1470.99 L2122.03 1469.31 L2122.03 1469.31 L2122.03 1467.62 L2122.20 1467.62 L2122.20 1466.10 L2122.54 1466.10 L2122.54 1461.21 L2122.54 1461.21 L2122.54 1459.52 L2122.71 1459.52 L2122.71 1454.63 L2122.71 1454.63 L2122.71 1439.94 L2123.21 1439.94 L2123.21 1438.26 L2123.55 1438.26 L2123.55 1436.57 L2123.89 1436.57 L2123.89 1435.05 L2124.23 1435.05 L2124.23 1431.68 L2124.56 1431.68 L2124.56 1425.26 L2124.56 1425.26 L2124.56 1423.58 L2124.73 1423.58 L2124.73 1421.89 L2124.90 1421.89 L2124.90 1418.68 L2125.07 1418.68 L2125.07 1415.48 L2125.91 1415.48 L2125.91 1397.42 L2125.91 1397.42 L2125.91 1395.73 L2125.91 1395.73 L2125.91 1394.21 L2125.91 1394.21 L2125.91 1392.53 L2126.42 1392.53 L2126.42 1387.63 L2126.42 1387.63 L2126.42 1385.94 L2126.59 1385.94 L2126.59 1384.43 L2126.93 1384.43 L2126.93 1377.84 L2126.93 1377.84 L2126.93 1374.47 L2127.09 1374.47 L2127.09 1372.95 L2127.60 1372.95 L2127.60 1368.06 L2127.77 1368.06 L2127.77 1361.48 L2127.77 1361.48 L2127.77 1359.79 L2127.94 1359.79 L2127.94 1354.89 L2127.94 1354.89 L2127.94 1351.69 L2128.28 1351.69 L2128.28 1350.00 L2128.28 1350.00 L2128.28 1348.31 L2128.44 1348.31 L2128.44 1345.11 L2128.61 1345.11 L2128.61 1341.90 L2128.95 1341.90 L2128.95 1332.11 L2128.95 1332.11 L2128.95 1330.43 L2128.95 1330.43 L2128.95 1327.22 L2128.95 1327.22 L2128.95 1323.84 L2129.79 1323.84 L2129.79 1318.95 L2129.79 1318.95 L2129.79 1309.16 L2130.13 1309.16 L2130.13 1301.06 L2130.13 1301.06 L2130.13 1294.48 L2130.47 1294.48 L2130.47 1292.79 L2130.81 1292.79 L2130.81 1289.59 L2131.14 1289.59 L2131.14 1284.69 L2131.31 1284.69 L2131.31 1268.33 L2131.31 1268.33 L2131.31 1266.64 L2131.82 1266.64 L2131.82 1248.75 L2132.16 1248.75 L2132.16 1242.17 L2132.32 1242.17 L2132.32 1222.59 L2132.66 1222.59 L2132.66 1220.91 L2133.68 1220.91 L2133.68 1216.01 L2134.69 1216.01 L2134.69 1212.81 L2135.19 1212.81 L2135.19 1207.91 L2135.53 1207.91 L2135.53 1206.22 L2135.70 1206.22 L2135.70 1203.02 L2136.04 1203.02 L2136.04 1199.64 L2136.54 1199.64 L2136.54 1176.86 L2136.54 1176.86 L2136.54 1175.18 L2136.54 1175.18 L2136.54 1163.70 L2136.54 1163.70 L2136.54 1158.81 L2136.54 1158.81 L2136.54 1155.60 L2136.88 1155.60 L2136.88 1149.02 L2137.05 1149.02 L2137.05 1147.33 L2137.22 1147.33 L2137.22 1140.75 L2138.57 1140.75 L2138.57 1137.54 L2138.57 1137.54 L2138.57 1132.65 L2138.74 1132.65 L2138.74 1130.96 L2138.74 1130.96 L2138.74 1129.44 L2139.24 1129.44 L2139.24 1127.76 L2139.24 1127.76 L2139.24 1121.18 L2139.24 1121.18 L2139.24 1116.28 L2139.41 1116.28 L2139.41 1109.70 L2139.75 1109.70 L2139.75 1103.29 L2140.09 1103.29 L2140.09 1095.02 L2140.43 1095.02 L2140.43 1090.13 L2140.43 1090.13 L2140.43 1086.92 L2140.93 1086.92 L2140.93 1054.18 L2140.93 1054.18 L2140.93 1042.71 L2141.10 1042.71 L2141.10 1041.19 L2141.44 1041.19 L2141.44 1036.29 L2141.44 1036.29 L2141.44 1032.92 L2141.61 1032.92 L2141.61 908.72 L2141.78 908.72 L2141.78 907.20 L2142.11 907.20 L2142.11 903.82 L2142.28 903.82 L2142.28 902.31 L2142.28 902.31 L2142.28 900.62 L2142.45 900.62 L2142.45 897.24 L2142.79 897.24 L2142.79 892.35 L2143.13 892.35 L2143.13 887.46 L2143.29 887.46 L2143.29 885.94 L2143.29 885.94 L2143.29 874.46 L2143.46 874.46 L2143.46 864.68 L2143.63 864.68 L2143.63 862.99 L2143.80 862.99 L2143.80 859.78 L2144.31 859.78 L2144.31 858.09 L2144.48 858.09 L2144.48 854.89 L2144.48 854.89 L2144.48 849.99 L2144.98 849.99 L2144.98 843.41 L2146.16 843.41 L2146.16 841.72 L2146.33 841.72 L2146.33 840.04 L2146.84 840.04 L2146.84 836.83 L2147.01 836.83 L2147.01 830.25 L2147.01 830.25 L2147.01 820.46 L2147.18 820.46 L2147.18 818.94 L2147.51 818.94 L2147.51 817.26 L2147.68 817.26 L2147.68 812.36 L2147.68 812.36 L2147.68 805.78 L2148.69 805.78 L2148.69 800.89 L2149.20 800.89 L2149.20 799.20 L2149.20 799.20 L2149.20 792.79 L2149.88 792.79 L2149.88 789.41 L2149.88 789.41 L2149.88 787.89 L2150.38 787.89 L2150.38 784.52 L2150.72 784.52 L2150.72 779.63 L2150.72 779.63 L2150.72 777.94 L2150.89 777.94 L2150.89 766.63 L2152.57 766.63 L2152.57 764.94 L2152.74 764.94 L2152.74 760.05 L2152.74 760.05 L2152.74 758.36 L2152.74 758.36 L2152.74 756.84 L2152.91 756.84 L2152.91 755.16 L2152.91 755.16 L2152.91 753.47 L2153.08 753.47 L2153.08 751.95 L2153.25 751.95 L2153.25 750.26 L2153.59 750.26 L2153.59 748.57 L2153.76 748.57 L2153.76 745.37 L2153.76 745.37 L2153.76 743.68 L2154.09 743.68 L2154.09 738.79 L2154.43 738.79 L2154.43 727.31 L2154.43 727.31 L2154.43 724.11 L2154.43 724.11 L2154.43 719.21 L2154.60 719.21 L2154.60 717.53 L2154.60 717.53 L2154.60 710.94 L2154.77 710.94 L2154.77 707.74 L2154.77 707.74 L2154.77 706.05 L2155.11 706.05 L2155.11 704.53 L2155.28 704.53 L2155.28 702.84 L2155.44 702.84 L2155.44 701.16 L2155.44 701.16 L2155.44 699.64 L2155.44 699.64 L2155.44 697.95 L2156.79 697.95 L2156.79 696.26 L2156.79 696.26 L2156.79 694.74 L2156.96 694.74 L2156.96 693.06 L2157.13 693.06 L2157.13 689.68 L2157.30 689.68 L2157.30 684.79 L2157.30 684.79 L2157.30 679.89 L2157.47 679.89 L2157.47 665.21 L2157.47 665.21 L2157.47 663.69 L2157.64 663.69 L2157.64 660.32 L2157.64 660.32 L2157.64 652.22 L2157.64 652.22 L2157.64 645.64 L2157.64 645.64 L2157.64 643.95 L2157.98 643.95 L2157.98 642.43 L2158.31 642.43 L2158.31 640.74 L2158.99 640.74 L2158.99 632.64 L2159.66 632.64 L2159.66 630.96 L2159.83 630.96 L2159.83 627.58 L2160.34 627.58 L2160.34 626.06 L2160.34 626.06 L2160.34 622.69 L2160.34 622.69 L2160.34 612.90 L2160.51 612.90 L2160.51 608.01 L2160.68 608.01 L2160.68 606.49 L2160.68 606.49 L2160.68 604.80 L2160.84 604.80 L2160.84 601.59 L2161.01 601.59 L2161.01 599.91 L2161.01 599.91 L2161.01 596.53 L2161.01 596.53 L2161.01 586.74 L2161.01 586.74 L2161.01 585.22 L2161.52 585.22 L2161.52 583.54 L2162.03 583.54 L2162.03 565.48 L2162.36 565.48 L2162.36 563.96 L2163.04 563.96 L2163.04 560.59 L2163.21 560.59 L2163.21 549.28 L2163.21 549.28 L2163.21 536.12 L2163.38 536.12 L2163.38 534.43 L2163.38 534.43 L2163.38 531.22 L2163.71 531.22 L2163.71 529.54 L2163.88 529.54 L2163.88 526.33 L2163.88 526.33 L2163.88 521.44 L2164.05 521.44 L2164.05 516.54 L2164.05 516.54 L2164.05 514.86 L2164.05 514.86 L2164.05 511.65 L2164.22 511.65 L2164.22 509.96 L2164.56 509.96 L2164.56 508.28 L2165.23 508.28 L2165.23 506.76 L2165.23 506.76 L2165.23 505.07 L2165.40 505.07 L2165.40 503.38 L2166.41 503.38 L2166.41 501.86 L2166.58 501.86 L2166.58 496.97 L2167.43 496.97 L2167.43 495.28 L2168.10 495.28 L2168.10 493.59 L2168.27 493.59 L2168.27 492.07 L2168.44 492.07 L2168.44 490.39 L2168.78 490.39 L2168.78 488.70 L2169.62 488.70 L2169.62 487.18 L2170.63 487.18 L2170.63 480.60 L2170.80 480.60 L2170.80 477.22 L2171.48 477.22 L2171.48 465.92 L2171.98 465.92 L2171.98 462.54 L2171.98 462.54 L2171.98 456.13 L2171.98 456.13 L2171.98 454.44 L2172.49 454.44 L2172.49 444.66 L2173.33 444.66 L2173.33 438.07 L2173.67 438.07 L2173.67 436.39 L2173.67 436.39 L2173.67 431.49 L2173.67 431.49 L2173.67 428.29 L2173.67 428.29 L2173.67 426.60 L2174.51 426.60 L2174.51 425.08 L2174.68 425.08 L2174.68 423.39 L2174.68 423.39 L2174.68 416.81 L2175.02 416.81 L2175.02 413.61 L2175.69 413.61 L2175.69 407.03 L2176.20 407.03 L2176.20 398.93 L2177.04 398.93 L2177.04 395.55 L2177.21 395.55 L2177.21 390.66 L2177.38 390.66 L2177.38 388.97 L2178.23 388.97 L2178.23 384.07 L2179.07 384.07 L2179.07 382.56 L2179.74 382.56 L2179.74 380.87 L2180.59 380.87 L2180.59 379.18 L2181.09 379.18 L2181.09 375.97 L2181.94 375.97 L2181.94 371.08 L2182.11 371.08 L2182.11 366.19 L2182.44 366.19 L2182.44 362.98 L2183.29 362.98 L2183.29 349.82 L2184.13 349.82 L2184.13 348.13 L2185.31 348.13 L2185.31 346.61 L2187.00 346.61 L2187.00 344.93 L2187.00 344.93 L2187.00 338.34 L2187.00 338.34 L2187.00 335.14 L2187.51 335.14 L2187.51 331.93 L2187.84 331.93 L2187.84 328.56 L2189.87 328.56 L2189.87 313.88 L2190.04 313.88 L2190.04 289.41 L2190.04 289.41 L2190.04 286.03 L2190.38 286.03 L2190.38 284.51 L2190.88 284.51 L2190.88 282.82 L2191.89 282.82 L2191.89 276.24 L2193.41 276.24 L2193.41 273.04 L2195.78 273.04 L2195.78 269.83 L2196.96 269.83 L2196.96 258.36 L2197.80 258.36 L2197.80 246.88 L2198.64 246.88 L2198.64 240.30 L2199.82 240.30 L2199.82 238.61 L2204.72 238.61 L2204.72 227.31 L2206.41 227.31 L2206.41 223.93 L2207.25 223.93 L2207.25 220.72 L2208.94 220.72 L2208.94 219.04 L2209.44 219.04 L2209.44 206.04 L2209.61 206.04 L2209.61 204.36 L2213.83 204.36 L2213.83 201.15 L2214.00 201.15 L2214.00 192.88 L2214.34 192.88 L2214.34 191.36 L2214.34 191.36 L2214.34 189.68 L2214.68 189.68 L2214.68 187.99 L2214.84 187.99 L2214.84 186.47 L2221.59 186.47 L2221.59 184.78" stroke-linejoin="round" style="fill:none;stroke:#1A85FF;stroke-width:9.72"/>
	<text x="1745.72" y="81.72" style="font-family:'Helvetica';font-size:67.50px;fill:#000000" text-anchor="middle">Base-independent Rate</text>
	<text x="2567.03" y="81.72" style="font-family:'Helvetica';font-size:67.50px;fill:#000000" text-anchor="middle">Mean Base-dependent Rate</text>
	<line x1="450.90" y1="2789.10" x2="450.90" y2="113.40" style="stroke:#000000;stroke-width:6.48"/>
	<line x1="450.90" y1="2717.89" x2="405.84" y2="2717.89" style="stroke:#000000;stroke-width:6.48"/>
	<text x="356.33" y="2717.89" style="font-family:'Helvetica';font-size:89.94px;fill:#000000" transform="rotate(-90 356.33,2717.89)" text-anchor="middle">0</text>
	<line x1="450.90" y1="2211.30" x2="405.84" y2="2211.30" style="stroke:#000000;stroke-width:6.48"/>
	<text x="356.33" y="2211.30" style="font-family:'Helvetica';font-size:89.94px;fill:#000000" transform="rotate(-90 356.33,2211.30)" text-anchor="middle">.2</text>
	<line x1="450.90" y1="1704.54" x2="405.84" y2="1704.54" style="stroke:#000000;stroke-width:6.48"/>
	<text x="356.33" y="1704.54" style="font-family:'Helvetica';font-size:89.94px;fill:#000000" transform="rotate(-90 356.33,1704.54)" text-anchor="middle">.4</text>
	<line x1="450.90" y1="1197.96" x2="405.84" y2="1197.96" style="stroke:#000000;stroke-width:6.48"/>
	<text x="356.33" y="1197.96" style="font-family:'Helvetica';font-size:89.94px;fill:#000000" transform="rotate(-90 356.33,1197.96)" text-anchor="middle">.6</text>
	<line x1="450.90" y1="691.37" x2="405.84" y2="691.37" style="stroke:#000000;stroke-width:6.48"/>
	<text x="356.33" y="691.37" style="font-family:'Helvetica';font-size:89.94px;fill:#000000" transform="rotate(-90 356.33,691.37)" text-anchor="middle">.8</text>
	<line x1="450.90" y1="184.61" x2="405.84" y2="184.61" style="stroke:#000000;stroke-width:6.48"/>
	<text x="356.33" y="184.61" style="font-family:'Helvetica';font-size:89.94px;fill:#000000" transform="rotate(-90 356.33,184.61)" text-anchor="middle">1</text>
	<text x="214.55" y="1451.25" style="font-family:'Helvetica';font-size:112.56px;fill:#000000" transform="rotate(-90 214.55,1451.25)" text-anchor="middle">Cumulative Probability</text>
	<line x1="450.90" y1="2789.10" x2="5286.60" y2="2789.10" style="stroke:#000000;stroke-width:6.48"/>
	<line x1="522.11" y1="2789.10" x2="522.11" y2="2834.16" style="stroke:#000000;stroke-width:6.48"/>
	<text x="522.11" y="2919.48" style="font-family:'Helvetica';font-size:89.94px;fill:#000000" text-anchor="middle">0</text>
	<line x1="857.42" y1="2789.10" x2="857.42" y2="2834.16" style="stroke:#000000;stroke-width:6.48"/>
	<text x="857.42" y="2919.48" style="font-family:'Helvetica';font-size:89.94px;fill:#000000" text-anchor="middle">.02</text>
	<line x1="1192.56" y1="2789.10" x2="1192.56" y2="2834.16" style="stroke:#000000;stroke-width:6.48"/>
	<text x="1192.56" y="2919.48" style="font-family:'Helvetica';font-size:89.94px;fill:#000000" text-anchor="middle">.04</text>
	<line x1="1527.86" y1="2789.10" x2="1527.86" y2="2834.16" style="stroke:#000000;stroke-width:6.48"/>
	<text x="1527.86" y="2919.48" style="font-family:'Helvetica';font-size:89.94px;fill:#000000" text-anchor="middle">.06</text>
	<line x1="1863.00" y1="2789.10" x2="1863.00" y2="2834.16" style="stroke:#000000;stroke-width:6.48"/>
	<text x="1863.00" y="2919.48" style="font-family:'Helvetica';font-size:89.94px;fill:#000000" text-anchor="middle">.08</text>
	<line x1="2198.31" y1="2789.10" x2="2198.31" y2="2834.16" style="stroke:#000000;stroke-width:6.48"/>
	<text x="2198.31" y="2919.48" style="font-family:'Helvetica';font-size:89.94px;fill:#000000" text-anchor="middle">.1</text>
	<line x1="2533.44" y1="2789.10" x2="2533.44" y2="2834.16" style="stroke:#000000;stroke-width:6.48"/>
	<text x="2533.44" y="2919.48" style="font-family:'Helvetica';font-size:89.94px;fill:#000000" text-anchor="middle">.12</text>
	<line x1="2868.75" y1="2789.10" x2="2868.75" y2="2834.16" style="stroke:#000000;stroke-width:6.48"/>
	<text x="2868.75" y="2919.48" style="font-family:'Helvetica';font-size:89.94px;fill:#000000" text-anchor="middle">.14</text>
	<line x1="3203.89" y1="2789.10" x2="3203.89" y2="2834.16" style="stroke:#000000;stroke-width:6.48"/>
	<text x="3203.89" y="2919.48" style="font-family:'Helvetica';font-size:89.94px;fill:#000000" text-anchor="middle">.16</text>
	<line x1="3539.19" y1="2789.10" x2="3539.19" y2="2834.16" style="stroke:#000000;stroke-width:6.48"/>
	<text x="3539.19" y="2919.48" style="font-family:'Helvetica';font-size:89.94px;fill:#000000" text-anchor="middle">.18</text>
	<line x1="3874.33" y1="2789.10" x2="3874.33" y2="2834.16" style="stroke:#000000;stroke-width:6.48"/>
	<text x="3874.33" y="2919.48" style="font-family:'Helvetica';font-size:89.94px;fill:#000000" text-anchor="middle">.2</text>
	<line x1="4209.64" y1="2789.10" x2="4209.64" y2="2834.16" style="stroke:#000000;stroke-width:6.48"/>
	<text x="4209.64" y="2919.48" style="font-family:'Helvetica';font-size:89.94px;fill:#000000" text-anchor="middle">.22</text>
	<line x1="4544.94" y1="2789.10" x2="4544.94" y2="2834.16" style="stroke:#000000;stroke-width:6.48"/>
	<text x="4544.94" y="2919.48" style="font-family:'Helvetica';font-size:89.94px;fill:#000000" text-anchor="middle">.24</text>
	<line x1="4880.08" y1="2789.10" x2="4880.08" y2="2834.16" style="stroke:#000000;stroke-width:6.48"/>
	<text x="4880.08" y="2919.48" style="font-family:'Helvetica';font-size:89.94px;fill:#000000" text-anchor="middle">.26</text>
	<line x1="5215.39" y1="2789.10" x2="5215.39" y2="2834.16" style="stroke:#000000;stroke-width:6.48"/>
	<text x="5215.39" y="2919.48" style="font-family:'Helvetica';font-size:89.94px;fill:#000000" text-anchor="middle">.28</text>
	<text x="2868.75" y="3070.31" style="font-family:'Helvetica';font-size:112.56px;fill:#000000" text-anchor="middle">Corporate Tax Rate</text>
</svg>
