<?xml version="1.0" encoding="UTF-8" standalone="no"?>
<!-- This is a Stata 18.0 generated SVG file (http://www.stata.com) -->

<svg version="1.1" width="7.500in" height="4.500in" viewBox="0 0 5400 3240" xmlns="http://www.w3.org/2000/svg" xmlns:xlink="http://www.w3.org/1999/xlink">
	<desc>Stata Graph - Graph</desc>
	<rect x="0" y="0" width="5400" height="3240" style="fill:#FFFFFF;stroke:none"/>
	<rect x="0.00" y="0.00" width="5400.00" height="3240.00" style="fill:#FFFFFF"/>
	<rect x="3.24" y="3.24" width="5393.52" height="3233.52" style="fill:none;stroke:#FFFFFF;stroke-width:6.48"/>
	<rect x="473.34" y="113.40" width="4813.26" height="2365.71" style="fill:#FFFFFF"/>
	<rect x="476.58" y="116.64" width="4806.78" height="2359.23" style="fill:none;stroke:#FFFFFF;stroke-width:6.48"/>
	<line x1="473.34" y1="2407.89" x2="538.14" y2="2407.89" style="stroke:#F0F0F0;stroke-width:9.72"/>
	<line x1="570.54" y1="2407.89" x2="635.34" y2="2407.89" style="stroke:#F0F0F0;stroke-width:9.72"/>
	<line x1="667.74" y1="2407.89" x2="732.54" y2="2407.89" style="stroke:#F0F0F0;stroke-width:9.72"/>
	<line x1="764.94" y1="2407.89" x2="829.74" y2="2407.89" style="stroke:#F0F0F0;stroke-width:9.72"/>
	<line x1="862.14" y1="2407.89" x2="926.94" y2="2407.89" style="stroke:#F0F0F0;stroke-width:9.72"/>
	<line x1="959.34" y1="2407.89" x2="1024.14" y2="2407.89" style="stroke:#F0F0F0;stroke-width:9.72"/>
	<line x1="1056.54" y1="2407.89" x2="1121.34" y2="2407.89" style="stroke:#F0F0F0;stroke-width:9.72"/>
	<line x1="1153.74" y1="2407.89" x2="1218.54" y2="2407.89" style="stroke:#F0F0F0;stroke-width:9.72"/>
	<line x1="1250.94" y1="2407.89" x2="1315.74" y2="2407.89" style="stroke:#F0F0F0;stroke-width:9.72"/>
	<line x1="1348.14" y1="2407.89" x2="1412.94" y2="2407.89" style="stroke:#F0F0F0;stroke-width:9.72"/>
	<line x1="1445.34" y1="2407.89" x2="1510.14" y2="2407.89" style="stroke:#F0F0F0;stroke-width:9.72"/>
	<line x1="1542.54" y1="2407.89" x2="1607.34" y2="2407.89" style="stroke:#F0F0F0;stroke-width:9.72"/>
	<line x1="1639.74" y1="2407.89" x2="1704.54" y2="2407.89" style="stroke:#F0F0F0;stroke-width:9.72"/>
	<line x1="1736.94" y1="2407.89" x2="1801.74" y2="2407.89" style="stroke:#F0F0F0;stroke-width:9.72"/>
	<line x1="1834.14" y1="2407.89" x2="1898.94" y2="2407.89" style="stroke:#F0F0F0;stroke-width:9.72"/>
	<line x1="1931.34" y1="2407.89" x2="1996.14" y2="2407.89" style="stroke:#F0F0F0;stroke-width:9.72"/>
	<line x1="2028.54" y1="2407.89" x2="2093.34" y2="2407.89" style="stroke:#F0F0F0;stroke-width:9.72"/>
	<line x1="2125.74" y1="2407.89" x2="2190.54" y2="2407.89" style="stroke:#F0F0F0;stroke-width:9.72"/>
	<line x1="2222.94" y1="2407.89" x2="2287.74" y2="2407.89" style="stroke:#F0F0F0;stroke-width:9.72"/>
	<line x1="2320.14" y1="2407.89" x2="2384.94" y2="2407.89" style="stroke:#F0F0F0;stroke-width:9.72"/>
	<line x1="2417.34" y1="2407.89" x2="2482.14" y2="2407.89" style="stroke:#F0F0F0;stroke-width:9.72"/>
	<line x1="2514.54" y1="2407.89" x2="2579.34" y2="2407.89" style="stroke:#F0F0F0;stroke-width:9.72"/>
	<line x1="2611.74" y1="2407.89" x2="2676.54" y2="2407.89" style="stroke:#F0F0F0;stroke-width:9.72"/>
	<line x1="2708.94" y1="2407.89" x2="2773.74" y2="2407.89" style="stroke:#F0F0F0;stroke-width:9.72"/>
	<line x1="2806.14" y1="2407.89" x2="2870.94" y2="2407.89" style="stroke:#F0F0F0;stroke-width:9.72"/>
	<line x1="2903.34" y1="2407.89" x2="2968.14" y2="2407.89" style="stroke:#F0F0F0;stroke-width:9.72"/>
	<line x1="3000.54" y1="2407.89" x2="3065.34" y2="2407.89" style="stroke:#F0F0F0;stroke-width:9.72"/>
	<line x1="3097.74" y1="2407.89" x2="3162.54" y2="2407.89" style="stroke:#F0F0F0;stroke-width:9.72"/>
	<line x1="3194.94" y1="2407.89" x2="3259.74" y2="2407.89" style="stroke:#F0F0F0;stroke-width:9.72"/>
	<line x1="3292.14" y1="2407.89" x2="3356.94" y2="2407.89" style="stroke:#F0F0F0;stroke-width:9.72"/>
	<line x1="3389.34" y1="2407.89" x2="3454.14" y2="2407.89" style="stroke:#F0F0F0;stroke-width:9.72"/>
	<line x1="3486.54" y1="2407.89" x2="3551.34" y2="2407.89" style="stroke:#F0F0F0;stroke-width:9.72"/>
	<line x1="3583.74" y1="2407.89" x2="3648.54" y2="2407.89" style="stroke:#F0F0F0;stroke-width:9.72"/>
	<line x1="3680.94" y1="2407.89" x2="3745.74" y2="2407.89" style="stroke:#F0F0F0;stroke-width:9.72"/>
	<line x1="3778.14" y1="2407.89" x2="3842.94" y2="2407.89" style="stroke:#F0F0F0;stroke-width:9.72"/>
	<line x1="3875.34" y1="2407.89" x2="3940.14" y2="2407.89" style="stroke:#F0F0F0;stroke-width:9.72"/>
	<line x1="3972.54" y1="2407.89" x2="4037.34" y2="2407.89" style="stroke:#F0F0F0;stroke-width:9.72"/>
	<line x1="4069.74" y1="2407.89" x2="4134.54" y2="2407.89" style="stroke:#F0F0F0;stroke-width:9.72"/>
	<line x1="4166.94" y1="2407.89" x2="4231.74" y2="2407.89" style="stroke:#F0F0F0;stroke-width:9.72"/>
	<line x1="4264.14" y1="2407.89" x2="4328.94" y2="2407.89" style="stroke:#F0F0F0;stroke-width:9.72"/>
	<line x1="4361.34" y1="2407.89" x2="4426.14" y2="2407.89" style="stroke:#F0F0F0;stroke-width:9.72"/>
	<line x1="4458.54" y1="2407.89" x2="4523.34" y2="2407.89" style="stroke:#F0F0F0;stroke-width:9.72"/>
	<line x1="4555.74" y1="2407.89" x2="4620.54" y2="2407.89" style="stroke:#F0F0F0;stroke-width:9.72"/>
	<line x1="4652.94" y1="2407.89" x2="4717.74" y2="2407.89" style="stroke:#F0F0F0;stroke-width:9.72"/>
	<line x1="4750.14" y1="2407.89" x2="4814.94" y2="2407.89" style="stroke:#F0F0F0;stroke-width:9.72"/>
	<line x1="4847.34" y1="2407.89" x2="4912.14" y2="2407.89" style="stroke:#F0F0F0;stroke-width:9.72"/>
	<line x1="4944.54" y1="2407.89" x2="5009.34" y2="2407.89" style="stroke:#F0F0F0;stroke-width:9.72"/>
	<line x1="5041.74" y1="2407.89" x2="5106.54" y2="2407.89" style="stroke:#F0F0F0;stroke-width:9.72"/>
	<line x1="5138.94" y1="2407.89" x2="5203.74" y2="2407.89" style="stroke:#F0F0F0;stroke-width:9.72"/>
	<line x1="5236.14" y1="2407.89" x2="5286.60" y2="2407.89" style="stroke:#F0F0F0;stroke-width:9.72"/>
	<line x1="473.34" y1="1666.74" x2="538.14" y2="1666.74" style="stroke:#F0F0F0;stroke-width:9.72"/>
	<line x1="570.54" y1="1666.74" x2="635.34" y2="1666.74" style="stroke:#F0F0F0;stroke-width:9.72"/>
	<line x1="667.74" y1="1666.74" x2="732.54" y2="1666.74" style="stroke:#F0F0F0;stroke-width:9.72"/>
	<line x1="764.94" y1="1666.74" x2="829.74" y2="1666.74" style="stroke:#F0F0F0;stroke-width:9.72"/>
	<line x1="862.14" y1="1666.74" x2="926.94" y2="1666.74" style="stroke:#F0F0F0;stroke-width:9.72"/>
	<line x1="959.34" y1="1666.74" x2="1024.14" y2="1666.74" style="stroke:#F0F0F0;stroke-width:9.72"/>
	<line x1="1056.54" y1="1666.74" x2="1121.34" y2="1666.74" style="stroke:#F0F0F0;stroke-width:9.72"/>
	<line x1="1153.74" y1="1666.74" x2="1218.54" y2="1666.74" style="stroke:#F0F0F0;stroke-width:9.72"/>
	<line x1="1250.94" y1="1666.74" x2="1315.74" y2="1666.74" style="stroke:#F0F0F0;stroke-width:9.72"/>
	<line x1="1348.14" y1="1666.74" x2="1412.94" y2="1666.74" style="stroke:#F0F0F0;stroke-width:9.72"/>
	<line x1="1445.34" y1="1666.74" x2="1510.14" y2="1666.74" style="stroke:#F0F0F0;stroke-width:9.72"/>
	<line x1="1542.54" y1="1666.74" x2="1607.34" y2="1666.74" style="stroke:#F0F0F0;stroke-width:9.72"/>
	<line x1="1639.74" y1="1666.74" x2="1704.54" y2="1666.74" style="stroke:#F0F0F0;stroke-width:9.72"/>
	<line x1="1736.94" y1="1666.74" x2="1801.74" y2="1666.74" style="stroke:#F0F0F0;stroke-width:9.72"/>
	<line x1="1834.14" y1="1666.74" x2="1898.94" y2="1666.74" style="stroke:#F0F0F0;stroke-width:9.72"/>
	<line x1="1931.34" y1="1666.74" x2="1996.14" y2="1666.74" style="stroke:#F0F0F0;stroke-width:9.72"/>
	<line x1="2028.54" y1="1666.74" x2="2093.34" y2="1666.74" style="stroke:#F0F0F0;stroke-width:9.72"/>
	<line x1="2125.74" y1="1666.74" x2="2190.54" y2="1666.74" style="stroke:#F0F0F0;stroke-width:9.72"/>
	<line x1="2222.94" y1="1666.74" x2="2287.74" y2="1666.74" style="stroke:#F0F0F0;stroke-width:9.72"/>
	<line x1="2320.14" y1="1666.74" x2="2384.94" y2="1666.74" style="stroke:#F0F0F0;stroke-width:9.72"/>
	<line x1="2417.34" y1="1666.74" x2="2482.14" y2="1666.74" style="stroke:#F0F0F0;stroke-width:9.72"/>
	<line x1="2514.54" y1="1666.74" x2="2579.34" y2="1666.74" style="stroke:#F0F0F0;stroke-width:9.72"/>
	<line x1="2611.74" y1="1666.74" x2="2676.54" y2="1666.74" style="stroke:#F0F0F0;stroke-width:9.72"/>
	<line x1="2708.94" y1="1666.74" x2="2773.74" y2="1666.74" style="stroke:#F0F0F0;stroke-width:9.72"/>
	<line x1="2806.14" y1="1666.74" x2="2870.94" y2="1666.74" style="stroke:#F0F0F0;stroke-width:9.72"/>
	<line x1="2903.34" y1="1666.74" x2="2968.14" y2="1666.74" style="stroke:#F0F0F0;stroke-width:9.72"/>
	<line x1="3000.54" y1="1666.74" x2="3065.34" y2="1666.74" style="stroke:#F0F0F0;stroke-width:9.72"/>
	<line x1="3097.74" y1="1666.74" x2="3162.54" y2="1666.74" style="stroke:#F0F0F0;stroke-width:9.72"/>
	<line x1="3194.94" y1="1666.74" x2="3259.74" y2="1666.74" style="stroke:#F0F0F0;stroke-width:9.72"/>
	<line x1="3292.14" y1="1666.74" x2="3356.94" y2="1666.74" style="stroke:#F0F0F0;stroke-width:9.72"/>
	<line x1="3389.34" y1="1666.74" x2="3454.14" y2="1666.74" style="stroke:#F0F0F0;stroke-width:9.72"/>
	<line x1="3486.54" y1="1666.74" x2="3551.34" y2="1666.74" style="stroke:#F0F0F0;stroke-width:9.72"/>
	<line x1="3583.74" y1="1666.74" x2="3648.54" y2="1666.74" style="stroke:#F0F0F0;stroke-width:9.72"/>
	<line x1="3680.94" y1="1666.74" x2="3745.74" y2="1666.74" style="stroke:#F0F0F0;stroke-width:9.72"/>
	<line x1="3778.14" y1="1666.74" x2="3842.94" y2="1666.74" style="stroke:#F0F0F0;stroke-width:9.72"/>
	<line x1="3875.34" y1="1666.74" x2="3940.14" y2="1666.74" style="stroke:#F0F0F0;stroke-width:9.72"/>
	<line x1="3972.54" y1="1666.74" x2="4037.34" y2="1666.74" style="stroke:#F0F0F0;stroke-width:9.72"/>
	<line x1="4069.74" y1="1666.74" x2="4134.54" y2="1666.74" style="stroke:#F0F0F0;stroke-width:9.72"/>
	<line x1="4166.94" y1="1666.74" x2="4231.74" y2="1666.74" style="stroke:#F0F0F0;stroke-width:9.72"/>
	<line x1="4264.14" y1="1666.74" x2="4328.94" y2="1666.74" style="stroke:#F0F0F0;stroke-width:9.72"/>
	<line x1="4361.34" y1="1666.74" x2="4426.14" y2="1666.74" style="stroke:#F0F0F0;stroke-width:9.72"/>
	<line x1="4458.54" y1="1666.74" x2="4523.34" y2="1666.74" style="stroke:#F0F0F0;stroke-width:9.72"/>
	<line x1="4555.74" y1="1666.74" x2="4620.54" y2="1666.74" style="stroke:#F0F0F0;stroke-width:9.72"/>
	<line x1="4652.94" y1="1666.74" x2="4717.74" y2="1666.74" style="stroke:#F0F0F0;stroke-width:9.72"/>
	<line x1="4750.14" y1="1666.74" x2="4814.94" y2="1666.74" style="stroke:#F0F0F0;stroke-width:9.72"/>
	<line x1="4847.34" y1="1666.74" x2="4912.14" y2="1666.74" style="stroke:#F0F0F0;stroke-width:9.72"/>
	<line x1="4944.54" y1="1666.74" x2="5009.34" y2="1666.74" style="stroke:#F0F0F0;stroke-width:9.72"/>
	<line x1="5041.74" y1="1666.74" x2="5106.54" y2="1666.74" style="stroke:#F0F0F0;stroke-width:9.72"/>
	<line x1="5138.94" y1="1666.74" x2="5203.74" y2="1666.74" style="stroke:#F0F0F0;stroke-width:9.72"/>
	<line x1="5236.14" y1="1666.74" x2="5286.60" y2="1666.74" style="stroke:#F0F0F0;stroke-width:9.72"/>
	<line x1="473.34" y1="925.76" x2="538.14" y2="925.76" style="stroke:#F0F0F0;stroke-width:9.72"/>
	<line x1="570.54" y1="925.76" x2="635.34" y2="925.76" style="stroke:#F0F0F0;stroke-width:9.72"/>
	<line x1="667.74" y1="925.76" x2="732.54" y2="925.76" style="stroke:#F0F0F0;stroke-width:9.72"/>
	<line x1="764.94" y1="925.76" x2="829.74" y2="925.76" style="stroke:#F0F0F0;stroke-width:9.72"/>
	<line x1="862.14" y1="925.76" x2="926.94" y2="925.76" style="stroke:#F0F0F0;stroke-width:9.72"/>
	<line x1="959.34" y1="925.76" x2="1024.14" y2="925.76" style="stroke:#F0F0F0;stroke-width:9.72"/>
	<line x1="1056.54" y1="925.76" x2="1121.34" y2="925.76" style="stroke:#F0F0F0;stroke-width:9.72"/>
	<line x1="1153.74" y1="925.76" x2="1218.54" y2="925.76" style="stroke:#F0F0F0;stroke-width:9.72"/>
	<line x1="1250.94" y1="925.76" x2="1315.74" y2="925.76" style="stroke:#F0F0F0;stroke-width:9.72"/>
	<line x1="1348.14" y1="925.76" x2="1412.94" y2="925.76" style="stroke:#F0F0F0;stroke-width:9.72"/>
	<line x1="1445.34" y1="925.76" x2="1510.14" y2="925.76" style="stroke:#F0F0F0;stroke-width:9.72"/>
	<line x1="1542.54" y1="925.76" x2="1607.34" y2="925.76" style="stroke:#F0F0F0;stroke-width:9.72"/>
	<line x1="1639.74" y1="925.76" x2="1704.54" y2="925.76" style="stroke:#F0F0F0;stroke-width:9.72"/>
	<line x1="1736.94" y1="925.76" x2="1801.74" y2="925.76" style="stroke:#F0F0F0;stroke-width:9.72"/>
	<line x1="1834.14" y1="925.76" x2="1898.94" y2="925.76" style="stroke:#F0F0F0;stroke-width:9.72"/>
	<line x1="1931.34" y1="925.76" x2="1996.14" y2="925.76" style="stroke:#F0F0F0;stroke-width:9.72"/>
	<line x1="2028.54" y1="925.76" x2="2093.34" y2="925.76" style="stroke:#F0F0F0;stroke-width:9.72"/>
	<line x1="2125.74" y1="925.76" x2="2190.54" y2="925.76" style="stroke:#F0F0F0;stroke-width:9.72"/>
	<line x1="2222.94" y1="925.76" x2="2287.74" y2="925.76" style="stroke:#F0F0F0;stroke-width:9.72"/>
	<line x1="2320.14" y1="925.76" x2="2384.94" y2="925.76" style="stroke:#F0F0F0;stroke-width:9.72"/>
	<line x1="2417.34" y1="925.76" x2="2482.14" y2="925.76" style="stroke:#F0F0F0;stroke-width:9.72"/>
	<line x1="2514.54" y1="925.76" x2="2579.34" y2="925.76" style="stroke:#F0F0F0;stroke-width:9.72"/>
	<line x1="2611.74" y1="925.76" x2="2676.54" y2="925.76" style="stroke:#F0F0F0;stroke-width:9.72"/>
	<line x1="2708.94" y1="925.76" x2="2773.74" y2="925.76" style="stroke:#F0F0F0;stroke-width:9.72"/>
	<line x1="2806.14" y1="925.76" x2="2870.94" y2="925.76" style="stroke:#F0F0F0;stroke-width:9.72"/>
	<line x1="2903.34" y1="925.76" x2="2968.14" y2="925.76" style="stroke:#F0F0F0;stroke-width:9.72"/>
	<line x1="3000.54" y1="925.76" x2="3065.34" y2="925.76" style="stroke:#F0F0F0;stroke-width:9.72"/>
	<line x1="3097.74" y1="925.76" x2="3162.54" y2="925.76" style="stroke:#F0F0F0;stroke-width:9.72"/>
	<line x1="3194.94" y1="925.76" x2="3259.74" y2="925.76" style="stroke:#F0F0F0;stroke-width:9.72"/>
	<line x1="3292.14" y1="925.76" x2="3356.94" y2="925.76" style="stroke:#F0F0F0;stroke-width:9.72"/>
	<line x1="3389.34" y1="925.76" x2="3454.14" y2="925.76" style="stroke:#F0F0F0;stroke-width:9.72"/>
	<line x1="3486.54" y1="925.76" x2="3551.34" y2="925.76" style="stroke:#F0F0F0;stroke-width:9.72"/>
	<line x1="3583.74" y1="925.76" x2="3648.54" y2="925.76" style="stroke:#F0F0F0;stroke-width:9.72"/>
	<line x1="3680.94" y1="925.76" x2="3745.74" y2="925.76" style="stroke:#F0F0F0;stroke-width:9.72"/>
	<line x1="3778.14" y1="925.76" x2="3842.94" y2="925.76" style="stroke:#F0F0F0;stroke-width:9.72"/>
	<line x1="3875.34" y1="925.76" x2="3940.14" y2="925.76" style="stroke:#F0F0F0;stroke-width:9.72"/>
	<line x1="3972.54" y1="925.76" x2="4037.34" y2="925.76" style="stroke:#F0F0F0;stroke-width:9.72"/>
	<line x1="4069.74" y1="925.76" x2="4134.54" y2="925.76" style="stroke:#F0F0F0;stroke-width:9.72"/>
	<line x1="4166.94" y1="925.76" x2="4231.74" y2="925.76" style="stroke:#F0F0F0;stroke-width:9.72"/>
	<line x1="4264.14" y1="925.76" x2="4328.94" y2="925.76" style="stroke:#F0F0F0;stroke-width:9.72"/>
	<line x1="4361.34" y1="925.76" x2="4426.14" y2="925.76" style="stroke:#F0F0F0;stroke-width:9.72"/>
	<line x1="4458.54" y1="925.76" x2="4523.34" y2="925.76" style="stroke:#F0F0F0;stroke-width:9.72"/>
	<line x1="4555.74" y1="925.76" x2="4620.54" y2="925.76" style="stroke:#F0F0F0;stroke-width:9.72"/>
	<line x1="4652.94" y1="925.76" x2="4717.74" y2="925.76" style="stroke:#F0F0F0;stroke-width:9.72"/>
	<line x1="4750.14" y1="925.76" x2="4814.94" y2="925.76" style="stroke:#F0F0F0;stroke-width:9.72"/>
	<line x1="4847.34" y1="925.76" x2="4912.14" y2="925.76" style="stroke:#F0F0F0;stroke-width:9.72"/>
	<line x1="4944.54" y1="925.76" x2="5009.34" y2="925.76" style="stroke:#F0F0F0;stroke-width:9.72"/>
	<line x1="5041.74" y1="925.76" x2="5106.54" y2="925.76" style="stroke:#F0F0F0;stroke-width:9.72"/>
	<line x1="5138.94" y1="925.76" x2="5203.74" y2="925.76" style="stroke:#F0F0F0;stroke-width:9.72"/>
	<line x1="5236.14" y1="925.76" x2="5286.60" y2="925.76" style="stroke:#F0F0F0;stroke-width:9.72"/>
	<line x1="473.34" y1="184.61" x2="538.14" y2="184.61" style="stroke:#F0F0F0;stroke-width:9.72"/>
	<line x1="570.54" y1="184.61" x2="635.34" y2="184.61" style="stroke:#F0F0F0;stroke-width:9.72"/>
	<line x1="667.74" y1="184.61" x2="732.54" y2="184.61" style="stroke:#F0F0F0;stroke-width:9.72"/>
	<line x1="764.94" y1="184.61" x2="829.74" y2="184.61" style="stroke:#F0F0F0;stroke-width:9.72"/>
	<line x1="862.14" y1="184.61" x2="926.94" y2="184.61" style="stroke:#F0F0F0;stroke-width:9.72"/>
	<line x1="959.34" y1="184.61" x2="1024.14" y2="184.61" style="stroke:#F0F0F0;stroke-width:9.72"/>
	<line x1="1056.54" y1="184.61" x2="1121.34" y2="184.61" style="stroke:#F0F0F0;stroke-width:9.72"/>
	<line x1="1153.74" y1="184.61" x2="1218.54" y2="184.61" style="stroke:#F0F0F0;stroke-width:9.72"/>
	<line x1="1250.94" y1="184.61" x2="1315.74" y2="184.61" style="stroke:#F0F0F0;stroke-width:9.72"/>
	<line x1="1348.14" y1="184.61" x2="1412.94" y2="184.61" style="stroke:#F0F0F0;stroke-width:9.72"/>
	<line x1="1445.34" y1="184.61" x2="1510.14" y2="184.61" style="stroke:#F0F0F0;stroke-width:9.72"/>
	<line x1="1542.54" y1="184.61" x2="1607.34" y2="184.61" style="stroke:#F0F0F0;stroke-width:9.72"/>
	<line x1="1639.74" y1="184.61" x2="1704.54" y2="184.61" style="stroke:#F0F0F0;stroke-width:9.72"/>
	<line x1="1736.94" y1="184.61" x2="1801.74" y2="184.61" style="stroke:#F0F0F0;stroke-width:9.72"/>
	<line x1="1834.14" y1="184.61" x2="1898.94" y2="184.61" style="stroke:#F0F0F0;stroke-width:9.72"/>
	<line x1="1931.34" y1="184.61" x2="1996.14" y2="184.61" style="stroke:#F0F0F0;stroke-width:9.72"/>
	<line x1="2028.54" y1="184.61" x2="2093.34" y2="184.61" style="stroke:#F0F0F0;stroke-width:9.72"/>
	<line x1="2125.74" y1="184.61" x2="2190.54" y2="184.61" style="stroke:#F0F0F0;stroke-width:9.72"/>
	<line x1="2222.94" y1="184.61" x2="2287.74" y2="184.61" style="stroke:#F0F0F0;stroke-width:9.72"/>
	<line x1="2320.14" y1="184.61" x2="2384.94" y2="184.61" style="stroke:#F0F0F0;stroke-width:9.72"/>
	<line x1="2417.34" y1="184.61" x2="2482.14" y2="184.61" style="stroke:#F0F0F0;stroke-width:9.72"/>
	<line x1="2514.54" y1="184.61" x2="2579.34" y2="184.61" style="stroke:#F0F0F0;stroke-width:9.72"/>
	<line x1="2611.74" y1="184.61" x2="2676.54" y2="184.61" style="stroke:#F0F0F0;stroke-width:9.72"/>
	<line x1="2708.94" y1="184.61" x2="2773.74" y2="184.61" style="stroke:#F0F0F0;stroke-width:9.72"/>
	<line x1="2806.14" y1="184.61" x2="2870.94" y2="184.61" style="stroke:#F0F0F0;stroke-width:9.72"/>
	<line x1="2903.34" y1="184.61" x2="2968.14" y2="184.61" style="stroke:#F0F0F0;stroke-width:9.72"/>
	<line x1="3000.54" y1="184.61" x2="3065.34" y2="184.61" style="stroke:#F0F0F0;stroke-width:9.72"/>
	<line x1="3097.74" y1="184.61" x2="3162.54" y2="184.61" style="stroke:#F0F0F0;stroke-width:9.72"/>
	<line x1="3194.94" y1="184.61" x2="3259.74" y2="184.61" style="stroke:#F0F0F0;stroke-width:9.72"/>
	<line x1="3292.14" y1="184.61" x2="3356.94" y2="184.61" style="stroke:#F0F0F0;stroke-width:9.72"/>
	<line x1="3389.34" y1="184.61" x2="3454.14" y2="184.61" style="stroke:#F0F0F0;stroke-width:9.72"/>
	<line x1="3486.54" y1="184.61" x2="3551.34" y2="184.61" style="stroke:#F0F0F0;stroke-width:9.72"/>
	<line x1="3583.74" y1="184.61" x2="3648.54" y2="184.61" style="stroke:#F0F0F0;stroke-width:9.72"/>
	<line x1="3680.94" y1="184.61" x2="3745.74" y2="184.61" style="stroke:#F0F0F0;stroke-width:9.72"/>
	<line x1="3778.14" y1="184.61" x2="3842.94" y2="184.61" style="stroke:#F0F0F0;stroke-width:9.72"/>
	<line x1="3875.34" y1="184.61" x2="3940.14" y2="184.61" style="stroke:#F0F0F0;stroke-width:9.72"/>
	<line x1="3972.54" y1="184.61" x2="4037.34" y2="184.61" style="stroke:#F0F0F0;stroke-width:9.72"/>
	<line x1="4069.74" y1="184.61" x2="4134.54" y2="184.61" style="stroke:#F0F0F0;stroke-width:9.72"/>
	<line x1="4166.94" y1="184.61" x2="4231.74" y2="184.61" style="stroke:#F0F0F0;stroke-width:9.72"/>
	<line x1="4264.14" y1="184.61" x2="4328.94" y2="184.61" style="stroke:#F0F0F0;stroke-width:9.72"/>
	<line x1="4361.34" y1="184.61" x2="4426.14" y2="184.61" style="stroke:#F0F0F0;stroke-width:9.72"/>
	<line x1="4458.54" y1="184.61" x2="4523.34" y2="184.61" style="stroke:#F0F0F0;stroke-width:9.72"/>
	<line x1="4555.74" y1="184.61" x2="4620.54" y2="184.61" style="stroke:#F0F0F0;stroke-width:9.72"/>
	<line x1="4652.94" y1="184.61" x2="4717.74" y2="184.61" style="stroke:#F0F0F0;stroke-width:9.72"/>
	<line x1="4750.14" y1="184.61" x2="4814.94" y2="184.61" style="stroke:#F0F0F0;stroke-width:9.72"/>
	<line x1="4847.34" y1="184.61" x2="4912.14" y2="184.61" style="stroke:#F0F0F0;stroke-width:9.72"/>
	<line x1="4944.54" y1="184.61" x2="5009.34" y2="184.61" style="stroke:#F0F0F0;stroke-width:9.72"/>
	<line x1="5041.74" y1="184.61" x2="5106.54" y2="184.61" style="stroke:#F0F0F0;stroke-width:9.72"/>
	<line x1="5138.94" y1="184.61" x2="5203.74" y2="184.61" style="stroke:#F0F0F0;stroke-width:9.72"/>
	<line x1="5236.14" y1="184.61" x2="5286.60" y2="184.61" style="stroke:#F0F0F0;stroke-width:9.72"/>
	<path d=" M544.56 2407.89 L700.31 2407.89 L855.90 2364.53 L1011.66 2364.53 L1167.41 2364.53 L1323.00 2304.11 L1478.76 2253.99 L1634.34 1890.00 L1790.10 1865.19 L1945.86 1844.10 L2101.44 1728.68 L2257.20 1628.61 L2412.79 1628.61 L2568.54 1580.34 L2724.30 1267.99 L2879.89 1291.95 L3035.64 1234.07 L3191.23 935.72 L3346.99 816.75 L3502.74 748.07 L3658.33 479.25 L3814.09 402.81 L3969.68 363.99 L4125.43 401.46 L4281.19 187.82 L4436.77 187.82 L4592.53 299.70 L4748.12 241.48 L4903.88 225.79 L5059.63 218.03 L5215.22 198.62" stroke-linejoin="round" style="fill:none;stroke:#000000;stroke-width:14.58"/>
	<line x1="544.56" y1="2253.32" x2="609.36" y2="2253.32" style="stroke:#000000;stroke-width:14.58"/>
	<line x1="641.76" y1="2253.32" x2="700.31" y2="2253.32" style="stroke:#000000;stroke-width:14.58"/>
	<line x1="700.31" y1="2253.32" x2="706.39" y2="2251.97" style="stroke:#000000;stroke-width:14.58"/>
	<line x1="738.11" y1="2245.22" x2="801.39" y2="2231.55" style="stroke:#000000;stroke-width:14.58"/>
	<line x1="833.12" y1="2224.80" x2="855.90" y2="2219.91" style="stroke:#000000;stroke-width:14.58"/>
	<line x1="855.90" y1="2219.91" x2="896.57" y2="2212.14" style="stroke:#000000;stroke-width:14.58"/>
	<line x1="928.46" y1="2206.07" x2="992.08" y2="2193.75" style="stroke:#000000;stroke-width:14.58"/>
	<line x1="1024.14" y1="2190.04" x2="1088.94" y2="2190.04" style="stroke:#000000;stroke-width:14.58"/>
	<line x1="1121.34" y1="2190.04" x2="1167.41" y2="2190.04" style="stroke:#000000;stroke-width:14.58"/>
	<line x1="1167.41" y1="2190.04" x2="1186.14" y2="2190.04" style="stroke:#000000;stroke-width:14.58"/>
	<line x1="1218.54" y1="2190.04" x2="1283.34" y2="2190.04" style="stroke:#000000;stroke-width:14.58"/>
	<line x1="1315.74" y1="2189.87" x2="1323.00" y2="2189.87" style="stroke:#000000;stroke-width:14.58"/>
	<line x1="1323.00" y1="2189.87" x2="1380.54" y2="2192.91" style="stroke:#000000;stroke-width:14.58"/>
	<line x1="1412.78" y1="2194.59" x2="1477.58" y2="2197.97" style="stroke:#000000;stroke-width:14.58"/>
	<line x1="1508.96" y1="2205.90" x2="1571.57" y2="2222.27" style="stroke:#000000;stroke-width:14.58"/>
	<line x1="1603.13" y1="2230.37" x2="1634.34" y2="2238.47" style="stroke:#000000;stroke-width:14.58"/>
	<line x1="1634.34" y1="2238.47" x2="1666.74" y2="2236.61" style="stroke:#000000;stroke-width:14.58"/>
	<line x1="1698.98" y1="2234.76" x2="1763.78" y2="2230.88" style="stroke:#000000;stroke-width:14.58"/>
	<line x1="1796.01" y1="2229.36" x2="1860.81" y2="2228.01" style="stroke:#000000;stroke-width:14.58"/>
	<line x1="1893.21" y1="2227.33" x2="1945.86" y2="2226.15" style="stroke:#000000;stroke-width:14.58"/>
	<line x1="1945.86" y1="2226.15" x2="1958.01" y2="2226.15" style="stroke:#000000;stroke-width:14.58"/>
	<line x1="1990.41" y1="2226.15" x2="2055.21" y2="2226.15" style="stroke:#000000;stroke-width:14.58"/>
	<line x1="2087.61" y1="2226.15" x2="2101.44" y2="2226.15" style="stroke:#000000;stroke-width:14.58"/>
	<line x1="2101.44" y1="2226.15" x2="2152.41" y2="2226.15" style="stroke:#000000;stroke-width:14.58"/>
	<line x1="2184.81" y1="2226.15" x2="2249.61" y2="2226.15" style="stroke:#000000;stroke-width:14.58"/>
	<line x1="2282.01" y1="2226.15" x2="2346.81" y2="2226.15" style="stroke:#000000;stroke-width:14.58"/>
	<line x1="2379.21" y1="2226.15" x2="2412.79" y2="2226.15" style="stroke:#000000;stroke-width:14.58"/>
	<line x1="2412.79" y1="2226.15" x2="2444.01" y2="2225.48" style="stroke:#000000;stroke-width:14.58"/>
	<line x1="2476.41" y1="2224.80" x2="2541.21" y2="2223.62" style="stroke:#000000;stroke-width:14.58"/>
	<line x1="2570.40" y1="2218.39" x2="2594.03" y2="2158.14" style="stroke:#000000;stroke-width:14.58"/>
	<line x1="2605.84" y1="2127.94" x2="2629.46" y2="2067.69" style="stroke:#000000;stroke-width:14.58"/>
	<line x1="2641.28" y1="2037.49" x2="2664.90" y2="1977.08" style="stroke:#000000;stroke-width:14.58"/>
	<line x1="2676.71" y1="1947.04" x2="2700.34" y2="1886.63" style="stroke:#000000;stroke-width:14.58"/>
	<line x1="2712.15" y1="1856.59" x2="2724.30" y2="1825.37" style="stroke:#000000;stroke-width:14.58"/>
	<line x1="2724.30" y1="1825.37" x2="2753.83" y2="1814.57" style="stroke:#000000;stroke-width:14.58"/>
	<line x1="2784.21" y1="1803.43" x2="2844.96" y2="1780.99" style="stroke:#000000;stroke-width:14.58"/>
	<line x1="2875.33" y1="1769.85" x2="2879.89" y2="1768.16" style="stroke:#000000;stroke-width:14.58"/>
	<line x1="2879.89" y1="1768.16" x2="2935.91" y2="1746.73" style="stroke:#000000;stroke-width:14.58"/>
	<line x1="2966.12" y1="1735.26" x2="3026.70" y2="1712.14" style="stroke:#000000;stroke-width:14.58"/>
	<line x1="3058.09" y1="1705.05" x2="3122.04" y2="1694.59" style="stroke:#000000;stroke-width:14.58"/>
	<line x1="3154.11" y1="1689.36" x2="3191.23" y2="1683.28" style="stroke:#000000;stroke-width:14.58"/>
	<line x1="3191.23" y1="1683.28" x2="3218.40" y2="1681.26" style="stroke:#000000;stroke-width:14.58"/>
	<line x1="3250.63" y1="1678.89" x2="3315.26" y2="1674.17" style="stroke:#000000;stroke-width:14.58"/>
	<line x1="3347.66" y1="1671.81" x2="3412.46" y2="1670.29" style="stroke:#000000;stroke-width:14.58"/>
	<line x1="3444.86" y1="1669.44" x2="3502.74" y2="1668.09" style="stroke:#000000;stroke-width:14.58"/>
	<line x1="3502.74" y1="1668.09" x2="3509.66" y2="1667.76" style="stroke:#000000;stroke-width:14.58"/>
	<line x1="3541.89" y1="1665.56" x2="3606.53" y2="1661.18" style="stroke:#000000;stroke-width:14.58"/>
	<line x1="3638.93" y1="1658.98" x2="3658.33" y2="1657.80" style="stroke:#000000;stroke-width:14.58"/>
	<line x1="3658.33" y1="1657.80" x2="3703.73" y2="1657.80" style="stroke:#000000;stroke-width:14.58"/>
	<line x1="3736.13" y1="1657.80" x2="3800.93" y2="1657.80" style="stroke:#000000;stroke-width:14.58"/>
	<line x1="3833.33" y1="1657.80" x2="3898.13" y2="1657.80" style="stroke:#000000;stroke-width:14.58"/>
	<line x1="3930.53" y1="1657.80" x2="3969.68" y2="1657.80" style="stroke:#000000;stroke-width:14.58"/>
	<line x1="3969.68" y1="1657.80" x2="3994.48" y2="1651.56" style="stroke:#000000;stroke-width:14.58"/>
	<line x1="4025.87" y1="1643.46" x2="4088.64" y2="1627.59" style="stroke:#000000;stroke-width:14.58"/>
	<line x1="4120.20" y1="1619.66" x2="4125.43" y2="1618.31" style="stroke:#000000;stroke-width:14.58"/>
	<line x1="4125.43" y1="1618.31" x2="4153.27" y2="1670.63" style="stroke:#000000;stroke-width:14.58"/>
	<line x1="4168.63" y1="1699.31" x2="4199.01" y2="1756.35" style="stroke:#000000;stroke-width:14.58"/>
	<line x1="4214.19" y1="1785.04" x2="4244.74" y2="1842.24" style="stroke:#000000;stroke-width:14.58"/>
	<line x1="4259.93" y1="1870.76" x2="4281.19" y2="1910.76" style="stroke:#000000;stroke-width:14.58"/>
	<line x1="4281.19" y1="1910.76" x2="4300.76" y2="1910.08" style="stroke:#000000;stroke-width:14.58"/>
	<line x1="4333.16" y1="1908.90" x2="4397.79" y2="1906.37" style="stroke:#000000;stroke-width:14.58"/>
	<line x1="4430.19" y1="1905.36" x2="4436.77" y2="1905.02" style="stroke:#000000;stroke-width:14.58"/>
	<line x1="4436.77" y1="1905.02" x2="4494.32" y2="1895.91" style="stroke:#000000;stroke-width:14.58"/>
	<line x1="4526.21" y1="1890.68" x2="4590.17" y2="1880.55" style="stroke:#000000;stroke-width:14.58"/>
	<line x1="4622.57" y1="1882.58" x2="4687.20" y2="1887.47" style="stroke:#000000;stroke-width:14.58"/>
	<line x1="4719.60" y1="1890.00" x2="4748.12" y2="1892.19" style="stroke:#000000;stroke-width:14.58"/>
	<line x1="4748.12" y1="1892.19" x2="4784.23" y2="1892.19" style="stroke:#000000;stroke-width:14.58"/>
	<line x1="4816.63" y1="1892.19" x2="4881.43" y2="1892.19" style="stroke:#000000;stroke-width:14.58"/>
	<line x1="4913.16" y1="1888.65" x2="4973.57" y2="1865.36" style="stroke:#000000;stroke-width:14.58"/>
	<line x1="5003.94" y1="1853.72" x2="5059.63" y2="1832.46" style="stroke:#000000;stroke-width:14.58"/>
	<line x1="5059.63" y1="1832.46" x2="5064.69" y2="1832.46" style="stroke:#000000;stroke-width:14.58"/>
	<line x1="5097.09" y1="1832.46" x2="5161.89" y2="1832.46" style="stroke:#000000;stroke-width:14.58"/>
	<line x1="5194.29" y1="1832.46" x2="5215.22" y2="1832.46" style="stroke:#000000;stroke-width:14.58"/>
	<path d="" stroke-linejoin="round" style="fill:none;stroke:#000000;stroke-width:14.58"/>
	<line x1="473.34" y1="2479.11" x2="473.34" y2="113.40" style="stroke:#000000;stroke-width:6.48"/>
	<line x1="473.34" y1="2407.89" x2="428.46" y2="2407.89" style="stroke:#000000;stroke-width:6.48"/>
	<text x="371.99" y="2407.89" style="font-family:'Helvetica';font-size:112.56px;fill:#000000" transform="rotate(-90 371.99,2407.89)" text-anchor="middle">0</text>
	<line x1="473.34" y1="1666.74" x2="428.46" y2="1666.74" style="stroke:#000000;stroke-width:6.48"/>
	<text x="371.99" y="1666.74" style="font-family:'Helvetica';font-size:112.56px;fill:#000000" transform="rotate(-90 371.99,1666.74)" text-anchor="middle">.02</text>
	<line x1="473.34" y1="925.76" x2="428.46" y2="925.76" style="stroke:#000000;stroke-width:6.48"/>
	<text x="371.99" y="925.76" style="font-family:'Helvetica';font-size:112.56px;fill:#000000" transform="rotate(-90 371.99,925.76)" text-anchor="middle">.04</text>
	<line x1="473.34" y1="184.61" x2="428.46" y2="184.61" style="stroke:#000000;stroke-width:6.48"/>
	<text x="371.99" y="184.61" style="font-family:'Helvetica';font-size:112.56px;fill:#000000" transform="rotate(-90 371.99,184.61)" text-anchor="middle">.06</text>
	<text x="214.55" y="1296.34" style="font-family:'Helvetica';font-size:112.56px;fill:#000000" transform="rotate(-90 214.55,1296.34)" text-anchor="middle">Average Rate</text>
	<line x1="473.34" y1="2479.11" x2="5286.60" y2="2479.11" style="stroke:#000000;stroke-width:6.48"/>
	<line x1="544.73" y1="2479.11" x2="544.73" y2="2524.16" style="stroke:#000000;stroke-width:6.48"/>
	<text x="544.73" y="2625.31" style="font-family:'Helvetica';font-size:112.56px;fill:#000000" text-anchor="middle">1980</text>
	<line x1="2101.61" y1="2479.11" x2="2101.61" y2="2524.16" style="stroke:#000000;stroke-width:6.48"/>
	<text x="2101.61" y="2625.31" style="font-family:'Helvetica';font-size:112.56px;fill:#000000" text-anchor="middle">1990</text>
	<line x1="3658.50" y1="2479.11" x2="3658.50" y2="2524.16" style="stroke:#000000;stroke-width:6.48"/>
	<text x="3658.50" y="2625.31" style="font-family:'Helvetica';font-size:112.56px;fill:#000000" text-anchor="middle">2000</text>
	<line x1="5215.39" y1="2479.11" x2="5215.39" y2="2524.16" style="stroke:#000000;stroke-width:6.48"/>
	<text x="5215.39" y="2625.31" style="font-family:'Helvetica';font-size:112.56px;fill:#000000" text-anchor="middle">2010</text>
	<text x="2880.06" y="2782.75" style="font-family:'Helvetica';font-size:112.56px;fill:#000000" text-anchor="middle">Year</text>
	<rect x="1643.46" y="2878.03" width="2113.09" height="209.76" style="fill:#FFFFFF"/>
	<rect x="1646.70" y="2881.27" width="2106.61" height="203.28" style="fill:none;stroke:#909090;stroke-width:6.48"/>
	<line x1="1692.06" y1="2982.83" x2="1951.26" y2="2982.83" style="stroke:#000000;stroke-width:14.58"/>
	<line x1="2651.40" y1="2982.83" x2="2716.20" y2="2982.83" style="stroke:#000000;stroke-width:14.58"/>
	<line x1="2748.60" y1="2982.83" x2="2813.40" y2="2982.83" style="stroke:#000000;stroke-width:14.58"/>
	<line x1="2845.80" y1="2982.83" x2="2910.60" y2="2982.83" style="stroke:#000000;stroke-width:14.58"/>
	<text x="2018.76" y="3014.35" style="font-family:'Helvetica';font-size:89.94px;fill:#000000">R&amp;D Credit</text>
	<text x="2978.10" y="3014.35" style="font-family:'Helvetica';font-size:89.94px;fill:#000000">Investment Credit</text>
</svg>
