<?xml version="1.0" encoding="UTF-8" standalone="no"?>
<!-- This is a Stata 18.0 generated SVG file (http://www.stata.com) -->

<svg version="1.1" width="7.500in" height="4.500in" viewBox="0 0 5400 3240" xmlns="http://www.w3.org/2000/svg" xmlns:xlink="http://www.w3.org/1999/xlink">
	<desc>Stata Graph - Graph</desc>
	<rect x="0" y="0" width="5400" height="3240" style="fill:#FFFFFF;stroke:none"/>
	<rect x="0.00" y="0.00" width="5400.00" height="3240.00" style="fill:#FFFFFF"/>
	<rect x="3.24" y="3.24" width="5393.52" height="3233.52" style="fill:none;stroke:#FFFFFF;stroke-width:6.48"/>
	<rect x="450.90" y="113.40" width="4835.70" height="2675.70" style="fill:#FFFFFF"/>
	<rect x="454.14" y="116.64" width="4829.22" height="2669.22" style="fill:none;stroke:#FFFFFF;stroke-width:6.48"/>
	<line x1="450.90" y1="2717.89" x2="515.70" y2="2717.89" style="stroke:#F0F0F0;stroke-width:9.72"/>
	<line x1="548.10" y1="2717.89" x2="612.90" y2="2717.89" style="stroke:#F0F0F0;stroke-width:9.72"/>
	<line x1="645.30" y1="2717.89" x2="710.10" y2="2717.89" style="stroke:#F0F0F0;stroke-width:9.72"/>
	<line x1="742.50" y1="2717.89" x2="807.30" y2="2717.89" style="stroke:#F0F0F0;stroke-width:9.72"/>
	<line x1="839.70" y1="2717.89" x2="904.50" y2="2717.89" style="stroke:#F0F0F0;stroke-width:9.72"/>
	<line x1="936.90" y1="2717.89" x2="1001.70" y2="2717.89" style="stroke:#F0F0F0;stroke-width:9.72"/>
	<line x1="1034.10" y1="2717.89" x2="1098.90" y2="2717.89" style="stroke:#F0F0F0;stroke-width:9.72"/>
	<line x1="1131.30" y1="2717.89" x2="1196.10" y2="2717.89" style="stroke:#F0F0F0;stroke-width:9.72"/>
	<line x1="1228.50" y1="2717.89" x2="1293.30" y2="2717.89" style="stroke:#F0F0F0;stroke-width:9.72"/>
	<line x1="1325.70" y1="2717.89" x2="1390.50" y2="2717.89" style="stroke:#F0F0F0;stroke-width:9.72"/>
	<line x1="1422.90" y1="2717.89" x2="1487.70" y2="2717.89" style="stroke:#F0F0F0;stroke-width:9.72"/>
	<line x1="1520.10" y1="2717.89" x2="1584.90" y2="2717.89" style="stroke:#F0F0F0;stroke-width:9.72"/>
	<line x1="1617.30" y1="2717.89" x2="1682.10" y2="2717.89" style="stroke:#F0F0F0;stroke-width:9.72"/>
	<line x1="1714.50" y1="2717.89" x2="1779.30" y2="2717.89" style="stroke:#F0F0F0;stroke-width:9.72"/>
	<line x1="1811.70" y1="2717.89" x2="1876.50" y2="2717.89" style="stroke:#F0F0F0;stroke-width:9.72"/>
	<line x1="1908.90" y1="2717.89" x2="1973.70" y2="2717.89" style="stroke:#F0F0F0;stroke-width:9.72"/>
	<line x1="2006.10" y1="2717.89" x2="2070.90" y2="2717.89" style="stroke:#F0F0F0;stroke-width:9.72"/>
	<line x1="2103.30" y1="2717.89" x2="2168.10" y2="2717.89" style="stroke:#F0F0F0;stroke-width:9.72"/>
	<line x1="2200.50" y1="2717.89" x2="2265.30" y2="2717.89" style="stroke:#F0F0F0;stroke-width:9.72"/>
	<line x1="2297.70" y1="2717.89" x2="2362.50" y2="2717.89" style="stroke:#F0F0F0;stroke-width:9.72"/>
	<line x1="2394.90" y1="2717.89" x2="2459.70" y2="2717.89" style="stroke:#F0F0F0;stroke-width:9.72"/>
	<line x1="2492.10" y1="2717.89" x2="2556.90" y2="2717.89" style="stroke:#F0F0F0;stroke-width:9.72"/>
	<line x1="2589.30" y1="2717.89" x2="2654.10" y2="2717.89" style="stroke:#F0F0F0;stroke-width:9.72"/>
	<line x1="2686.50" y1="2717.89" x2="2751.30" y2="2717.89" style="stroke:#F0F0F0;stroke-width:9.72"/>
	<line x1="2783.70" y1="2717.89" x2="2848.50" y2="2717.89" style="stroke:#F0F0F0;stroke-width:9.72"/>
	<line x1="2880.90" y1="2717.89" x2="2945.70" y2="2717.89" style="stroke:#F0F0F0;stroke-width:9.72"/>
	<line x1="2978.10" y1="2717.89" x2="3042.90" y2="2717.89" style="stroke:#F0F0F0;stroke-width:9.72"/>
	<line x1="3075.30" y1="2717.89" x2="3140.10" y2="2717.89" style="stroke:#F0F0F0;stroke-width:9.72"/>
	<line x1="3172.50" y1="2717.89" x2="3237.30" y2="2717.89" style="stroke:#F0F0F0;stroke-width:9.72"/>
	<line x1="3269.70" y1="2717.89" x2="3334.50" y2="2717.89" style="stroke:#F0F0F0;stroke-width:9.72"/>
	<line x1="3366.90" y1="2717.89" x2="3431.70" y2="2717.89" style="stroke:#F0F0F0;stroke-width:9.72"/>
	<line x1="3464.10" y1="2717.89" x2="3528.90" y2="2717.89" style="stroke:#F0F0F0;stroke-width:9.72"/>
	<line x1="3561.30" y1="2717.89" x2="3626.10" y2="2717.89" style="stroke:#F0F0F0;stroke-width:9.72"/>
	<line x1="3658.50" y1="2717.89" x2="3723.30" y2="2717.89" style="stroke:#F0F0F0;stroke-width:9.72"/>
	<line x1="3755.70" y1="2717.89" x2="3820.50" y2="2717.89" style="stroke:#F0F0F0;stroke-width:9.72"/>
	<line x1="3852.90" y1="2717.89" x2="3917.70" y2="2717.89" style="stroke:#F0F0F0;stroke-width:9.72"/>
	<line x1="3950.10" y1="2717.89" x2="4014.90" y2="2717.89" style="stroke:#F0F0F0;stroke-width:9.72"/>
	<line x1="4047.30" y1="2717.89" x2="4112.10" y2="2717.89" style="stroke:#F0F0F0;stroke-width:9.72"/>
	<line x1="4144.50" y1="2717.89" x2="4209.30" y2="2717.89" style="stroke:#F0F0F0;stroke-width:9.72"/>
	<line x1="4241.70" y1="2717.89" x2="4306.50" y2="2717.89" style="stroke:#F0F0F0;stroke-width:9.72"/>
	<line x1="4338.90" y1="2717.89" x2="4403.70" y2="2717.89" style="stroke:#F0F0F0;stroke-width:9.72"/>
	<line x1="4436.10" y1="2717.89" x2="4500.90" y2="2717.89" style="stroke:#F0F0F0;stroke-width:9.72"/>
	<line x1="4533.30" y1="2717.89" x2="4598.10" y2="2717.89" style="stroke:#F0F0F0;stroke-width:9.72"/>
	<line x1="4630.50" y1="2717.89" x2="4695.30" y2="2717.89" style="stroke:#F0F0F0;stroke-width:9.72"/>
	<line x1="4727.70" y1="2717.89" x2="4792.50" y2="2717.89" style="stroke:#F0F0F0;stroke-width:9.72"/>
	<line x1="4824.90" y1="2717.89" x2="4889.70" y2="2717.89" style="stroke:#F0F0F0;stroke-width:9.72"/>
	<line x1="4922.10" y1="2717.89" x2="4986.90" y2="2717.89" style="stroke:#F0F0F0;stroke-width:9.72"/>
	<line x1="5019.30" y1="2717.89" x2="5084.10" y2="2717.89" style="stroke:#F0F0F0;stroke-width:9.72"/>
	<line x1="5116.50" y1="2717.89" x2="5181.30" y2="2717.89" style="stroke:#F0F0F0;stroke-width:9.72"/>
	<line x1="5213.70" y1="2717.89" x2="5278.50" y2="2717.89" style="stroke:#F0F0F0;stroke-width:9.72"/>
	<line x1="450.90" y1="2211.30" x2="515.70" y2="2211.30" style="stroke:#F0F0F0;stroke-width:9.72"/>
	<line x1="548.10" y1="2211.30" x2="612.90" y2="2211.30" style="stroke:#F0F0F0;stroke-width:9.72"/>
	<line x1="645.30" y1="2211.30" x2="710.10" y2="2211.30" style="stroke:#F0F0F0;stroke-width:9.72"/>
	<line x1="742.50" y1="2211.30" x2="807.30" y2="2211.30" style="stroke:#F0F0F0;stroke-width:9.72"/>
	<line x1="839.70" y1="2211.30" x2="904.50" y2="2211.30" style="stroke:#F0F0F0;stroke-width:9.72"/>
	<line x1="936.90" y1="2211.30" x2="1001.70" y2="2211.30" style="stroke:#F0F0F0;stroke-width:9.72"/>
	<line x1="1034.10" y1="2211.30" x2="1098.90" y2="2211.30" style="stroke:#F0F0F0;stroke-width:9.72"/>
	<line x1="1131.30" y1="2211.30" x2="1196.10" y2="2211.30" style="stroke:#F0F0F0;stroke-width:9.72"/>
	<line x1="1228.50" y1="2211.30" x2="1293.30" y2="2211.30" style="stroke:#F0F0F0;stroke-width:9.72"/>
	<line x1="1325.70" y1="2211.30" x2="1390.50" y2="2211.30" style="stroke:#F0F0F0;stroke-width:9.72"/>
	<line x1="1422.90" y1="2211.30" x2="1487.70" y2="2211.30" style="stroke:#F0F0F0;stroke-width:9.72"/>
	<line x1="1520.10" y1="2211.30" x2="1584.90" y2="2211.30" style="stroke:#F0F0F0;stroke-width:9.72"/>
	<line x1="1617.30" y1="2211.30" x2="1682.10" y2="2211.30" style="stroke:#F0F0F0;stroke-width:9.72"/>
	<line x1="1714.50" y1="2211.30" x2="1779.30" y2="2211.30" style="stroke:#F0F0F0;stroke-width:9.72"/>
	<line x1="1811.70" y1="2211.30" x2="1876.50" y2="2211.30" style="stroke:#F0F0F0;stroke-width:9.72"/>
	<line x1="1908.90" y1="2211.30" x2="1973.70" y2="2211.30" style="stroke:#F0F0F0;stroke-width:9.72"/>
	<line x1="2006.10" y1="2211.30" x2="2070.90" y2="2211.30" style="stroke:#F0F0F0;stroke-width:9.72"/>
	<line x1="2103.30" y1="2211.30" x2="2168.10" y2="2211.30" style="stroke:#F0F0F0;stroke-width:9.72"/>
	<line x1="2200.50" y1="2211.30" x2="2265.30" y2="2211.30" style="stroke:#F0F0F0;stroke-width:9.72"/>
	<line x1="2297.70" y1="2211.30" x2="2362.50" y2="2211.30" style="stroke:#F0F0F0;stroke-width:9.72"/>
	<line x1="2394.90" y1="2211.30" x2="2459.70" y2="2211.30" style="stroke:#F0F0F0;stroke-width:9.72"/>
	<line x1="2492.10" y1="2211.30" x2="2556.90" y2="2211.30" style="stroke:#F0F0F0;stroke-width:9.72"/>
	<line x1="2589.30" y1="2211.30" x2="2654.10" y2="2211.30" style="stroke:#F0F0F0;stroke-width:9.72"/>
	<line x1="2686.50" y1="2211.30" x2="2751.30" y2="2211.30" style="stroke:#F0F0F0;stroke-width:9.72"/>
	<line x1="2783.70" y1="2211.30" x2="2848.50" y2="2211.30" style="stroke:#F0F0F0;stroke-width:9.72"/>
	<line x1="2880.90" y1="2211.30" x2="2945.70" y2="2211.30" style="stroke:#F0F0F0;stroke-width:9.72"/>
	<line x1="2978.10" y1="2211.30" x2="3042.90" y2="2211.30" style="stroke:#F0F0F0;stroke-width:9.72"/>
	<line x1="3075.30" y1="2211.30" x2="3140.10" y2="2211.30" style="stroke:#F0F0F0;stroke-width:9.72"/>
	<line x1="3172.50" y1="2211.30" x2="3237.30" y2="2211.30" style="stroke:#F0F0F0;stroke-width:9.72"/>
	<line x1="3269.70" y1="2211.30" x2="3334.50" y2="2211.30" style="stroke:#F0F0F0;stroke-width:9.72"/>
	<line x1="3366.90" y1="2211.30" x2="3431.70" y2="2211.30" style="stroke:#F0F0F0;stroke-width:9.72"/>
	<line x1="3464.10" y1="2211.30" x2="3528.90" y2="2211.30" style="stroke:#F0F0F0;stroke-width:9.72"/>
	<line x1="3561.30" y1="2211.30" x2="3626.10" y2="2211.30" style="stroke:#F0F0F0;stroke-width:9.72"/>
	<line x1="3658.50" y1="2211.30" x2="3723.30" y2="2211.30" style="stroke:#F0F0F0;stroke-width:9.72"/>
	<line x1="3755.70" y1="2211.30" x2="3820.50" y2="2211.30" style="stroke:#F0F0F0;stroke-width:9.72"/>
	<line x1="3852.90" y1="2211.30" x2="3917.70" y2="2211.30" style="stroke:#F0F0F0;stroke-width:9.72"/>
	<line x1="3950.10" y1="2211.30" x2="4014.90" y2="2211.30" style="stroke:#F0F0F0;stroke-width:9.72"/>
	<line x1="4047.30" y1="2211.30" x2="4112.10" y2="2211.30" style="stroke:#F0F0F0;stroke-width:9.72"/>
	<line x1="4144.50" y1="2211.30" x2="4209.30" y2="2211.30" style="stroke:#F0F0F0;stroke-width:9.72"/>
	<line x1="4241.70" y1="2211.30" x2="4306.50" y2="2211.30" style="stroke:#F0F0F0;stroke-width:9.72"/>
	<line x1="4338.90" y1="2211.30" x2="4403.70" y2="2211.30" style="stroke:#F0F0F0;stroke-width:9.72"/>
	<line x1="4436.10" y1="2211.30" x2="4500.90" y2="2211.30" style="stroke:#F0F0F0;stroke-width:9.72"/>
	<line x1="4533.30" y1="2211.30" x2="4598.10" y2="2211.30" style="stroke:#F0F0F0;stroke-width:9.72"/>
	<line x1="4630.50" y1="2211.30" x2="4695.30" y2="2211.30" style="stroke:#F0F0F0;stroke-width:9.72"/>
	<line x1="4727.70" y1="2211.30" x2="4792.50" y2="2211.30" style="stroke:#F0F0F0;stroke-width:9.72"/>
	<line x1="4824.90" y1="2211.30" x2="4889.70" y2="2211.30" style="stroke:#F0F0F0;stroke-width:9.72"/>
	<line x1="4922.10" y1="2211.30" x2="4986.90" y2="2211.30" style="stroke:#F0F0F0;stroke-width:9.72"/>
	<line x1="5019.30" y1="2211.30" x2="5084.10" y2="2211.30" style="stroke:#F0F0F0;stroke-width:9.72"/>
	<line x1="5116.50" y1="2211.30" x2="5181.30" y2="2211.30" style="stroke:#F0F0F0;stroke-width:9.72"/>
	<line x1="5213.70" y1="2211.30" x2="5278.50" y2="2211.30" style="stroke:#F0F0F0;stroke-width:9.72"/>
	<line x1="450.90" y1="1704.54" x2="515.70" y2="1704.54" style="stroke:#F0F0F0;stroke-width:9.72"/>
	<line x1="548.10" y1="1704.54" x2="612.90" y2="1704.54" style="stroke:#F0F0F0;stroke-width:9.72"/>
	<line x1="645.30" y1="1704.54" x2="710.10" y2="1704.54" style="stroke:#F0F0F0;stroke-width:9.72"/>
	<line x1="742.50" y1="1704.54" x2="807.30" y2="1704.54" style="stroke:#F0F0F0;stroke-width:9.72"/>
	<line x1="839.70" y1="1704.54" x2="904.50" y2="1704.54" style="stroke:#F0F0F0;stroke-width:9.72"/>
	<line x1="936.90" y1="1704.54" x2="1001.70" y2="1704.54" style="stroke:#F0F0F0;stroke-width:9.72"/>
	<line x1="1034.10" y1="1704.54" x2="1098.90" y2="1704.54" style="stroke:#F0F0F0;stroke-width:9.72"/>
	<line x1="1131.30" y1="1704.54" x2="1196.10" y2="1704.54" style="stroke:#F0F0F0;stroke-width:9.72"/>
	<line x1="1228.50" y1="1704.54" x2="1293.30" y2="1704.54" style="stroke:#F0F0F0;stroke-width:9.72"/>
	<line x1="1325.70" y1="1704.54" x2="1390.50" y2="1704.54" style="stroke:#F0F0F0;stroke-width:9.72"/>
	<line x1="1422.90" y1="1704.54" x2="1487.70" y2="1704.54" style="stroke:#F0F0F0;stroke-width:9.72"/>
	<line x1="1520.10" y1="1704.54" x2="1584.90" y2="1704.54" style="stroke:#F0F0F0;stroke-width:9.72"/>
	<line x1="1617.30" y1="1704.54" x2="1682.10" y2="1704.54" style="stroke:#F0F0F0;stroke-width:9.72"/>
	<line x1="1714.50" y1="1704.54" x2="1779.30" y2="1704.54" style="stroke:#F0F0F0;stroke-width:9.72"/>
	<line x1="1811.70" y1="1704.54" x2="1876.50" y2="1704.54" style="stroke:#F0F0F0;stroke-width:9.72"/>
	<line x1="1908.90" y1="1704.54" x2="1973.70" y2="1704.54" style="stroke:#F0F0F0;stroke-width:9.72"/>
	<line x1="2006.10" y1="1704.54" x2="2070.90" y2="1704.54" style="stroke:#F0F0F0;stroke-width:9.72"/>
	<line x1="2103.30" y1="1704.54" x2="2168.10" y2="1704.54" style="stroke:#F0F0F0;stroke-width:9.72"/>
	<line x1="2200.50" y1="1704.54" x2="2265.30" y2="1704.54" style="stroke:#F0F0F0;stroke-width:9.72"/>
	<line x1="2297.70" y1="1704.54" x2="2362.50" y2="1704.54" style="stroke:#F0F0F0;stroke-width:9.72"/>
	<line x1="2394.90" y1="1704.54" x2="2459.70" y2="1704.54" style="stroke:#F0F0F0;stroke-width:9.72"/>
	<line x1="2492.10" y1="1704.54" x2="2556.90" y2="1704.54" style="stroke:#F0F0F0;stroke-width:9.72"/>
	<line x1="2589.30" y1="1704.54" x2="2654.10" y2="1704.54" style="stroke:#F0F0F0;stroke-width:9.72"/>
	<line x1="2686.50" y1="1704.54" x2="2751.30" y2="1704.54" style="stroke:#F0F0F0;stroke-width:9.72"/>
	<line x1="2783.70" y1="1704.54" x2="2848.50" y2="1704.54" style="stroke:#F0F0F0;stroke-width:9.72"/>
	<line x1="2880.90" y1="1704.54" x2="2945.70" y2="1704.54" style="stroke:#F0F0F0;stroke-width:9.72"/>
	<line x1="2978.10" y1="1704.54" x2="3042.90" y2="1704.54" style="stroke:#F0F0F0;stroke-width:9.72"/>
	<line x1="3075.30" y1="1704.54" x2="3140.10" y2="1704.54" style="stroke:#F0F0F0;stroke-width:9.72"/>
	<line x1="3172.50" y1="1704.54" x2="3237.30" y2="1704.54" style="stroke:#F0F0F0;stroke-width:9.72"/>
	<line x1="3269.70" y1="1704.54" x2="3334.50" y2="1704.54" style="stroke:#F0F0F0;stroke-width:9.72"/>
	<line x1="3366.90" y1="1704.54" x2="3431.70" y2="1704.54" style="stroke:#F0F0F0;stroke-width:9.72"/>
	<line x1="3464.10" y1="1704.54" x2="3528.90" y2="1704.54" style="stroke:#F0F0F0;stroke-width:9.72"/>
	<line x1="3561.30" y1="1704.54" x2="3626.10" y2="1704.54" style="stroke:#F0F0F0;stroke-width:9.72"/>
	<line x1="3658.50" y1="1704.54" x2="3723.30" y2="1704.54" style="stroke:#F0F0F0;stroke-width:9.72"/>
	<line x1="3755.70" y1="1704.54" x2="3820.50" y2="1704.54" style="stroke:#F0F0F0;stroke-width:9.72"/>
	<line x1="3852.90" y1="1704.54" x2="3917.70" y2="1704.54" style="stroke:#F0F0F0;stroke-width:9.72"/>
	<line x1="3950.10" y1="1704.54" x2="4014.90" y2="1704.54" style="stroke:#F0F0F0;stroke-width:9.72"/>
	<line x1="4047.30" y1="1704.54" x2="4112.10" y2="1704.54" style="stroke:#F0F0F0;stroke-width:9.72"/>
	<line x1="4144.50" y1="1704.54" x2="4209.30" y2="1704.54" style="stroke:#F0F0F0;stroke-width:9.72"/>
	<line x1="4241.70" y1="1704.54" x2="4306.50" y2="1704.54" style="stroke:#F0F0F0;stroke-width:9.72"/>
	<line x1="4338.90" y1="1704.54" x2="4403.70" y2="1704.54" style="stroke:#F0F0F0;stroke-width:9.72"/>
	<line x1="4436.10" y1="1704.54" x2="4500.90" y2="1704.54" style="stroke:#F0F0F0;stroke-width:9.72"/>
	<line x1="4533.30" y1="1704.54" x2="4598.10" y2="1704.54" style="stroke:#F0F0F0;stroke-width:9.72"/>
	<line x1="4630.50" y1="1704.54" x2="4695.30" y2="1704.54" style="stroke:#F0F0F0;stroke-width:9.72"/>
	<line x1="4727.70" y1="1704.54" x2="4792.50" y2="1704.54" style="stroke:#F0F0F0;stroke-width:9.72"/>
	<line x1="4824.90" y1="1704.54" x2="4889.70" y2="1704.54" style="stroke:#F0F0F0;stroke-width:9.72"/>
	<line x1="4922.10" y1="1704.54" x2="4986.90" y2="1704.54" style="stroke:#F0F0F0;stroke-width:9.72"/>
	<line x1="5019.30" y1="1704.54" x2="5084.10" y2="1704.54" style="stroke:#F0F0F0;stroke-width:9.72"/>
	<line x1="5116.50" y1="1704.54" x2="5181.30" y2="1704.54" style="stroke:#F0F0F0;stroke-width:9.72"/>
	<line x1="5213.70" y1="1704.54" x2="5278.50" y2="1704.54" style="stroke:#F0F0F0;stroke-width:9.72"/>
	<line x1="450.90" y1="1197.96" x2="515.70" y2="1197.96" style="stroke:#F0F0F0;stroke-width:9.72"/>
	<line x1="548.10" y1="1197.96" x2="612.90" y2="1197.96" style="stroke:#F0F0F0;stroke-width:9.72"/>
	<line x1="645.30" y1="1197.96" x2="710.10" y2="1197.96" style="stroke:#F0F0F0;stroke-width:9.72"/>
	<line x1="742.50" y1="1197.96" x2="807.30" y2="1197.96" style="stroke:#F0F0F0;stroke-width:9.72"/>
	<line x1="839.70" y1="1197.96" x2="904.50" y2="1197.96" style="stroke:#F0F0F0;stroke-width:9.72"/>
	<line x1="936.90" y1="1197.96" x2="1001.70" y2="1197.96" style="stroke:#F0F0F0;stroke-width:9.72"/>
	<line x1="1034.10" y1="1197.96" x2="1098.90" y2="1197.96" style="stroke:#F0F0F0;stroke-width:9.72"/>
	<line x1="1131.30" y1="1197.96" x2="1196.10" y2="1197.96" style="stroke:#F0F0F0;stroke-width:9.72"/>
	<line x1="1228.50" y1="1197.96" x2="1293.30" y2="1197.96" style="stroke:#F0F0F0;stroke-width:9.72"/>
	<line x1="1325.70" y1="1197.96" x2="1390.50" y2="1197.96" style="stroke:#F0F0F0;stroke-width:9.72"/>
	<line x1="1422.90" y1="1197.96" x2="1487.70" y2="1197.96" style="stroke:#F0F0F0;stroke-width:9.72"/>
	<line x1="1520.10" y1="1197.96" x2="1584.90" y2="1197.96" style="stroke:#F0F0F0;stroke-width:9.72"/>
	<line x1="1617.30" y1="1197.96" x2="1682.10" y2="1197.96" style="stroke:#F0F0F0;stroke-width:9.72"/>
	<line x1="1714.50" y1="1197.96" x2="1779.30" y2="1197.96" style="stroke:#F0F0F0;stroke-width:9.72"/>
	<line x1="1811.70" y1="1197.96" x2="1876.50" y2="1197.96" style="stroke:#F0F0F0;stroke-width:9.72"/>
	<line x1="1908.90" y1="1197.96" x2="1973.70" y2="1197.96" style="stroke:#F0F0F0;stroke-width:9.72"/>
	<line x1="2006.10" y1="1197.96" x2="2070.90" y2="1197.96" style="stroke:#F0F0F0;stroke-width:9.72"/>
	<line x1="2103.30" y1="1197.96" x2="2168.10" y2="1197.96" style="stroke:#F0F0F0;stroke-width:9.72"/>
	<line x1="2200.50" y1="1197.96" x2="2265.30" y2="1197.96" style="stroke:#F0F0F0;stroke-width:9.72"/>
	<line x1="2297.70" y1="1197.96" x2="2362.50" y2="1197.96" style="stroke:#F0F0F0;stroke-width:9.72"/>
	<line x1="2394.90" y1="1197.96" x2="2459.70" y2="1197.96" style="stroke:#F0F0F0;stroke-width:9.72"/>
	<line x1="2492.10" y1="1197.96" x2="2556.90" y2="1197.96" style="stroke:#F0F0F0;stroke-width:9.72"/>
	<line x1="2589.30" y1="1197.96" x2="2654.10" y2="1197.96" style="stroke:#F0F0F0;stroke-width:9.72"/>
	<line x1="2686.50" y1="1197.96" x2="2751.30" y2="1197.96" style="stroke:#F0F0F0;stroke-width:9.72"/>
	<line x1="2783.70" y1="1197.96" x2="2848.50" y2="1197.96" style="stroke:#F0F0F0;stroke-width:9.72"/>
	<line x1="2880.90" y1="1197.96" x2="2945.70" y2="1197.96" style="stroke:#F0F0F0;stroke-width:9.72"/>
	<line x1="2978.10" y1="1197.96" x2="3042.90" y2="1197.96" style="stroke:#F0F0F0;stroke-width:9.72"/>
	<line x1="3075.30" y1="1197.96" x2="3140.10" y2="1197.96" style="stroke:#F0F0F0;stroke-width:9.72"/>
	<line x1="3172.50" y1="1197.96" x2="3237.30" y2="1197.96" style="stroke:#F0F0F0;stroke-width:9.72"/>
	<line x1="3269.70" y1="1197.96" x2="3334.50" y2="1197.96" style="stroke:#F0F0F0;stroke-width:9.72"/>
	<line x1="3366.90" y1="1197.96" x2="3431.70" y2="1197.96" style="stroke:#F0F0F0;stroke-width:9.72"/>
	<line x1="3464.10" y1="1197.96" x2="3528.90" y2="1197.96" style="stroke:#F0F0F0;stroke-width:9.72"/>
	<line x1="3561.30" y1="1197.96" x2="3626.10" y2="1197.96" style="stroke:#F0F0F0;stroke-width:9.72"/>
	<line x1="3658.50" y1="1197.96" x2="3723.30" y2="1197.96" style="stroke:#F0F0F0;stroke-width:9.72"/>
	<line x1="3755.70" y1="1197.96" x2="3820.50" y2="1197.96" style="stroke:#F0F0F0;stroke-width:9.72"/>
	<line x1="3852.90" y1="1197.96" x2="3917.70" y2="1197.96" style="stroke:#F0F0F0;stroke-width:9.72"/>
	<line x1="3950.10" y1="1197.96" x2="4014.90" y2="1197.96" style="stroke:#F0F0F0;stroke-width:9.72"/>
	<line x1="4047.30" y1="1197.96" x2="4112.10" y2="1197.96" style="stroke:#F0F0F0;stroke-width:9.72"/>
	<line x1="4144.50" y1="1197.96" x2="4209.30" y2="1197.96" style="stroke:#F0F0F0;stroke-width:9.72"/>
	<line x1="4241.70" y1="1197.96" x2="4306.50" y2="1197.96" style="stroke:#F0F0F0;stroke-width:9.72"/>
	<line x1="4338.90" y1="1197.96" x2="4403.70" y2="1197.96" style="stroke:#F0F0F0;stroke-width:9.72"/>
	<line x1="4436.10" y1="1197.96" x2="4500.90" y2="1197.96" style="stroke:#F0F0F0;stroke-width:9.72"/>
	<line x1="4533.30" y1="1197.96" x2="4598.10" y2="1197.96" style="stroke:#F0F0F0;stroke-width:9.72"/>
	<line x1="4630.50" y1="1197.96" x2="4695.30" y2="1197.96" style="stroke:#F0F0F0;stroke-width:9.72"/>
	<line x1="4727.70" y1="1197.96" x2="4792.50" y2="1197.96" style="stroke:#F0F0F0;stroke-width:9.72"/>
	<line x1="4824.90" y1="1197.96" x2="4889.70" y2="1197.96" style="stroke:#F0F0F0;stroke-width:9.72"/>
	<line x1="4922.10" y1="1197.96" x2="4986.90" y2="1197.96" style="stroke:#F0F0F0;stroke-width:9.72"/>
	<line x1="5019.30" y1="1197.96" x2="5084.10" y2="1197.96" style="stroke:#F0F0F0;stroke-width:9.72"/>
	<line x1="5116.50" y1="1197.96" x2="5181.30" y2="1197.96" style="stroke:#F0F0F0;stroke-width:9.72"/>
	<line x1="5213.70" y1="1197.96" x2="5278.50" y2="1197.96" style="stroke:#F0F0F0;stroke-width:9.72"/>
	<line x1="450.90" y1="691.37" x2="515.70" y2="691.37" style="stroke:#F0F0F0;stroke-width:9.72"/>
	<line x1="548.10" y1="691.37" x2="612.90" y2="691.37" style="stroke:#F0F0F0;stroke-width:9.72"/>
	<line x1="645.30" y1="691.37" x2="710.10" y2="691.37" style="stroke:#F0F0F0;stroke-width:9.72"/>
	<line x1="742.50" y1="691.37" x2="807.30" y2="691.37" style="stroke:#F0F0F0;stroke-width:9.72"/>
	<line x1="839.70" y1="691.37" x2="904.50" y2="691.37" style="stroke:#F0F0F0;stroke-width:9.72"/>
	<line x1="936.90" y1="691.37" x2="1001.70" y2="691.37" style="stroke:#F0F0F0;stroke-width:9.72"/>
	<line x1="1034.10" y1="691.37" x2="1098.90" y2="691.37" style="stroke:#F0F0F0;stroke-width:9.72"/>
	<line x1="1131.30" y1="691.37" x2="1196.10" y2="691.37" style="stroke:#F0F0F0;stroke-width:9.72"/>
	<line x1="1228.50" y1="691.37" x2="1293.30" y2="691.37" style="stroke:#F0F0F0;stroke-width:9.72"/>
	<line x1="1325.70" y1="691.37" x2="1390.50" y2="691.37" style="stroke:#F0F0F0;stroke-width:9.72"/>
	<line x1="1422.90" y1="691.37" x2="1487.70" y2="691.37" style="stroke:#F0F0F0;stroke-width:9.72"/>
	<line x1="1520.10" y1="691.37" x2="1584.90" y2="691.37" style="stroke:#F0F0F0;stroke-width:9.72"/>
	<line x1="1617.30" y1="691.37" x2="1682.10" y2="691.37" style="stroke:#F0F0F0;stroke-width:9.72"/>
	<line x1="1714.50" y1="691.37" x2="1779.30" y2="691.37" style="stroke:#F0F0F0;stroke-width:9.72"/>
	<line x1="1811.70" y1="691.37" x2="1876.50" y2="691.37" style="stroke:#F0F0F0;stroke-width:9.72"/>
	<line x1="1908.90" y1="691.37" x2="1973.70" y2="691.37" style="stroke:#F0F0F0;stroke-width:9.72"/>
	<line x1="2006.10" y1="691.37" x2="2070.90" y2="691.37" style="stroke:#F0F0F0;stroke-width:9.72"/>
	<line x1="2103.30" y1="691.37" x2="2168.10" y2="691.37" style="stroke:#F0F0F0;stroke-width:9.72"/>
	<line x1="2200.50" y1="691.37" x2="2265.30" y2="691.37" style="stroke:#F0F0F0;stroke-width:9.72"/>
	<line x1="2297.70" y1="691.37" x2="2362.50" y2="691.37" style="stroke:#F0F0F0;stroke-width:9.72"/>
	<line x1="2394.90" y1="691.37" x2="2459.70" y2="691.37" style="stroke:#F0F0F0;stroke-width:9.72"/>
	<line x1="2492.10" y1="691.37" x2="2556.90" y2="691.37" style="stroke:#F0F0F0;stroke-width:9.72"/>
	<line x1="2589.30" y1="691.37" x2="2654.10" y2="691.37" style="stroke:#F0F0F0;stroke-width:9.72"/>
	<line x1="2686.50" y1="691.37" x2="2751.30" y2="691.37" style="stroke:#F0F0F0;stroke-width:9.72"/>
	<line x1="2783.70" y1="691.37" x2="2848.50" y2="691.37" style="stroke:#F0F0F0;stroke-width:9.72"/>
	<line x1="2880.90" y1="691.37" x2="2945.70" y2="691.37" style="stroke:#F0F0F0;stroke-width:9.72"/>
	<line x1="2978.10" y1="691.37" x2="3042.90" y2="691.37" style="stroke:#F0F0F0;stroke-width:9.72"/>
	<line x1="3075.30" y1="691.37" x2="3140.10" y2="691.37" style="stroke:#F0F0F0;stroke-width:9.72"/>
	<line x1="3172.50" y1="691.37" x2="3237.30" y2="691.37" style="stroke:#F0F0F0;stroke-width:9.72"/>
	<line x1="3269.70" y1="691.37" x2="3334.50" y2="691.37" style="stroke:#F0F0F0;stroke-width:9.72"/>
	<line x1="3366.90" y1="691.37" x2="3431.70" y2="691.37" style="stroke:#F0F0F0;stroke-width:9.72"/>
	<line x1="3464.10" y1="691.37" x2="3528.90" y2="691.37" style="stroke:#F0F0F0;stroke-width:9.72"/>
	<line x1="3561.30" y1="691.37" x2="3626.10" y2="691.37" style="stroke:#F0F0F0;stroke-width:9.72"/>
	<line x1="3658.50" y1="691.37" x2="3723.30" y2="691.37" style="stroke:#F0F0F0;stroke-width:9.72"/>
	<line x1="3755.70" y1="691.37" x2="3820.50" y2="691.37" style="stroke:#F0F0F0;stroke-width:9.72"/>
	<line x1="3852.90" y1="691.37" x2="3917.70" y2="691.37" style="stroke:#F0F0F0;stroke-width:9.72"/>
	<line x1="3950.10" y1="691.37" x2="4014.90" y2="691.37" style="stroke:#F0F0F0;stroke-width:9.72"/>
	<line x1="4047.30" y1="691.37" x2="4112.10" y2="691.37" style="stroke:#F0F0F0;stroke-width:9.72"/>
	<line x1="4144.50" y1="691.37" x2="4209.30" y2="691.37" style="stroke:#F0F0F0;stroke-width:9.72"/>
	<line x1="4241.70" y1="691.37" x2="4306.50" y2="691.37" style="stroke:#F0F0F0;stroke-width:9.72"/>
	<line x1="4338.90" y1="691.37" x2="4403.70" y2="691.37" style="stroke:#F0F0F0;stroke-width:9.72"/>
	<line x1="4436.10" y1="691.37" x2="4500.90" y2="691.37" style="stroke:#F0F0F0;stroke-width:9.72"/>
	<line x1="4533.30" y1="691.37" x2="4598.10" y2="691.37" style="stroke:#F0F0F0;stroke-width:9.72"/>
	<line x1="4630.50" y1="691.37" x2="4695.30" y2="691.37" style="stroke:#F0F0F0;stroke-width:9.72"/>
	<line x1="4727.70" y1="691.37" x2="4792.50" y2="691.37" style="stroke:#F0F0F0;stroke-width:9.72"/>
	<line x1="4824.90" y1="691.37" x2="4889.70" y2="691.37" style="stroke:#F0F0F0;stroke-width:9.72"/>
	<line x1="4922.10" y1="691.37" x2="4986.90" y2="691.37" style="stroke:#F0F0F0;stroke-width:9.72"/>
	<line x1="5019.30" y1="691.37" x2="5084.10" y2="691.37" style="stroke:#F0F0F0;stroke-width:9.72"/>
	<line x1="5116.50" y1="691.37" x2="5181.30" y2="691.37" style="stroke:#F0F0F0;stroke-width:9.72"/>
	<line x1="5213.70" y1="691.37" x2="5278.50" y2="691.37" style="stroke:#F0F0F0;stroke-width:9.72"/>
	<line x1="450.90" y1="184.61" x2="515.70" y2="184.61" style="stroke:#F0F0F0;stroke-width:9.72"/>
	<line x1="548.10" y1="184.61" x2="612.90" y2="184.61" style="stroke:#F0F0F0;stroke-width:9.72"/>
	<line x1="645.30" y1="184.61" x2="710.10" y2="184.61" style="stroke:#F0F0F0;stroke-width:9.72"/>
	<line x1="742.50" y1="184.61" x2="807.30" y2="184.61" style="stroke:#F0F0F0;stroke-width:9.72"/>
	<line x1="839.70" y1="184.61" x2="904.50" y2="184.61" style="stroke:#F0F0F0;stroke-width:9.72"/>
	<line x1="936.90" y1="184.61" x2="1001.70" y2="184.61" style="stroke:#F0F0F0;stroke-width:9.72"/>
	<line x1="1034.10" y1="184.61" x2="1098.90" y2="184.61" style="stroke:#F0F0F0;stroke-width:9.72"/>
	<line x1="1131.30" y1="184.61" x2="1196.10" y2="184.61" style="stroke:#F0F0F0;stroke-width:9.72"/>
	<line x1="1228.50" y1="184.61" x2="1293.30" y2="184.61" style="stroke:#F0F0F0;stroke-width:9.72"/>
	<line x1="1325.70" y1="184.61" x2="1390.50" y2="184.61" style="stroke:#F0F0F0;stroke-width:9.72"/>
	<line x1="1422.90" y1="184.61" x2="1487.70" y2="184.61" style="stroke:#F0F0F0;stroke-width:9.72"/>
	<line x1="1520.10" y1="184.61" x2="1584.90" y2="184.61" style="stroke:#F0F0F0;stroke-width:9.72"/>
	<line x1="1617.30" y1="184.61" x2="1682.10" y2="184.61" style="stroke:#F0F0F0;stroke-width:9.72"/>
	<line x1="1714.50" y1="184.61" x2="1779.30" y2="184.61" style="stroke:#F0F0F0;stroke-width:9.72"/>
	<line x1="1811.70" y1="184.61" x2="1876.50" y2="184.61" style="stroke:#F0F0F0;stroke-width:9.72"/>
	<line x1="1908.90" y1="184.61" x2="1973.70" y2="184.61" style="stroke:#F0F0F0;stroke-width:9.72"/>
	<line x1="2006.10" y1="184.61" x2="2070.90" y2="184.61" style="stroke:#F0F0F0;stroke-width:9.72"/>
	<line x1="2103.30" y1="184.61" x2="2168.10" y2="184.61" style="stroke:#F0F0F0;stroke-width:9.72"/>
	<line x1="2200.50" y1="184.61" x2="2265.30" y2="184.61" style="stroke:#F0F0F0;stroke-width:9.72"/>
	<line x1="2297.70" y1="184.61" x2="2362.50" y2="184.61" style="stroke:#F0F0F0;stroke-width:9.72"/>
	<line x1="2394.90" y1="184.61" x2="2459.70" y2="184.61" style="stroke:#F0F0F0;stroke-width:9.72"/>
	<line x1="2492.10" y1="184.61" x2="2556.90" y2="184.61" style="stroke:#F0F0F0;stroke-width:9.72"/>
	<line x1="2589.30" y1="184.61" x2="2654.10" y2="184.61" style="stroke:#F0F0F0;stroke-width:9.72"/>
	<line x1="2686.50" y1="184.61" x2="2751.30" y2="184.61" style="stroke:#F0F0F0;stroke-width:9.72"/>
	<line x1="2783.70" y1="184.61" x2="2848.50" y2="184.61" style="stroke:#F0F0F0;stroke-width:9.72"/>
	<line x1="2880.90" y1="184.61" x2="2945.70" y2="184.61" style="stroke:#F0F0F0;stroke-width:9.72"/>
	<line x1="2978.10" y1="184.61" x2="3042.90" y2="184.61" style="stroke:#F0F0F0;stroke-width:9.72"/>
	<line x1="3075.30" y1="184.61" x2="3140.10" y2="184.61" style="stroke:#F0F0F0;stroke-width:9.72"/>
	<line x1="3172.50" y1="184.61" x2="3237.30" y2="184.61" style="stroke:#F0F0F0;stroke-width:9.72"/>
	<line x1="3269.70" y1="184.61" x2="3334.50" y2="184.61" style="stroke:#F0F0F0;stroke-width:9.72"/>
	<line x1="3366.90" y1="184.61" x2="3431.70" y2="184.61" style="stroke:#F0F0F0;stroke-width:9.72"/>
	<line x1="3464.10" y1="184.61" x2="3528.90" y2="184.61" style="stroke:#F0F0F0;stroke-width:9.72"/>
	<line x1="3561.30" y1="184.61" x2="3626.10" y2="184.61" style="stroke:#F0F0F0;stroke-width:9.72"/>
	<line x1="3658.50" y1="184.61" x2="3723.30" y2="184.61" style="stroke:#F0F0F0;stroke-width:9.72"/>
	<line x1="3755.70" y1="184.61" x2="3820.50" y2="184.61" style="stroke:#F0F0F0;stroke-width:9.72"/>
	<line x1="3852.90" y1="184.61" x2="3917.70" y2="184.61" style="stroke:#F0F0F0;stroke-width:9.72"/>
	<line x1="3950.10" y1="184.61" x2="4014.90" y2="184.61" style="stroke:#F0F0F0;stroke-width:9.72"/>
	<line x1="4047.30" y1="184.61" x2="4112.10" y2="184.61" style="stroke:#F0F0F0;stroke-width:9.72"/>
	<line x1="4144.50" y1="184.61" x2="4209.30" y2="184.61" style="stroke:#F0F0F0;stroke-width:9.72"/>
	<line x1="4241.70" y1="184.61" x2="4306.50" y2="184.61" style="stroke:#F0F0F0;stroke-width:9.72"/>
	<line x1="4338.90" y1="184.61" x2="4403.70" y2="184.61" style="stroke:#F0F0F0;stroke-width:9.72"/>
	<line x1="4436.10" y1="184.61" x2="4500.90" y2="184.61" style="stroke:#F0F0F0;stroke-width:9.72"/>
	<line x1="4533.30" y1="184.61" x2="4598.10" y2="184.61" style="stroke:#F0F0F0;stroke-width:9.72"/>
	<line x1="4630.50" y1="184.61" x2="4695.30" y2="184.61" style="stroke:#F0F0F0;stroke-width:9.72"/>
	<line x1="4727.70" y1="184.61" x2="4792.50" y2="184.61" style="stroke:#F0F0F0;stroke-width:9.72"/>
	<line x1="4824.90" y1="184.61" x2="4889.70" y2="184.61" style="stroke:#F0F0F0;stroke-width:9.72"/>
	<line x1="4922.10" y1="184.61" x2="4986.90" y2="184.61" style="stroke:#F0F0F0;stroke-width:9.72"/>
	<line x1="5019.30" y1="184.61" x2="5084.10" y2="184.61" style="stroke:#F0F0F0;stroke-width:9.72"/>
	<line x1="5116.50" y1="184.61" x2="5181.30" y2="184.61" style="stroke:#F0F0F0;stroke-width:9.72"/>
	<line x1="5213.70" y1="184.61" x2="5278.50" y2="184.61" style="stroke:#F0F0F0;stroke-width:9.72"/>
	<line x1="1743.02" y1="2789.10" x2="1743.02" y2="113.40" style="stroke:#909090;stroke-width:9.72"/>
	<line x1="2760.58" y1="2789.10" x2="2760.58" y2="2724.30" style="stroke:#909090;stroke-width:9.72"/>
	<line x1="2760.58" y1="2691.90" x2="2760.58" y2="2627.10" style="stroke:#909090;stroke-width:9.72"/>
	<line x1="2760.58" y1="2594.70" x2="2760.58" y2="2529.90" style="stroke:#909090;stroke-width:9.72"/>
	<line x1="2760.58" y1="2497.50" x2="2760.58" y2="2432.70" style="stroke:#909090;stroke-width:9.72"/>
	<line x1="2760.58" y1="2400.30" x2="2760.58" y2="2335.50" style="stroke:#909090;stroke-width:9.72"/>
	<line x1="2760.58" y1="2303.10" x2="2760.58" y2="2238.30" style="stroke:#909090;stroke-width:9.72"/>
	<line x1="2760.58" y1="2205.90" x2="2760.58" y2="2141.10" style="stroke:#909090;stroke-width:9.72"/>
	<line x1="2760.58" y1="2108.70" x2="2760.58" y2="2043.90" style="stroke:#909090;stroke-width:9.72"/>
	<line x1="2760.58" y1="2011.50" x2="2760.58" y2="1946.70" style="stroke:#909090;stroke-width:9.72"/>
	<line x1="2760.58" y1="1914.30" x2="2760.58" y2="1849.50" style="stroke:#909090;stroke-width:9.72"/>
	<line x1="2760.58" y1="1817.10" x2="2760.58" y2="1752.30" style="stroke:#909090;stroke-width:9.72"/>
	<line x1="2760.58" y1="1719.90" x2="2760.58" y2="1655.10" style="stroke:#909090;stroke-width:9.72"/>
	<line x1="2760.58" y1="1622.70" x2="2760.58" y2="1557.90" style="stroke:#909090;stroke-width:9.72"/>
	<line x1="2760.58" y1="1525.50" x2="2760.58" y2="1460.70" style="stroke:#909090;stroke-width:9.72"/>
	<line x1="2760.58" y1="1428.30" x2="2760.58" y2="1363.50" style="stroke:#909090;stroke-width:9.72"/>
	<line x1="2760.58" y1="1331.10" x2="2760.58" y2="1266.30" style="stroke:#909090;stroke-width:9.72"/>
	<line x1="2760.58" y1="1233.90" x2="2760.58" y2="1169.10" style="stroke:#909090;stroke-width:9.72"/>
	<line x1="2760.58" y1="1136.70" x2="2760.58" y2="1071.90" style="stroke:#909090;stroke-width:9.72"/>
	<line x1="2760.58" y1="1039.50" x2="2760.58" y2="974.70" style="stroke:#909090;stroke-width:9.72"/>
	<line x1="2760.58" y1="942.30" x2="2760.58" y2="877.50" style="stroke:#909090;stroke-width:9.72"/>
	<line x1="2760.58" y1="845.10" x2="2760.58" y2="780.30" style="stroke:#909090;stroke-width:9.72"/>
	<line x1="2760.58" y1="747.90" x2="2760.58" y2="683.10" style="stroke:#909090;stroke-width:9.72"/>
	<line x1="2760.58" y1="650.70" x2="2760.58" y2="585.90" style="stroke:#909090;stroke-width:9.72"/>
	<line x1="2760.58" y1="553.50" x2="2760.58" y2="488.70" style="stroke:#909090;stroke-width:9.72"/>
	<line x1="2760.58" y1="456.30" x2="2760.58" y2="391.50" style="stroke:#909090;stroke-width:9.72"/>
	<line x1="2760.58" y1="359.10" x2="2760.58" y2="294.30" style="stroke:#909090;stroke-width:9.72"/>
	<line x1="2760.58" y1="261.90" x2="2760.58" y2="197.10" style="stroke:#909090;stroke-width:9.72"/>
	<line x1="2760.58" y1="164.70" x2="2760.58" y2="113.40" style="stroke:#909090;stroke-width:9.72"/>
	<line x1="450.90" y1="2717.89" x2="5286.60" y2="2717.89" style="stroke:#C10534;stroke-width:9.72"/>
	<path d=" M1047.09 2714.68 L1052.83 2714.68 L1052.83 2711.48 L1055.03 2711.48 L1055.03 2709.79 L1056.88 2709.79 L1056.88 2708.10 L1058.06 2708.10 L1058.06 2706.58 L1058.06 2706.58 L1058.06 2701.52 L1060.76 2701.52 L1060.76 2698.31 L1062.79 2698.31 L1062.79 2695.11 L1070.38 2695.11 L1070.38 2688.53 L1071.22 2688.53 L1071.22 2683.63 L1076.63 2683.63 L1076.63 2680.43 L1077.81 2680.43 L1077.81 2677.05 L1080.84 2677.05 L1080.84 2673.84 L1085.23 2673.84 L1085.23 2670.47 L1087.26 2670.47 L1087.26 2667.26 L1089.28 2667.26 L1089.28 2664.06 L1095.53 2664.06 L1095.53 2662.37 L1098.90 2662.37 L1098.90 2654.27 L1099.91 2654.27 L1099.91 2652.58 L1100.93 2652.58 L1100.93 2650.89 L1100.93 2650.89 L1100.93 2646.00 L1102.95 2646.00 L1102.95 2642.79 L1104.47 2642.79 L1104.47 2641.11 L1109.36 2641.11 L1109.36 2639.42 L1115.27 2639.42 L1115.27 2637.90 L1118.64 2637.90 L1118.64 2636.21 L1118.81 2636.21 L1118.81 2628.11 L1119.66 2628.11 L1119.66 2621.53 L1122.53 2621.53 L1122.53 2619.84 L1123.54 2619.84 L1123.54 2616.64 L1124.21 2616.64 L1124.21 2610.06 L1124.21 2610.06 L1124.21 2606.85 L1125.39 2606.85 L1125.39 2603.48 L1125.90 2603.48 L1125.90 2598.58 L1129.11 2598.58 L1129.11 2593.69 L1133.49 2593.69 L1133.49 2469.49 L1135.35 2469.49 L1135.35 2454.81 L1135.69 2454.81 L1135.69 2448.23 L1139.06 2448.23 L1139.06 2446.71 L1143.62 2446.71 L1143.62 2445.02 L1145.47 2445.02 L1145.47 2441.81 L1145.47 2441.81 L1145.47 2430.34 L1146.15 2430.34 L1146.15 2423.76 L1149.36 2423.76 L1149.36 2418.86 L1149.86 2418.86 L1149.86 2417.18 L1149.86 2417.18 L1149.86 2410.76 L1157.12 2410.76 L1157.12 2407.39 L1157.29 2407.39 L1157.29 2395.91 L1158.81 2395.91 L1158.81 2389.50 L1159.14 2389.50 L1159.14 2387.81 L1159.31 2387.81 L1159.31 2386.13 L1162.18 2386.13 L1162.18 2379.71 L1163.87 2379.71 L1163.87 2378.03 L1169.44 2378.03 L1169.44 2371.44 L1169.94 2371.44 L1169.94 2369.76 L1170.28 2369.76 L1170.28 2351.87 L1171.46 2351.87 L1171.46 2350.18 L1171.80 2350.18 L1171.80 2342.08 L1173.66 2342.08 L1173.66 2333.81 L1178.38 2333.81 L1178.38 2327.40 L1180.07 2327.40 L1180.07 2325.71 L1181.08 2325.71 L1181.08 2324.03 L1182.26 2324.03 L1182.26 2309.34 L1183.28 2309.34 L1183.28 2307.66 L1185.81 2307.66 L1185.81 2306.14 L1186.31 2306.14 L1186.31 2304.45 L1187.83 2304.45 L1187.83 2299.56 L1189.35 2299.56 L1189.35 2297.87 L1191.54 2297.87 L1191.54 2289.77 L1195.43 2289.77 L1195.43 2288.08 L1196.44 2288.08 L1196.44 2286.56 L1196.44 2286.56 L1196.44 2284.88 L1197.79 2284.88 L1197.79 2281.50 L1198.63 2281.50 L1198.63 2279.98 L1198.63 2279.98 L1198.63 2276.61 L1199.81 2276.61 L1199.81 2275.09 L1200.49 2275.09 L1200.49 2273.40 L1202.51 2273.40 L1202.51 2271.71 L1208.93 2271.71 L1208.93 2270.19 L1210.78 2270.19 L1210.78 2265.30 L1210.78 2265.30 L1210.78 2263.61 L1211.96 2263.61 L1211.96 2257.03 L1212.64 2257.03 L1212.64 2252.14 L1215.00 2252.14 L1215.00 2250.45 L1217.03 2250.45 L1217.03 2245.56 L1218.04 2245.56 L1218.04 2242.35 L1220.40 2242.35 L1220.40 2230.88 L1221.41 2230.88 L1221.41 2229.36 L1223.61 2229.36 L1223.61 2227.67 L1225.46 2227.67 L1225.46 2222.78 L1227.49 2222.78 L1227.49 2219.40 L1229.51 2219.40 L1229.51 2214.51 L1229.68 2214.51 L1229.68 2212.99 L1230.86 2212.99 L1230.86 2209.61 L1234.24 2209.61 L1234.24 2206.41 L1236.77 2206.41 L1236.77 2204.72 L1237.78 2204.72 L1237.78 2203.20 L1237.78 2203.20 L1237.78 2199.82 L1239.47 2199.82 L1239.47 2193.24 L1242.00 2193.24 L1242.00 2186.83 L1244.53 2186.83 L1244.53 2185.14 L1249.76 2185.14 L1249.76 2180.25 L1250.27 2180.25 L1250.27 2178.56 L1250.44 2178.56 L1250.44 2177.04 L1252.13 2177.04 L1252.13 2175.36 L1263.09 2175.36 L1263.09 2168.78 L1264.28 2168.78 L1264.28 2167.26 L1264.78 2167.26 L1264.78 2163.88 L1264.78 2163.88 L1264.78 2154.09 L1264.95 2154.09 L1264.95 2150.89 L1265.29 2150.89 L1265.29 2147.51 L1266.64 2147.51 L1266.64 2142.62 L1266.64 2142.62 L1266.64 2141.10 L1267.82 2141.10 L1267.82 2139.41 L1267.82 2139.41 L1267.82 2131.14 L1272.88 2131.14 L1272.88 2129.63 L1273.72 2129.63 L1273.72 2123.04 L1275.75 2123.04 L1275.75 2116.46 L1278.28 2116.46 L1278.28 2111.57 L1279.13 2111.57 L1279.13 2108.36 L1287.90 2108.36 L1287.90 2106.68 L1288.41 2106.68 L1288.41 2101.78 L1291.95 2101.78 L1291.95 2095.20 L1291.95 2095.20 L1291.95 2085.41 L1292.46 2085.41 L1292.46 2079.00 L1292.46 2079.00 L1292.46 2072.42 L1294.31 2072.42 L1294.31 2067.53 L1299.38 2067.53 L1299.38 2062.63 L1299.38 2062.63 L1299.38 2060.94 L1302.08 2060.94 L1302.08 2052.84 L1302.08 2052.84 L1302.08 2051.16 L1302.58 2051.16 L1302.58 2049.47 L1306.13 2049.47 L1306.13 2047.95 L1306.29 2047.95 L1306.29 2044.58 L1310.85 2044.58 L1310.85 2034.79 L1311.69 2034.79 L1311.69 2028.21 L1313.89 2028.21 L1313.89 2023.31 L1316.25 2023.31 L1316.25 2020.11 L1317.43 2020.11 L1317.43 2018.42 L1322.16 2018.42 L1322.16 2013.53 L1323.34 2013.53 L1323.34 2000.53 L1329.41 2000.53 L1329.41 1998.84 L1332.96 1998.84 L1332.96 1990.74 L1334.48 1990.74 L1334.48 1989.06 L1337.34 1989.06 L1337.34 1987.37 L1349.49 1987.37 L1349.49 1982.48 L1357.26 1982.48 L1357.26 1972.69 L1357.43 1972.69 L1357.43 1966.11 L1358.61 1966.11 L1358.61 1958.01 L1360.13 1958.01 L1360.13 1939.95 L1363.33 1939.95 L1363.33 1933.54 L1365.36 1933.54 L1365.36 1917.17 L1368.39 1917.17 L1368.39 1900.80 L1368.73 1900.80 L1368.73 1876.33 L1368.90 1876.33 L1368.90 1872.96 L1369.74 1872.96 L1369.74 1869.75 L1373.29 1869.75 L1373.29 1866.54 L1382.06 1866.54 L1382.06 1864.86 L1383.24 1864.86 L1383.24 1851.69 L1387.13 1851.69 L1387.13 1850.18 L1387.13 1850.18 L1387.13 1843.59 L1387.97 1843.59 L1387.97 1841.91 L1388.14 1841.91 L1388.14 1837.01 L1389.49 1837.01 L1389.49 1833.81 L1389.83 1833.81 L1389.83 1830.43 L1392.36 1830.43 L1392.36 1828.91 L1393.88 1828.91 L1393.88 1827.23 L1394.21 1827.23 L1394.21 1824.02 L1395.90 1824.02 L1395.90 1820.64 L1398.60 1820.64 L1398.60 1814.23 L1398.94 1814.23 L1398.94 1801.07 L1399.11 1801.07 L1399.11 1799.38 L1399.95 1799.38 L1399.95 1797.86 L1404.17 1797.86 L1404.17 1791.28 L1411.09 1791.28 L1411.09 1789.59 L1414.13 1789.59 L1414.13 1788.08 L1417.84 1788.08 L1417.84 1784.70 L1419.36 1784.70 L1419.36 1781.49 L1422.39 1781.49 L1422.39 1779.81 L1423.74 1779.81 L1423.74 1778.29 L1426.28 1778.29 L1426.28 1776.60 L1426.78 1776.60 L1426.78 1768.33 L1430.16 1768.33 L1430.16 1757.03 L1430.66 1757.03 L1430.66 1753.65 L1433.87 1753.65 L1433.87 1752.13 L1434.38 1752.13 L1434.38 1750.44 L1435.39 1750.44 L1435.39 1748.76 L1436.40 1748.76 L1436.40 1747.24 L1439.27 1747.24 L1439.27 1745.55 L1448.21 1745.55 L1448.21 1743.86 L1461.71 1743.86 L1461.71 1742.18 L1463.06 1742.18 L1463.06 1737.28 L1474.20 1737.28 L1474.20 1735.76 L1480.44 1735.76 L1480.44 1729.18 L1480.44 1729.18 L1480.44 1724.29 L1485.17 1724.29 L1485.17 1722.60 L1486.01 1722.60 L1486.01 1719.39 L1486.01 1719.39 L1486.01 1712.81 L1488.04 1712.81 L1488.04 1711.13 L1490.74 1711.13 L1490.74 1709.61 L1493.78 1709.61 L1493.78 1703.03 L1503.56 1703.03 L1503.56 1690.03 L1504.74 1690.03 L1504.74 1688.34 L1507.61 1688.34 L1507.61 1680.08 L1524.99 1680.08 L1524.99 1678.56 L1528.20 1678.56 L1528.20 1676.87 L1541.87 1676.87 L1541.87 1673.66 L1554.86 1673.66 L1554.86 1671.98 L1555.71 1671.98 L1555.71 1670.29 L1557.73 1670.29 L1557.73 1663.88 L1559.59 1663.88 L1559.59 1662.19 L1562.96 1662.19 L1562.96 1652.40 L1562.96 1652.40 L1562.96 1642.61 L1562.96 1642.61 L1562.96 1637.72 L1569.88 1637.72 L1569.88 1626.24 L1571.23 1626.24 L1571.23 1624.56 L1576.63 1624.56 L1576.63 1585.41 L1576.63 1585.41 L1576.63 1569.04 L1588.78 1569.04 L1588.78 1565.83 L1588.78 1565.83 L1588.78 1562.46 L1593.51 1562.46 L1593.51 1560.77 L1615.11 1560.77 L1615.11 1555.88 L1615.11 1555.88 L1615.11 1546.09 L1634.68 1546.09 L1634.68 1541.19 L1634.68 1541.19 L1634.68 1531.41 L1640.76 1531.41 L1640.76 1526.51 L1645.48 1526.51 L1645.48 1524.83 L1646.16 1524.83 L1646.16 1523.31 L1647.68 1523.31 L1647.68 1521.62 L1649.87 1521.62 L1649.87 1515.04 L1652.40 1515.04 L1652.40 1511.83 L1661.01 1511.83 L1661.01 1495.46 L1662.69 1495.46 L1662.69 1490.57 L1669.78 1490.57 L1669.78 1483.99 L1676.03 1483.99 L1676.03 1482.47 L1677.21 1482.47 L1677.21 1477.58 L1678.05 1477.58 L1678.05 1475.89 L1683.45 1475.89 L1683.45 1449.73 L1683.45 1449.73 L1683.45 1446.53 L1696.61 1446.53 L1696.61 1435.05 L1711.46 1435.05 L1711.46 1428.47 L1716.19 1428.47 L1716.19 1426.78 L1720.41 1426.78 L1720.41 1425.26 L1737.11 1425.26 L1737.11 1423.58 L1738.46 1423.58 L1738.46 1416.99 L1745.04 1416.99 L1745.04 1415.48 L1749.60 1415.48 L1749.60 1413.79 L1762.93 1413.79 L1762.93 1412.10 L1798.54 1412.10 L1798.54 1389.32 L1798.54 1389.32 L1798.54 1387.63 L1800.39 1387.63 L1800.39 1385.94 L1802.59 1385.94 L1802.59 1381.05 L1848.99 1381.05 L1848.99 1377.84 L1850.01 1377.84 L1850.01 1284.69 L1850.01 1284.69 L1850.01 1281.32 L1876.84 1281.32 L1876.84 1278.11 L1924.76 1278.11 L1924.76 1271.53 L1925.10 1271.53 L1925.10 1270.01 L1930.16 1270.01 L1930.16 1263.43 L1955.81 1263.43 L1955.81 1261.74 L1959.86 1261.74 L1959.86 1260.06 L1963.07 1260.06 L1963.07 1258.54 L1964.76 1258.54 L1964.76 1256.85 L1971.00 1256.85 L1971.00 1255.16 L1996.99 1255.16 L1996.99 1253.64 L2010.83 1253.64 L2010.83 1251.96 L2015.21 1251.96 L2015.21 1250.27 L2036.81 1250.27 L2036.81 1248.75 L2071.74 1248.75 L2071.74 1247.06 L2079.51 1247.06 L2079.51 1242.17 L2081.70 1242.17 L2081.70 1240.48 L2095.88 1240.48 L2095.88 1229.01 L2124.90 1229.01 L2124.90 1224.11 L2134.01 1224.11 L2134.01 1222.59 L2141.94 1222.59 L2141.94 1219.22 L2142.45 1219.22 L2142.45 1217.70 L2145.82 1217.70 L2145.82 1207.91 L2175.02 1207.91 L2175.02 1197.96 L2197.46 1197.96 L2197.46 1194.75 L2197.63 1194.75 L2197.63 1189.86 L2206.24 1189.86 L2206.24 1188.17 L2210.96 1188.17 L2210.96 1171.97 L2290.78 1171.97 L2290.78 1168.59 L2392.03 1168.59 L2392.03 1162.01 L2418.19 1162.01 L2418.19 1160.49 L2455.48 1160.49 L2455.48 1158.81 L2459.87 1158.81 L2459.87 1155.60 L2488.22 1155.60 L2488.22 1149.02 L2499.36 1149.02 L2499.36 1142.44 L2520.11 1142.44 L2520.11 1127.76 L2546.10 1127.76 L2546.10 1124.55 L2546.27 1124.55 L2546.27 1114.76 L2547.79 1114.76 L2547.79 1111.39 L2587.95 1111.39 L2587.95 1106.49 L2588.29 1106.49 L2588.29 1104.81 L2607.36 1104.81 L2607.36 1103.29 L2664.90 1103.29 L2664.90 1099.91 L2665.24 1099.91 L2665.24 1098.39 L2674.86 1098.39 L2674.86 1091.81 L2730.54 1091.81 L2730.54 1090.13 L2791.29 1090.13 L2791.29 1088.61 L2854.91 1088.61 L2854.91 1086.92 L2974.73 1086.92 L2974.73 1085.23 L3021.13 1085.23 L3021.13 1082.03 L3051.00 1082.03 L3051.00 1080.34 L3070.58 1080.34 L3070.58 1078.65 L3108.71 1078.65 L3108.71 1077.13 L3218.74 1077.13 L3218.74 1075.44 L3222.45 1075.44 L3222.45 1068.86 L3222.96 1068.86 L3222.96 1063.97 L3239.66 1063.97 L3239.66 1062.45 L3306.49 1062.45 L3306.49 1060.76 L3315.26 1060.76 L3315.26 1059.07 L3364.03 1059.07 L3364.03 1057.56 L3387.32 1057.56 L3387.32 1052.66 L3707.27 1052.66 L3707.27 1046.08 L3716.21 1046.08 L3716.21 1044.39 L3795.53 1044.39 L3795.53 1032.92 L3988.24 1032.92 L3988.24 1013.34 L4230.06 1013.34 L4230.06 1006.76 L4291.48 1006.76 L4291.48 1003.56 L4321.35 1003.56 L4321.35 1000.35 L4906.07 1000.35 L4906.07 998.66 L5215.22 998.66 L5215.22 184.78" stroke-linejoin="round" style="fill:none;stroke:#1A85FF;stroke-width:9.72"/>
	<text x="1743.02" y="89.57" style="font-family:'Helvetica';font-size:89.94px;fill:#000000" text-anchor="middle">Base-independent rate</text>
	<text x="2760.58" y="89.57" style="font-family:'Helvetica';font-size:89.94px;fill:#000000" text-anchor="middle">Mean base-dependent rate</text>
	<line x1="450.90" y1="2789.10" x2="450.90" y2="113.40" style="stroke:#000000;stroke-width:6.48"/>
	<line x1="450.90" y1="2717.89" x2="405.84" y2="2717.89" style="stroke:#000000;stroke-width:6.48"/>
	<text x="356.33" y="2717.89" style="font-family:'Helvetica';font-size:89.94px;fill:#000000" transform="rotate(-90 356.33,2717.89)" text-anchor="middle">0</text>
	<line x1="450.90" y1="2211.30" x2="405.84" y2="2211.30" style="stroke:#000000;stroke-width:6.48"/>
	<text x="356.33" y="2211.30" style="font-family:'Helvetica';font-size:89.94px;fill:#000000" transform="rotate(-90 356.33,2211.30)" text-anchor="middle">.2</text>
	<line x1="450.90" y1="1704.54" x2="405.84" y2="1704.54" style="stroke:#000000;stroke-width:6.48"/>
	<text x="356.33" y="1704.54" style="font-family:'Helvetica';font-size:89.94px;fill:#000000" transform="rotate(-90 356.33,1704.54)" text-anchor="middle">.4</text>
	<line x1="450.90" y1="1197.96" x2="405.84" y2="1197.96" style="stroke:#000000;stroke-width:6.48"/>
	<text x="356.33" y="1197.96" style="font-family:'Helvetica';font-size:89.94px;fill:#000000" transform="rotate(-90 356.33,1197.96)" text-anchor="middle">.6</text>
	<line x1="450.90" y1="691.37" x2="405.84" y2="691.37" style="stroke:#000000;stroke-width:6.48"/>
	<text x="356.33" y="691.37" style="font-family:'Helvetica';font-size:89.94px;fill:#000000" transform="rotate(-90 356.33,691.37)" text-anchor="middle">.8</text>
	<line x1="450.90" y1="184.61" x2="405.84" y2="184.61" style="stroke:#000000;stroke-width:6.48"/>
	<text x="356.33" y="184.61" style="font-family:'Helvetica';font-size:89.94px;fill:#000000" transform="rotate(-90 356.33,184.61)" text-anchor="middle">1</text>
	<text x="214.55" y="1451.25" style="font-family:'Helvetica';font-size:112.56px;fill:#000000" transform="rotate(-90 214.55,1451.25)" text-anchor="middle">Cumulative Probability</text>
	<line x1="450.90" y1="2789.10" x2="5286.60" y2="2789.10" style="stroke:#000000;stroke-width:6.48"/>
	<line x1="522.11" y1="2789.10" x2="522.11" y2="2834.16" style="stroke:#000000;stroke-width:6.48"/>
	<text x="522.11" y="2919.48" style="font-family:'Helvetica';font-size:89.94px;fill:#000000" text-anchor="middle">0</text>
	<line x1="756.84" y1="2789.10" x2="756.84" y2="2834.16" style="stroke:#000000;stroke-width:6.48"/>
	<text x="756.84" y="2919.48" style="font-family:'Helvetica';font-size:89.94px;fill:#000000" text-anchor="middle">.05</text>
	<line x1="991.41" y1="2789.10" x2="991.41" y2="2834.16" style="stroke:#000000;stroke-width:6.48"/>
	<text x="991.41" y="2919.48" style="font-family:'Helvetica';font-size:89.94px;fill:#000000" text-anchor="middle">.1</text>
	<line x1="1226.14" y1="2789.10" x2="1226.14" y2="2834.16" style="stroke:#000000;stroke-width:6.48"/>
	<text x="1226.14" y="2919.48" style="font-family:'Helvetica';font-size:89.94px;fill:#000000" text-anchor="middle">.15</text>
	<line x1="1460.70" y1="2789.10" x2="1460.70" y2="2834.16" style="stroke:#000000;stroke-width:6.48"/>
	<text x="1460.70" y="2919.48" style="font-family:'Helvetica';font-size:89.94px;fill:#000000" text-anchor="middle">.2</text>
	<line x1="1695.43" y1="2789.10" x2="1695.43" y2="2834.16" style="stroke:#000000;stroke-width:6.48"/>
	<text x="1695.43" y="2919.48" style="font-family:'Helvetica';font-size:89.94px;fill:#000000" text-anchor="middle">.25</text>
	<line x1="1930.16" y1="2789.10" x2="1930.16" y2="2834.16" style="stroke:#000000;stroke-width:6.48"/>
	<text x="1930.16" y="2919.48" style="font-family:'Helvetica';font-size:89.94px;fill:#000000" text-anchor="middle">.3</text>
	<line x1="2164.73" y1="2789.10" x2="2164.73" y2="2834.16" style="stroke:#000000;stroke-width:6.48"/>
	<text x="2164.73" y="2919.48" style="font-family:'Helvetica';font-size:89.94px;fill:#000000" text-anchor="middle">.35</text>
	<line x1="2399.46" y1="2789.10" x2="2399.46" y2="2834.16" style="stroke:#000000;stroke-width:6.48"/>
	<text x="2399.46" y="2919.48" style="font-family:'Helvetica';font-size:89.94px;fill:#000000" text-anchor="middle">.4</text>
	<line x1="2634.02" y1="2789.10" x2="2634.02" y2="2834.16" style="stroke:#000000;stroke-width:6.48"/>
	<text x="2634.02" y="2919.48" style="font-family:'Helvetica';font-size:89.94px;fill:#000000" text-anchor="middle">.45</text>
	<line x1="2868.75" y1="2789.10" x2="2868.75" y2="2834.16" style="stroke:#000000;stroke-width:6.48"/>
	<text x="2868.75" y="2919.48" style="font-family:'Helvetica';font-size:89.94px;fill:#000000" text-anchor="middle">.5</text>
	<line x1="3103.31" y1="2789.10" x2="3103.31" y2="2834.16" style="stroke:#000000;stroke-width:6.48"/>
	<text x="3103.31" y="2919.48" style="font-family:'Helvetica';font-size:89.94px;fill:#000000" text-anchor="middle">.55</text>
	<line x1="3338.04" y1="2789.10" x2="3338.04" y2="2834.16" style="stroke:#000000;stroke-width:6.48"/>
	<text x="3338.04" y="2919.48" style="font-family:'Helvetica';font-size:89.94px;fill:#000000" text-anchor="middle">.6</text>
	<line x1="3572.78" y1="2789.10" x2="3572.78" y2="2834.16" style="stroke:#000000;stroke-width:6.48"/>
	<text x="3572.78" y="2919.48" style="font-family:'Helvetica';font-size:89.94px;fill:#000000" text-anchor="middle">.65</text>
	<line x1="3807.34" y1="2789.10" x2="3807.34" y2="2834.16" style="stroke:#000000;stroke-width:6.48"/>
	<text x="3807.34" y="2919.48" style="font-family:'Helvetica';font-size:89.94px;fill:#000000" text-anchor="middle">.7</text>
	<line x1="4042.07" y1="2789.10" x2="4042.07" y2="2834.16" style="stroke:#000000;stroke-width:6.48"/>
	<text x="4042.07" y="2919.48" style="font-family:'Helvetica';font-size:89.94px;fill:#000000" text-anchor="middle">.75</text>
	<line x1="4276.63" y1="2789.10" x2="4276.63" y2="2834.16" style="stroke:#000000;stroke-width:6.48"/>
	<text x="4276.63" y="2919.48" style="font-family:'Helvetica';font-size:89.94px;fill:#000000" text-anchor="middle">.8</text>
	<line x1="4511.36" y1="2789.10" x2="4511.36" y2="2834.16" style="stroke:#000000;stroke-width:6.48"/>
	<text x="4511.36" y="2919.48" style="font-family:'Helvetica';font-size:89.94px;fill:#000000" text-anchor="middle">.85</text>
	<line x1="4745.93" y1="2789.10" x2="4745.93" y2="2834.16" style="stroke:#000000;stroke-width:6.48"/>
	<text x="4745.93" y="2919.48" style="font-family:'Helvetica';font-size:89.94px;fill:#000000" text-anchor="middle">.9</text>
	<line x1="4980.66" y1="2789.10" x2="4980.66" y2="2834.16" style="stroke:#000000;stroke-width:6.48"/>
	<text x="4980.66" y="2919.48" style="font-family:'Helvetica';font-size:89.94px;fill:#000000" text-anchor="middle">.95</text>
	<line x1="5215.39" y1="2789.10" x2="5215.39" y2="2834.16" style="stroke:#000000;stroke-width:6.48"/>
	<text x="5215.39" y="2919.48" style="font-family:'Helvetica';font-size:89.94px;fill:#000000" text-anchor="middle">1</text>
	<text x="2868.75" y="3070.31" style="font-family:'Helvetica';font-size:112.56px;fill:#000000" text-anchor="middle">Corporate Tax Rate</text>
</svg>
