<?xml version="1.0" encoding="UTF-8" standalone="no"?>
<!-- This is a Stata 18.0 generated SVG file (http://www.stata.com) -->

<svg version="1.1" width="7.500in" height="4.500in" viewBox="0 0 5400 3240" xmlns="http://www.w3.org/2000/svg" xmlns:xlink="http://www.w3.org/1999/xlink">
	<desc>Stata Graph - Graph</desc>
	<rect x="0" y="0" width="5400" height="3240" style="fill:#FFFFFF;stroke:none"/>
	<rect x="0.00" y="0.00" width="5400.00" height="3240.00" style="fill:#FFFFFF"/>
	<rect x="3.24" y="3.24" width="5393.52" height="3233.52" style="fill:none;stroke:#FFFFFF;stroke-width:6.48"/>
	<rect x="492.08" y="113.40" width="4794.53" height="2388.32" style="fill:#FFFFFF"/>
	<rect x="495.32" y="116.64" width="4788.05" height="2381.84" style="fill:none;stroke:#FFFFFF;stroke-width:6.48"/>
	<line x1="492.08" y1="2501.72" x2="556.88" y2="2501.72" style="stroke:#F0F0F0;stroke-width:9.72"/>
	<line x1="589.28" y1="2501.72" x2="654.08" y2="2501.72" style="stroke:#F0F0F0;stroke-width:9.72"/>
	<line x1="686.48" y1="2501.72" x2="751.28" y2="2501.72" style="stroke:#F0F0F0;stroke-width:9.72"/>
	<line x1="783.68" y1="2501.72" x2="848.48" y2="2501.72" style="stroke:#F0F0F0;stroke-width:9.72"/>
	<line x1="880.88" y1="2501.72" x2="945.68" y2="2501.72" style="stroke:#F0F0F0;stroke-width:9.72"/>
	<line x1="978.08" y1="2501.72" x2="1042.88" y2="2501.72" style="stroke:#F0F0F0;stroke-width:9.72"/>
	<line x1="1075.28" y1="2501.72" x2="1140.08" y2="2501.72" style="stroke:#F0F0F0;stroke-width:9.72"/>
	<line x1="1172.47" y1="2501.72" x2="1237.28" y2="2501.72" style="stroke:#F0F0F0;stroke-width:9.72"/>
	<line x1="1269.68" y1="2501.72" x2="1334.48" y2="2501.72" style="stroke:#F0F0F0;stroke-width:9.72"/>
	<line x1="1366.88" y1="2501.72" x2="1431.68" y2="2501.72" style="stroke:#F0F0F0;stroke-width:9.72"/>
	<line x1="1464.08" y1="2501.72" x2="1528.88" y2="2501.72" style="stroke:#F0F0F0;stroke-width:9.72"/>
	<line x1="1561.28" y1="2501.72" x2="1626.08" y2="2501.72" style="stroke:#F0F0F0;stroke-width:9.72"/>
	<line x1="1658.48" y1="2501.72" x2="1723.28" y2="2501.72" style="stroke:#F0F0F0;stroke-width:9.72"/>
	<line x1="1755.68" y1="2501.72" x2="1820.48" y2="2501.72" style="stroke:#F0F0F0;stroke-width:9.72"/>
	<line x1="1852.88" y1="2501.72" x2="1917.68" y2="2501.72" style="stroke:#F0F0F0;stroke-width:9.72"/>
	<line x1="1950.08" y1="2501.72" x2="2014.88" y2="2501.72" style="stroke:#F0F0F0;stroke-width:9.72"/>
	<line x1="2047.28" y1="2501.72" x2="2112.07" y2="2501.72" style="stroke:#F0F0F0;stroke-width:9.72"/>
	<line x1="2144.48" y1="2501.72" x2="2209.28" y2="2501.72" style="stroke:#F0F0F0;stroke-width:9.72"/>
	<line x1="2241.68" y1="2501.72" x2="2306.48" y2="2501.72" style="stroke:#F0F0F0;stroke-width:9.72"/>
	<line x1="2338.88" y1="2501.72" x2="2403.68" y2="2501.72" style="stroke:#F0F0F0;stroke-width:9.72"/>
	<line x1="2436.07" y1="2501.72" x2="2500.88" y2="2501.72" style="stroke:#F0F0F0;stroke-width:9.72"/>
	<line x1="2533.28" y1="2501.72" x2="2598.07" y2="2501.72" style="stroke:#F0F0F0;stroke-width:9.72"/>
	<line x1="2630.48" y1="2501.72" x2="2695.28" y2="2501.72" style="stroke:#F0F0F0;stroke-width:9.72"/>
	<line x1="2727.68" y1="2501.72" x2="2792.48" y2="2501.72" style="stroke:#F0F0F0;stroke-width:9.72"/>
	<line x1="2824.88" y1="2501.72" x2="2889.68" y2="2501.72" style="stroke:#F0F0F0;stroke-width:9.72"/>
	<line x1="2922.08" y1="2501.72" x2="2986.88" y2="2501.72" style="stroke:#F0F0F0;stroke-width:9.72"/>
	<line x1="3019.28" y1="2501.72" x2="3084.08" y2="2501.72" style="stroke:#F0F0F0;stroke-width:9.72"/>
	<line x1="3116.48" y1="2501.72" x2="3181.28" y2="2501.72" style="stroke:#F0F0F0;stroke-width:9.72"/>
	<line x1="3213.68" y1="2501.72" x2="3278.48" y2="2501.72" style="stroke:#F0F0F0;stroke-width:9.72"/>
	<line x1="3310.88" y1="2501.72" x2="3375.68" y2="2501.72" style="stroke:#F0F0F0;stroke-width:9.72"/>
	<line x1="3408.08" y1="2501.72" x2="3472.88" y2="2501.72" style="stroke:#F0F0F0;stroke-width:9.72"/>
	<line x1="3505.28" y1="2501.72" x2="3570.08" y2="2501.72" style="stroke:#F0F0F0;stroke-width:9.72"/>
	<line x1="3602.48" y1="2501.72" x2="3667.28" y2="2501.72" style="stroke:#F0F0F0;stroke-width:9.72"/>
	<line x1="3699.68" y1="2501.72" x2="3764.48" y2="2501.72" style="stroke:#F0F0F0;stroke-width:9.72"/>
	<line x1="3796.88" y1="2501.72" x2="3861.68" y2="2501.72" style="stroke:#F0F0F0;stroke-width:9.72"/>
	<line x1="3894.08" y1="2501.72" x2="3958.88" y2="2501.72" style="stroke:#F0F0F0;stroke-width:9.72"/>
	<line x1="3991.28" y1="2501.72" x2="4056.08" y2="2501.72" style="stroke:#F0F0F0;stroke-width:9.72"/>
	<line x1="4088.48" y1="2501.72" x2="4153.27" y2="2501.72" style="stroke:#F0F0F0;stroke-width:9.72"/>
	<line x1="4185.68" y1="2501.72" x2="4250.48" y2="2501.72" style="stroke:#F0F0F0;stroke-width:9.72"/>
	<line x1="4282.88" y1="2501.72" x2="4347.68" y2="2501.72" style="stroke:#F0F0F0;stroke-width:9.72"/>
	<line x1="4380.08" y1="2501.72" x2="4444.88" y2="2501.72" style="stroke:#F0F0F0;stroke-width:9.72"/>
	<line x1="4477.27" y1="2501.72" x2="4542.08" y2="2501.72" style="stroke:#F0F0F0;stroke-width:9.72"/>
	<line x1="4574.48" y1="2501.72" x2="4639.27" y2="2501.72" style="stroke:#F0F0F0;stroke-width:9.72"/>
	<line x1="4671.68" y1="2501.72" x2="4736.48" y2="2501.72" style="stroke:#F0F0F0;stroke-width:9.72"/>
	<line x1="4768.88" y1="2501.72" x2="4833.68" y2="2501.72" style="stroke:#F0F0F0;stroke-width:9.72"/>
	<line x1="4866.08" y1="2501.72" x2="4930.88" y2="2501.72" style="stroke:#F0F0F0;stroke-width:9.72"/>
	<line x1="4963.27" y1="2501.72" x2="5028.08" y2="2501.72" style="stroke:#F0F0F0;stroke-width:9.72"/>
	<line x1="5060.48" y1="2501.72" x2="5125.27" y2="2501.72" style="stroke:#F0F0F0;stroke-width:9.72"/>
	<line x1="5157.68" y1="2501.72" x2="5222.48" y2="2501.72" style="stroke:#F0F0F0;stroke-width:9.72"/>
	<line x1="5254.88" y1="2501.72" x2="5286.60" y2="2501.72" style="stroke:#F0F0F0;stroke-width:9.72"/>
	<line x1="492.08" y1="2046.60" x2="556.88" y2="2046.60" style="stroke:#F0F0F0;stroke-width:9.72"/>
	<line x1="589.28" y1="2046.60" x2="654.08" y2="2046.60" style="stroke:#F0F0F0;stroke-width:9.72"/>
	<line x1="686.48" y1="2046.60" x2="751.28" y2="2046.60" style="stroke:#F0F0F0;stroke-width:9.72"/>
	<line x1="783.68" y1="2046.60" x2="848.48" y2="2046.60" style="stroke:#F0F0F0;stroke-width:9.72"/>
	<line x1="880.88" y1="2046.60" x2="945.68" y2="2046.60" style="stroke:#F0F0F0;stroke-width:9.72"/>
	<line x1="978.08" y1="2046.60" x2="1042.88" y2="2046.60" style="stroke:#F0F0F0;stroke-width:9.72"/>
	<line x1="1075.28" y1="2046.60" x2="1140.08" y2="2046.60" style="stroke:#F0F0F0;stroke-width:9.72"/>
	<line x1="1172.47" y1="2046.60" x2="1237.28" y2="2046.60" style="stroke:#F0F0F0;stroke-width:9.72"/>
	<line x1="1269.68" y1="2046.60" x2="1334.48" y2="2046.60" style="stroke:#F0F0F0;stroke-width:9.72"/>
	<line x1="1366.88" y1="2046.60" x2="1431.68" y2="2046.60" style="stroke:#F0F0F0;stroke-width:9.72"/>
	<line x1="1464.08" y1="2046.60" x2="1528.88" y2="2046.60" style="stroke:#F0F0F0;stroke-width:9.72"/>
	<line x1="1561.28" y1="2046.60" x2="1626.08" y2="2046.60" style="stroke:#F0F0F0;stroke-width:9.72"/>
	<line x1="1658.48" y1="2046.60" x2="1723.28" y2="2046.60" style="stroke:#F0F0F0;stroke-width:9.72"/>
	<line x1="1755.68" y1="2046.60" x2="1820.48" y2="2046.60" style="stroke:#F0F0F0;stroke-width:9.72"/>
	<line x1="1852.88" y1="2046.60" x2="1917.68" y2="2046.60" style="stroke:#F0F0F0;stroke-width:9.72"/>
	<line x1="1950.08" y1="2046.60" x2="2014.88" y2="2046.60" style="stroke:#F0F0F0;stroke-width:9.72"/>
	<line x1="2047.28" y1="2046.60" x2="2112.07" y2="2046.60" style="stroke:#F0F0F0;stroke-width:9.72"/>
	<line x1="2144.48" y1="2046.60" x2="2209.28" y2="2046.60" style="stroke:#F0F0F0;stroke-width:9.72"/>
	<line x1="2241.68" y1="2046.60" x2="2306.48" y2="2046.60" style="stroke:#F0F0F0;stroke-width:9.72"/>
	<line x1="2338.88" y1="2046.60" x2="2403.68" y2="2046.60" style="stroke:#F0F0F0;stroke-width:9.72"/>
	<line x1="2436.07" y1="2046.60" x2="2500.88" y2="2046.60" style="stroke:#F0F0F0;stroke-width:9.72"/>
	<line x1="2533.28" y1="2046.60" x2="2598.07" y2="2046.60" style="stroke:#F0F0F0;stroke-width:9.72"/>
	<line x1="2630.48" y1="2046.60" x2="2695.28" y2="2046.60" style="stroke:#F0F0F0;stroke-width:9.72"/>
	<line x1="2727.68" y1="2046.60" x2="2792.48" y2="2046.60" style="stroke:#F0F0F0;stroke-width:9.72"/>
	<line x1="2824.88" y1="2046.60" x2="2889.68" y2="2046.60" style="stroke:#F0F0F0;stroke-width:9.72"/>
	<line x1="2922.08" y1="2046.60" x2="2986.88" y2="2046.60" style="stroke:#F0F0F0;stroke-width:9.72"/>
	<line x1="3019.28" y1="2046.60" x2="3084.08" y2="2046.60" style="stroke:#F0F0F0;stroke-width:9.72"/>
	<line x1="3116.48" y1="2046.60" x2="3181.28" y2="2046.60" style="stroke:#F0F0F0;stroke-width:9.72"/>
	<line x1="3213.68" y1="2046.60" x2="3278.48" y2="2046.60" style="stroke:#F0F0F0;stroke-width:9.72"/>
	<line x1="3310.88" y1="2046.60" x2="3375.68" y2="2046.60" style="stroke:#F0F0F0;stroke-width:9.72"/>
	<line x1="3408.08" y1="2046.60" x2="3472.88" y2="2046.60" style="stroke:#F0F0F0;stroke-width:9.72"/>
	<line x1="3505.28" y1="2046.60" x2="3570.08" y2="2046.60" style="stroke:#F0F0F0;stroke-width:9.72"/>
	<line x1="3602.48" y1="2046.60" x2="3667.28" y2="2046.60" style="stroke:#F0F0F0;stroke-width:9.72"/>
	<line x1="3699.68" y1="2046.60" x2="3764.48" y2="2046.60" style="stroke:#F0F0F0;stroke-width:9.72"/>
	<line x1="3796.88" y1="2046.60" x2="3861.68" y2="2046.60" style="stroke:#F0F0F0;stroke-width:9.72"/>
	<line x1="3894.08" y1="2046.60" x2="3958.88" y2="2046.60" style="stroke:#F0F0F0;stroke-width:9.72"/>
	<line x1="3991.28" y1="2046.60" x2="4056.08" y2="2046.60" style="stroke:#F0F0F0;stroke-width:9.72"/>
	<line x1="4088.48" y1="2046.60" x2="4153.27" y2="2046.60" style="stroke:#F0F0F0;stroke-width:9.72"/>
	<line x1="4185.68" y1="2046.60" x2="4250.48" y2="2046.60" style="stroke:#F0F0F0;stroke-width:9.72"/>
	<line x1="4282.88" y1="2046.60" x2="4347.68" y2="2046.60" style="stroke:#F0F0F0;stroke-width:9.72"/>
	<line x1="4380.08" y1="2046.60" x2="4444.88" y2="2046.60" style="stroke:#F0F0F0;stroke-width:9.72"/>
	<line x1="4477.27" y1="2046.60" x2="4542.08" y2="2046.60" style="stroke:#F0F0F0;stroke-width:9.72"/>
	<line x1="4574.48" y1="2046.60" x2="4639.27" y2="2046.60" style="stroke:#F0F0F0;stroke-width:9.72"/>
	<line x1="4671.68" y1="2046.60" x2="4736.48" y2="2046.60" style="stroke:#F0F0F0;stroke-width:9.72"/>
	<line x1="4768.88" y1="2046.60" x2="4833.68" y2="2046.60" style="stroke:#F0F0F0;stroke-width:9.72"/>
	<line x1="4866.08" y1="2046.60" x2="4930.88" y2="2046.60" style="stroke:#F0F0F0;stroke-width:9.72"/>
	<line x1="4963.27" y1="2046.60" x2="5028.08" y2="2046.60" style="stroke:#F0F0F0;stroke-width:9.72"/>
	<line x1="5060.48" y1="2046.60" x2="5125.27" y2="2046.60" style="stroke:#F0F0F0;stroke-width:9.72"/>
	<line x1="5157.68" y1="2046.60" x2="5222.48" y2="2046.60" style="stroke:#F0F0F0;stroke-width:9.72"/>
	<line x1="5254.88" y1="2046.60" x2="5286.60" y2="2046.60" style="stroke:#F0F0F0;stroke-width:9.72"/>
	<line x1="492.08" y1="1591.65" x2="556.88" y2="1591.65" style="stroke:#F0F0F0;stroke-width:9.72"/>
	<line x1="589.28" y1="1591.65" x2="654.08" y2="1591.65" style="stroke:#F0F0F0;stroke-width:9.72"/>
	<line x1="686.48" y1="1591.65" x2="751.28" y2="1591.65" style="stroke:#F0F0F0;stroke-width:9.72"/>
	<line x1="783.68" y1="1591.65" x2="848.48" y2="1591.65" style="stroke:#F0F0F0;stroke-width:9.72"/>
	<line x1="880.88" y1="1591.65" x2="945.68" y2="1591.65" style="stroke:#F0F0F0;stroke-width:9.72"/>
	<line x1="978.08" y1="1591.65" x2="1042.88" y2="1591.65" style="stroke:#F0F0F0;stroke-width:9.72"/>
	<line x1="1075.28" y1="1591.65" x2="1140.08" y2="1591.65" style="stroke:#F0F0F0;stroke-width:9.72"/>
	<line x1="1172.47" y1="1591.65" x2="1237.28" y2="1591.65" style="stroke:#F0F0F0;stroke-width:9.72"/>
	<line x1="1269.68" y1="1591.65" x2="1334.48" y2="1591.65" style="stroke:#F0F0F0;stroke-width:9.72"/>
	<line x1="1366.88" y1="1591.65" x2="1431.68" y2="1591.65" style="stroke:#F0F0F0;stroke-width:9.72"/>
	<line x1="1464.08" y1="1591.65" x2="1528.88" y2="1591.65" style="stroke:#F0F0F0;stroke-width:9.72"/>
	<line x1="1561.28" y1="1591.65" x2="1626.08" y2="1591.65" style="stroke:#F0F0F0;stroke-width:9.72"/>
	<line x1="1658.48" y1="1591.65" x2="1723.28" y2="1591.65" style="stroke:#F0F0F0;stroke-width:9.72"/>
	<line x1="1755.68" y1="1591.65" x2="1820.48" y2="1591.65" style="stroke:#F0F0F0;stroke-width:9.72"/>
	<line x1="1852.88" y1="1591.65" x2="1917.68" y2="1591.65" style="stroke:#F0F0F0;stroke-width:9.72"/>
	<line x1="1950.08" y1="1591.65" x2="2014.88" y2="1591.65" style="stroke:#F0F0F0;stroke-width:9.72"/>
	<line x1="2047.28" y1="1591.65" x2="2112.07" y2="1591.65" style="stroke:#F0F0F0;stroke-width:9.72"/>
	<line x1="2144.48" y1="1591.65" x2="2209.28" y2="1591.65" style="stroke:#F0F0F0;stroke-width:9.72"/>
	<line x1="2241.68" y1="1591.65" x2="2306.48" y2="1591.65" style="stroke:#F0F0F0;stroke-width:9.72"/>
	<line x1="2338.88" y1="1591.65" x2="2403.68" y2="1591.65" style="stroke:#F0F0F0;stroke-width:9.72"/>
	<line x1="2436.07" y1="1591.65" x2="2500.88" y2="1591.65" style="stroke:#F0F0F0;stroke-width:9.72"/>
	<line x1="2533.28" y1="1591.65" x2="2598.07" y2="1591.65" style="stroke:#F0F0F0;stroke-width:9.72"/>
	<line x1="2630.48" y1="1591.65" x2="2695.28" y2="1591.65" style="stroke:#F0F0F0;stroke-width:9.72"/>
	<line x1="2727.68" y1="1591.65" x2="2792.48" y2="1591.65" style="stroke:#F0F0F0;stroke-width:9.72"/>
	<line x1="2824.88" y1="1591.65" x2="2889.68" y2="1591.65" style="stroke:#F0F0F0;stroke-width:9.72"/>
	<line x1="2922.08" y1="1591.65" x2="2986.88" y2="1591.65" style="stroke:#F0F0F0;stroke-width:9.72"/>
	<line x1="3019.28" y1="1591.65" x2="3084.08" y2="1591.65" style="stroke:#F0F0F0;stroke-width:9.72"/>
	<line x1="3116.48" y1="1591.65" x2="3181.28" y2="1591.65" style="stroke:#F0F0F0;stroke-width:9.72"/>
	<line x1="3213.68" y1="1591.65" x2="3278.48" y2="1591.65" style="stroke:#F0F0F0;stroke-width:9.72"/>
	<line x1="3310.88" y1="1591.65" x2="3375.68" y2="1591.65" style="stroke:#F0F0F0;stroke-width:9.72"/>
	<line x1="3408.08" y1="1591.65" x2="3472.88" y2="1591.65" style="stroke:#F0F0F0;stroke-width:9.72"/>
	<line x1="3505.28" y1="1591.65" x2="3570.08" y2="1591.65" style="stroke:#F0F0F0;stroke-width:9.72"/>
	<line x1="3602.48" y1="1591.65" x2="3667.28" y2="1591.65" style="stroke:#F0F0F0;stroke-width:9.72"/>
	<line x1="3699.68" y1="1591.65" x2="3764.48" y2="1591.65" style="stroke:#F0F0F0;stroke-width:9.72"/>
	<line x1="3796.88" y1="1591.65" x2="3861.68" y2="1591.65" style="stroke:#F0F0F0;stroke-width:9.72"/>
	<line x1="3894.08" y1="1591.65" x2="3958.88" y2="1591.65" style="stroke:#F0F0F0;stroke-width:9.72"/>
	<line x1="3991.28" y1="1591.65" x2="4056.08" y2="1591.65" style="stroke:#F0F0F0;stroke-width:9.72"/>
	<line x1="4088.48" y1="1591.65" x2="4153.27" y2="1591.65" style="stroke:#F0F0F0;stroke-width:9.72"/>
	<line x1="4185.68" y1="1591.65" x2="4250.48" y2="1591.65" style="stroke:#F0F0F0;stroke-width:9.72"/>
	<line x1="4282.88" y1="1591.65" x2="4347.68" y2="1591.65" style="stroke:#F0F0F0;stroke-width:9.72"/>
	<line x1="4380.08" y1="1591.65" x2="4444.88" y2="1591.65" style="stroke:#F0F0F0;stroke-width:9.72"/>
	<line x1="4477.27" y1="1591.65" x2="4542.08" y2="1591.65" style="stroke:#F0F0F0;stroke-width:9.72"/>
	<line x1="4574.48" y1="1591.65" x2="4639.27" y2="1591.65" style="stroke:#F0F0F0;stroke-width:9.72"/>
	<line x1="4671.68" y1="1591.65" x2="4736.48" y2="1591.65" style="stroke:#F0F0F0;stroke-width:9.72"/>
	<line x1="4768.88" y1="1591.65" x2="4833.68" y2="1591.65" style="stroke:#F0F0F0;stroke-width:9.72"/>
	<line x1="4866.08" y1="1591.65" x2="4930.88" y2="1591.65" style="stroke:#F0F0F0;stroke-width:9.72"/>
	<line x1="4963.27" y1="1591.65" x2="5028.08" y2="1591.65" style="stroke:#F0F0F0;stroke-width:9.72"/>
	<line x1="5060.48" y1="1591.65" x2="5125.27" y2="1591.65" style="stroke:#F0F0F0;stroke-width:9.72"/>
	<line x1="5157.68" y1="1591.65" x2="5222.48" y2="1591.65" style="stroke:#F0F0F0;stroke-width:9.72"/>
	<line x1="5254.88" y1="1591.65" x2="5286.60" y2="1591.65" style="stroke:#F0F0F0;stroke-width:9.72"/>
	<line x1="492.08" y1="1136.70" x2="556.88" y2="1136.70" style="stroke:#F0F0F0;stroke-width:9.72"/>
	<line x1="589.28" y1="1136.70" x2="654.08" y2="1136.70" style="stroke:#F0F0F0;stroke-width:9.72"/>
	<line x1="686.48" y1="1136.70" x2="751.28" y2="1136.70" style="stroke:#F0F0F0;stroke-width:9.72"/>
	<line x1="783.68" y1="1136.70" x2="848.48" y2="1136.70" style="stroke:#F0F0F0;stroke-width:9.72"/>
	<line x1="880.88" y1="1136.70" x2="945.68" y2="1136.70" style="stroke:#F0F0F0;stroke-width:9.72"/>
	<line x1="978.08" y1="1136.70" x2="1042.88" y2="1136.70" style="stroke:#F0F0F0;stroke-width:9.72"/>
	<line x1="1075.28" y1="1136.70" x2="1140.08" y2="1136.70" style="stroke:#F0F0F0;stroke-width:9.72"/>
	<line x1="1172.47" y1="1136.70" x2="1237.28" y2="1136.70" style="stroke:#F0F0F0;stroke-width:9.72"/>
	<line x1="1269.68" y1="1136.70" x2="1334.48" y2="1136.70" style="stroke:#F0F0F0;stroke-width:9.72"/>
	<line x1="1366.88" y1="1136.70" x2="1431.68" y2="1136.70" style="stroke:#F0F0F0;stroke-width:9.72"/>
	<line x1="1464.08" y1="1136.70" x2="1528.88" y2="1136.70" style="stroke:#F0F0F0;stroke-width:9.72"/>
	<line x1="1561.28" y1="1136.70" x2="1626.08" y2="1136.70" style="stroke:#F0F0F0;stroke-width:9.72"/>
	<line x1="1658.48" y1="1136.70" x2="1723.28" y2="1136.70" style="stroke:#F0F0F0;stroke-width:9.72"/>
	<line x1="1755.68" y1="1136.70" x2="1820.48" y2="1136.70" style="stroke:#F0F0F0;stroke-width:9.72"/>
	<line x1="1852.88" y1="1136.70" x2="1917.68" y2="1136.70" style="stroke:#F0F0F0;stroke-width:9.72"/>
	<line x1="1950.08" y1="1136.70" x2="2014.88" y2="1136.70" style="stroke:#F0F0F0;stroke-width:9.72"/>
	<line x1="2047.28" y1="1136.70" x2="2112.07" y2="1136.70" style="stroke:#F0F0F0;stroke-width:9.72"/>
	<line x1="2144.48" y1="1136.70" x2="2209.28" y2="1136.70" style="stroke:#F0F0F0;stroke-width:9.72"/>
	<line x1="2241.68" y1="1136.70" x2="2306.48" y2="1136.70" style="stroke:#F0F0F0;stroke-width:9.72"/>
	<line x1="2338.88" y1="1136.70" x2="2403.68" y2="1136.70" style="stroke:#F0F0F0;stroke-width:9.72"/>
	<line x1="2436.07" y1="1136.70" x2="2500.88" y2="1136.70" style="stroke:#F0F0F0;stroke-width:9.72"/>
	<line x1="2533.28" y1="1136.70" x2="2598.07" y2="1136.70" style="stroke:#F0F0F0;stroke-width:9.72"/>
	<line x1="2630.48" y1="1136.70" x2="2695.28" y2="1136.70" style="stroke:#F0F0F0;stroke-width:9.72"/>
	<line x1="2727.68" y1="1136.70" x2="2792.48" y2="1136.70" style="stroke:#F0F0F0;stroke-width:9.72"/>
	<line x1="2824.88" y1="1136.70" x2="2889.68" y2="1136.70" style="stroke:#F0F0F0;stroke-width:9.72"/>
	<line x1="2922.08" y1="1136.70" x2="2986.88" y2="1136.70" style="stroke:#F0F0F0;stroke-width:9.72"/>
	<line x1="3019.28" y1="1136.70" x2="3084.08" y2="1136.70" style="stroke:#F0F0F0;stroke-width:9.72"/>
	<line x1="3116.48" y1="1136.70" x2="3181.28" y2="1136.70" style="stroke:#F0F0F0;stroke-width:9.72"/>
	<line x1="3213.68" y1="1136.70" x2="3278.48" y2="1136.70" style="stroke:#F0F0F0;stroke-width:9.72"/>
	<line x1="3310.88" y1="1136.70" x2="3375.68" y2="1136.70" style="stroke:#F0F0F0;stroke-width:9.72"/>
	<line x1="3408.08" y1="1136.70" x2="3472.88" y2="1136.70" style="stroke:#F0F0F0;stroke-width:9.72"/>
	<line x1="3505.28" y1="1136.70" x2="3570.08" y2="1136.70" style="stroke:#F0F0F0;stroke-width:9.72"/>
	<line x1="3602.48" y1="1136.70" x2="3667.28" y2="1136.70" style="stroke:#F0F0F0;stroke-width:9.72"/>
	<line x1="3699.68" y1="1136.70" x2="3764.48" y2="1136.70" style="stroke:#F0F0F0;stroke-width:9.72"/>
	<line x1="3796.88" y1="1136.70" x2="3861.68" y2="1136.70" style="stroke:#F0F0F0;stroke-width:9.72"/>
	<line x1="3894.08" y1="1136.70" x2="3958.88" y2="1136.70" style="stroke:#F0F0F0;stroke-width:9.72"/>
	<line x1="3991.28" y1="1136.70" x2="4056.08" y2="1136.70" style="stroke:#F0F0F0;stroke-width:9.72"/>
	<line x1="4088.48" y1="1136.70" x2="4153.27" y2="1136.70" style="stroke:#F0F0F0;stroke-width:9.72"/>
	<line x1="4185.68" y1="1136.70" x2="4250.48" y2="1136.70" style="stroke:#F0F0F0;stroke-width:9.72"/>
	<line x1="4282.88" y1="1136.70" x2="4347.68" y2="1136.70" style="stroke:#F0F0F0;stroke-width:9.72"/>
	<line x1="4380.08" y1="1136.70" x2="4444.88" y2="1136.70" style="stroke:#F0F0F0;stroke-width:9.72"/>
	<line x1="4477.27" y1="1136.70" x2="4542.08" y2="1136.70" style="stroke:#F0F0F0;stroke-width:9.72"/>
	<line x1="4574.48" y1="1136.70" x2="4639.27" y2="1136.70" style="stroke:#F0F0F0;stroke-width:9.72"/>
	<line x1="4671.68" y1="1136.70" x2="4736.48" y2="1136.70" style="stroke:#F0F0F0;stroke-width:9.72"/>
	<line x1="4768.88" y1="1136.70" x2="4833.68" y2="1136.70" style="stroke:#F0F0F0;stroke-width:9.72"/>
	<line x1="4866.08" y1="1136.70" x2="4930.88" y2="1136.70" style="stroke:#F0F0F0;stroke-width:9.72"/>
	<line x1="4963.27" y1="1136.70" x2="5028.08" y2="1136.70" style="stroke:#F0F0F0;stroke-width:9.72"/>
	<line x1="5060.48" y1="1136.70" x2="5125.27" y2="1136.70" style="stroke:#F0F0F0;stroke-width:9.72"/>
	<line x1="5157.68" y1="1136.70" x2="5222.48" y2="1136.70" style="stroke:#F0F0F0;stroke-width:9.72"/>
	<line x1="5254.88" y1="1136.70" x2="5286.60" y2="1136.70" style="stroke:#F0F0F0;stroke-width:9.72"/>
	<line x1="492.08" y1="681.75" x2="556.88" y2="681.75" style="stroke:#F0F0F0;stroke-width:9.72"/>
	<line x1="589.28" y1="681.75" x2="654.08" y2="681.75" style="stroke:#F0F0F0;stroke-width:9.72"/>
	<line x1="686.48" y1="681.75" x2="751.28" y2="681.75" style="stroke:#F0F0F0;stroke-width:9.72"/>
	<line x1="783.68" y1="681.75" x2="848.48" y2="681.75" style="stroke:#F0F0F0;stroke-width:9.72"/>
	<line x1="880.88" y1="681.75" x2="945.68" y2="681.75" style="stroke:#F0F0F0;stroke-width:9.72"/>
	<line x1="978.08" y1="681.75" x2="1042.88" y2="681.75" style="stroke:#F0F0F0;stroke-width:9.72"/>
	<line x1="1075.28" y1="681.75" x2="1140.08" y2="681.75" style="stroke:#F0F0F0;stroke-width:9.72"/>
	<line x1="1172.47" y1="681.75" x2="1237.28" y2="681.75" style="stroke:#F0F0F0;stroke-width:9.72"/>
	<line x1="1269.68" y1="681.75" x2="1334.48" y2="681.75" style="stroke:#F0F0F0;stroke-width:9.72"/>
	<line x1="1366.88" y1="681.75" x2="1431.68" y2="681.75" style="stroke:#F0F0F0;stroke-width:9.72"/>
	<line x1="1464.08" y1="681.75" x2="1528.88" y2="681.75" style="stroke:#F0F0F0;stroke-width:9.72"/>
	<line x1="1561.28" y1="681.75" x2="1626.08" y2="681.75" style="stroke:#F0F0F0;stroke-width:9.72"/>
	<line x1="1658.48" y1="681.75" x2="1723.28" y2="681.75" style="stroke:#F0F0F0;stroke-width:9.72"/>
	<line x1="1755.68" y1="681.75" x2="1820.48" y2="681.75" style="stroke:#F0F0F0;stroke-width:9.72"/>
	<line x1="1852.88" y1="681.75" x2="1917.68" y2="681.75" style="stroke:#F0F0F0;stroke-width:9.72"/>
	<line x1="1950.08" y1="681.75" x2="2014.88" y2="681.75" style="stroke:#F0F0F0;stroke-width:9.72"/>
	<line x1="2047.28" y1="681.75" x2="2112.07" y2="681.75" style="stroke:#F0F0F0;stroke-width:9.72"/>
	<line x1="2144.48" y1="681.75" x2="2209.28" y2="681.75" style="stroke:#F0F0F0;stroke-width:9.72"/>
	<line x1="2241.68" y1="681.75" x2="2306.48" y2="681.75" style="stroke:#F0F0F0;stroke-width:9.72"/>
	<line x1="2338.88" y1="681.75" x2="2403.68" y2="681.75" style="stroke:#F0F0F0;stroke-width:9.72"/>
	<line x1="2436.07" y1="681.75" x2="2500.88" y2="681.75" style="stroke:#F0F0F0;stroke-width:9.72"/>
	<line x1="2533.28" y1="681.75" x2="2598.07" y2="681.75" style="stroke:#F0F0F0;stroke-width:9.72"/>
	<line x1="2630.48" y1="681.75" x2="2695.28" y2="681.75" style="stroke:#F0F0F0;stroke-width:9.72"/>
	<line x1="2727.68" y1="681.75" x2="2792.48" y2="681.75" style="stroke:#F0F0F0;stroke-width:9.72"/>
	<line x1="2824.88" y1="681.75" x2="2889.68" y2="681.75" style="stroke:#F0F0F0;stroke-width:9.72"/>
	<line x1="2922.08" y1="681.75" x2="2986.88" y2="681.75" style="stroke:#F0F0F0;stroke-width:9.72"/>
	<line x1="3019.28" y1="681.75" x2="3084.08" y2="681.75" style="stroke:#F0F0F0;stroke-width:9.72"/>
	<line x1="3116.48" y1="681.75" x2="3181.28" y2="681.75" style="stroke:#F0F0F0;stroke-width:9.72"/>
	<line x1="3213.68" y1="681.75" x2="3278.48" y2="681.75" style="stroke:#F0F0F0;stroke-width:9.72"/>
	<line x1="3310.88" y1="681.75" x2="3375.68" y2="681.75" style="stroke:#F0F0F0;stroke-width:9.72"/>
	<line x1="3408.08" y1="681.75" x2="3472.88" y2="681.75" style="stroke:#F0F0F0;stroke-width:9.72"/>
	<line x1="3505.28" y1="681.75" x2="3570.08" y2="681.75" style="stroke:#F0F0F0;stroke-width:9.72"/>
	<line x1="3602.48" y1="681.75" x2="3667.28" y2="681.75" style="stroke:#F0F0F0;stroke-width:9.72"/>
	<line x1="3699.68" y1="681.75" x2="3764.48" y2="681.75" style="stroke:#F0F0F0;stroke-width:9.72"/>
	<line x1="3796.88" y1="681.75" x2="3861.68" y2="681.75" style="stroke:#F0F0F0;stroke-width:9.72"/>
	<line x1="3894.08" y1="681.75" x2="3958.88" y2="681.75" style="stroke:#F0F0F0;stroke-width:9.72"/>
	<line x1="3991.28" y1="681.75" x2="4056.08" y2="681.75" style="stroke:#F0F0F0;stroke-width:9.72"/>
	<line x1="4088.48" y1="681.75" x2="4153.27" y2="681.75" style="stroke:#F0F0F0;stroke-width:9.72"/>
	<line x1="4185.68" y1="681.75" x2="4250.48" y2="681.75" style="stroke:#F0F0F0;stroke-width:9.72"/>
	<line x1="4282.88" y1="681.75" x2="4347.68" y2="681.75" style="stroke:#F0F0F0;stroke-width:9.72"/>
	<line x1="4380.08" y1="681.75" x2="4444.88" y2="681.75" style="stroke:#F0F0F0;stroke-width:9.72"/>
	<line x1="4477.27" y1="681.75" x2="4542.08" y2="681.75" style="stroke:#F0F0F0;stroke-width:9.72"/>
	<line x1="4574.48" y1="681.75" x2="4639.27" y2="681.75" style="stroke:#F0F0F0;stroke-width:9.72"/>
	<line x1="4671.68" y1="681.75" x2="4736.48" y2="681.75" style="stroke:#F0F0F0;stroke-width:9.72"/>
	<line x1="4768.88" y1="681.75" x2="4833.68" y2="681.75" style="stroke:#F0F0F0;stroke-width:9.72"/>
	<line x1="4866.08" y1="681.75" x2="4930.88" y2="681.75" style="stroke:#F0F0F0;stroke-width:9.72"/>
	<line x1="4963.27" y1="681.75" x2="5028.08" y2="681.75" style="stroke:#F0F0F0;stroke-width:9.72"/>
	<line x1="5060.48" y1="681.75" x2="5125.27" y2="681.75" style="stroke:#F0F0F0;stroke-width:9.72"/>
	<line x1="5157.68" y1="681.75" x2="5222.48" y2="681.75" style="stroke:#F0F0F0;stroke-width:9.72"/>
	<line x1="5254.88" y1="681.75" x2="5286.60" y2="681.75" style="stroke:#F0F0F0;stroke-width:9.72"/>
	<line x1="492.08" y1="226.80" x2="556.88" y2="226.80" style="stroke:#F0F0F0;stroke-width:9.72"/>
	<line x1="589.28" y1="226.80" x2="654.08" y2="226.80" style="stroke:#F0F0F0;stroke-width:9.72"/>
	<line x1="686.48" y1="226.80" x2="751.28" y2="226.80" style="stroke:#F0F0F0;stroke-width:9.72"/>
	<line x1="783.68" y1="226.80" x2="848.48" y2="226.80" style="stroke:#F0F0F0;stroke-width:9.72"/>
	<line x1="880.88" y1="226.80" x2="945.68" y2="226.80" style="stroke:#F0F0F0;stroke-width:9.72"/>
	<line x1="978.08" y1="226.80" x2="1042.88" y2="226.80" style="stroke:#F0F0F0;stroke-width:9.72"/>
	<line x1="1075.28" y1="226.80" x2="1140.08" y2="226.80" style="stroke:#F0F0F0;stroke-width:9.72"/>
	<line x1="1172.47" y1="226.80" x2="1237.28" y2="226.80" style="stroke:#F0F0F0;stroke-width:9.72"/>
	<line x1="1269.68" y1="226.80" x2="1334.48" y2="226.80" style="stroke:#F0F0F0;stroke-width:9.72"/>
	<line x1="1366.88" y1="226.80" x2="1431.68" y2="226.80" style="stroke:#F0F0F0;stroke-width:9.72"/>
	<line x1="1464.08" y1="226.80" x2="1528.88" y2="226.80" style="stroke:#F0F0F0;stroke-width:9.72"/>
	<line x1="1561.28" y1="226.80" x2="1626.08" y2="226.80" style="stroke:#F0F0F0;stroke-width:9.72"/>
	<line x1="1658.48" y1="226.80" x2="1723.28" y2="226.80" style="stroke:#F0F0F0;stroke-width:9.72"/>
	<line x1="1755.68" y1="226.80" x2="1820.48" y2="226.80" style="stroke:#F0F0F0;stroke-width:9.72"/>
	<line x1="1852.88" y1="226.80" x2="1917.68" y2="226.80" style="stroke:#F0F0F0;stroke-width:9.72"/>
	<line x1="1950.08" y1="226.80" x2="2014.88" y2="226.80" style="stroke:#F0F0F0;stroke-width:9.72"/>
	<line x1="2047.28" y1="226.80" x2="2112.07" y2="226.80" style="stroke:#F0F0F0;stroke-width:9.72"/>
	<line x1="2144.48" y1="226.80" x2="2209.28" y2="226.80" style="stroke:#F0F0F0;stroke-width:9.72"/>
	<line x1="2241.68" y1="226.80" x2="2306.48" y2="226.80" style="stroke:#F0F0F0;stroke-width:9.72"/>
	<line x1="2338.88" y1="226.80" x2="2403.68" y2="226.80" style="stroke:#F0F0F0;stroke-width:9.72"/>
	<line x1="2436.07" y1="226.80" x2="2500.88" y2="226.80" style="stroke:#F0F0F0;stroke-width:9.72"/>
	<line x1="2533.28" y1="226.80" x2="2598.07" y2="226.80" style="stroke:#F0F0F0;stroke-width:9.72"/>
	<line x1="2630.48" y1="226.80" x2="2695.28" y2="226.80" style="stroke:#F0F0F0;stroke-width:9.72"/>
	<line x1="2727.68" y1="226.80" x2="2792.48" y2="226.80" style="stroke:#F0F0F0;stroke-width:9.72"/>
	<line x1="2824.88" y1="226.80" x2="2889.68" y2="226.80" style="stroke:#F0F0F0;stroke-width:9.72"/>
	<line x1="2922.08" y1="226.80" x2="2986.88" y2="226.80" style="stroke:#F0F0F0;stroke-width:9.72"/>
	<line x1="3019.28" y1="226.80" x2="3084.08" y2="226.80" style="stroke:#F0F0F0;stroke-width:9.72"/>
	<line x1="3116.48" y1="226.80" x2="3181.28" y2="226.80" style="stroke:#F0F0F0;stroke-width:9.72"/>
	<line x1="3213.68" y1="226.80" x2="3278.48" y2="226.80" style="stroke:#F0F0F0;stroke-width:9.72"/>
	<line x1="3310.88" y1="226.80" x2="3375.68" y2="226.80" style="stroke:#F0F0F0;stroke-width:9.72"/>
	<line x1="3408.08" y1="226.80" x2="3472.88" y2="226.80" style="stroke:#F0F0F0;stroke-width:9.72"/>
	<line x1="3505.28" y1="226.80" x2="3570.08" y2="226.80" style="stroke:#F0F0F0;stroke-width:9.72"/>
	<line x1="3602.48" y1="226.80" x2="3667.28" y2="226.80" style="stroke:#F0F0F0;stroke-width:9.72"/>
	<line x1="3699.68" y1="226.80" x2="3764.48" y2="226.80" style="stroke:#F0F0F0;stroke-width:9.72"/>
	<line x1="3796.88" y1="226.80" x2="3861.68" y2="226.80" style="stroke:#F0F0F0;stroke-width:9.72"/>
	<line x1="3894.08" y1="226.80" x2="3958.88" y2="226.80" style="stroke:#F0F0F0;stroke-width:9.72"/>
	<line x1="3991.28" y1="226.80" x2="4056.08" y2="226.80" style="stroke:#F0F0F0;stroke-width:9.72"/>
	<line x1="4088.48" y1="226.80" x2="4153.27" y2="226.80" style="stroke:#F0F0F0;stroke-width:9.72"/>
	<line x1="4185.68" y1="226.80" x2="4250.48" y2="226.80" style="stroke:#F0F0F0;stroke-width:9.72"/>
	<line x1="4282.88" y1="226.80" x2="4347.68" y2="226.80" style="stroke:#F0F0F0;stroke-width:9.72"/>
	<line x1="4380.08" y1="226.80" x2="4444.88" y2="226.80" style="stroke:#F0F0F0;stroke-width:9.72"/>
	<line x1="4477.27" y1="226.80" x2="4542.08" y2="226.80" style="stroke:#F0F0F0;stroke-width:9.72"/>
	<line x1="4574.48" y1="226.80" x2="4639.27" y2="226.80" style="stroke:#F0F0F0;stroke-width:9.72"/>
	<line x1="4671.68" y1="226.80" x2="4736.48" y2="226.80" style="stroke:#F0F0F0;stroke-width:9.72"/>
	<line x1="4768.88" y1="226.80" x2="4833.68" y2="226.80" style="stroke:#F0F0F0;stroke-width:9.72"/>
	<line x1="4866.08" y1="226.80" x2="4930.88" y2="226.80" style="stroke:#F0F0F0;stroke-width:9.72"/>
	<line x1="4963.27" y1="226.80" x2="5028.08" y2="226.80" style="stroke:#F0F0F0;stroke-width:9.72"/>
	<line x1="5060.48" y1="226.80" x2="5125.27" y2="226.80" style="stroke:#F0F0F0;stroke-width:9.72"/>
	<line x1="5157.68" y1="226.80" x2="5222.48" y2="226.80" style="stroke:#F0F0F0;stroke-width:9.72"/>
	<line x1="5254.88" y1="226.80" x2="5286.60" y2="226.80" style="stroke:#F0F0F0;stroke-width:9.72"/>
	<rect x="903.15" y="1396.74" width="1487.87" height="1104.97" style="fill:#1E2D53"/>
	<rect x="906.39" y="1399.98" width="1481.39" height="1098.49" style="fill:none;stroke:#1E2D53;stroke-width:6.48"/>
	<rect x="903.15" y="226.80" width="1487.87" height="1169.94" style="fill:#90353B"/>
	<rect x="906.39" y="230.04" width="1481.39" height="1163.46" style="fill:none;stroke:#90353B;stroke-width:6.48"/>
	<rect x="3387.83" y="1505.76" width="1487.87" height="995.96" style="fill:#626C87"/>
	<rect x="3391.06" y="1509.00" width="1481.39" height="989.48" style="fill:none;stroke:#626C87;stroke-width:6.48"/>
	<rect x="3387.83" y="226.80" width="1487.87" height="1278.96" style="fill:#A5ABBA"/>
	<rect x="3391.06" y="230.04" width="1481.39" height="1272.48" style="fill:none;stroke:#A5ABBA;stroke-width:6.48"/>
	<line x1="492.08" y1="2501.72" x2="492.08" y2="113.40" style="stroke:#000000;stroke-width:6.48"/>
	<line x1="492.08" y1="2501.72" x2="447.19" y2="2501.72" style="stroke:#000000;stroke-width:6.48"/>
	<text x="424.58" y="2541.16" style="font-family:'Helvetica';font-size:112.56px;fill:#000000" text-anchor="end">0</text>
	<line x1="492.08" y1="2046.60" x2="447.19" y2="2046.60" style="stroke:#000000;stroke-width:6.48"/>
	<text x="424.58" y="2086.04" style="font-family:'Helvetica';font-size:112.56px;fill:#000000" text-anchor="end">.2</text>
	<line x1="492.08" y1="1591.65" x2="447.19" y2="1591.65" style="stroke:#000000;stroke-width:6.48"/>
	<text x="424.58" y="1631.09" style="font-family:'Helvetica';font-size:112.56px;fill:#000000" text-anchor="end">.4</text>
	<line x1="492.08" y1="1136.70" x2="447.19" y2="1136.70" style="stroke:#000000;stroke-width:6.48"/>
	<text x="424.58" y="1176.14" style="font-family:'Helvetica';font-size:112.56px;fill:#000000" text-anchor="end">.6</text>
	<line x1="492.08" y1="681.75" x2="447.19" y2="681.75" style="stroke:#000000;stroke-width:6.48"/>
	<text x="424.58" y="721.19" style="font-family:'Helvetica';font-size:112.56px;fill:#000000" text-anchor="end">.8</text>
	<line x1="492.08" y1="226.80" x2="447.19" y2="226.80" style="stroke:#000000;stroke-width:6.48"/>
	<text x="424.58" y="266.24" style="font-family:'Helvetica';font-size:112.56px;fill:#000000" text-anchor="end">1</text>
	<text x="214.55" y="1307.47" style="font-family:'Helvetica';font-size:112.56px;fill:#000000" transform="rotate(-90 214.55,1307.47)" text-anchor="middle">% of Explained Variation</text>
	<line x1="492.08" y1="2501.72" x2="5286.60" y2="2501.72" style="stroke:#000000;stroke-width:6.48"/>
	<text x="1647.00" y="2625.31" style="fill:#000000" text-anchor="middle">
		<tspan style="font-family:'Helvetica';font-size:112.56px"> R</tspan>
		<tspan dy="16.08px" style="font-family:'Helvetica';font-size:65.62px">s</tspan>
		<tspan dy="-75.04px" style="font-family:'Helvetica';font-size:65.62px">corp</tspan>
		<tspan dy="75.04px" style="font-family:'Helvetica';font-size:112.56px">/GDP</tspan>
		<tspan dy="16.08px" style="font-family:'Helvetica';font-size:65.62px">s</tspan>
	</text>
	<text x="4131.68" y="2625.31" style="font-family:'Helvetica';font-size:112.56px;fill:#000000" text-anchor="middle">Base vs Rate</text>
	<rect x="1740.66" y="2720.59" width="1918.69" height="367.20" style="fill:#FFFFFF"/>
	<rect x="1743.90" y="2723.83" width="1912.21" height="360.72" style="fill:none;stroke:#000000;stroke-width:6.48"/>
	<rect x="1789.26" y="2769.19" width="259.20" height="112.39" style="fill:#1E2D53"/>
	<rect x="1792.50" y="2772.43" width="252.72" height="105.91" style="fill:none;stroke:#1E2D53;stroke-width:6.48"/>
	<rect x="2838.54" y="2769.19" width="259.20" height="112.39" style="fill:#90353B"/>
	<rect x="2841.78" y="2772.43" width="252.72" height="105.91" style="fill:none;stroke:#90353B;stroke-width:6.48"/>
	<rect x="1789.26" y="2926.63" width="259.20" height="112.56" style="fill:#626C87"/>
	<rect x="1792.50" y="2929.87" width="252.72" height="106.08" style="fill:none;stroke:#626C87;stroke-width:6.48"/>
	<rect x="2838.54" y="2926.63" width="259.20" height="112.56" style="fill:#A5ABBA"/>
	<rect x="2841.78" y="2929.87" width="252.72" height="106.08" style="fill:none;stroke:#A5ABBA;stroke-width:6.48"/>
	<text x="2115.96" y="2853.01" style="font-family:'Helvetica';font-size:78.81px;fill:#000000">Explained</text>
	<text x="3165.24" y="2853.01" style="font-family:'Helvetica';font-size:78.81px;fill:#000000">Unexplained</text>
	<text x="2115.96" y="3010.45" style="font-family:'Helvetica';font-size:78.81px;fill:#000000">Corporate Rate</text>
	<text x="3165.24" y="3010.45" style="font-family:'Helvetica';font-size:78.81px;fill:#000000">Base Rules</text>
</svg>
